<svg width="24" height="24" viewBox="0 0 24 24" fill="none" xmlns="http://www.w3.org/2000/svg">
<g clip-path="url(#clip0_3603_3799)">
<path d="M10.4417 9.86893C10.1831 9.3933 9.5367 9.3933 9.27816 9.86893L7.61646 12.9246C7.35777 13.4003 7.68102 13.9948 8.19811 13.9948H11.5211C12.0382 13.9948 12.3614 13.4003 12.1029 12.9246L10.4417 9.86893Z" fill="#FDFFF8"/>
<path d="M22.7237 9.86132L17.2289 5.13528C16.404 4.42582 15.3072 4.03501 14.1406 4.03501C13.3936 4.03501 12.6766 4.19771 12.0399 4.4992C12.0385 4.49845 12.037 4.49755 12.0356 4.49695C10.367 3.67336 8.19671 3.8732 6.77289 5.09844L1.27794 9.82387C-0.424677 11.2883 -0.424677 13.6714 1.27794 15.1361L6.77289 19.8621C7.62441 20.5946 8.7424 20.9607 9.86096 20.9607C10.5846 20.9607 11.3072 20.8048 11.9586 20.498L11.9637 20.5004L11.9759 20.506L11.9907 20.5131C12.6394 20.8288 13.3742 20.9998 14.1404 20.9998C15.3069 20.9998 16.4037 20.6089 17.2286 19.8995L22.7234 15.1735C24.4266 13.709 24.4266 11.3258 22.7237 9.86132ZM9.8611 16.1209C9.42241 16.121 8.99988 16.2967 8.67766 16.6129C8.35545 16.9291 8.15719 17.3625 8.12238 17.827C6.13616 17.076 4.70795 15.0761 4.67736 12.7166C4.63927 9.77124 6.88701 7.24981 9.65863 7.13778C12.614 7.01838 15.0453 9.52734 15.0453 12.6394C15.0453 15.0323 13.6076 17.0677 11.5997 17.8273C11.565 17.3628 11.3668 16.9292 11.0446 16.613C10.7224 16.2967 10.2998 16.121 9.8611 16.1209ZM21.9812 14.5349L16.4864 19.2609C15.8597 19.7997 15.0267 20.0965 14.1408 20.0965C13.7234 20.0972 13.3084 20.0286 12.9109 19.8931C12.9237 19.8824 12.937 19.8729 12.9495 19.8621L12.9636 19.8498L18.444 15.1361C20.1469 13.6714 20.1469 11.2883 18.444 9.82387L12.9779 5.12249C13.355 5.00165 13.7467 4.9401 14.1405 4.93979C14.99 4.93979 15.8396 5.21798 16.4862 5.77406L21.981 10.5001C23.2743 11.6124 23.2743 13.4224 21.981 14.5349H21.9812Z" fill="#FDFFF8"/>
</g>
<defs>
<clipPath id="clip0_3603_3799">
<rect width="24" height="17" fill="white" transform="translate(0 4)"/>
</clipPath>
</defs>
</svg>
