<svg width="1440" height="899" viewBox="0 0 1440 899" fill="none" xmlns="http://www.w3.org/2000/svg">
<g clip-path="url(#clip0_3007_38014)">
<g filter="url(#filter0_b_3007_38014)">
<rect x="763.758" y="3.4873" width="1307.8" height="2831.83" fill="#71A504" fill-opacity="0.2"/>
</g>
<path d="M1440 0H0.0012207V899H1440V0Z" fill="url(#paint0_radial_3007_38014)"/>
<path opacity="0.4" d="M1440 16.6607V0H1350.8L743.538 432.015C742.421 431.719 741.269 431.465 740.084 431.232L1249.98 0H1161.11L737.104 430.725C736.155 430.577 735.207 430.45 734.225 430.344L1080.88 0H1007.39L731.854 430.112C731.042 430.048 730.263 430.006 729.45 429.985L938.88 0H873.619L727.181 429.922C726.876 429.922 726.605 429.9 726.334 429.9C725.826 429.9 725.318 429.943 724.776 429.943L810.899 0H749.397L721.83 430.027C720.475 430.112 719.155 430.239 717.834 430.408L688.099 0H626.462L715.158 430.788C714.447 430.894 713.702 431 712.991 431.127L563.64 0H498.515L711.162 431.55C710.485 431.698 709.774 431.846 709.096 432.015L429.631 0H356.039L707.301 432.543C706.624 432.734 705.913 432.945 705.235 433.156L275.708 0H186.402L702.831 434.044C702.052 434.34 701.273 434.636 700.562 434.954L85.1414 0H0.0012207V19.367L698.056 436.095C697.311 436.476 696.566 436.878 695.854 437.279L0.0012207 87.0668V146.098L693.755 438.569C693.111 438.992 692.468 439.415 691.892 439.859L0.0012207 198.744V246.548L690.47 440.958C689.962 441.381 689.42 441.804 688.912 442.248L0.0012207 290.906V332.6L687.693 443.517C687.252 443.961 686.812 444.426 686.406 444.891L0.0012207 372.497V411.273L685.017 446.709C684.441 447.513 683.967 448.316 683.493 449.162L0.0012207 449.606V487.917L682.376 451.678C682.105 452.397 681.901 453.115 681.732 453.834L0.0012207 526.714V566.59L681.326 455.674C681.224 456.308 681.19 456.942 681.156 457.598L0.0012207 608.39V652.684L681.258 459.606C681.326 460.41 681.427 461.192 681.597 461.974L0.0012207 700.679V753.282L682.206 464.152C682.545 465.167 683.019 466.139 683.527 467.112L0.0012207 812.631V880.521L685.254 469.797C685.932 470.706 686.643 471.573 687.456 472.44L86.5638 899H187.723L690.097 474.914C691.045 475.696 692.028 476.457 693.111 477.176L276.927 899H356.987L696.058 479.016C697.243 479.692 698.462 480.305 699.749 480.897L430.917 899H499.666L703.339 482.377C704.626 482.864 705.947 483.286 707.335 483.688L565.062 899H627.885L711.501 484.724C713.262 485.105 715.057 485.443 716.885 485.676L689.725 898.979H751.023L723.083 486.204C724.167 486.247 725.217 486.31 726.334 486.31C727.079 486.31 727.79 486.268 728.536 486.246L812.761 899H875.482L733.141 485.972C734.835 485.803 736.494 485.591 738.12 485.316L941.047 899H1009.8L742.556 484.407C744.046 484.048 745.469 483.646 746.857 483.223L1083.52 899H1163.82L750.921 481.764C752.513 481.13 754.037 480.432 755.459 479.671L1253.26 899H1354.56L759.354 477.324C760.607 476.478 761.758 475.612 762.876 474.681L1440 879.739V811.954L765.856 471.785C766.703 470.833 767.448 469.861 768.125 468.846L1440 752.796V700.066L769.751 465.928C770.191 464.998 770.53 464.046 770.801 463.074L1440 652.156V607.819L771.343 460.41C771.444 459.649 771.512 458.887 771.512 458.105C771.512 457.999 771.478 457.894 771.478 457.767L1439.97 566.082V526.207L771.241 455.187C771.072 454.215 770.835 453.263 770.53 452.312L1439.97 487.388V448.168L769.48 449.754C768.803 448.422 767.956 447.132 767.008 445.906L1439.97 409.73V371.059L765.281 443.855C764.569 443.115 763.824 442.396 763.045 441.698L1440 330.972V289.215L760.98 439.986C760.268 439.457 759.489 438.928 758.711 438.421L1440 244.836V196.926L756.34 437.026C755.392 436.497 754.409 436.011 753.393 435.524L1440 143.984V84.6988L750.278 434.192C749.126 433.748 747.975 433.326 746.756 432.945L1440 16.6607Z" fill="url(#paint1_radial_3007_38014)"/>
<rect width="1440" height="1024" fill="#080C01" fill-opacity="0.25"/>
</g>
<defs>
<filter id="filter0_b_3007_38014" x="589.385" y="-170.887" width="1656.55" height="3180.58" filterUnits="userSpaceOnUse" color-interpolation-filters="sRGB">
<feFlood flood-opacity="0" result="BackgroundImageFix"/>
<feGaussianBlur in="BackgroundImageFix" stdDeviation="87.1869"/>
<feComposite in2="SourceAlpha" operator="in" result="effect1_backgroundBlur_3007_38014"/>
<feBlend mode="normal" in="SourceGraphic" in2="effect1_backgroundBlur_3007_38014" result="shape"/>
</filter>
<radialGradient id="paint0_radial_3007_38014" cx="0" cy="0" r="1" gradientUnits="userSpaceOnUse" gradientTransform="translate(720.01 449.5) scale(884.24 552.036)">
<stop stop-color="#9ACD2D"/>
<stop offset="0.791667" stop-color="#71A504"/>
</radialGradient>
<radialGradient id="paint1_radial_3007_38014" cx="0" cy="0" r="1" gradientUnits="userSpaceOnUse" gradientTransform="translate(720.006 449.502) scale(720.004 449.503)">
<stop stop-color="#71A504"/>
<stop offset="0.555" stop-color="#9ACD2D"/>
</radialGradient>
<clipPath id="clip0_3007_38014">
<rect width="1440" height="899" fill="white"/>
</clipPath>
</defs>
</svg>
