<svg xmlns="http://www.w3.org/2000/svg" width="180" height="180" viewBox="0 0 180 180" fill="none">
  <g filter="url(#filter0_d_3697_8399)">
    <path d="M118.246 42.81C121.933 37.6133 127.004 33.2118 133.061 31.2236C138.571 29.4137 144.848 29.729 149.932 32.5125C155.03 35.2823 158.772 40.6024 159.251 46.3751C159.731 52.1614 156.702 58.1946 151.59 60.9232C146.465 63.6518 139.503 62.6371 135.679 58.2768C134.377 56.796 133.335 54.9312 131.54 54.1085C129.676 53.2583 127.401 53.8068 125.757 55.0134C124.126 56.2064 122.974 57.9477 121.892 59.6617C120.809 61.3757 119.713 63.1308 118.123 64.406C116.533 65.6674 114.34 66.3667 112.449 65.6263C105.268 62.8291 115.793 46.2654 118.246 42.81Z" fill="#FFC72C"/>
    <path d="M135.488 43.2624C139.366 43.3035 143.121 44.9078 146.232 47.2251C149.193 49.4327 151.728 52.4355 152.578 56.028C152.893 57.3992 152.92 58.8389 152.674 60.2375C152.317 60.4706 151.975 60.7311 151.605 60.9231C146.479 63.6517 139.517 62.6371 135.693 58.2767C134.391 56.7959 133.35 54.9311 131.554 54.1084C129.69 53.2583 127.415 53.8067 125.771 55.0134C124.14 56.2063 122.989 57.9477 121.906 59.6616C120.823 61.3756 119.727 63.1307 118.137 64.4059C116.958 65.352 115.423 65.969 113.943 65.9279C114.122 65.4205 114.286 64.9543 114.409 64.5567C115.026 62.5274 115.711 60.5117 116.547 58.551C118.233 54.5883 120.563 50.8313 123.784 47.9655C127.004 45.1135 131.198 43.2076 135.501 43.2487L135.488 43.2624Z" fill="#E98F2F"/>
    <path d="M57.6015 44.4012C57.0944 38.0389 58.1771 31.4299 61.5486 26.0138C64.6185 21.0913 69.6345 17.3205 75.322 16.1825C81.0096 15.0444 87.2865 16.7172 91.3568 20.8582C95.4272 24.9991 96.9759 31.567 94.7968 36.942C92.6177 42.317 86.6149 46.0054 80.8863 45.1142C78.9264 44.8125 76.9392 44.0447 75.0342 44.5657C73.0607 45.1142 71.6765 46.9927 71.1694 48.9809C70.6761 50.9417 70.9227 53.0121 71.1831 55.0277C71.4435 57.0434 71.7313 59.0864 71.3339 61.0746C70.9227 63.0628 69.6756 65.0099 67.7569 65.6543C60.4522 68.1224 57.9304 48.6381 57.6015 44.4149V44.4012Z" fill="#FFC72C"/>
    <path d="M71.1286 33.6923C74.13 31.2379 78.0359 30.0587 81.9144 29.853C85.601 29.6473 89.4658 30.3329 92.4261 32.5542C93.5499 33.3906 94.4955 34.4876 95.1945 35.7216C95.0711 36.133 94.9752 36.5443 94.8107 36.942C92.6317 42.317 86.6289 46.0054 80.9002 45.1142C78.9404 44.8125 76.9532 44.0446 75.0482 44.5657C73.0747 45.1142 71.6905 46.9927 71.1834 48.9809C70.69 50.9416 70.9367 53.0121 71.1971 55.0277C71.4575 57.0434 71.7453 59.0864 71.3479 61.0746C71.0463 62.5555 70.2652 64.0089 69.1002 64.9276C68.9084 64.4203 68.7439 63.9541 68.5794 63.5701C67.7434 61.6094 66.9897 59.6212 66.3729 57.5781C65.1395 53.4509 64.5091 49.0768 65.1532 44.8262C65.7973 40.5619 67.7983 36.4209 71.1286 33.6923Z" fill="#E98F2F"/>
    <path d="M25.3678 97.6852C21.6949 133.994 50.3657 159.964 86.6427 163.652C122.933 167.327 161.828 151.737 156.771 110.999C158.882 66.1345 126.894 53.9722 90.6034 50.2975C54.3127 46.6227 29.0407 61.3766 25.3678 97.6852Z" fill="#FFC72C"/>
    <g style="mix-blend-mode:soft-light" opacity="0.7">
      <path d="M73.3628 21.8729C74.2263 20.584 75.6242 19.7339 77.0221 19.1854C80.4072 17.8828 84.1761 18.1159 87.0678 19.8299C89.2058 21.0914 92.3579 24.2999 92.0153 27.2754C91.6041 30.717 86.78 30.2508 84.7517 29.7298C81.7777 28.9619 78.8174 28.1803 75.8434 27.4125C74.843 27.1519 73.8014 26.864 73.1573 26.0687C72.2801 24.9718 72.4857 23.1756 73.3628 21.8867V21.8729Z" fill="white"/>
    </g>
    <g style="mix-blend-mode:soft-light" opacity="0.7">
      <path d="M140.271 35.2419C141.518 34.3095 143.108 33.9805 144.615 33.9256C148.247 33.8159 151.728 35.2968 153.88 37.8746C155.483 39.7805 157.388 43.8529 156.073 46.5404C154.538 49.653 150.139 47.6099 148.398 46.4307C145.849 44.7167 143.313 42.9891 140.764 41.2751C139.915 40.6992 139.024 40.0685 138.681 39.1086C138.215 37.7923 139.01 36.1606 140.257 35.2282L140.271 35.2419Z" fill="white"/>
    </g>
    <g style="mix-blend-mode:soft-light" opacity="0.7">
      <path d="M87.0816 102.813C87.5065 101.991 88.2328 101.415 88.9729 101.017C90.7546 100.057 92.7692 100.003 94.359 100.88C95.5376 101.525 97.3055 103.28 97.1959 105.076C97.0725 107.16 94.4686 107.133 93.3722 106.913C91.7687 106.598 90.1652 106.296 88.5481 105.981C88.0136 105.871 87.438 105.762 87.0816 105.309C86.5883 104.706 86.6568 103.609 87.0816 102.8V102.813Z" fill="white"/>
    </g>
    <path d="M29.2604 113.839C27.4924 114.058 25.8067 115.196 25.1626 116.855L25.5875 118.268C26.3275 122.011 27.6569 125.631 29.5071 128.963C30.3294 130.43 31.3298 131.925 32.8648 132.61C34.8383 133.488 37.3052 132.747 38.7305 131.129C40.1558 129.511 40.6355 127.208 40.3477 125.069C40.0599 122.93 39.0731 120.942 37.8945 119.132C36.9077 117.651 35.7565 116.238 34.2901 115.224C32.8237 114.209 31.0283 113.606 29.2604 113.825V113.839Z" fill="#E98F2F" stroke="#E98F2F" stroke-width="1.2766" stroke-linecap="round" stroke-linejoin="round"/>
    <path d="M19.7489 112.729C18.351 113.305 17.2272 114.758 17.4053 116.321C17.5972 118.035 19.187 118.707 20.1874 119.886C21.7498 121.737 19.0773 123.972 17.5835 124.768C15.8293 125.714 13.8832 125.549 12.0604 126.235C10.2376 126.907 9.10013 128.689 9.5524 130.636C9.85391 131.911 10.8544 132.83 12.0467 133.187C11.4848 134.311 11.3752 135.614 11.9234 136.834C12.5812 138.274 14.0476 139.179 15.5826 139.275C15.6511 141.551 17.9672 143.292 20.1189 142.332C21.092 143.896 23.2162 144.362 25.0116 143.95C27.3825 143.416 29.5753 142.003 31.3159 140.33C38.7166 133.214 35.5096 122.066 28.6297 115.924C26.3821 113.922 22.8873 111.426 19.7215 112.729H19.7489Z" fill="white"/>
    <path d="M20.2563 142.154C23.5455 140.426 26.2728 137.615 27.89 134.27" stroke="#E98F2F" stroke-width="1.2766" stroke-linecap="round" stroke-linejoin="round"/>
    <path d="M15.6919 139.358C18.9126 138.275 21.681 135.889 23.2159 132.858" stroke="#E98F2F" stroke-width="1.2766" stroke-linecap="round" stroke-linejoin="round"/>
    <path d="M11.896 133.105C15.0481 132.2 17.9399 130.404 20.1327 127.963" stroke="#E98F2F" stroke-width="1.2766" stroke-linecap="round" stroke-linejoin="round"/>
    <path d="M21.3389 125.782C23.2576 129.155 26.4508 131.774 30.1375 132.995" stroke="#E98F2F" stroke-width="1.2766" stroke-linecap="round" stroke-linejoin="round"/>
    <path d="M152.235 119.722C154.003 119.969 155.675 121.121 156.292 122.793L155.839 124.206C155.045 127.935 153.674 131.541 151.769 134.846C150.933 136.299 149.905 137.78 148.357 138.452C146.369 139.302 143.916 138.521 142.518 136.889C141.12 135.257 140.668 132.94 140.983 130.801C141.299 128.662 142.313 126.688 143.532 124.905C144.533 123.438 145.712 122.053 147.192 121.052C148.672 120.065 150.481 119.489 152.249 119.736L152.235 119.722Z" fill="#E98F2F" stroke="#E98F2F" stroke-width="1.2766" stroke-linecap="round" stroke-linejoin="round"/>
    <path d="M152.824 121.82C145.862 127.853 142.491 138.974 149.782 146.186C151.495 147.886 153.674 149.326 156.031 149.902C157.813 150.327 159.951 149.902 160.951 148.352C163.089 149.34 165.433 147.639 165.529 145.363C167.064 145.281 168.558 144.403 169.229 142.977C169.791 141.771 169.709 140.454 169.161 139.33C170.353 139.001 171.381 138.096 171.696 136.821C172.189 134.887 171.066 133.091 169.256 132.378C167.447 131.679 165.501 131.802 163.761 130.842C162.281 130.02 159.636 127.744 161.239 125.92C162.253 124.754 163.857 124.11 164.076 122.396C164.268 120.833 163.171 119.366 161.774 118.776C158.635 117.419 155.099 119.873 152.824 121.848V121.82Z" fill="white"/>
    <path d="M160.842 148.173C157.566 146.39 154.894 143.552 153.318 140.179" stroke="#E98F2F" stroke-width="1.2766" stroke-linecap="round" stroke-linejoin="round"/>
    <path d="M165.447 145.445C162.24 144.307 159.512 141.88 158.019 138.836" stroke="#E98F2F" stroke-width="1.2766" stroke-linecap="round" stroke-linejoin="round"/>
    <path d="M169.325 139.233C166.186 138.287 163.322 136.436 161.157 133.981" stroke="#E98F2F" stroke-width="1.2766" stroke-linecap="round" stroke-linejoin="round"/>
    <path d="M159.992 131.789C158.018 135.135 154.784 137.699 151.097 138.878" stroke="#E98F2F" stroke-width="1.2766" stroke-linecap="round" stroke-linejoin="round"/>
    <path d="M36.9633 79.4636C35.8532 90.3919 44.1173 97.1929 55.0539 98.3035C65.9767 99.4142 75.4468 94.4094 76.5432 83.4675C77.6533 72.5392 69.5263 64.4219 58.5897 63.3112C47.6669 62.2006 38.0734 68.5217 36.9633 79.4499V79.4636Z" fill="white"/>
    <path d="M43.9253 78.9285C43.0619 87.4846 48.7632 95.0672 56.6572 95.8625C64.5513 96.6578 71.6642 90.3778 72.5276 81.8217C73.391 73.2656 67.5116 67.4655 59.6175 66.6702C51.7234 65.875 44.8024 70.3724 43.9253 78.9285Z" fill="#5F5FC0"/>
    <path d="M46.8311 79.0791C46.1459 85.9076 50.6822 91.9545 56.9865 92.5989C63.2908 93.2434 68.951 88.2249 69.6499 81.3964C70.3352 74.568 65.6481 69.9471 59.3438 69.3164C53.0395 68.6857 47.5164 72.2644 46.8311 79.0929V79.0791Z" fill="#232323"/>
    <path d="M41.9657 74.9926C41.7738 76.8574 43.1032 78.5165 44.926 78.6948C46.7487 78.8867 48.3933 77.5156 48.5715 75.6508C48.7633 73.786 47.434 72.1269 45.6112 71.9486C43.7884 71.7566 42.1438 73.1278 41.9657 74.9926Z" fill="white"/>
    <path d="M107.859 85.866C106.749 96.7942 115.013 103.595 125.95 104.706C136.873 105.817 146.343 100.812 147.439 89.8698C148.549 78.9416 140.422 70.8242 129.486 69.7136C118.563 68.6029 108.969 74.924 107.859 85.8523V85.866Z" fill="white"/>
    <path d="M114.657 85.3173C113.793 93.8734 119.563 101.47 127.54 102.279C135.529 103.088 142.697 96.8077 143.561 88.2516C144.424 79.6955 138.476 73.8954 130.486 73.0865C122.496 72.2775 115.507 76.7612 114.643 85.3173H114.657Z" fill="#5F5FC0"/>
    <path d="M117.59 85.4678C116.904 92.2962 121.496 98.3568 127.868 99.0012C134.241 99.6457 139.956 94.6409 140.655 87.8125C141.34 80.984 136.598 76.3632 130.226 75.7187C123.853 75.0743 118.275 78.653 117.59 85.4815V85.4678Z" fill="#232323"/>
    <path d="M139.202 86.5782C139.01 88.443 140.449 90.1158 142.423 90.3078C144.396 90.5135 146.137 89.156 146.329 87.2912C146.521 85.4264 145.082 83.7536 143.108 83.5616C141.135 83.3559 139.394 84.7134 139.202 86.5782Z" fill="white"/>
    <path d="M144.835 104.075C144.437 108.011 148.549 111.658 154.031 112.206C159.499 112.755 164.268 110.012 164.666 106.077C165.063 102.142 159.896 99.3173 154.414 98.7551C148.946 98.2067 145.232 100.126 144.835 104.062V104.075Z" fill="#D24C79"/>
    <path d="M17.9399 95.5602C17.474 100.099 21.5717 104.226 27.0948 104.788C32.6042 105.35 37.4421 102.128 37.908 97.5895C38.374 93.051 33.1935 89.8836 27.6841 89.3214C22.1748 88.7592 18.4059 91.0353 17.9536 95.5739L17.9399 95.5602Z" fill="#D24C79"/>
    <path d="M79.2012 98.18C84.5324 92.9696 90.59 88.2939 96.1131 89.1989C100.485 89.9119 103.993 94.3545 105.117 100.593" stroke="#232323" stroke-width="1.2766" stroke-linecap="round" stroke-linejoin="round"/>
    <path d="M99.4571 80.9981C98.9089 83.2468 94.8111 83.9049 92.5635 83.3702C90.3159 82.8217 87.6708 80.3536 88.219 78.1049C88.7672 75.8562 92.3305 75.9247 94.5781 76.4732C96.8258 77.0217 99.9916 78.7493 99.4571 80.9981Z" fill="#E98F2F"/>
  </g>
  <defs>
    <filter id="filter0_d_3697_8399" x="-10.2129" y="-3.8296" width="201.702" height="187.659" filterUnits="userSpaceOnUse" color-interpolation-filters="sRGB">
      <feFlood flood-opacity="0" result="BackgroundImageFix"/>
      <feColorMatrix in="SourceAlpha" type="matrix" values="0 0 0 0 0 0 0 0 0 0 0 0 0 0 0 0 0 0 127 0" result="hardAlpha"/>
      <feOffset/>
      <feGaussianBlur stdDeviation="9.57447"/>
      <feComposite in2="hardAlpha" operator="out"/>
      <feColorMatrix type="matrix" values="0 0 0 0 0.0313726 0 0 0 0 0.0470588 0 0 0 0 0.00392157 0 0 0 0.25 0"/>
      <feBlend mode="normal" in2="BackgroundImageFix" result="effect1_dropShadow_3697_8399"/>
      <feBlend mode="normal" in="SourceGraphic" in2="effect1_dropShadow_3697_8399" result="shape"/>
    </filter>
  </defs>
</svg>