<svg width="373" height="120" viewBox="0 0 373 120" fill="none" xmlns="http://www.w3.org/2000/svg">
<path d="M26.4165 33.8921L105.401 68.4109L102.106 77.4352L26.4165 52.1256V33.8921Z" fill="url(#paint0_linear_3805_2238)"/>
<path d="M3.15479 80.1091L99.598 91.7205L95.1202 83.3409L20.6199 65.3584L3.15479 80.1091Z" fill="url(#paint1_linear_3805_2238)"/>
<path style="mix-blend-mode:overlay" opacity="0.24" d="M3.15479 80.1091L99.598 91.7205L95.1202 83.3409L20.6199 65.3584L3.15479 80.1091Z" fill="url(#paint2_radial_3805_2238)"/>
<path d="M42.6499 48.7617L105.544 74.4168L102.76 89.991L31.3241 76.7005L26.2798 58.8506L42.6499 48.7617Z" fill="url(#paint3_linear_3805_2238)"/>
<path d="M42.6501 48.7613L31.7947 60.7905L31.3243 76.7001L19.432 71.3975L3.15596 80.1106L9.23721 63.3473L0.553711 53.5918L16.5996 49.2353L26.416 33.8921L30.8519 48.2873L42.6501 48.7613Z" fill="url(#paint4_linear_3805_2238)"/>
<path style="mix-blend-mode:screen" d="M9.23721 63.3493L3.15596 80.1106L19.43 71.3975L31.3243 76.7001L31.7947 60.7905L42.6501 48.7613L30.8519 48.2853L26.416 33.8921L16.6076 49.2353L0.553711 53.5918L9.23721 63.3493ZM10.9727 63.0139L3.3241 54.4174L17.5684 50.5509L25.9376 37.4713L29.7269 49.7676L39.3552 50.1532L30.3034 60.1839L29.873 74.3963L19.37 69.7044L5.93636 76.8949L10.9727 63.0139Z" fill="url(#paint5_radial_3805_2238)"/>
<g style="mix-blend-mode:overlay" opacity="0.24">
<mask id="mask0_3805_2238" style="mask-type:luminance" maskUnits="userSpaceOnUse" x="31" y="48" width="75" height="35">
<path d="M31.7969 60.8006L103.963 82.3282L105.547 74.4266L42.6522 48.7715L31.7969 60.8006Z" fill="white"/>
</mask>
<g mask="url(#mask0_3805_2238)">
<path d="M105.544 48.772H31.7959V82.3286H105.544V48.772Z" fill="#120028"/>
<path d="M31.5955 62.819V75.6737H30.8989C31.2853 76.0091 31.6856 76.3365 32.1 76.6598C33.8582 78.0123 35.734 79.2035 37.7048 80.219C39.8842 81.3413 42.1429 82.3013 44.4626 83.0912V82.5248H91.165V82.9426C92.4301 82.5167 93.6551 82.0588 94.8401 81.5687C97.1095 80.6416 99.3074 79.5473 101.416 78.2948C103.325 77.1625 105.129 75.8597 106.804 74.4022H105.746V48.5664H31.5955V62.819Z" fill="#120028"/>
<path d="M31.5949 62.7863V74.3234H30.7622C31.4808 75.0162 32.2359 75.6699 33.0242 76.2817C34.74 77.6008 36.571 78.7617 38.4949 79.7504C40.6196 80.8462 42.8221 81.7828 45.0846 82.5523V82.5262H86.8026V83.5566C92.0191 82.1506 96.6971 80.2144 100.604 77.8745C102.466 76.7712 104.225 75.5013 105.859 74.0803H105.745V48.5719H33.3965V47.8428C32.9841 48.1702 32.5838 48.5036 32.1954 48.847C31.8071 49.1905 31.4408 49.5299 31.0825 49.8774H31.5909L31.5949 62.7863Z" fill="#120028"/>
<path d="M31.5962 62.7526V72.9961H30.7695C31.0798 73.3356 31.4061 73.669 31.7444 74.0004C32.4439 74.6747 33.1789 75.311 33.9463 75.9065C35.6177 77.1931 37.4019 78.3252 39.2769 79.2889C41.3475 80.3556 43.4939 81.2672 45.6984 82.0165C46.8501 82.4182 48.0378 82.7824 49.2615 83.1091V82.5327H86.3495V82.9966C91.4319 81.6308 95.9898 79.7408 99.7971 77.4611C101.611 76.3855 103.324 75.1479 104.916 73.7634C105.646 73.1229 106.342 72.443 106.999 71.7267H105.746V48.9218H106.317C105.976 48.5924 105.623 48.269 105.256 47.9516V48.5662H35.5537V47.2446C34.6983 47.8619 33.8976 48.5 33.1516 49.1588C32.4207 49.7992 31.7251 50.4791 31.0678 51.1954H31.6023L31.5962 62.7526Z" fill="#120028"/>
<path d="M31.5948 62.7157V71.6798H30.9102C33.1021 74.4014 36.2268 76.8116 40.0601 78.8201C43.8934 80.8287 48.4353 82.3833 53.4557 83.4097V82.5339H82.0804V83.3373C83.3802 83.0695 84.6479 82.7703 85.8837 82.4395C90.8319 81.1099 95.2718 79.2701 98.977 77.0486C100.743 76.0021 102.411 74.7974 103.961 73.4493C104.673 72.8259 105.351 72.1641 105.991 71.4669H105.745V50.2266H106.283C105.98 49.8972 105.664 49.5718 105.334 49.2504C104.652 48.5943 103.936 47.9748 103.189 47.3945V48.5655H36.433V47.6175C35.6016 48.2174 34.8202 48.8387 34.0889 49.4814C32.6958 50.6901 31.4464 52.0563 30.3657 53.5527H31.5948V62.7157Z" fill="#120028"/>
<path d="M31.5956 62.682V69.3624H30.5146C30.9413 70.0754 31.4175 70.7573 31.9399 71.403C34.0737 74.0523 37.1143 76.4023 40.8456 78.3425C44.5768 80.2828 48.9926 81.8073 53.8768 82.8075V82.5243H77.8655V83.4041C80.4145 83.0365 82.9397 82.5187 85.4281 81.8535C90.2442 80.562 94.5619 78.7704 98.1691 76.6092C101.776 74.448 104.671 71.9192 106.64 69.1474H105.746V51.5044H106.12C104.983 50.1142 103.69 48.8606 102.267 47.7686V48.5599H37.3145V47.9855C36.5138 48.57 35.7432 49.1745 35.0346 49.7932C33.6779 50.9688 32.4621 52.2987 31.4114 53.756H31.5956V62.682Z" fill="#120028"/>
<path d="M31.595 62.6518V67.0706H30.5501C31.151 68.5389 31.9667 69.909 32.9702 71.1359C35.044 73.7108 38.0005 75.9966 41.6277 77.8806C48.8799 81.6506 58.8065 83.8198 69.6899 83.4904C80.5733 83.161 90.3538 80.3993 97.3658 76.1974C100.873 74.0965 103.687 71.636 105.603 68.9406C106.072 68.2837 106.495 67.5944 106.868 66.8778H105.745V53.7741H106.476C106.059 53.0813 105.596 52.4183 105.088 51.7896C103.984 50.4382 102.727 49.2196 101.343 48.1582V48.57H38.1867V48.3691C37.4007 48.9368 36.6614 49.5253 35.9688 50.1346C34.6504 51.2768 33.4688 52.5689 32.4478 53.985C31.5191 55.2699 30.7871 56.6868 30.2759 58.1888H31.587L31.595 62.6518Z" fill="#120028"/>
<path d="M30.7425 62.6152C31.0968 74.4314 48.5258 83.504 69.6721 82.8552C80.2452 82.5359 89.7454 79.8424 96.5573 75.7691C99.9602 73.7284 102.699 71.3382 104.564 68.7211C105.467 67.4733 106.178 66.0969 106.674 64.6378H105.745V56.0131H106.41C105.827 54.5862 105.034 53.2552 104.058 52.0643C102.985 50.7511 101.764 49.5675 100.419 48.5373V48.5674H40.2567V47.9287C39.8564 48.1965 39.4627 48.4643 39.0757 48.7321C38.313 49.2845 37.5924 49.8569 36.9218 50.4474C35.6414 51.5574 34.4935 52.8124 33.5009 54.1873C31.6393 56.8145 30.6524 59.6606 30.7425 62.6152Z" fill="#120028"/>
<path d="M31.8691 62.5798C32.2134 74.0486 49.13 82.8439 69.6537 82.2233C90.1775 81.6027 106.538 71.803 106.193 60.3302C106.107 57.464 104.992 54.7626 103.031 52.3362C101.988 51.0652 100.802 49.9194 99.4975 48.9217C98.8129 48.3861 98.0843 47.8746 97.3116 47.3872V48.5722H42.3141V47.568C35.7004 51.5288 31.697 56.8454 31.8691 62.5798Z" fill="#120027"/>
<path d="M32.9944 62.5582C33.3287 73.6794 49.7328 82.2077 69.626 81.6072C89.5192 81.0066 105.391 71.5022 105.057 60.3809C104.975 57.6011 103.886 54.982 101.99 52.6279C100.983 51.3905 99.8363 50.2743 98.573 49.3018C97.9058 48.7863 97.1985 48.2902 96.4512 47.8135V48.5727H43.1211V47.9942C36.7096 51.8346 32.8282 56.9905 32.9944 62.5582Z" fill="#120027"/>
<path d="M34.1192 62.5105C34.4435 73.2843 50.3332 81.5474 69.6158 80.9649C88.8985 80.3824 104.262 71.1753 103.939 60.4015C103.857 57.7081 102.804 55.1793 100.967 52.8916C99.9888 51.6953 98.8758 50.6168 97.65 49.6779C97.0081 49.1785 96.3229 48.6984 95.5943 48.2378V48.5692H43.9316V48.4125C37.7203 52.1283 33.959 57.1276 34.1192 62.5105Z" fill="#120027"/>
<path d="M35.2465 62.478C35.5588 72.9043 50.9381 80.9003 69.5962 80.3359C88.2543 79.7715 103.125 70.8637 102.813 60.4373C102.657 55.2151 98.7333 50.6176 92.518 47.3818V48.5629H47.1028V47.5345C46.2807 47.9442 45.4934 48.3747 44.7407 48.826C38.7295 52.4313 35.0904 57.2659 35.2465 62.478Z" fill="#110027"/>
<path d="M36.3729 62.4447C36.6752 72.5235 51.54 80.2524 69.5776 79.7181C87.6151 79.1838 101.99 70.5612 101.687 60.4823C101.535 55.4429 97.7439 50.99 91.7347 47.8667V48.5777H47.8328V48.0133C47.0321 48.415 46.2755 48.8268 45.5508 49.2626C39.7398 52.7334 36.2208 57.4053 36.3729 62.4447Z" fill="#110026"/>
<path d="M37.4962 62.4097C37.7885 72.1411 52.1429 79.6048 69.5559 79.0806C86.9689 78.5564 100.851 70.243 100.559 60.5076C100.413 55.641 96.7554 51.3427 90.9504 48.3279V48.5689H50.9599V47.3818C49.3709 48.0305 47.832 48.7965 46.3559 49.6736C40.747 53.0339 37.3501 57.545 37.4962 62.4097Z" fill="#110026"/>
<path d="M38.6231 62.3767C38.9033 71.7606 52.7453 78.9572 69.5378 78.445C86.3303 77.9328 99.7138 69.9248 99.4376 60.5449C99.2975 55.8529 95.7664 51.7073 90.1716 48.7989C89.4723 48.4347 88.7417 48.0913 87.9797 47.7686V48.572H51.5963V47.8911C50.0648 48.5169 48.5815 49.2553 47.1585 50.1005C41.7578 53.3342 38.481 57.6847 38.6231 62.3767Z" fill="#110025"/>
<path d="M39.7483 62.3528C40.0205 71.3912 53.348 78.3186 69.518 77.8306C85.6879 77.3425 98.5771 69.6217 98.3068 60.5853C98.1707 56.066 94.7718 52.0751 89.3831 49.2752C87.9675 48.5437 86.4995 47.9193 84.9913 47.4072V48.5782H52.2511V48.3954C50.7765 48.9993 49.3481 49.7109 47.9774 50.5245C42.7669 53.6357 39.6141 57.8255 39.7483 62.3528Z" fill="#110025"/>
<path d="M40.8761 62.3094C41.1363 70.9984 53.9514 77.6627 69.5008 77.1927C85.0502 76.7227 97.4369 69.2991 97.1807 60.6102C97.0506 56.2657 93.7778 52.4274 88.6013 49.7339C87.2394 49.0318 85.8277 48.4316 84.3777 47.9383V48.569H57.6346V47.2896C54.5357 48.0942 51.5615 49.3215 48.7949 50.9371C43.7786 53.9378 40.746 57.9669 40.8761 62.3094Z" fill="#100024"/>
<path d="M42.0023 62.2787C42.2526 70.6181 54.5572 77.0153 69.4821 76.5634C84.407 76.1115 96.3052 68.9852 96.057 60.6457C95.9309 56.474 92.7922 52.7903 87.8199 50.2013C85.0739 48.8135 82.1506 47.8112 79.1324 47.2227V48.5664H58.0922V47.8594C55.114 48.6295 52.2555 49.8068 49.5969 51.3582C44.7928 54.2405 41.8782 58.1069 42.0023 62.2787Z" fill="#100024"/>
<path d="M43.1278 62.2448C43.368 70.2368 55.1581 76.3669 69.4625 75.935C83.7668 75.5032 95.1687 68.6722 94.9285 60.6701C94.8084 56.6751 91.8018 53.1441 87.0357 50.6656C84.404 49.3364 81.6027 48.3767 78.7105 47.8135V48.5627H58.5471V48.4221C55.6933 49.1595 52.954 50.2868 50.406 51.7723C45.7921 54.5421 43.0077 58.2478 43.1278 62.2448Z" fill="#100023"/>
<path d="M69.4383 75.3086C83.1208 74.8963 94.0271 68.3636 93.7982 60.7174C93.5694 53.0712 82.2921 47.207 68.6097 47.6193C54.9272 48.0315 44.0209 54.5642 44.2498 62.2104C44.4786 69.8566 55.7559 75.7208 69.4383 75.3086Z" fill="#0F0022"/>
<path d="M69.4196 74.6794C82.4799 74.2858 92.8904 68.0506 92.6719 60.7526C92.4535 53.4545 81.689 47.8573 68.6287 48.2509C55.5684 48.6444 45.158 54.8796 45.3764 62.1776C45.5948 69.4757 56.3593 75.0729 69.4196 74.6794Z" fill="#0F0021"/>
<path d="M69.4011 74.0508C81.8392 73.676 91.7537 67.7373 91.5457 60.7863C91.3377 53.8353 81.0859 48.5043 68.6478 48.879C56.2096 49.2538 46.2951 55.1925 46.5031 62.1435C46.7111 69.0945 56.9629 74.4255 69.4011 74.0508Z" fill="#0F0020"/>
<path d="M69.3826 73.4216C81.1997 73.0655 90.6192 67.4234 90.4216 60.8194C90.2239 54.2155 80.484 49.1506 68.6669 49.5067C56.8497 49.8627 47.4302 55.5049 47.6279 62.1088C47.8255 68.7128 57.5654 73.7777 69.3826 73.4216Z" fill="#0E001F"/>
<path d="M69.3639 72.7919C80.5589 72.4546 89.4825 67.1099 89.2953 60.8541C89.108 54.5983 79.8809 49.8005 68.6859 50.1378C57.4909 50.4751 48.5673 55.8198 48.7545 62.0756C48.9417 68.3314 58.1688 73.1292 69.3639 72.7919Z" fill="#0E001E"/>
<path d="M69.3463 72.1628C79.9192 71.8443 88.3468 66.796 88.17 60.8873C87.9932 54.9786 79.2788 50.4469 68.7059 50.7655C58.133 51.084 49.7054 56.1322 49.8822 62.041C50.059 67.9497 58.7734 72.4814 69.3463 72.1628Z" fill="#0D001D"/>
<path d="M69.3266 71.5332C79.2774 71.2333 87.2092 66.4825 87.0427 60.922C86.8763 55.3614 78.6747 51.0967 68.724 51.3966C58.7732 51.6964 50.8414 56.4472 51.0079 62.0077C51.1743 67.5683 59.3758 71.833 69.3266 71.5332Z" fill="#0D001C"/>
<path d="M69.3075 70.9011C78.6362 70.6201 86.072 66.1658 85.916 60.9523C85.76 55.7388 78.0712 51.7403 68.7425 52.0213C59.4139 52.3024 51.978 56.7567 52.1341 61.9702C52.2901 67.1837 59.9789 71.1822 69.3075 70.9011Z" fill="#0C001B"/>
<path d="M69.287 70.2689C77.9946 70.0066 84.9354 65.8497 84.7898 60.9844C84.6442 56.119 77.4673 52.3876 68.7597 52.6499C60.0521 52.9123 53.1112 57.0691 53.2568 61.9345C53.4024 66.7999 60.5793 70.5313 69.287 70.2689Z" fill="#0B0019"/>
<path d="M69.2684 69.6433C77.3539 69.3996 83.7988 65.5393 83.6636 61.021C83.5284 56.5027 76.8642 53.0374 68.7787 53.2811C60.6932 53.5247 54.2483 57.385 54.3835 61.9033C54.5187 66.4216 61.1829 69.8869 69.2684 69.6433Z" fill="#0B0018"/>
<path d="M69.2497 69.0146C76.713 68.7897 82.6621 65.2268 82.5373 61.0567C82.4125 56.8865 76.2611 53.6883 68.7978 53.9131C61.3344 54.138 55.3853 57.7009 55.5101 61.871C55.6349 66.0412 61.7864 69.2394 69.2497 69.0146Z" fill="#0A0016"/>
<path d="M69.2341 68.3855C76.0753 68.1793 81.5284 64.913 81.414 61.0899C81.2996 57.2668 75.6609 54.3347 68.8197 54.5408C61.9785 54.747 56.5254 58.0133 56.6398 61.8364C56.7542 65.6595 62.3928 68.5916 69.2341 68.3855Z" fill="#090015"/>
<path d="M69.2155 67.7564C75.4346 67.569 80.3918 64.5992 80.2878 61.1232C80.1838 57.6471 75.0579 54.9811 68.8388 55.1685C62.6197 55.3559 57.6625 58.3257 57.7665 61.8017C57.8705 65.2778 62.9964 67.9438 69.2155 67.7564Z" fill="#090013"/>
<path d="M69.1953 67.1277C74.7923 66.959 79.2536 64.2867 79.16 61.1588C79.0664 58.0309 74.4533 55.632 68.8564 55.8006C63.2594 55.9692 58.7981 58.6416 58.8917 61.7695C58.9853 64.8974 63.5984 67.2963 69.1953 67.1277Z" fill="#080011"/>
<path d="M69.1739 66.4956C74.1498 66.3457 78.1161 63.9698 78.0329 61.189C77.9497 58.4081 73.8484 56.2754 68.8725 56.4253C63.8966 56.5752 59.9303 58.9511 60.0135 61.7319C60.0967 64.5128 64.198 66.6455 69.1739 66.4956Z" fill="#070010"/>
<path d="M69.1864 65.8983C73.5422 65.7672 77.0143 63.688 76.9415 61.2542C76.8687 58.8204 73.2787 56.9537 68.9229 57.0849C64.5672 57.216 61.0951 59.2952 61.1679 61.729C61.2407 64.1628 64.8307 66.0294 69.1864 65.8983Z" fill="#06000E"/>
<path d="M69.1366 65.2393C72.8683 65.1268 75.8428 63.3449 75.7804 61.2593C75.718 59.1737 72.6423 57.5741 68.9106 57.6865C65.1789 57.799 62.2044 59.5809 62.2668 61.6665C62.3292 63.7521 65.405 65.3517 69.1366 65.2393Z" fill="#05000C"/>
<path d="M69.1199 64.6101C72.2294 64.5164 74.7081 63.0319 74.6561 61.2945C74.6041 59.557 72.0411 58.2245 68.9316 58.3181C65.822 58.4118 63.3434 59.8963 63.3954 61.6338C63.4474 63.3712 66.0103 64.7038 69.1199 64.6101Z" fill="#040009"/>
<path d="M64.5256 61.5958C64.5676 62.9857 66.6174 64.0523 69.1055 63.9759C71.5937 63.8996 73.5754 62.7126 73.5333 61.3227C73.4913 59.9328 71.4415 58.8662 68.9534 58.9385C66.4652 59.0108 64.4835 60.2059 64.5256 61.5958Z" fill="#030007"/>
<path d="M69.0807 63.3528C70.946 63.2966 72.4328 62.4061 72.4016 61.3638C72.3704 60.3216 70.833 59.5222 68.9677 59.5784C67.1024 59.6346 65.6156 60.5251 65.6468 61.5674C65.678 62.6096 67.2154 63.409 69.0807 63.3528Z" fill="#020005"/>
<path d="M69.0626 62.7236C70.3069 62.6861 71.2987 62.0922 71.2779 61.3969C71.2571 60.7017 70.2316 60.1686 68.9873 60.206C67.743 60.2435 66.7512 60.8375 66.772 61.5327C66.7929 62.2279 67.8184 62.7611 69.0626 62.7236Z" fill="#010002"/>
<path d="M67.905 61.4923C67.915 61.8398 68.4274 62.1069 69.05 62.0949C69.6725 62.0828 70.167 61.7795 70.1569 61.4321C70.1469 61.0846 69.6325 60.8174 69.012 60.8295C68.3914 60.8415 67.893 61.1468 67.905 61.4923Z" fill="black"/>
</g>
</g>
<path d="M28.1074 118.61L89.3483 106.756L34.2647 108.59L28.1074 118.61Z" fill="url(#paint6_linear_3805_2238)"/>
<path d="M39.9146 81.688L102.657 91.6403L105.715 105.427L49.0805 115.435L39.9146 81.688Z" fill="url(#paint7_linear_3805_2238)"/>
<path d="M56.3047 91.1904L47.349 102.462L49.0824 115.435L38.6574 111.434L28.1083 118.609L29.6557 105.276L22.3594 97.9813L33.529 94.7475L39.9165 81.688L45.1531 92.4276L56.3047 91.1904Z" fill="url(#paint8_linear_3805_2238)"/>
<path style="mix-blend-mode:screen" d="M49.0824 115.435L47.349 102.462L56.3047 91.1904L45.1531 92.4276L39.9165 81.688L33.529 94.7435L22.3594 97.9772L29.6577 105.272L28.1083 118.605L38.6574 111.43L49.0824 115.435ZM45.5834 101.978L47.0347 112.842L38.4393 109.546L30.2102 115.142L31.4252 104.662L25.5762 98.8108L34.712 96.1655L39.9165 85.5323L44.1622 94.2394L52.4594 93.3194L45.5834 101.978Z" fill="url(#paint9_radial_3805_2238)"/>
<g style="mix-blend-mode:overlay" opacity="0.24">
<mask id="mask1_3805_2238" style="mask-type:luminance" maskUnits="userSpaceOnUse" x="47" y="91" width="61" height="12">
<path d="M56.3078 91.1963L107.38 96.4767L107.71 100.572L47.3521 102.468L56.3078 91.1963Z" fill="white"/>
</mask>
<g mask="url(#mask1_3805_2238)">
<path d="M107.703 91.1929H47.3472V102.467H107.703V91.1929Z" fill="#120028"/>
<path d="M47.147 98.317V102.667H104.162V103.549C104.789 103.014 105.373 102.467 105.914 101.908C106.949 100.855 107.857 99.684 108.622 98.4194H107.905V90.9878H47.147V98.317Z" fill="#120028"/>
<path d="M47.147 98.2229V102.666H103.49V103.323C104.099 102.804 104.669 102.269 105.197 101.716C106.207 100.691 107.096 99.553 107.845 98.3234C108.187 97.7511 108.489 97.1559 108.748 96.5418H107.905V90.9922H47.147V98.2229Z" fill="#120028"/>
<path d="M47.1488 98.1277V101.604H46.7945C47.0719 102.165 47.3939 102.703 47.7573 103.211V102.669H102.819V103.103C103.414 102.597 103.969 102.078 104.484 101.546C105.466 100.544 106.329 99.4309 107.057 98.2301C108.418 95.9464 109.042 93.5322 108.772 91.1018H107.907V90.9954H48.0216V90.1538C47.8294 90.435 47.6479 90.7189 47.4771 91.0054C46.8157 92.095 46.3204 93.2777 46.0078 94.5143H47.1488V98.1277Z" fill="#120028"/>
<path d="M46.594 98.0372C46.7247 99.216 47.0636 100.362 47.5949 101.422C47.8661 101.965 48.18 102.486 48.5337 102.98V102.665H102.148V102.866C102.724 102.374 103.267 101.861 103.767 101.349C104.724 100.374 105.564 99.2909 106.272 98.1215C107.597 95.8981 108.205 93.5461 107.943 91.18C107.911 90.8827 107.865 90.5915 107.805 90.3023V90.9812H48.7959V90.2661C48.6098 90.5393 48.4316 90.8144 48.2675 91.0936C46.9363 93.3191 46.3278 95.6711 46.594 98.0372Z" fill="#120028"/>
<path d="M47.4204 97.9472C47.5501 99.0946 47.8815 100.21 48.3992 101.241C48.6633 101.77 48.9686 102.277 49.312 102.758V102.667H99.6815V104.055C104.748 100.44 107.626 95.8905 107.116 91.2849C107.053 90.7126 106.938 90.1473 106.774 89.5957V91.0017H50.1407V89.5957C49.7435 90.1085 49.3778 90.6451 49.0458 91.2025C47.7567 93.3577 47.1641 95.6434 47.4204 97.9472Z" fill="#120028"/>
<path d="M48.2468 97.8578C48.495 100.097 49.5439 102.138 51.2274 103.916V102.67H99.0567V103.795C103.983 100.274 106.781 95.8573 106.285 91.3803C106.223 90.8243 106.111 90.275 105.951 89.7393V90.9967H50.9031V89.7373C50.5162 90.2327 50.1605 90.7519 49.8382 91.2919C48.5751 93.3949 47.9946 95.6183 48.2468 97.8578Z" fill="#120028"/>
<path d="M49.077 97.7593C49.3192 99.9346 50.3381 101.917 51.9735 103.644V102.664H98.4396V103.522C103.224 100.107 105.944 95.8111 105.462 91.4706C105.402 90.9303 105.293 90.3966 105.137 89.8758V90.9946H51.6472V89.8638C51.2717 90.3454 50.926 90.8499 50.6123 91.3742C49.3973 93.4229 48.8368 95.5841 49.077 97.7593Z" fill="#120028"/>
<path d="M49.9074 97.6682C50.1396 99.7792 51.1285 101.705 52.7099 103.378V102.665H97.8128V103.268C102.457 99.9479 105.095 95.7842 104.619 91.5623C104.561 91.0382 104.456 90.5206 104.304 90.0157V90.9938H52.3996V90.0137C52.0361 90.4805 51.7019 90.9695 51.3987 91.4779C50.2157 93.4603 49.6732 95.5572 49.9074 97.6682Z" fill="#120027"/>
<path d="M50.7368 97.5764C50.963 99.6232 51.9218 101.491 53.4611 103.114V102.666H97.1909V103.006C101.695 99.7919 104.253 95.7467 103.797 91.6533C103.741 91.1449 103.639 90.6427 103.492 90.1529V90.9925H53.1549V90.1509C52.8013 90.604 52.4764 91.079 52.182 91.5729C51.0351 93.4951 50.5086 95.5277 50.7368 97.5764Z" fill="#120027"/>
<path d="M51.5619 97.4851C51.7821 99.4675 52.7109 101.277 54.2022 102.85V102.667H96.5648V102.743C100.927 99.6242 103.407 95.7135 102.97 91.7467C102.916 91.2538 102.817 90.7671 102.674 90.2925V90.9935H53.904V90.2925C53.5618 90.7312 53.2469 91.1907 52.9612 91.6683C51.8522 93.5323 51.3418 95.5006 51.5619 97.4851Z" fill="#120027"/>
<path d="M52.4013 97.3945C52.6135 99.3127 53.5123 101.064 54.9555 102.587C55.3273 102.976 55.7224 103.342 56.1385 103.683V102.679H94.2794V103.587C94.8626 103.236 95.4184 102.871 95.9469 102.492C100.169 99.4794 102.567 95.6893 102.142 91.847C102.089 91.3707 101.993 90.9002 101.856 90.441V91.0014H54.6633V90.439C54.3316 90.8633 54.0267 91.308 53.7505 91.7706C52.6755 93.5683 52.1831 95.4744 52.4013 97.3945Z" fill="#110027"/>
<path d="M53.2212 97.2961C53.4213 99.152 54.2961 100.845 55.6913 102.317C56.0496 102.695 56.4314 103.05 56.8343 103.38V102.667H93.7101V103.269C94.2733 102.928 94.8104 102.575 95.3215 102.211C99.403 99.2946 101.727 95.635 101.311 91.9233C101.259 91.4626 101.167 91.0076 101.034 90.5635V90.9853H55.413V90.5635C55.0933 90.974 54.7992 91.404 54.5323 91.851C53.4934 93.6004 53.017 95.4422 53.2212 97.2961Z" fill="#110026"/>
<path d="M54.05 97.2026C54.2502 98.9943 55.0889 100.629 56.4361 102.049C57.152 102.795 57.9521 103.454 58.8201 104.014V102.664H91.4323V103.923C92.5659 103.348 93.6558 102.69 94.6931 101.955C98.6325 99.1429 100.872 95.6059 100.474 92.0226C100.426 91.5781 100.337 91.139 100.208 90.711V90.9922H56.1698V90.707C55.8602 91.1033 55.5754 91.5185 55.3171 91.9503C54.3122 93.6335 53.8518 95.413 54.05 97.2026Z" fill="#110026"/>
<path d="M54.8803 97.1119C55.0805 98.8393 55.8812 100.416 57.1783 101.786C57.87 102.504 58.6417 103.139 59.4783 103.68V102.676H90.9315V103.6C92.0247 103.046 93.0758 102.412 94.0762 101.703C97.8795 98.9879 100.035 95.5794 99.651 92.1247C99.5544 91.2646 99.3056 90.4287 98.9164 89.6562V91.002H57.927V89.7024C57.2289 90.4134 56.6156 91.2034 56.0994 92.0565C55.1326 93.6693 54.6882 95.3846 54.8803 97.1119Z" fill="#110025"/>
<path d="M55.711 97.0231C55.8951 98.6862 56.6738 100.205 57.9249 101.524C58.5905 102.216 59.3334 102.828 60.1388 103.348V102.669H90.433V103.262C91.4864 102.729 92.4987 102.118 93.4616 101.434C97.1207 98.8227 99.1985 95.5388 98.8302 92.2126C98.7368 91.3836 98.4976 90.5777 98.1236 89.8325V90.9955H58.6455V89.8687C57.9736 90.555 57.3825 91.3165 56.884 92.1383C55.9532 93.709 55.5268 95.36 55.711 97.0231Z" fill="#110025"/>
<path d="M56.5386 96.9271C56.7167 98.5339 57.4654 99.9861 58.6664 101.253C59.3102 101.919 60.0282 102.508 60.8063 103.009V102.665H89.9194V102.921C90.9327 102.41 91.9069 101.824 92.8339 101.169C96.3509 98.6544 98.3507 95.499 97.9964 92.3014C97.9067 91.5043 97.6763 90.7296 97.3158 90.0137V90.9918H59.361V90.0659C58.7147 90.7252 58.1465 91.4571 57.6675 92.2472C56.7728 93.7395 56.3624 95.3283 56.5386 96.9271Z" fill="#100024"/>
<path d="M57.3679 96.8343C57.7082 99.9054 60.2444 102.436 64.0677 104.047V102.665H86.1487V103.995C88.3004 103.251 90.3398 102.213 92.21 100.912C95.5869 98.5014 97.5065 95.4685 97.1662 92.3995C97.0788 91.6343 96.858 90.8905 96.5137 90.2021V91.0056H60.0822V90.2524C59.461 90.884 58.9155 91.5864 58.4568 92.3453C57.5921 93.7753 57.2037 95.2998 57.3679 96.8343Z" fill="#100024"/>
<path d="M58.2041 96.7424C58.5303 99.6849 60.9604 102.111 64.6256 103.654V102.666H85.7779V103.606C87.8385 102.889 89.7917 101.893 91.5829 100.645C94.8197 98.3311 96.6573 95.4228 96.331 92.4863C96.2493 91.753 96.0378 91.0401 95.7064 90.3813V90.9839H60.7923V90.4135C60.1972 91.0201 59.6746 91.6941 59.235 92.422C58.4042 93.8099 58.0339 95.2701 58.2041 96.7424Z" fill="#100023"/>
<path d="M59.0274 96.6493C59.3397 99.4613 61.6637 101.785 65.1687 103.261V102.659H85.4082V103.207C87.3805 102.523 89.2497 101.57 90.963 100.375C94.0597 98.1658 95.8192 95.386 95.5069 92.572C95.4275 91.872 95.2241 91.1918 94.9064 90.5635V90.9893H61.5096V90.5996C60.9417 91.1805 60.442 91.8248 60.0203 92.5198C59.2316 93.8434 58.8713 95.2414 59.0274 96.6493Z" fill="#0F0022"/>
<path d="M59.8557 96.5586C60.1539 99.2461 62.3718 101.459 65.7167 102.869V102.669H85.0374V102.825C86.9197 102.172 88.7039 101.263 90.34 100.124C93.2965 98.0108 94.976 95.3616 94.6777 92.6741C94.6026 92.0045 94.4095 91.3537 94.1072 90.752V90.995H62.2257V90.7941C61.6835 91.348 61.2066 91.9626 60.8045 92.6259C60.0518 93.8833 59.7055 95.2149 59.8557 96.5586Z" fill="#0F0021"/>
<path d="M60.6862 96.4661C60.9704 99.025 63.0883 101.134 66.269 102.476C68.0264 103.195 69.8739 103.668 71.7597 103.882V102.676H78.2954V103.882C87.4533 102.859 94.4173 97.8821 93.8508 92.7643C93.7786 92.1269 93.5943 91.5074 93.3064 90.9346V90.9928H62.9441V90.9687C62.4264 91.4958 61.9716 92.0815 61.589 92.7141C60.8743 93.9152 60.5441 95.1866 60.6862 96.4661Z" fill="#0F0020"/>
<path d="M61.5124 96.374C61.7826 98.8043 63.7904 100.809 66.817 102.082C69.8436 103.356 73.8911 103.904 78.2408 103.418C86.9423 102.448 93.5581 97.7197 93.0196 92.8571C92.9508 92.2519 92.7759 91.6638 92.5031 91.1197C92.3631 90.8399 92.2018 90.5713 92.0207 90.3163V90.9911H65.4378V89.6313C62.7635 91.5455 61.2442 93.9417 61.5124 96.374Z" fill="#0E001F"/>
<path d="M62.3433 96.2829C62.8558 100.888 69.9499 103.877 78.193 102.957C86.4361 102.037 92.7035 97.5563 92.1931 92.9507C92.0392 91.7708 91.5 90.6753 90.6598 89.8354V90.9944H66.0625V89.8977C63.5284 91.7074 62.0891 93.9791 62.3433 96.2829Z" fill="#0E001E"/>
<path d="M63.1703 96.1905C63.6527 100.539 70.3525 103.361 78.1372 102.493C85.9219 101.626 91.8411 97.3936 91.3586 93.0431C91.2148 91.9283 90.7057 90.8932 89.9114 90.1006V90.9944H66.6913V90.1588C64.2873 91.8761 62.9281 94.0152 63.1703 96.1905Z" fill="#0D001D"/>
<path d="M64.0093 96.0927C64.4637 100.186 70.7691 102.841 78.0974 102.024C85.4258 101.206 90.9946 97.2255 90.5402 93.1301C90.4041 92.0818 89.9254 91.1084 89.179 90.3623V90.989H67.3061V90.4165C65.0542 92.0294 63.7731 94.048 64.0093 96.0927Z" fill="#0D001C"/>
<path d="M64.8281 96.0046C65.2544 99.8429 71.1675 102.334 78.0395 101.568C84.9114 100.803 90.1299 97.0671 89.7056 93.2288C89.5778 92.2458 89.1286 91.3332 88.4284 90.6338V90.9953H67.9267V90.684C65.8089 92.1944 64.6079 94.0865 64.8281 96.0046Z" fill="#0C001B"/>
<path d="M65.6598 95.9088C66.0601 99.4921 71.5769 101.816 77.9864 101.101C84.396 100.386 89.2722 96.901 88.8758 93.3178C88.7542 92.3991 88.3317 91.547 87.6748 90.8955V90.9919H68.5523V90.9437C66.5806 92.3517 65.4616 94.1192 65.6598 95.9088Z" fill="#0B0019"/>
<path d="M66.4882 95.8188C66.8586 99.1449 71.983 101.304 77.9361 100.639C83.8893 99.9744 88.4152 96.7407 88.0469 93.4085C87.9351 92.5567 87.5459 91.7658 86.9399 91.1589C86.6064 90.8133 86.2343 90.5073 85.8309 90.2471V90.9902H70.6879V90.2913C70.1615 90.557 69.6556 90.8618 69.1746 91.2031C67.345 92.5147 66.3041 94.1557 66.4882 95.8188Z" fill="#0B0018"/>
<path d="M67.3182 95.7249C67.6585 98.796 72.3886 100.788 77.8834 100.176C83.3781 99.5633 87.5557 96.5746 87.2154 93.5055C87.0453 91.969 85.7782 90.7036 83.8665 89.8901V90.9848H72.827V89.9162C71.7502 90.2927 70.7303 90.8165 69.7964 91.4729C68.1069 92.678 67.1481 94.1904 67.3182 95.7249Z" fill="#0A0016"/>
<path d="M68.1482 95.6332C68.4605 98.4451 72.7962 100.275 77.8326 99.7125C82.8689 99.1501 86.7002 96.4125 86.3879 93.5985C86.2318 92.1926 85.0708 91.0296 83.3173 90.2925V90.9935H73.1966V90.3166C72.2092 90.6579 71.2736 91.1344 70.4162 91.7326C68.8708 92.8373 67.9921 94.2252 68.1482 95.6332Z" fill="#090015"/>
<path d="M68.9772 95.5406C69.2614 98.0995 73.2028 99.7585 77.7848 99.2484C82.3667 98.7382 85.8457 96.2496 85.5615 93.6907C85.4194 92.4113 84.3604 91.3568 82.7691 90.6779V90.9852H76.7639V89.981C72.1759 90.4931 68.6929 92.9817 68.9772 95.5406Z" fill="#090013"/>
<path d="M77.7341 98.7794C81.8555 98.3192 84.9894 96.0791 84.734 93.776C84.4786 91.4729 80.9305 89.979 76.8091 90.4392C72.6877 90.8994 69.5537 93.1395 69.8092 95.4426C70.0646 97.7456 73.6127 99.2396 77.7341 98.7794Z" fill="#080011"/>
<path d="M77.6846 98.3169C81.3478 97.9078 84.1333 95.9166 83.9063 93.8692C83.6792 91.8219 80.5255 90.4939 76.8623 90.9029C73.1991 91.312 70.4136 93.3032 70.6406 95.3505C70.8677 97.3978 74.0214 98.7259 77.6846 98.3169Z" fill="#070010"/>
<path d="M77.6326 97.8529C80.8376 97.495 83.2748 95.7526 83.0761 93.961C82.8774 92.1695 80.1181 91.0073 76.9131 91.3652C73.7081 91.7231 71.2709 93.4655 71.4696 95.257C71.6683 97.0486 74.4276 98.2108 77.6326 97.8529Z" fill="#06000E"/>
<path d="M77.5807 97.3897C80.3286 97.0828 82.4182 95.5891 82.2479 94.0533C82.0776 92.5176 79.7118 91.5214 76.9639 91.8282C74.2159 92.135 72.1264 93.6288 72.2967 95.1645C72.467 96.7003 74.8327 97.6965 77.5807 97.3897Z" fill="#05000C"/>
<path d="M77.5263 96.9241C79.8161 96.6684 81.5574 95.4244 81.4155 94.1456C81.2737 92.8667 79.3025 92.0372 77.0127 92.2929C74.7229 92.5486 72.9817 93.7926 73.1235 95.0715C73.2654 96.3503 75.2366 97.1798 77.5263 96.9241Z" fill="#040009"/>
<path d="M73.9497 94.9869C74.0638 96.0093 75.6411 96.6741 77.4727 96.4692C79.3043 96.2644 80.6955 95.2641 80.5834 94.2458C80.4713 93.2275 78.892 92.5586 77.0604 92.7635C75.2288 92.9684 73.8376 93.9626 73.9497 94.9869Z" fill="#030007"/>
<path d="M74.7792 94.888C74.8652 95.6553 76.0482 96.1534 77.4214 95.9987C78.7946 95.8441 79.8395 95.0989 79.7555 94.3316C79.6714 93.5644 78.4864 93.0663 77.1132 93.2189C75.74 93.3716 74.6951 94.1248 74.7792 94.888Z" fill="#020005"/>
<path d="M75.6178 94.7992C75.6739 95.3094 76.4625 95.6428 77.3773 95.5404C78.2921 95.4379 78.9907 94.9378 78.9327 94.4276C78.8746 93.9175 78.0879 93.584 77.1731 93.6865C76.2584 93.7889 75.5497 94.283 75.6178 94.7992Z" fill="#010002"/>
<path d="M76.4372 94.7046C76.4652 94.9617 76.8596 95.1284 77.318 95.0762C77.7764 95.024 78.1187 94.7769 78.0946 94.5199C78.0706 94.2628 77.6723 94.0981 77.2139 94.1503C76.7555 94.2025 76.4192 94.4496 76.4372 94.7046Z" fill="black"/>
</g>
</g>
<path d="M79.4002 10.8086L139.228 65.3264L135.565 77.3676L66.3989 45.1285L79.4002 10.8086Z" fill="url(#paint10_linear_3805_2238)"/>
<path d="M84.4068 30.1428L77.5449 22.1026L79.3985 10.8086L69.8042 16.6153L60.5262 13.4619L60.6223 24.8463L51.9668 34.1137L62.5179 34.4551L66.3973 45.1285L73.1851 33.5694L84.4068 30.1428Z" fill="url(#paint11_linear_3805_2238)"/>
<path style="mix-blend-mode:screen" d="M62.5192 34.4554L66.3985 45.1288L73.1864 33.5697L84.4081 30.1431L77.5462 22.109L79.3998 10.8149L69.8135 16.6156L60.5355 13.4622L60.6315 24.8466L51.9761 34.114L62.5192 34.4554ZM63.474 33.1318L55.0007 32.8587L61.9867 25.3769L61.8926 15.3462L69.9656 18.0979L77.5942 13.4783L76.1129 22.5006L82.042 29.4482L72.2916 32.4248L66.6868 41.9674L63.474 33.1318Z" fill="url(#paint12_radial_3805_2238)"/>
<g style="mix-blend-mode:overlay" opacity="0.22">
<path d="M84.4077 30.1436L137.758 70.1537L136.455 74.4419L73.186 33.5701L84.4077 30.1436Z" fill="black"/>
</g>
<g style="mix-blend-mode:overlay" opacity="0.16">
<path d="M77.5444 22.1026L137.963 68.4115L139.226 65.3264L79.398 10.8086L77.5444 22.1026Z" fill="white"/>
</g>
<path d="M51.9668 34.1133L64.4876 39.8758L62.5179 34.4547L51.9668 34.1133Z" fill="url(#paint13_linear_3805_2238)"/>
<path d="M346.585 34.4761L267.601 68.9928L270.896 78.0172L346.585 52.7096V34.4761Z" fill="url(#paint14_linear_3805_2238)"/>
<path d="M369.846 80.693L273.402 92.3064L277.88 83.9268L352.381 65.9443L369.846 80.693Z" fill="url(#paint15_linear_3805_2238)"/>
<path style="mix-blend-mode:overlay" opacity="0.24" d="M369.846 80.693L273.402 92.3064L277.88 83.9268L352.381 65.9443L369.846 80.693Z" fill="url(#paint16_radial_3805_2238)"/>
<path d="M330.352 49.3467L267.458 75.0018L270.242 90.576L341.678 77.2855L346.722 59.4336L330.352 49.3467Z" fill="url(#paint17_linear_3805_2238)"/>
<path d="M330.353 49.3453L341.208 61.3724L341.678 77.2841L353.571 71.9795L369.847 80.6926L363.765 63.9293L372.449 54.1758L356.403 49.8193L346.587 34.4761L342.151 48.8713L330.353 49.3453Z" fill="url(#paint18_linear_3805_2238)"/>
<path style="mix-blend-mode:screen" d="M372.449 54.1758L356.403 49.8193L346.594 34.4761L342.156 48.8673L330.346 49.3453L341.2 61.3724L341.672 77.2841L353.566 71.9795L369.842 80.6926L363.775 63.9313L372.449 54.1758ZM367.066 77.4749L353.632 70.2823L343.129 74.9783L342.707 60.7739L333.655 50.7452L343.283 50.3576L347.073 38.0613L355.442 51.1429L369.678 55.0094L362.028 63.6039L367.066 77.4749Z" fill="url(#paint19_radial_3805_2238)"/>
<g style="mix-blend-mode:overlay" opacity="0.24">
<mask id="mask2_3805_2238" style="mask-type:luminance" maskUnits="userSpaceOnUse" x="267" y="49" width="75" height="34">
<path d="M341.204 61.3709L269.037 82.9004L267.454 74.9988L330.348 49.3438L341.204 61.3709Z" fill="white"/>
</mask>
<g mask="url(#mask2_3805_2238)">
<path d="M341.205 49.3477H267.458V82.9043H341.205V49.3477Z" fill="#120028"/>
<path d="M341.405 63.398V76.2527H342.104C341.717 76.5861 341.317 76.9155 340.903 77.2369C339.146 78.5913 337.27 79.7826 335.298 80.796C333.119 81.9204 330.859 82.8805 328.538 83.6682V83.1038H281.838V83.5196C280.573 83.0938 279.347 82.6365 278.161 82.1478C275.892 81.2196 273.695 80.1246 271.587 78.8718C269.677 77.7409 267.874 76.4387 266.198 74.9813H267.257V49.1475H341.405V63.398Z" fill="#120028"/>
<path d="M341.402 63.3586V74.8976H342.237C341.518 75.5898 340.763 76.2429 339.975 76.854C338.26 78.1744 336.429 79.3361 334.504 80.3247C332.38 81.4198 330.177 82.3557 327.915 83.1246V83.1005H286.197V84.1289C280.978 82.7229 276.302 80.7887 272.395 78.4487C270.533 77.3455 268.774 76.0756 267.14 74.6546H267.254V49.1461H339.603V48.415C340.015 48.7418 340.415 49.0765 340.804 49.4193C341.192 49.7621 341.562 50.1056 341.915 50.4497H341.406L341.402 63.3586Z" fill="#120028"/>
<path d="M341.404 63.3326V73.5762H342.233C341.923 73.915 341.598 74.2497 341.256 74.5805C340.557 75.2554 339.822 75.8917 339.054 76.4866C337.383 77.7725 335.598 78.9039 333.723 79.8669C331.653 80.9343 329.507 81.8467 327.302 82.5965C326.152 82.9983 324.963 83.3618 323.737 83.6872V83.1127H286.653V83.5747C281.57 82.2109 277.012 80.3209 273.205 78.0392C271.392 76.9643 269.679 75.7274 268.087 74.3435C267.356 73.7025 266.659 73.0226 266.001 72.3068H267.256V49.5038H266.69C267.03 49.1744 267.384 48.8511 267.75 48.5337V49.1483H337.453V47.8247C338.308 48.442 339.109 49.0807 339.855 49.7409C340.586 50.3808 341.282 51.0607 341.939 51.7775H341.402L341.404 63.3326Z" fill="#120028"/>
<path d="M341.403 63.2923V72.2564H342.089C339.898 74.978 336.771 77.3882 332.946 79.3967C329.12 81.4053 324.572 82.9579 319.552 83.9863V83.1105H290.909V83.9139C289.611 83.6461 288.343 83.3462 287.106 83.0141C282.156 81.6865 277.718 79.8446 274.013 77.6252C272.246 76.5787 270.578 75.3733 269.028 74.0239C268.316 73.401 267.638 72.7392 266.999 72.0415H267.253V50.8052H266.714C267.017 50.4744 267.334 50.1491 267.663 49.829C268.344 49.1719 269.061 48.5523 269.809 47.9731V49.1441H336.565V48.1941C337.395 48.794 338.176 49.4159 338.909 50.06C340.302 51.2683 341.552 52.6345 342.632 54.1313H341.401L341.403 63.2923Z" fill="#120028"/>
<path d="M341.403 63.2616V69.944H342.486C342.059 70.6564 341.582 71.3382 341.061 71.9846C338.927 74.6319 335.887 76.9839 332.155 78.9221C328.424 80.8604 324.008 82.3889 319.124 83.3891V83.1059H295.135V83.9857C292.584 83.6184 290.056 83.1006 287.565 82.4351C282.749 81.1416 278.431 79.352 274.824 77.1908C271.217 75.0296 268.322 72.4988 266.353 69.727H267.255V52.084H266.889C268.025 50.6933 269.318 49.4397 270.742 48.3481V49.1395H335.694V48.5651C336.503 49.1489 337.263 49.7514 337.974 50.3728C339.33 51.5482 340.546 52.8774 341.597 54.3336H341.411L341.403 63.2616Z" fill="#120028"/>
<path d="M341.404 63.2285V67.6473H342.451C341.85 69.1155 341.035 70.4857 340.031 71.7126C337.957 74.2875 335.001 76.5732 331.374 78.4592C324.121 82.2293 314.195 84.3965 303.311 84.0671C292.428 83.7377 282.648 80.9759 275.633 76.7741C272.128 74.6752 269.314 72.2147 267.398 69.5192C266.928 68.8622 266.505 68.1721 266.133 67.4545H267.256V54.3507H266.526C266.941 53.6575 267.405 52.9944 267.913 52.3663C269.017 51.0149 270.274 49.7963 271.658 48.7349V49.1366H334.807V48.9357C335.593 49.5048 336.332 50.0926 337.025 50.6992C338.345 51.8458 339.53 53.1419 340.554 54.5616C341.481 55.8463 342.213 57.2625 342.725 58.7635H341.412L341.404 63.2285Z" fill="#120028"/>
<path d="M342.259 63.1933C341.904 75.0096 324.475 84.0701 303.329 83.4314C292.756 83.112 283.256 80.4286 276.444 76.3473C273.041 74.3066 270.303 71.9164 268.437 69.2973C267.534 68.0493 266.823 66.673 266.325 65.2139H267.25V56.5913H266.585C267.168 55.1647 267.96 53.8336 268.935 52.6425C270.009 51.3296 271.23 50.1454 272.575 49.1135V49.1456H332.747V48.5049C333.147 48.7727 333.54 49.0438 333.926 49.3183C334.69 49.8714 335.409 50.4425 336.081 51.0316C337.361 52.1428 338.509 53.3984 339.502 54.7735C341.354 57.3907 342.355 60.2388 342.259 63.1933Z" fill="#120028"/>
<path d="M341.133 63.1565C340.788 74.6252 323.872 83.4206 303.348 82.8C282.824 82.1793 266.464 72.3797 266.809 60.9069C266.895 58.0387 268.01 55.3392 269.971 52.9109C271.014 51.6398 272.199 50.494 273.504 49.4964C274.189 48.9608 274.918 48.4499 275.69 47.9639V49.1489H330.688V48.1446C337.299 52.1035 341.305 57.4221 341.133 63.1565Z" fill="#120027"/>
<path d="M340.005 63.1285C339.671 74.2498 323.267 82.778 303.374 82.1775C283.481 81.5769 267.609 72.0725 267.943 60.9512C268.025 58.1694 269.114 55.5523 271.01 53.1983C272.017 51.9608 273.163 50.8446 274.427 49.8721C275.089 49.3559 275.798 48.8678 276.547 48.3838V49.143H329.879V48.5666C336.29 52.4069 340.172 57.5628 340.005 63.1285Z" fill="#120027"/>
<path d="M338.879 63.0877C338.557 73.8615 322.665 82.1227 303.384 81.5402C284.104 80.9577 268.738 71.7626 269.061 60.9788C269.143 58.2853 270.196 55.7566 272.031 53.4668C273.011 52.2714 274.125 51.1931 275.35 50.2532C275.993 49.7524 276.679 49.2717 277.406 48.811V49.1445H329.068V48.9858C335.28 52.7056 339.041 57.7028 338.879 63.0877Z" fill="#120027"/>
<path d="M337.751 63.0566C337.439 73.483 322.06 81.479 303.402 80.9146C284.744 80.3502 269.871 71.4423 270.185 61.016C270.341 55.7938 274.265 51.1962 280.48 47.9604V49.1415H325.895V48.1131C326.717 48.5228 327.505 48.9533 328.257 49.4046C334.272 53.0099 337.912 57.8425 337.751 63.0566Z" fill="#110027"/>
<path d="M336.628 63.0221C336.326 73.101 321.461 80.8298 303.423 80.2855C285.386 79.7412 271.012 71.1286 271.314 61.0477C271.466 56.0083 275.257 51.5574 281.266 48.4341V49.1451H325.166V48.5807C325.967 48.9824 326.724 49.3942 327.45 49.828C333.261 53.3088 336.78 57.9827 336.628 63.0221Z" fill="#110026"/>
<path d="M335.502 62.9883C335.209 72.7197 320.855 80.1814 303.442 79.6592C286.029 79.137 272.147 70.8216 272.439 61.0863C272.585 56.2216 276.242 51.9233 282.047 48.9065V49.1495H322.038V47.9604C323.627 48.6102 325.166 49.3769 326.642 50.2542C332.251 53.6105 335.648 58.1217 335.502 62.9883Z" fill="#110026"/>
<path d="M334.376 62.9553C334.096 72.3392 320.254 79.5358 303.461 79.0236C286.669 78.5115 273.295 70.5014 273.566 61.1215C273.708 56.4296 277.239 52.284 282.832 49.3776C283.532 49.0134 284.266 48.6693 285.033 48.3452V49.1486H321.403V48.4677C322.934 49.0935 324.416 49.832 325.839 50.6771C331.241 53.9129 334.518 58.2634 334.376 62.9553Z" fill="#110025"/>
<path d="M333.251 62.9267C332.979 71.9652 319.651 78.8926 303.481 78.4045C287.311 77.9165 274.422 70.1856 274.696 61.1492C274.832 56.632 278.231 52.641 283.62 49.8391C285.036 49.1091 286.504 48.4855 288.012 47.9731V49.1441H320.752V48.9613C322.227 49.5644 323.655 50.276 325.026 51.0904C330.23 54.2117 333.385 58.4015 333.251 62.9267Z" fill="#110025"/>
<path d="M332.124 62.8842C331.864 71.5731 319.047 78.2354 303.499 77.7654C287.952 77.2954 275.557 69.8719 275.82 61.1829C275.95 56.8385 279.222 53.0022 284.399 50.3087C285.761 49.6065 287.172 49.0064 288.623 48.5131V49.1438H315.366V47.8623C318.467 48.6647 321.443 49.8906 324.211 51.5058C329.222 54.5126 332.254 58.5397 332.124 62.8842Z" fill="#100024"/>
<path d="M330.996 62.8533C330.744 71.1948 318.443 77.592 303.52 77.1401C288.597 76.6881 276.697 69.5578 276.943 61.2204C277.069 57.0507 280.206 53.365 285.18 50.776C287.927 49.3897 290.85 48.3882 293.868 47.7993V49.143H314.908V48.434C317.885 49.2046 320.743 50.3812 323.401 51.9309C328.209 54.8151 331.122 58.6836 330.996 62.8533Z" fill="#100024"/>
<path d="M329.874 62.8171C329.634 70.8111 317.844 76.9411 303.54 76.5093C289.235 76.0775 277.833 69.2464 278.074 61.2444C278.194 57.2474 281.2 53.7164 285.966 51.2399C288.598 49.91 291.399 48.9496 294.292 48.3857V49.1369H314.455V48.9963C317.309 49.7333 320.048 50.8606 322.596 52.3466C327.204 55.1143 329.994 58.8201 329.874 62.8171Z" fill="#100023"/>
<path d="M328.709 62.7767C328.938 55.1305 318.031 48.5979 304.349 48.1856C290.667 47.7733 279.389 53.6376 279.16 61.2838C278.932 68.93 289.838 75.4626 303.52 75.8749C317.203 76.2872 328.48 70.4229 328.709 62.7767Z" fill="#0F0022"/>
<path d="M327.583 62.742C327.801 55.444 317.391 49.2088 304.33 48.8153C291.27 48.4217 280.505 54.019 280.287 61.317C280.069 68.615 290.479 74.8503 303.539 75.2438C316.6 75.6373 327.364 70.0401 327.583 62.742Z" fill="#0F0021"/>
<path d="M326.454 62.7108C326.662 55.7598 316.747 49.8211 304.309 49.4463C291.871 49.0716 281.619 54.4026 281.411 61.3536C281.203 68.3046 291.118 74.2433 303.556 74.618C315.994 74.9928 326.246 69.6618 326.454 62.7108Z" fill="#0F0020"/>
<path d="M325.333 62.6776C325.53 56.0737 316.111 50.4315 304.294 50.0754C292.477 49.7194 282.737 54.7843 282.539 61.3882C282.341 67.9921 291.761 73.6343 303.578 73.9904C315.395 74.3465 325.135 69.2816 325.333 62.6776Z" fill="#0E001F"/>
<path d="M324.205 62.6386C324.393 56.3828 315.469 51.0381 304.274 50.7008C293.079 50.3635 283.852 55.1613 283.665 61.4171C283.477 67.6729 292.401 73.0176 303.596 73.3549C314.791 73.6922 324.018 68.8944 324.205 62.6386Z" fill="#0E001E"/>
<path d="M323.079 62.6097C323.256 56.701 314.828 51.6528 304.255 51.3342C293.683 51.0157 284.968 55.5474 284.791 61.4561C284.615 67.3648 293.042 72.413 303.615 72.7316C314.188 73.0502 322.902 68.5185 323.079 62.6097Z" fill="#0D001D"/>
<path d="M321.953 62.5741C322.119 57.0136 314.188 52.2628 304.237 51.963C294.286 51.6632 286.084 55.9278 285.918 61.4884C285.752 67.0489 293.683 71.7997 303.634 72.0995C313.585 72.3993 321.786 68.1347 321.953 62.5741Z" fill="#0D001C"/>
<path d="M320.825 62.5404C320.981 57.3269 313.545 52.8726 304.216 52.5915C294.888 52.3105 287.199 56.309 287.043 61.5225C286.887 66.736 294.323 71.1903 303.651 71.4713C312.98 71.7524 320.669 67.7539 320.825 62.5404Z" fill="#0C001B"/>
<path d="M319.701 62.5064C319.847 57.641 312.906 53.4842 304.198 53.2218C295.49 52.9595 288.314 56.6909 288.168 61.5562C288.022 66.4216 294.963 70.5784 303.671 70.8408C312.378 71.1031 319.555 67.3717 319.701 62.5064Z" fill="#0B0019"/>
<path d="M318.574 62.4726C318.709 57.9543 312.264 54.094 304.179 53.8504C296.093 53.6068 289.429 57.0721 289.294 61.5904C289.158 66.1087 295.603 69.969 303.689 70.2126C311.774 70.4562 318.439 66.9909 318.574 62.4726Z" fill="#0B0018"/>
<path d="M317.449 62.437C317.574 58.2668 311.625 54.7039 304.162 54.479C296.698 54.2542 290.547 57.4525 290.422 61.6226C290.297 65.7927 296.247 69.3556 303.71 69.5805C311.173 69.8054 317.325 66.6071 317.449 62.437Z" fill="#0A0016"/>
<path d="M316.324 62.4047C316.439 58.5816 310.985 55.3153 304.144 55.1092C297.303 54.903 291.664 57.8352 291.55 61.6582C291.436 65.4813 296.889 68.7477 303.73 68.9538C310.571 69.1599 316.21 66.2278 316.324 62.4047Z" fill="#090015"/>
<path d="M315.197 62.3691C315.301 58.8941 310.344 55.9252 304.125 55.7378C297.905 55.5504 292.78 58.2155 292.676 61.6905C292.572 65.1654 297.529 68.1343 303.748 68.3217C309.967 68.5091 315.093 65.844 315.197 62.3691Z" fill="#090013"/>
<path d="M314.069 62.3349C314.162 59.207 309.701 56.5346 304.104 56.366C298.507 56.1973 293.894 58.5963 293.8 61.7242C293.707 64.8521 298.168 67.5244 303.765 67.693C309.362 67.8617 313.975 65.4628 314.069 62.3349Z" fill="#080011"/>
<path d="M312.946 62.3056C313.03 59.5248 309.063 57.1489 304.087 56.999C299.112 56.8491 295.01 58.9819 294.927 61.7627C294.844 64.5435 298.81 66.9194 303.786 67.0693C308.762 67.2193 312.863 65.0865 312.946 62.3056Z" fill="#070010"/>
<path d="M311.837 62.0544C311.91 59.6207 308.438 57.5414 304.082 57.4103C299.727 57.2792 296.137 59.1458 296.064 61.5796C295.991 64.0134 299.463 66.0926 303.819 66.2237C308.175 66.3549 311.765 64.4882 311.837 62.0544Z" fill="#06000E"/>
<path d="M310.693 62.2338C310.755 60.1482 307.78 58.3663 304.049 58.2539C300.317 58.1414 297.241 59.741 297.179 61.8267C297.117 63.9123 300.091 65.6942 303.823 65.8066C307.554 65.9191 310.63 64.3195 310.693 62.2338Z" fill="#05000C"/>
<path d="M309.564 62.1992C309.616 60.4617 307.138 58.9773 304.028 58.8836C300.919 58.7899 298.356 60.1224 298.304 61.8599C298.252 63.5974 300.73 65.0818 303.84 65.1755C306.949 65.2692 309.512 63.9367 309.564 62.1992Z" fill="#040009"/>
<path d="M308.44 62.1654C308.482 60.775 306.499 59.5871 304.011 59.5122C301.524 59.4372 299.474 60.5036 299.432 61.894C299.391 63.2845 301.373 64.4724 303.861 64.5473C306.348 64.6223 308.398 63.5559 308.44 62.1654Z" fill="#030007"/>
<path d="M307.353 62.1387C307.321 63.1831 305.783 63.9825 303.918 63.9263C302.052 63.8701 300.563 62.9783 300.595 61.9358C300.627 60.8934 302.164 60.094 304.03 60.1503C305.895 60.2065 307.383 61.0963 307.353 62.1387Z" fill="#020005"/>
<path d="M306.224 62.1025C306.204 62.7975 305.177 63.3297 303.934 63.2916C302.691 63.2534 301.698 62.6609 301.72 61.9659C301.742 61.271 302.765 60.7367 304.01 60.7749C305.255 60.813 306.244 61.4056 306.224 62.1025Z" fill="#010002"/>
<path d="M305.096 62.069C305.096 62.4165 304.574 62.6715 303.951 62.6715C303.329 62.6715 302.834 62.3562 302.844 62.0087C302.854 61.6612 303.369 61.3941 303.989 61.4062C304.61 61.4182 305.108 61.7215 305.096 62.069Z" fill="black"/>
</g>
</g>
<path d="M344.302 119.595L283.062 107.741L338.147 109.575L344.302 119.595Z" fill="url(#paint20_linear_3805_2238)"/>
<path d="M332.496 82.6719L269.752 92.6242L266.695 106.411L323.33 116.419L332.496 82.6719Z" fill="url(#paint21_linear_3805_2238)"/>
<path d="M316.105 92.1743L325.061 103.446L323.33 116.419L333.753 112.418L344.302 119.593L342.754 106.26L350.053 98.9652L338.881 95.7314L332.496 82.6719L327.257 93.4115L316.105 92.1743Z" fill="url(#paint22_linear_3805_2238)"/>
<path style="mix-blend-mode:screen" d="M333.749 112.422L344.298 119.596L342.756 106.263L350.055 98.9685L338.883 95.7347L332.498 82.6792L327.259 93.4189L316.107 92.1816L325.063 103.454L323.34 116.423L333.749 112.422ZM319.949 94.3066L328.246 95.2265L332.494 86.5195L337.698 97.1527L346.836 99.798L340.987 105.643L342.204 116.123L333.973 110.534L325.377 113.83L326.829 102.965L319.949 94.3066Z" fill="url(#paint23_radial_3805_2238)"/>
<g style="mix-blend-mode:overlay" opacity="0.24">
<mask id="mask3_3805_2238" style="mask-type:luminance" maskUnits="userSpaceOnUse" x="264" y="92" width="62" height="12">
<path d="M316.104 92.168L265.034 97.4484L264.704 101.544L325.06 103.44L316.104 92.168Z" fill="white"/>
</mask>
<g mask="url(#mask3_3805_2238)">
<path d="M325.061 92.167H264.705V103.441H325.061V92.167Z" fill="#120028"/>
<path d="M325.262 99.2911V103.642H268.246V104.523C267.622 103.988 267.038 103.441 266.495 102.882C265.461 101.828 264.552 100.658 263.787 99.3935H264.505V91.9619H325.262V99.2911Z" fill="#120028"/>
<path d="M325.26 99.2V103.643H268.917V104.3C268.306 103.781 267.737 103.246 267.21 102.693C266.202 101.665 265.316 100.524 264.569 99.2924C264.226 98.7206 263.924 98.1253 263.665 97.5108H264.503V91.9692H325.26V99.2Z" fill="#120028"/>
<path d="M325.261 99.1062V102.583H325.617C325.338 103.143 325.015 103.681 324.652 104.19V103.648H269.59V104.081C268.997 103.575 268.442 103.056 267.927 102.525C266.944 101.523 266.081 100.41 265.353 99.2087C263.994 96.925 263.367 94.5107 263.637 92.0804H264.504V91.9739H324.388V91.1323C324.583 91.4135 324.764 91.6974 324.932 91.9839C325.594 93.0738 326.089 94.2564 326.404 95.4929H325.261V99.1062Z" fill="#120028"/>
<path d="M325.819 99.0113C325.687 100.19 325.348 101.336 324.818 102.396C324.546 102.939 324.233 103.461 323.879 103.954V103.639H270.261V103.84C269.683 103.348 269.143 102.843 268.641 102.323C267.684 101.349 266.843 100.266 266.135 99.0956C264.81 96.8722 264.201 94.5202 264.464 92.1541C264.498 91.8569 264.544 91.5656 264.602 91.2764V91.9553H323.617V91.2402C323.805 91.508 323.982 91.7839 324.147 92.0678C325.472 94.2932 326.081 96.6452 325.819 99.0113Z" fill="#120028"/>
<path d="M324.99 98.9213C324.861 100.069 324.53 101.184 324.011 102.215C323.748 102.744 323.443 103.252 323.098 103.732V103.641H272.731V105.029C267.663 101.414 264.784 96.8646 265.295 92.259C265.358 91.6867 265.474 91.1214 265.639 90.5698V91.9758H322.27V90.5698C322.667 91.0826 323.033 91.6192 323.365 92.1767C324.654 94.3318 325.246 96.6175 324.99 98.9213Z" fill="#120028"/>
<path d="M324.163 98.832C323.914 101.071 322.867 103.112 321.182 104.89V103.644H273.355V104.769C268.428 101.248 265.63 96.8314 266.126 92.3544C266.188 91.7986 266.3 91.2494 266.459 90.7134V91.9708H321.518V90.7114C321.904 91.2078 322.259 91.727 322.583 92.266C323.836 94.369 324.411 96.5924 324.163 98.832Z" fill="#120028"/>
<path d="M323.337 98.7369C323.097 100.912 322.078 102.895 320.443 104.622V103.642H273.975V104.499C269.188 101.085 266.47 96.7886 266.952 92.4481C267.012 91.9077 267.12 91.3739 267.277 90.8534V91.9721H320.761V90.8413C321.136 91.323 321.482 91.8274 321.796 92.3517C323.013 94.4004 323.573 96.5616 323.337 98.7369Z" fill="#120028"/>
<path d="M322.503 98.6423C322.269 100.753 321.28 102.68 319.701 104.353V103.64H274.598V104.242C269.952 100.922 267.314 96.7583 267.782 92.5364C267.84 92.0124 267.945 91.4947 268.096 90.9898V91.968H320.009V90.9878C320.373 91.4546 320.707 91.9436 321.01 92.452C322.195 94.4344 322.737 96.5314 322.503 98.6423Z" fill="#120027"/>
<path d="M321.676 98.5515C321.448 100.598 320.489 102.466 318.952 104.089V103.641H275.222V103.981C270.718 100.767 268.158 96.7218 268.616 92.6284C268.672 92.1199 268.775 91.6177 268.922 91.128V91.9675H319.256V91.126C319.61 91.5791 319.936 92.0541 320.231 92.548C321.376 94.4702 321.902 96.5028 321.676 98.5515Z" fill="#120027"/>
<path d="M320.845 98.4592C320.627 100.442 319.699 102.251 318.207 103.824V103.641H275.845V103.718C271.481 100.598 269.003 96.6876 269.439 92.7208C269.494 92.2281 269.593 91.7414 269.735 91.2666V91.9676H318.501V91.2666C318.844 91.7053 319.159 92.1648 319.444 92.6425C320.557 94.5064 321.066 96.4747 320.845 98.4592Z" fill="#120027"/>
<path d="M320.017 98.3652C319.805 100.283 318.906 102.035 317.463 103.557C317.092 103.947 316.698 104.313 316.282 104.654V103.65H278.133V104.558C277.551 104.207 276.996 103.842 276.468 103.463C272.244 100.45 269.846 96.66 270.262 92.8177C270.314 92.3413 270.41 91.8707 270.547 91.4117V91.9721H317.739V91.4097C318.071 91.834 318.376 92.2787 318.652 92.7413C319.737 94.539 320.232 96.4451 320.017 98.3652Z" fill="#110027"/>
<path d="M319.187 98.2702C318.987 100.126 318.112 101.819 316.719 103.292C316.36 103.669 315.978 104.024 315.576 104.354V103.641H278.7V104.244C278.135 103.902 277.598 103.549 277.088 103.185C273.007 100.269 270.683 96.6092 271.099 92.8974C271.15 92.4366 271.242 91.9814 271.375 91.5376V91.9594H316.995V91.5376C317.315 91.9481 317.61 92.3781 317.878 92.8251C318.916 94.5745 319.393 96.4163 319.187 98.2702Z" fill="#110026"/>
<path d="M318.36 98.1797C318.16 99.9713 317.323 101.606 315.976 103.026C315.259 103.771 314.459 104.43 313.592 104.991V103.641H280.963V104.9C279.83 104.326 278.741 103.668 277.705 102.932C273.763 100.12 271.525 96.5829 271.922 92.9997C271.971 92.5554 272.061 92.1165 272.188 91.6881V91.9693H316.236V91.6841C316.545 92.0804 316.829 92.4956 317.087 92.9274C318.097 94.6105 318.558 96.3901 318.36 98.1797Z" fill="#110026"/>
<path d="M317.533 98.0861C317.332 99.8134 316.532 101.39 315.233 102.76C314.541 103.478 313.77 104.114 312.933 104.654V103.65H281.476V104.574C280.383 104.021 279.332 103.387 278.333 102.678C274.529 99.962 272.374 96.5536 272.756 93.0989C272.854 92.2389 273.102 91.4032 273.491 90.6304V91.9761H314.48V90.6766C315.178 91.388 315.792 92.1779 316.31 93.0306C317.276 94.6434 317.719 96.3587 317.533 98.0861Z" fill="#110025"/>
<path d="M316.701 97.9972C316.514 99.6603 315.736 101.179 314.487 102.498C313.82 103.19 313.077 103.802 312.271 104.322V103.643H281.983V104.236C280.93 103.703 279.918 103.092 278.956 102.408C275.297 99.7969 273.217 96.5129 273.585 93.1868C273.679 92.3576 273.919 91.5517 274.294 90.8066V91.9696H313.764V90.8428C314.437 91.5286 315.028 92.2902 315.526 93.1124C316.456 94.6831 316.885 96.3341 316.701 97.9972Z" fill="#110025"/>
<path d="M315.868 97.9018C315.691 99.5086 314.943 100.961 313.74 102.228C313.1 102.894 312.385 103.483 311.61 103.984V103.64H282.487V103.895C281.474 103.384 280.502 102.797 279.576 102.14C276.057 99.6251 274.058 96.4697 274.414 93.2721C274.503 92.4751 274.733 91.7005 275.092 90.9844V91.9625H313.047V91.0406C313.693 91.6994 314.261 92.4314 314.739 93.2219C315.633 94.7142 316.046 96.303 315.868 97.9018Z" fill="#100024"/>
<path d="M315.042 97.8085C314.701 100.88 312.165 103.41 308.342 105.021V103.639H286.263V104.969C284.111 104.225 282.072 103.187 280.202 101.886C276.823 99.4756 274.905 96.4427 275.245 93.3736C275.331 92.608 275.552 91.8639 275.898 91.1763V91.9797H312.329V91.2265C312.949 91.8592 313.495 92.5615 313.955 93.3194C314.818 94.7495 315.212 96.2739 315.042 97.8085Z" fill="#100024"/>
<path d="M314.213 97.7194C313.887 100.662 311.457 103.088 307.792 104.631V103.643H286.633V104.583C284.573 103.867 282.619 102.871 280.828 101.622C277.592 99.3082 275.752 96.3998 276.078 93.4633C276.161 92.7302 276.372 92.0175 276.703 91.3584V91.961H311.621V91.3905C312.216 91.9971 312.739 92.6712 313.178 93.3991C313.997 94.787 314.375 96.2472 314.213 97.7194Z" fill="#100023"/>
<path d="M313.384 97.6235C313.072 100.435 310.748 102.759 307.243 104.236V103.633H287.002V104.181C285.029 103.497 283.16 102.544 281.447 101.349C278.35 99.1399 276.591 96.3601 276.903 93.5461C276.983 92.8463 277.186 92.1662 277.503 91.5376V91.9634H310.902V91.5737C311.471 92.1536 311.971 92.798 312.391 93.4939C313.178 94.8175 313.54 96.2155 313.384 97.6235Z" fill="#0F0022"/>
<path d="M312.554 97.5328C312.256 100.22 310.036 102.434 306.691 103.844V103.643H287.371V103.799C285.489 103.146 283.705 102.237 282.068 101.098C279.112 98.9849 277.434 96.3357 277.73 93.6482C277.806 92.9785 278 92.3277 278.303 91.7261V91.9691H310.182V91.7683C310.725 92.3221 311.203 92.9367 311.606 93.6C312.356 94.8574 312.703 96.189 312.554 97.5328Z" fill="#0F0021"/>
<path d="M311.731 97.4431C311.449 100.002 309.329 102.111 306.148 103.453C304.391 104.172 302.543 104.645 300.658 104.859V103.654H294.116V104.859C284.958 103.836 277.994 98.8592 278.561 93.7414C278.633 93.104 278.817 92.4844 279.105 91.9116V91.9699H309.469V91.9458C309.987 92.4728 310.442 93.0586 310.824 93.6912C311.541 94.8923 311.869 96.1637 311.731 97.4431Z" fill="#0F0020"/>
<path d="M310.895 97.3481C310.627 99.7785 308.62 101.783 305.591 103.056C302.562 104.33 298.517 104.878 294.167 104.392C285.468 103.422 278.85 98.6939 279.39 93.8312C279.457 93.2257 279.632 92.6372 279.907 92.0938C280.046 91.814 280.207 91.5454 280.387 91.2904V91.9653H306.972V90.6055C309.646 92.5196 311.166 94.9158 310.895 97.3481Z" fill="#0E001F"/>
<path d="M310.068 97.257C309.557 101.863 302.461 104.851 294.22 103.931C285.979 103.011 279.71 98.5304 280.22 93.9248C280.373 92.7446 280.912 91.6488 281.753 90.8096V91.9685H306.351V90.8718C308.883 92.6815 310.328 94.9532 310.068 97.257Z" fill="#0E001E"/>
<path d="M309.238 97.1646C308.756 101.513 302.054 104.335 294.269 103.467C286.485 102.6 280.566 98.3677 281.048 94.0172C281.193 92.9027 281.702 91.8679 282.495 91.0747V91.9685H305.723V91.133C308.125 92.8503 309.479 94.9894 309.238 97.1646Z" fill="#0D001D"/>
<path d="M308.411 97.0668C307.956 101.16 301.649 103.815 294.322 102.998C286.996 102.181 281.425 98.1996 281.878 94.1042C282.014 93.0555 282.493 92.0819 283.241 91.3364V91.9631H305.106V91.3907C307.358 93.0035 308.637 95.0221 308.411 97.0668Z" fill="#0D001C"/>
<path d="M307.579 96.9787C307.155 100.817 301.242 103.308 294.368 102.542C287.494 101.777 282.276 98.0413 282.7 94.2029C282.829 93.2198 283.278 92.3072 283.979 91.6079V91.9694H304.477V91.6581C306.593 93.1685 307.794 95.0606 307.579 96.9787Z" fill="#0C001B"/>
<path d="M306.751 96.8829C306.351 100.466 300.836 102.79 294.425 102.075C288.013 101.36 283.139 97.8752 283.537 94.2919C283.659 93.3732 284.081 92.521 284.738 91.8696V91.966H303.871V91.9178C305.831 93.3258 306.95 95.0933 306.751 96.8829Z" fill="#0B0019"/>
<path d="M305.923 96.7929C305.554 100.119 300.43 102.278 294.477 101.613C288.524 100.949 283.998 97.7148 284.366 94.3826C284.476 93.5303 284.866 92.7389 285.473 92.1331C285.806 91.7874 286.177 91.4814 286.58 91.2212V91.9643H301.719V91.2654C302.245 91.532 302.751 91.8368 303.232 92.1773C305.066 93.4888 306.105 95.1298 305.923 96.7929Z" fill="#0B0018"/>
<path d="M305.092 96.702C304.752 99.7731 300.022 101.766 294.527 101.153C289.032 100.54 284.852 97.5516 285.193 94.4826C285.363 92.946 286.63 91.6806 288.544 90.8672V91.9618H299.583V90.8933C300.659 91.2659 301.679 91.7857 302.614 92.4379C304.301 93.655 305.262 95.1675 305.092 96.702Z" fill="#0A0016"/>
<path d="M304.263 96.6073C303.951 99.4193 299.613 101.249 294.577 100.687C289.541 100.124 285.709 97.3866 286.022 94.5727C286.178 93.1667 287.341 92.0037 289.092 91.2666V91.9676H299.213V91.2907C300.2 91.6324 301.135 92.1089 301.992 92.7067C303.539 93.8114 304.42 95.1993 304.263 96.6073Z" fill="#090015"/>
<path d="M303.433 96.5147C303.151 99.0736 299.208 100.733 294.626 100.222C290.044 99.7123 286.565 97.2237 286.847 94.6649C286.989 93.3854 288.048 92.3309 289.65 91.652V91.9593H295.655V90.9551C300.237 91.4673 303.722 93.9558 303.433 96.5147Z" fill="#090013"/>
<path d="M302.63 96.432C302.885 94.1289 299.751 91.8888 295.63 91.4286C291.508 90.9684 287.96 92.4624 287.705 94.7655C287.449 97.0686 290.583 99.3086 294.705 99.7688C298.826 100.229 302.374 98.7351 302.63 96.432Z" fill="#080011"/>
<path d="M301.799 96.3383C302.026 94.291 299.241 92.2997 295.578 91.8907C291.914 91.4816 288.761 92.8097 288.534 94.857C288.307 96.9043 291.092 98.8956 294.755 99.3046C298.419 99.7137 301.572 98.3856 301.799 96.3383Z" fill="#070010"/>
<path d="M300.973 96.2475C301.171 94.4559 298.734 92.7135 295.529 92.3556C292.324 91.9977 289.565 93.1599 289.366 94.9515C289.167 96.743 291.605 98.4854 294.81 98.8433C298.015 99.2012 300.774 98.039 300.973 96.2475Z" fill="#06000E"/>
<path d="M300.144 96.1537C300.315 94.618 298.225 93.1242 295.477 92.8174C292.729 92.5105 290.363 93.5068 290.193 95.0425C290.023 96.5783 292.112 98.072 294.86 98.3788C297.608 98.6857 299.974 97.6895 300.144 96.1537Z" fill="#05000C"/>
<path d="M299.287 96.0656C299.147 97.3451 297.176 98.1746 294.884 97.9195C292.592 97.6644 290.854 96.4192 290.994 95.1397C291.134 93.8603 293.108 93.0307 295.398 93.2858C297.688 93.5409 299.43 94.7762 299.287 96.0656Z" fill="#040009"/>
<path d="M298.461 95.9611C298.349 96.9834 296.772 97.6482 294.94 97.4434C293.108 97.2385 291.715 96.2382 291.829 95.2199C291.943 94.2016 293.519 93.5327 295.35 93.7376C297.182 93.9425 298.575 94.9367 298.461 95.9611Z" fill="#030007"/>
<path d="M297.632 95.8621C297.546 96.6294 296.365 97.1275 294.989 96.9728C293.614 96.8182 292.571 96.073 292.657 95.3058C292.743 94.5385 293.924 94.0404 295.298 94.193C296.671 94.3457 297.718 95.0989 297.632 95.8621Z" fill="#020005"/>
<path d="M296.8 95.7733C296.742 96.2835 295.956 96.6169 295.039 96.5145C294.122 96.412 293.428 95.9119 293.484 95.4017C293.54 94.8916 294.328 94.5582 295.245 94.6606C296.162 94.763 296.857 95.2571 296.8 95.7733Z" fill="#010002"/>
<path d="M295.974 95.6788C295.944 95.9359 295.552 96.1026 295.094 96.0503C294.635 95.9981 294.293 95.7511 294.315 95.494C294.337 95.2369 294.737 95.0722 295.196 95.1244C295.654 95.1766 296.002 95.4237 295.974 95.6788Z" fill="black"/>
</g>
</g>
<path d="M300.989 10.104L241.162 64.6218L244.825 76.663L313.991 44.4239L300.989 10.104Z" fill="url(#paint24_linear_3805_2238)"/>
<path d="M295.982 29.4402L302.844 21.398L300.99 10.104L310.587 15.9107L319.863 12.7573L319.766 24.1417L328.422 33.4091L317.871 33.7505L313.991 44.4239L307.204 32.8668L295.982 29.4402Z" fill="url(#paint25_linear_3805_2238)"/>
<path style="mix-blend-mode:screen" d="M328.422 33.4031L319.766 24.1337L319.863 12.7493L310.587 15.9027L300.992 10.104L302.844 21.398L295.982 29.4322L307.204 32.8587L313.991 44.4179L317.871 33.7445L328.422 33.4031ZM313.703 41.2585L308.098 31.7159L298.348 28.7392L304.277 21.7917L302.798 12.7693L310.424 17.389L318.497 14.6453L318.413 24.6679L325.399 32.1497L316.916 32.4229L313.703 41.2585Z" fill="url(#paint26_radial_3805_2238)"/>
<g style="mix-blend-mode:overlay" opacity="0.22">
<path d="M295.98 29.439L242.63 69.4471L243.933 73.7353L307.202 32.8655L295.98 29.439Z" fill="black"/>
</g>
<g style="mix-blend-mode:overlay" opacity="0.16">
<path d="M302.843 21.398L242.425 67.7069L241.162 64.6218L300.989 10.104L302.843 21.398Z" fill="white"/>
</g>
<path d="M328.422 33.4087L315.901 39.1712L317.871 33.7501L328.422 33.4087Z" fill="url(#paint27_linear_3805_2238)"/>
<path fill-rule="evenodd" clip-rule="evenodd" d="M115.51 1.16064C127.218 4.89821 133.695 17.4648 129.972 29.2305C126.25 40.9867 113.734 47.4893 102.016 43.7517C90.3068 40.0142 83.8304 27.4476 87.5529 15.6818C91.2754 3.92568 103.791 -2.57692 115.51 1.16064Z" fill="#BE6C2B"/>
<path fill-rule="evenodd" clip-rule="evenodd" d="M115.51 1.16064C119.441 2.41921 122.784 4.66938 125.348 7.55836C129.051 13.0312 130.295 20.0964 128.149 26.885C124.427 38.6412 111.911 45.1438 100.192 41.4062C96.261 40.1477 92.9184 37.8975 90.3544 35.0085C86.6509 29.5356 85.4069 22.4705 87.553 15.6819C91.2755 3.92568 103.791 -2.57692 115.51 1.16064Z" fill="#DC8944"/>
<path fill-rule="evenodd" clip-rule="evenodd" d="M113.268 5.15212C121.805 7.87902 126.524 17.0322 123.809 25.6039C121.093 34.1755 111.976 38.9142 103.439 36.1873C94.9022 33.4604 90.1826 24.3072 92.8985 15.7355C95.6144 7.16393 104.731 2.42522 113.268 5.15212Z" fill="white"/>
<path fill-rule="evenodd" clip-rule="evenodd" d="M112.877 6.40383C120.73 8.91143 125.07 17.3305 122.572 25.2156C120.55 31.5943 114.681 35.656 108.356 35.656V34.2353C114.083 34.2353 119.4 30.555 121.224 24.777C123.484 17.6356 119.552 10.0079 112.449 7.73867C111.091 7.30008 109.714 7.09986 108.356 7.09986V5.6792C109.857 5.6792 111.376 5.90803 112.877 6.38476V6.40383ZM108.347 35.656C106.847 35.656 105.327 35.4272 103.827 34.9504C95.9735 32.4428 91.6337 24.0238 94.1312 16.1387C96.1539 9.76001 102.023 5.69827 108.347 5.69827V7.11893C102.621 7.11893 97.3029 10.7993 95.4797 16.5773C93.2196 23.7187 97.151 31.3464 104.254 33.6156C105.612 34.0542 106.989 34.2544 108.347 34.2544V35.6751V35.656Z" fill="#DC8944"/>
<path d="M108.368 27.8182C107.141 27.6842 106.071 27.365 105.158 26.8605C104.251 26.3514 103.565 25.7179 103.099 24.9601C102.633 24.2023 102.448 23.3807 102.544 22.4955C102.618 21.8129 102.84 21.2031 103.209 20.6661C103.585 20.1244 104.062 19.6935 104.639 19.3735C105.217 19.0481 105.844 18.8684 106.52 18.8342L106.532 18.7223C105.68 18.4511 105.019 17.95 104.55 17.2188C104.082 16.4823 103.896 15.6661 103.994 14.7702C104.085 13.9223 104.414 13.1946 104.98 12.5873C105.546 11.9747 106.28 11.526 107.181 11.2414C108.089 10.952 109.092 10.8674 110.192 10.9875C111.291 11.1076 112.25 11.4067 113.069 11.8846C113.893 12.3632 114.516 12.9628 114.938 13.6834C115.36 14.3986 115.528 15.1778 115.442 16.021C115.339 16.9217 114.978 17.6781 114.358 18.2903C113.738 18.9025 112.991 19.2499 112.117 19.3324L112.105 19.4444C112.746 19.6224 113.312 19.9325 113.802 20.3745C114.297 20.8117 114.67 21.3354 114.921 21.9456C115.178 22.5511 115.272 23.1954 115.203 23.8786C115.102 24.7633 114.743 25.5253 114.125 26.1648C113.508 26.8042 112.699 27.2743 111.699 27.5752C110.705 27.8713 109.595 27.9523 108.368 27.8182ZM108.643 25.2744C109.19 25.3342 109.679 25.2878 110.109 25.1351C110.54 24.9772 110.889 24.7347 111.156 24.4076C111.428 24.0759 111.589 23.678 111.64 23.214C111.691 22.7394 111.617 22.3077 111.417 21.919C111.218 21.5249 110.925 21.2015 110.539 20.9488C110.153 20.6908 109.695 20.5328 109.163 20.4748C108.638 20.4173 108.156 20.4727 107.719 20.6407C107.282 20.8034 106.924 21.0557 106.645 21.3976C106.372 21.7347 106.21 22.1406 106.158 22.6152C106.108 23.0792 106.178 23.5023 106.367 23.8845C106.558 24.2615 106.849 24.5739 107.241 24.8218C107.634 25.0644 108.102 25.2152 108.643 25.2744ZM109.437 17.955C109.893 18.0049 110.31 17.956 110.686 17.8082C111.062 17.6604 111.369 17.4322 111.607 17.1236C111.844 16.815 111.986 16.4448 112.033 16.0128C112.079 15.5862 112.019 15.2018 111.852 14.8598C111.685 14.5124 111.437 14.229 111.106 14.0093C110.775 13.7844 110.376 13.6464 109.909 13.5953C109.447 13.5448 109.028 13.5935 108.652 13.7412C108.276 13.8837 107.97 14.1065 107.733 14.4098C107.502 14.7083 107.363 15.0709 107.317 15.4975C107.27 15.9295 107.329 16.3218 107.495 16.6745C107.661 17.0272 107.912 17.3163 108.248 17.5418C108.584 17.7674 108.98 17.9051 109.437 17.955Z" fill="#DC8944"/>
<path opacity="0.5" fill-rule="evenodd" clip-rule="evenodd" d="M99.3763 3.7702C104.751 1.11958 110.249 1.31027 111.664 4.19926C113.079 7.08824 109.86 11.5695 104.485 14.2201C99.1104 16.8708 93.6121 16.6801 92.1972 13.7911C90.7823 10.9021 94.0015 6.42082 99.3763 3.7702Z" fill="white"/>
<path fill-rule="evenodd" clip-rule="evenodd" d="M93.8472 41.3323C107.607 40.2072 119.677 50.4855 120.797 64.3011C121.918 78.1168 111.681 90.2353 97.921 91.3604C84.1611 92.4855 72.0915 82.2071 70.9709 68.3915C69.8409 54.5758 80.0872 42.4574 93.8472 41.3323Z" fill="#65987F"/>
<path fill-rule="evenodd" clip-rule="evenodd" d="M93.8474 41.333C107.313 40.227 119.155 50.0476 120.712 63.4151C120.712 76.3536 110.817 87.3375 97.7504 88.4149C84.2848 89.5209 72.4431 79.7003 70.8857 66.3327C70.8857 53.3943 80.7807 42.4104 93.8474 41.3425V41.333Z" fill="#8BC1A9"/>
<path fill-rule="evenodd" clip-rule="evenodd" d="M97.8633 48.5409C107.891 47.7209 116.685 55.2151 117.501 65.2836C118.318 75.3522 110.854 84.1812 100.826 85.0012C90.7982 85.8212 82.0047 78.327 81.1881 68.2584C80.3714 58.1899 87.8354 49.3608 97.8633 48.5313V48.5409Z" fill="white"/>
<path fill-rule="evenodd" clip-rule="evenodd" d="M99.3461 49.9419C107.988 49.9324 115.328 56.5971 116.05 65.3975C116.8 74.6556 109.934 82.7791 100.714 83.5419C100.258 83.58 99.8019 83.5991 99.3461 83.5991V82.0068C99.7544 82.0068 100.172 81.9877 100.581 81.9591C108.937 81.2726 115.148 73.9214 114.464 65.531C113.818 57.5601 107.171 51.5246 99.3366 51.5342V49.9419H99.3461ZM97.9882 49.9991C98.444 49.961 98.8998 49.9419 99.3556 49.9419V51.5342C98.9473 51.5342 98.5294 51.5532 98.1211 51.5819C89.7645 52.2683 83.554 59.6195 84.2377 68.01C84.8835 75.9809 91.5308 82.0163 99.3651 82.0068V83.5991C90.7236 83.5991 83.3831 76.9439 82.6614 68.1435C81.9017 58.8854 88.7769 50.7619 97.9977 49.9991H97.9882Z" fill="#8BC1A9"/>
<path d="M96.0123 75.7L95.2162 72.9235L99.9552 65.0491C100.352 64.3563 100.675 63.7425 100.924 63.2078C101.18 62.6713 101.347 62.1702 101.424 61.7045C101.5 61.2329 101.469 60.7568 101.332 60.2762C101.179 59.7423 100.926 59.3175 100.573 59.0019C100.218 58.6804 99.8015 58.4764 99.3224 58.39C98.8416 58.2977 98.3354 58.3284 97.8036 58.4821C97.2482 58.6427 96.796 58.8954 96.447 59.2404C96.098 59.5854 95.8716 60.001 95.7679 60.4871C95.6641 60.9732 95.6956 61.507 95.8623 62.0884L92.2195 63.1413C91.8776 61.9488 91.8497 60.8359 92.1356 59.8024C92.4215 58.769 92.9802 57.8719 93.8114 57.1113C94.6427 56.3506 95.6905 55.7876 96.955 55.4221C98.2549 55.0463 99.4528 54.9507 100.549 55.135C101.649 55.3117 102.584 55.7288 103.355 56.3861C104.125 57.0435 104.661 57.8972 104.962 58.9473C105.16 59.6355 105.219 60.3541 105.139 61.103C105.065 61.8503 104.803 62.7323 104.353 63.7491C103.9 64.76 103.214 66.0152 102.294 67.5147L100.391 70.8881L100.427 71.0127L108.049 68.8095L108.952 71.9597L96.0123 75.7Z" fill="#8BC1A9"/>
<path opacity="0.5" fill-rule="evenodd" clip-rule="evenodd" d="M85.3188 45.7938C91.8427 42.5806 98.5185 42.8095 100.228 46.3087C101.937 49.8079 98.0437 55.2617 91.5198 58.4748C84.996 61.688 78.3202 61.4592 76.6109 57.96C74.9015 54.4608 78.795 49.007 85.3188 45.7938Z" fill="white"/>
<path fill-rule="evenodd" clip-rule="evenodd" d="M205.989 27.3122C219.749 26.1872 231.818 36.4655 232.939 50.2811C234.059 64.0968 223.823 76.2153 210.063 77.3403C196.303 78.4654 184.233 68.1871 183.113 54.3715C181.982 40.5558 192.229 28.4373 205.989 27.3122Z" fill="#65987F"/>
<path fill-rule="evenodd" clip-rule="evenodd" d="M205.989 27.313C219.455 26.207 231.296 36.0276 232.854 49.3951C232.854 62.3336 222.959 73.3175 209.892 74.3949C196.426 75.5009 184.585 65.6802 183.027 52.3127C183.027 39.3743 192.922 28.3904 205.989 27.3225V27.313Z" fill="#8BC1A9"/>
<path fill-rule="evenodd" clip-rule="evenodd" d="M210.005 34.5208C220.033 33.7009 228.826 41.1951 229.643 51.2636C230.46 61.3321 222.996 70.1612 212.968 70.9812C202.94 71.8011 194.146 64.3069 193.33 54.2384C192.513 44.1699 199.977 35.3408 210.005 34.5113V34.5208Z" fill="white"/>
<path fill-rule="evenodd" clip-rule="evenodd" d="M211.488 35.9219C220.129 35.9124 227.47 42.577 228.191 51.3775C228.942 60.6356 222.076 68.7591 212.855 69.5218C212.399 69.56 211.944 69.579 211.488 69.579V67.9868C211.896 67.9868 212.314 67.9677 212.722 67.9391C221.079 67.2526 227.289 59.9014 226.606 51.511C225.96 43.54 219.313 37.5046 211.478 37.5142V35.9219H211.488ZM210.13 35.9791C210.586 35.941 211.041 35.9219 211.497 35.9219V37.5142C211.089 37.5142 210.671 37.5332 210.263 37.5618C201.906 38.2483 195.696 45.5995 196.379 53.99C197.025 61.9609 203.672 67.9963 211.507 67.9868V69.579C202.865 69.579 195.525 62.9239 194.803 54.1234C194.043 44.8653 200.918 36.7419 210.139 35.9791H210.13Z" fill="#8BC1A9"/>
<path d="M208.154 61.68L207.358 58.9035L212.097 51.0291C212.493 50.3363 212.816 49.7225 213.066 49.1878C213.322 48.6513 213.488 48.1502 213.566 47.6845C213.642 47.2129 213.611 46.7368 213.473 46.2562C213.32 45.7223 213.067 45.2975 212.714 44.9819C212.36 44.6604 211.943 44.4564 211.464 44.37C210.983 44.2777 210.477 44.3084 209.945 44.4621C209.39 44.6227 208.938 44.8754 208.589 45.2204C208.24 45.5654 208.013 45.981 207.909 46.4671C207.806 46.9532 207.837 47.487 208.004 48.0684L204.361 49.1213C204.019 47.9288 203.991 46.8159 204.277 45.7824C204.563 44.749 205.122 43.8519 205.953 43.0913C206.784 42.3306 207.832 41.7675 209.097 41.4021C210.397 41.0263 211.594 40.9306 212.69 41.115C213.79 41.2917 214.726 41.7088 215.496 42.3661C216.267 43.0235 216.803 43.8772 217.104 44.9273C217.301 45.6155 217.36 46.3341 217.281 47.083C217.207 47.8303 216.945 48.7123 216.494 49.7291C216.042 50.74 215.355 51.9952 214.435 53.4946L212.533 56.868L212.569 56.9926L220.191 54.7894L221.094 57.9397L208.154 61.68Z" fill="#8BC1A9"/>
<path opacity="0.5" fill-rule="evenodd" clip-rule="evenodd" d="M197.458 31.7728C203.982 28.5596 210.658 28.7885 212.367 32.2877C214.077 35.7869 210.183 41.2407 203.659 44.4538C197.136 47.667 190.46 47.4382 188.751 43.939C187.041 40.4398 190.935 34.986 197.458 31.7728Z" fill="white"/>
<path fill-rule="evenodd" clip-rule="evenodd" d="M237.163 30.7742C254.33 24.2519 273.52 32.9371 280.016 50.1745C286.512 67.4118 277.862 86.679 260.694 93.2012C243.526 99.7234 224.337 91.0382 217.841 73.8009C211.345 56.5636 219.995 37.2964 237.163 30.7742Z" fill="#5B3267"/>
<path fill-rule="evenodd" clip-rule="evenodd" d="M237.162 30.7737C254.015 24.3679 272.824 32.6371 279.635 49.2422C284.506 65.8306 275.873 83.6503 259.5 89.8564C242.648 96.2621 223.839 87.9929 217.028 71.3878C212.156 54.7994 220.79 36.9798 237.162 30.7737Z" fill="#875796"/>
<path fill-rule="evenodd" clip-rule="evenodd" d="M239.731 44.4102C252.242 39.6517 266.228 45.9909 270.951 58.5528C275.69 71.1147 269.377 85.1575 256.865 89.8994C244.354 94.658 230.368 88.3188 225.645 75.7568C220.906 63.1949 227.219 49.1521 239.731 44.4102Z" fill="white"/>
<path fill-rule="evenodd" clip-rule="evenodd" d="M248.297 44.7891C257.295 44.7891 265.763 50.2963 269.143 59.2478C273.502 70.8114 267.702 83.7228 256.185 88.082C253.583 89.0637 250.915 89.5295 248.297 89.5295V87.4165C250.666 87.4165 253.086 87.0005 255.439 86.1021C265.862 82.1421 271.115 70.4454 267.171 59.9965C264.122 51.8936 256.45 46.9021 248.297 46.9021V44.7891ZM240.409 46.2366C243.01 45.2549 245.678 44.7891 248.297 44.7891V46.9021C245.927 46.9021 243.508 47.3181 241.155 48.2166C230.731 52.1765 225.478 63.8732 229.422 74.3221C232.471 82.425 240.144 87.4165 248.297 87.4165V89.5295C239.299 89.5295 230.831 84.0223 227.45 75.0708C223.092 63.5072 228.892 50.5958 240.409 46.2366Z" fill="#875796"/>
<path d="M239.689 75.568L239.003 71.5287L246.38 53.8452L249.848 53.2512L250.798 58.8423L248.745 59.1938L244.103 70.3872L244.135 70.5767L258.469 68.1217L259.168 72.2321L239.689 75.568ZM252.011 77.8463L251.077 72.3499L250.868 70.5451L247.984 53.5704L252.774 52.7501L256.895 77.0097L252.011 77.8463Z" fill="#875796"/>
<path opacity="0.5" fill-rule="evenodd" clip-rule="evenodd" d="M236.12 35.3538C245.499 30.7284 255.094 31.0612 257.563 36.1026C260.032 41.144 254.415 48.964 245.035 53.5895C235.656 58.2149 226.061 57.8822 223.592 52.8407C221.123 47.7993 226.741 39.9793 236.12 35.3538Z" fill="white"/>
<path fill-rule="evenodd" clip-rule="evenodd" d="M303.372 54.3143C307.93 60.569 306.572 69.3409 300.342 73.9079C294.113 78.475 285.376 77.1211 280.828 70.8664C276.27 64.6117 277.628 55.8399 283.857 51.2728C290.087 46.6962 298.823 48.0596 303.372 54.3143Z" fill="#395B7E"/>
<path fill-rule="evenodd" clip-rule="evenodd" d="M303.371 54.3143C304.273 55.5538 304.938 56.8887 305.384 58.2712C306.372 63.4294 304.416 68.9309 299.914 72.2394C293.685 76.8065 284.948 75.4526 280.4 69.1978C279.498 67.9583 278.833 66.6235 278.387 65.241C277.399 60.0828 279.355 54.5813 283.856 51.2728C290.086 46.6962 298.822 48.0596 303.371 54.3143Z" fill="#5884AD"/>
<path fill-rule="evenodd" clip-rule="evenodd" d="M302.069 57.5557C305.383 62.1133 304.396 68.5015 299.856 71.8386C295.317 75.1662 288.955 74.1746 285.631 69.6266C282.317 65.069 283.305 58.6808 287.834 55.3437C292.373 52.0161 298.736 53.0077 302.06 57.5557H302.069Z" fill="white"/>
<path fill-rule="evenodd" clip-rule="evenodd" d="M301.414 58.0419C304.462 62.2276 303.56 68.1105 299.382 71.1806C297.71 72.4106 295.773 72.9922 293.855 72.9922V72.1055C295.593 72.1055 297.35 71.5715 298.859 70.4655C302.639 67.6909 303.465 62.3611 300.702 58.5759C299.04 56.2971 296.466 55.0957 293.855 55.0862V54.1995C296.742 54.1995 299.581 55.5343 301.414 58.0515V58.0419ZM293.855 72.9922C290.968 72.9922 288.129 71.6573 286.296 69.1402C283.248 64.9545 284.15 59.0717 288.328 56.0015C290 54.7811 291.937 54.1899 293.855 54.1899V55.0767C292.117 55.0767 290.36 55.6106 288.851 56.7166C285.071 59.4912 284.245 64.821 287.008 68.6063C288.67 70.885 291.244 72.0959 293.855 72.0959V72.9827V72.9922Z" fill="#5884AD"/>
<path d="M288.254 65.1375L297.521 62.9689L297.575 62.9233L294.366 59.0741L295.738 57.9209L300.401 63.5137L299.009 64.6832L289.704 66.8772L288.254 65.1375Z" fill="#5884AD"/>
<path opacity="0.5" fill-rule="evenodd" clip-rule="evenodd" d="M286.373 51.4909C290.789 49.317 295.309 49.4696 296.467 51.8437C297.626 54.2178 294.986 57.8982 290.57 60.0816C286.154 62.2555 281.634 62.1029 280.476 59.7288C279.317 57.3547 281.957 53.6743 286.373 51.4909Z" fill="white"/>
<path fill-rule="evenodd" clip-rule="evenodd" d="M175.166 33.7884C186.051 48.725 182.808 69.6726 167.932 80.579C153.056 91.4854 132.192 88.2522 121.33 73.3156C110.445 58.3791 113.688 37.4315 128.564 26.525C143.44 15.5959 164.304 18.8519 175.166 33.7884Z" fill="#395B7E"/>
<path fill-rule="evenodd" clip-rule="evenodd" d="M175.166 33.7879C177.321 36.7479 178.908 39.9356 179.974 43.2371C182.332 55.5552 177.661 68.693 166.912 76.5939C152.035 87.5003 131.172 84.2671 120.31 69.3305C118.156 66.3706 116.568 63.1829 115.502 59.8814C113.144 47.5632 117.815 34.4254 128.564 26.5246C143.441 15.5954 164.304 18.8514 175.166 33.7879Z" fill="#5884AD"/>
<path fill-rule="evenodd" clip-rule="evenodd" d="M172.058 41.5283C179.973 52.4119 177.614 67.6672 166.775 75.6364C155.935 83.5829 140.741 81.2149 132.804 70.354C124.89 59.4703 127.248 44.215 138.065 36.2458C148.905 28.2994 164.099 30.6674 172.036 41.5283H172.058Z" fill="white"/>
<path fill-rule="evenodd" clip-rule="evenodd" d="M170.495 42.6914C177.775 52.6871 175.621 66.7356 165.642 74.0673C161.651 77.0045 157.025 78.3934 152.444 78.3934V76.2759C156.594 76.2759 160.79 75.0008 164.395 72.3596C173.421 65.7338 175.394 53.0058 168.795 43.9665C164.826 38.5247 158.681 35.6557 152.444 35.633V33.5154C159.338 33.5154 166.119 36.7031 170.495 42.7142V42.6914ZM152.444 78.3934C145.55 78.3934 138.77 75.2057 134.393 69.1947C127.114 59.199 129.268 45.1505 139.246 37.8188C143.237 34.9044 147.863 33.4927 152.444 33.4927V35.6102C148.294 35.6102 144.099 36.8853 140.493 39.5265C131.468 46.1523 129.495 58.8803 136.094 67.9196C140.062 73.3614 146.208 76.2531 152.444 76.2531V78.3706V78.3934Z" fill="#5884AD"/>
<path d="M139.061 59.6407L161.191 54.4621L161.321 54.3531L153.658 45.1612L156.935 42.4072L168.069 55.763L164.745 58.5559L142.525 63.7952L139.061 59.6407Z" fill="#5884AD"/>
<path opacity="0.5" fill-rule="evenodd" clip-rule="evenodd" d="M134.573 27.0436C145.118 21.8522 155.912 22.2165 158.679 27.886C161.446 33.5555 155.141 42.3444 144.596 47.5586C134.052 52.7499 123.257 52.3856 120.49 46.7161C117.724 41.0466 124.028 32.2577 134.573 27.0436Z" fill="white"/>
<path fill-rule="evenodd" clip-rule="evenodd" d="M176.09 47.9784C186.716 44.8034 197.883 50.8769 201.046 61.5462C204.208 72.2154 198.159 83.4281 187.533 86.6031C176.906 89.7782 165.739 83.7046 162.577 73.0354C159.414 62.3661 165.463 51.1535 176.09 47.9784Z" fill="#B65155"/>
<path fill-rule="evenodd" clip-rule="evenodd" d="M176.96 55.9782C184.7 53.6613 192.847 58.0949 195.146 65.8656C197.453 73.6363 193.037 81.817 185.298 84.1243C177.559 86.4412 169.411 82.0077 167.113 74.2369C164.805 66.4662 169.221 58.2855 176.96 55.9782Z" fill="white"/>
<path fill-rule="evenodd" clip-rule="evenodd" d="M181.129 56.5415C186.931 56.5415 192.287 60.3363 194.024 66.2001C196.142 73.351 192.087 80.8738 184.965 83.0001C183.683 83.3814 182.401 83.5626 181.129 83.5626V82.285C182.278 82.285 183.446 82.1229 184.604 81.7701C191.052 79.8441 194.727 73.0364 192.809 66.5624C191.232 61.2516 186.389 57.8191 181.138 57.8191V56.5415H181.129ZM177.292 57.1136C178.574 56.7322 179.856 56.551 181.129 56.551V57.8287C179.98 57.8287 178.811 57.9908 177.653 58.3435C171.205 60.2695 167.53 67.0773 169.448 73.5513C171.025 78.862 175.868 82.2945 181.119 82.2945V83.5721C175.317 83.5721 169.961 79.7774 168.223 73.9136C166.106 66.7626 170.161 59.2398 177.283 57.1136H177.292Z" fill="#B65155"/>
<path d="M181.5 78.0981C180.404 78.0346 179.438 77.7889 178.603 77.361C177.774 76.9284 177.131 76.3636 176.675 75.6667C176.224 74.9652 176.017 74.1742 176.053 73.2938L179.254 73.4791C179.252 73.8488 179.353 74.18 179.557 74.4729C179.767 74.7611 180.053 74.9921 180.416 75.166C180.779 75.3398 181.193 75.4402 181.658 75.4671C182.143 75.4952 182.576 75.434 182.958 75.2835C183.34 75.1331 183.645 74.9116 183.873 74.6192C184.1 74.3267 184.226 73.9814 184.249 73.5834C184.272 73.1805 184.18 72.8177 183.972 72.4951C183.77 72.1679 183.466 71.9038 183.06 71.7028C182.659 71.5021 182.175 71.3853 181.607 71.3524L180.205 71.2713L180.34 68.9273L181.742 69.0085C182.222 69.0363 182.65 68.9773 183.026 68.8314C183.408 68.6859 183.71 68.4717 183.932 68.1887C184.155 67.9009 184.278 67.558 184.301 67.1599C184.323 66.7816 184.251 66.4446 184.086 66.1492C183.927 65.849 183.69 65.6086 183.377 65.4277C183.068 65.2471 182.7 65.1445 182.275 65.1199C181.844 65.0949 181.446 65.1507 181.079 65.2873C180.713 65.4189 180.414 65.621 180.183 65.8936C179.951 66.1661 179.817 66.4936 179.78 66.876L176.734 66.6997C176.798 65.8308 177.089 65.0785 177.607 64.4429C178.125 63.8073 178.801 63.3263 179.634 62.9999C180.473 62.6688 181.407 62.533 182.435 62.5925C183.472 62.6526 184.369 62.8943 185.125 63.3178C185.882 63.7412 186.457 64.2872 186.851 64.9559C187.25 65.6199 187.424 66.3498 187.373 67.1455C187.329 67.991 187.027 68.681 186.466 69.2155C185.91 69.7502 185.207 70.0694 184.356 70.173L184.349 70.2909C185.447 70.4975 186.267 70.932 186.808 71.5944C187.355 72.2521 187.599 73.0502 187.54 73.9884C187.495 74.8486 187.204 75.5984 186.667 76.2378C186.134 76.8775 185.421 77.3637 184.528 77.6966C183.635 78.0294 182.626 78.1633 181.5 78.0981Z" fill="#B65155"/>
<path opacity="0.5" fill-rule="evenodd" clip-rule="evenodd" d="M173.723 50.7625C179.326 47.9974 185.062 48.1977 186.533 51.2106C188.005 54.2235 184.653 58.8955 179.05 61.6605C173.448 64.4256 167.712 64.2253 166.24 61.2124C164.768 58.1995 168.12 53.5275 173.723 50.7625Z" fill="white"/>
<defs>
<linearGradient id="paint0_linear_3805_2238" x1="107.162" y1="66.6875" x2="32.2844" y2="47.576" gradientUnits="userSpaceOnUse">
<stop stop-color="#842830"/>
<stop offset="0.27" stop-color="#862C2E"/>
<stop offset="0.51" stop-color="#8E3628"/>
<stop offset="0.74" stop-color="#9A481E"/>
<stop offset="0.96" stop-color="#AC6210"/>
<stop offset="1" stop-color="#B0680D"/>
</linearGradient>
<linearGradient id="paint1_linear_3805_2238" x1="99.9884" y1="94.7915" x2="25.1106" y2="75.68" gradientUnits="userSpaceOnUse">
<stop stop-color="#842830"/>
<stop offset="0.23" stop-color="#862C2F"/>
<stop offset="0.43" stop-color="#8B362B"/>
<stop offset="0.62" stop-color="#944824"/>
<stop offset="0.81" stop-color="#A0621A"/>
<stop offset="0.99" stop-color="#AF830E"/>
<stop offset="1" stop-color="#B0840D"/>
</linearGradient>
<radialGradient id="paint2_radial_3805_2238" cx="0" cy="0" r="1" gradientUnits="userSpaceOnUse" gradientTransform="translate(51.3764 78.5404) rotate(180) scale(35.3405 35.4608)">
<stop/>
<stop offset="0.12" stop-color="#05000B"/>
<stop offset="0.37" stop-color="#0C001B"/>
<stop offset="0.64" stop-color="#110025"/>
<stop offset="1" stop-color="#120028"/>
</radialGradient>
<linearGradient id="paint3_linear_3805_2238" x1="103.791" y1="79.8981" x2="28.9129" y2="60.7866" gradientUnits="userSpaceOnUse">
<stop stop-color="#842830"/>
<stop offset="0.27" stop-color="#862C2E"/>
<stop offset="0.51" stop-color="#8E3628"/>
<stop offset="0.74" stop-color="#9A481E"/>
<stop offset="0.96" stop-color="#AC6210"/>
<stop offset="1" stop-color="#B0680D"/>
</linearGradient>
<linearGradient id="paint4_linear_3805_2238" x1="25.7355" y1="35.6757" x2="14.1604" y2="78.7934" gradientUnits="userSpaceOnUse">
<stop stop-color="#FFC600"/>
<stop offset="1" stop-color="#FFFF88"/>
</linearGradient>
<radialGradient id="paint5_radial_3805_2238" cx="0" cy="0" r="1" gradientUnits="userSpaceOnUse" gradientTransform="translate(30.2333 75.1937) rotate(180) scale(47.9314 48.0945)">
<stop stop-color="white"/>
<stop offset="0.34" stop-color="#9C9C9C"/>
<stop offset="0.66" stop-color="#484848"/>
<stop offset="0.87" stop-color="#141414"/>
<stop offset="0.98"/>
</radialGradient>
<linearGradient id="paint6_linear_3805_2238" x1="87.6604" y1="108.898" x2="25.6602" y2="113.841" gradientUnits="userSpaceOnUse">
<stop stop-color="#842830"/>
<stop offset="0.27" stop-color="#862C2E"/>
<stop offset="0.51" stop-color="#8E3628"/>
<stop offset="0.74" stop-color="#9A481E"/>
<stop offset="0.96" stop-color="#AC6210"/>
<stop offset="1" stop-color="#B0680D"/>
</linearGradient>
<linearGradient id="paint7_linear_3805_2238" x1="122.77" y1="95.0066" x2="39.403" y2="98.7671" gradientUnits="userSpaceOnUse">
<stop stop-color="#842830"/>
<stop offset="0.27" stop-color="#862C2E"/>
<stop offset="0.51" stop-color="#8E3628"/>
<stop offset="0.74" stop-color="#9A481E"/>
<stop offset="0.96" stop-color="#AC6210"/>
<stop offset="1" stop-color="#B0680D"/>
</linearGradient>
<linearGradient id="paint8_linear_3805_2238" x1="41.1376" y1="79.7637" x2="27.8026" y2="121.497" gradientUnits="userSpaceOnUse">
<stop stop-color="#FFA400"/>
<stop offset="1" stop-color="#FFFF00"/>
</linearGradient>
<radialGradient id="paint9_radial_3805_2238" cx="0" cy="0" r="1" gradientUnits="userSpaceOnUse" gradientTransform="translate(47.8013 113.622) rotate(180) scale(35.0142 35.1334)">
<stop stop-color="white"/>
<stop offset="0.34" stop-color="#9C9C9C"/>
<stop offset="0.66" stop-color="#484848"/>
<stop offset="0.87" stop-color="#141414"/>
<stop offset="0.98"/>
</radialGradient>
<linearGradient id="paint10_linear_3805_2238" x1="138.173" y1="44.4584" x2="66.1358" y2="47.3301" gradientUnits="userSpaceOnUse">
<stop stop-color="#842830"/>
<stop offset="0.27" stop-color="#862C2E"/>
<stop offset="0.51" stop-color="#8E3628"/>
<stop offset="0.74" stop-color="#9A481E"/>
<stop offset="0.96" stop-color="#AC6210"/>
<stop offset="1" stop-color="#B0680D"/>
</linearGradient>
<linearGradient id="paint11_linear_3805_2238" x1="76.0071" y1="4.69653" x2="64.3991" y2="45.9997" gradientUnits="userSpaceOnUse">
<stop stop-color="#FFA400"/>
<stop offset="1" stop-color="#FFFF00"/>
</linearGradient>
<radialGradient id="paint12_radial_3805_2238" cx="0" cy="0" r="1" gradientUnits="userSpaceOnUse" gradientTransform="translate(68.5864 40.692) rotate(180) scale(36.2973 36.4208)">
<stop stop-color="white"/>
<stop offset="0.34" stop-color="#9C9C9C"/>
<stop offset="0.66" stop-color="#484848"/>
<stop offset="0.87" stop-color="#141414"/>
<stop offset="0.98"/>
</radialGradient>
<linearGradient id="paint13_linear_3805_2238" x1="111.968" y1="57.8302" x2="99.7766" y2="52.9168" gradientUnits="userSpaceOnUse">
<stop stop-color="#842830"/>
<stop offset="0.27" stop-color="#862C2E"/>
<stop offset="0.51" stop-color="#8E3628"/>
<stop offset="0.74" stop-color="#9A481E"/>
<stop offset="0.96" stop-color="#AC6210"/>
<stop offset="1" stop-color="#B0680D"/>
</linearGradient>
<linearGradient id="paint14_linear_3805_2238" x1="265.84" y1="67.2715" x2="340.717" y2="48.16" gradientUnits="userSpaceOnUse">
<stop stop-color="#842830"/>
<stop offset="0.27" stop-color="#862C2E"/>
<stop offset="0.51" stop-color="#8E3628"/>
<stop offset="0.74" stop-color="#9A481E"/>
<stop offset="0.96" stop-color="#AC6210"/>
<stop offset="1" stop-color="#B0680D"/>
</linearGradient>
<linearGradient id="paint15_linear_3805_2238" x1="273.014" y1="95.3775" x2="347.892" y2="76.266" gradientUnits="userSpaceOnUse">
<stop stop-color="#842830"/>
<stop offset="0.23" stop-color="#862C2F"/>
<stop offset="0.43" stop-color="#8B362B"/>
<stop offset="0.62" stop-color="#944824"/>
<stop offset="0.81" stop-color="#A0621A"/>
<stop offset="0.99" stop-color="#AF830E"/>
<stop offset="1" stop-color="#B0840D"/>
</linearGradient>
<radialGradient id="paint16_radial_3805_2238" cx="0" cy="0" r="1" gradientUnits="userSpaceOnUse" gradientTransform="translate(321.624 79.1244) scale(35.3405 35.4608)">
<stop/>
<stop offset="0.12" stop-color="#05000B"/>
<stop offset="0.37" stop-color="#0C001B"/>
<stop offset="0.64" stop-color="#110025"/>
<stop offset="1" stop-color="#120028"/>
</radialGradient>
<linearGradient id="paint17_linear_3805_2238" x1="269.212" y1="80.4831" x2="344.089" y2="61.3715" gradientUnits="userSpaceOnUse">
<stop stop-color="#842830"/>
<stop offset="0.27" stop-color="#862C2E"/>
<stop offset="0.51" stop-color="#8E3628"/>
<stop offset="0.74" stop-color="#9A481E"/>
<stop offset="0.96" stop-color="#AC6210"/>
<stop offset="1" stop-color="#B0680D"/>
</linearGradient>
<linearGradient id="paint18_linear_3805_2238" x1="347.269" y1="36.2597" x2="358.842" y2="79.3774" gradientUnits="userSpaceOnUse">
<stop stop-color="#FFC600"/>
<stop offset="1" stop-color="#FFFF88"/>
</linearGradient>
<radialGradient id="paint19_radial_3805_2238" cx="0" cy="0" r="1" gradientUnits="userSpaceOnUse" gradientTransform="translate(342.771 75.7777) scale(47.9314 48.0945)">
<stop stop-color="white"/>
<stop offset="0.34" stop-color="#9C9C9C"/>
<stop offset="0.66" stop-color="#484848"/>
<stop offset="0.87" stop-color="#141414"/>
<stop offset="0.98"/>
</radialGradient>
<linearGradient id="paint20_linear_3805_2238" x1="281.813" y1="110.668" x2="343.813" y2="115.611" gradientUnits="userSpaceOnUse">
<stop stop-color="#842830"/>
<stop offset="0.27" stop-color="#862C2E"/>
<stop offset="0.51" stop-color="#8E3628"/>
<stop offset="0.74" stop-color="#9A481E"/>
<stop offset="0.96" stop-color="#AC6210"/>
<stop offset="1" stop-color="#B0680D"/>
</linearGradient>
<linearGradient id="paint21_linear_3805_2238" x1="249.641" y1="95.9905" x2="333.008" y2="99.751" gradientUnits="userSpaceOnUse">
<stop stop-color="#842830"/>
<stop offset="0.27" stop-color="#862C2E"/>
<stop offset="0.51" stop-color="#8E3628"/>
<stop offset="0.74" stop-color="#9A481E"/>
<stop offset="0.96" stop-color="#AC6210"/>
<stop offset="1" stop-color="#B0680D"/>
</linearGradient>
<linearGradient id="paint22_linear_3805_2238" x1="328.525" y1="81.1057" x2="341.858" y2="122.839" gradientUnits="userSpaceOnUse">
<stop stop-color="#FFA400"/>
<stop offset="1" stop-color="#FFFF00"/>
</linearGradient>
<radialGradient id="paint23_radial_3805_2238" cx="0" cy="0" r="1" gradientUnits="userSpaceOnUse" gradientTransform="translate(324.611 114.609) scale(35.0142 35.1334)">
<stop stop-color="white"/>
<stop offset="0.34" stop-color="#9C9C9C"/>
<stop offset="0.66" stop-color="#484848"/>
<stop offset="0.87" stop-color="#141414"/>
<stop offset="0.98"/>
</radialGradient>
<linearGradient id="paint24_linear_3805_2238" x1="241.983" y1="42.2403" x2="313.97" y2="44.8961" gradientUnits="userSpaceOnUse">
<stop stop-color="#842830"/>
<stop offset="0.27" stop-color="#862C2E"/>
<stop offset="0.51" stop-color="#8E3628"/>
<stop offset="0.74" stop-color="#9A481E"/>
<stop offset="0.96" stop-color="#AC6210"/>
<stop offset="1" stop-color="#B0680D"/>
</linearGradient>
<linearGradient id="paint25_linear_3805_2238" x1="303.98" y1="2.32283" x2="315.702" y2="43.56" gradientUnits="userSpaceOnUse">
<stop stop-color="#FFA400"/>
<stop offset="1" stop-color="#FFFF00"/>
</linearGradient>
<radialGradient id="paint26_radial_3805_2238" cx="0" cy="0" r="1" gradientUnits="userSpaceOnUse" gradientTransform="translate(311.806 39.9871) scale(36.2973 36.4208)">
<stop stop-color="white"/>
<stop offset="0.34" stop-color="#9C9C9C"/>
<stop offset="0.66" stop-color="#484848"/>
<stop offset="0.87" stop-color="#141414"/>
<stop offset="0.98"/>
</radialGradient>
<linearGradient id="paint27_linear_3805_2238" x1="266.768" y1="56.2084" x2="278.96" y2="51.297" gradientUnits="userSpaceOnUse">
<stop stop-color="#842830"/>
<stop offset="0.27" stop-color="#862C2E"/>
<stop offset="0.51" stop-color="#8E3628"/>
<stop offset="0.74" stop-color="#9A481E"/>
<stop offset="0.96" stop-color="#AC6210"/>
<stop offset="1" stop-color="#B0680D"/>
</linearGradient>
</defs>
</svg>
