<svg width="141" height="141" viewBox="0 0 141 141" fill="none" xmlns="http://www.w3.org/2000/svg">
<g filter="url(#filter0_d_3805_3243)">
<path d="M73.7567 28.3036C74.2611 23.6638 75.917 19.0463 79.0532 15.6053C81.9042 12.4751 85.9835 10.455 90.1834 10.4106C94.3832 10.3773 98.627 12.4307 100.963 15.9716C103.298 19.5125 103.518 24.4519 101.237 28.015C98.9559 31.5892 94.1859 33.4095 90.2272 31.9888C88.8784 31.5004 87.5735 30.679 86.148 30.79C84.6676 30.9121 83.4285 32.0776 82.8034 33.4317C82.1894 34.7859 82.0797 36.3066 82.0029 37.7829C81.9152 39.2703 81.8494 40.7799 81.2902 42.1563C80.7309 43.5327 79.5795 44.7536 78.1211 44.9645C72.5834 45.7304 73.4277 31.3783 73.7677 28.2814L73.7567 28.3036Z" fill="#FFC72C"/>
<path d="M84.8323 22.4537C87.2995 21.0996 90.2384 20.7888 93.0236 21.1662C95.6774 21.5214 98.3311 22.5425 100.14 24.5516C100.82 25.3064 101.347 26.2277 101.676 27.2156C101.533 27.4931 101.412 27.7817 101.237 28.037C98.9561 31.6112 94.186 33.4315 90.2274 32.0108C88.8786 31.5224 87.5737 30.701 86.1481 30.812C84.6678 30.9341 83.4286 32.0996 82.8036 33.4537C82.1895 34.8079 82.0799 36.3286 82.0031 37.8049C81.9154 39.2923 81.8496 40.8019 81.2903 42.1783C80.8736 43.1995 80.128 44.1429 79.1739 44.6424C79.1081 44.2539 79.0533 43.8988 78.9875 43.5991C78.6585 42.0784 78.3954 40.5355 78.2309 38.9926C77.9129 35.8513 78.0554 32.6213 79.0862 29.6465C80.117 26.6717 82.1018 23.9633 84.8432 22.4537H84.8323Z" fill="#E98F2F"/>
<path d="M30.2995 39.703C27.9857 35.6516 26.6369 30.9341 27.1523 26.2944C27.6239 22.0653 29.7293 17.9916 33.0958 15.4387C36.4622 12.8968 41.0898 12.0199 45.0374 13.474C48.9851 14.9281 52.0445 18.7797 52.2967 23.031C52.538 27.2711 49.7746 31.6001 45.7502 32.8211C44.3795 33.2429 42.8443 33.3539 41.7587 34.2974C40.6402 35.2853 40.3112 36.9614 40.6073 38.4265C40.9034 39.8806 41.7038 41.1793 42.5043 42.4225C43.3048 43.6657 44.1273 44.9422 44.4891 46.3741C44.84 47.8171 44.6317 49.4931 43.579 50.5254C39.5655 54.4548 31.8566 42.3781 30.3214 39.6808L30.2995 39.703Z" fill="#FFC72C"/>
<path d="M35.8152 28.3479C37.0105 25.7727 39.2036 23.7636 41.6709 22.3983C44.0176 21.0996 46.759 20.3337 49.3798 20.8665C50.3777 21.0663 51.3317 21.4992 52.1761 22.0875C52.2199 22.3983 52.2857 22.698 52.3077 23.0088C52.5489 27.249 49.7856 31.5779 45.7611 32.7989C44.3904 33.2207 42.8552 33.3317 41.7696 34.2752C40.6511 35.2631 40.3221 36.9392 40.6182 38.4044C40.9143 39.8585 41.7148 41.1572 42.5153 42.4004C43.3158 43.6435 44.1382 44.92 44.5001 46.3519C44.7632 47.4286 44.7084 48.6385 44.2259 49.6042C43.9518 49.3267 43.6886 49.0714 43.4693 48.8716C42.3179 47.8393 41.1994 46.7626 40.1686 45.6082C38.0742 43.2661 36.2977 40.58 35.3985 37.5608C34.4884 34.5416 34.5103 31.1673 35.8372 28.3146L35.8152 28.3479Z" fill="#E98F2F"/>
<path d="M14.4868 86.2116C18.4126 115.094 45.2347 129.867 73.7675 125.894C102.3 121.92 129.254 102.495 117.806 71.8261C111.095 36.595 84.2836 33.1763 55.7508 37.15C27.218 41.1238 10.5611 57.3297 14.4868 86.2116Z" fill="#FFC72C"/>
<g style="mix-blend-mode:soft-light" opacity="0.7">
<path d="M95.1615 13.3963C93.078 12.2308 90.6327 12.1198 88.6588 13.1077C87.8364 13.5184 87.0688 14.14 86.696 15.0723C86.3231 16.0047 86.4438 17.2923 87.1565 18.0582C87.6719 18.6132 88.3847 18.8019 89.0536 18.9684C91.0603 19.4679 93.0561 19.9674 95.0628 20.478C96.4335 20.8221 99.5807 21.0774 99.3614 18.6132C99.164 16.4931 96.7077 14.2621 95.1615 13.3963Z" fill="white"/>
</g>
<g style="mix-blend-mode:soft-light" opacity="0.7">
<path d="M39.9273 14.5841C38.2276 14.4953 36.6266 15.2057 35.6616 16.4711C35.2669 16.9928 34.9598 17.6366 35.0147 18.3581C35.0695 19.0796 35.541 19.8677 36.2319 20.123C36.7363 20.3116 37.2517 20.2118 37.7342 20.1119C39.1816 19.8011 40.6181 19.4792 42.0656 19.1684C43.0525 18.9575 45.147 18.1139 44.2478 16.6043C43.4692 15.3056 41.1884 14.6507 39.9383 14.5841H39.9273Z" fill="white"/>
</g>
<path d="M30.3323 69.0849C31.2754 75.989 37.3065 78.9527 44.1382 77.9981C50.9588 77.0435 55.9811 72.5481 55.049 65.6439C54.106 58.7398 47.9542 54.9547 41.1335 55.8982C34.3129 56.8528 29.4002 62.1696 30.3323 69.0849Z" fill="white"/>
<path d="M35.0587 67.631C35.7934 73.0366 40.1359 76.8994 44.7524 76.2556C49.369 75.6118 52.5271 70.7057 51.7924 65.3C51.0577 59.8944 46.8688 57.1638 42.2523 57.8076C37.6357 58.4514 34.324 62.2253 35.0587 67.631Z" fill="#5F5FC0"/>
<path d="M38.3486 66.5322C38.9298 70.839 42.3949 73.9247 46.0794 73.4141C49.7639 72.9035 52.2751 68.9853 51.6939 64.6785C51.1127 60.3717 47.7681 58.1851 44.0837 58.7068C40.3992 59.2174 37.7674 62.2254 38.3486 66.5433V66.5322Z" fill="#232323" stroke="#232323" stroke-width="1.5" stroke-linecap="round" stroke-linejoin="round"/>
<path d="M36.4953 66.4875C36.6597 67.6641 37.6028 68.5077 38.6116 68.3634C39.6205 68.2191 40.3004 67.1535 40.1468 65.9769C39.9824 64.8003 39.0393 63.9567 38.0305 64.101C37.0216 64.2453 36.3417 65.3109 36.4953 66.4875Z" fill="white"/>
<path d="M40.0042 72.5927C29.7403 74.5352 28.0625 82.0498 28.0625 82.0498L56.2225 79.5079C56.2225 79.5079 52.4832 70.2284 40.0042 72.5927Z" fill="#FFC72C"/>
<path d="M84.4482 63.2129C85.3913 70.117 91.4224 73.0807 98.2541 72.1261C105.075 71.1715 110.097 66.676 109.165 59.7719C108.222 52.8678 101.588 48.3057 94.767 49.2603C87.9463 50.2149 83.5162 56.3087 84.4482 63.2129Z" fill="white"/>
<path d="M89.1745 61.7589C89.9092 67.1646 94.2516 71.0273 98.8682 70.3835C103.485 69.7398 106.643 64.8336 105.908 59.4279C105.173 54.0223 100.985 51.2917 96.368 51.9355C91.7514 52.5793 88.4398 56.3533 89.1745 61.7589Z" fill="#5F5FC0"/>
<path d="M92.4751 60.6601C93.0562 64.9669 96.5214 68.0527 100.206 67.5421C103.89 67.0315 106.402 63.1132 105.82 58.8064C105.239 54.4997 101.895 52.313 98.2101 52.8347C94.5256 53.3453 91.8939 56.3534 92.4751 60.6712V60.6601Z" fill="#232323"/>
<path d="M90.611 60.6047C90.7755 61.7813 91.7185 62.6249 92.7274 62.4806C93.7362 62.3363 94.4161 61.2707 94.2626 60.0941C94.0981 58.9175 93.155 58.0739 92.1462 58.2182C91.1373 58.3625 90.4575 59.4281 90.611 60.6047Z" fill="white"/>
<path d="M99.0874 64.3676C86.4439 65.4998 85.3145 75.4564 85.3145 75.4564L113.102 70.2172C113.102 70.2172 109.483 63.4463 99.0874 64.3787V64.3676Z" fill="#FFC72C"/>
<path d="M75.9611 54.4995C76.2133 56.3753 73.3293 58.1069 71.4761 58.3622C69.6229 58.6175 66.9034 57.5297 66.6512 55.6538C66.399 53.778 69.1075 52.7679 70.9607 52.5015C72.8139 52.2462 75.7089 52.6125 75.9611 54.4884V54.4995Z" fill="#E98F2F"/>
<path d="M77.518 59.7165C78.9435 59.6721 80.4568 60.1494 81.3231 61.2927C82.1236 62.3361 82.2661 63.7458 82.1455 65.0556C81.7178 69.3179 78.5159 73.0697 74.5134 74.4683C70.5109 75.8669 65.9053 75.0233 62.4072 72.6146C60.7953 71.5046 59.3587 70.0283 58.7337 68.1636C58.1087 66.2988 58.4596 64.0233 59.929 62.7357C61.19 61.6368 62.9665 61.437 64.6223 61.2927C66.9251 61.104 69.2279 60.9375 71.5307 60.8043C72.5505 60.7488 73.4058 60.6933 74.3708 60.3603C75.3906 60.0162 76.4324 59.7276 77.507 59.6943L77.518 59.7165Z" fill="#232323"/>
<path d="M62.2648 68.7406C63.9754 68.4187 65.7519 68.6851 67.3858 69.2956C70.0724 70.2835 72.3752 72.2149 73.9542 74.6236C70.0833 75.7668 65.7409 74.9233 62.3964 72.6256C61.3217 71.8819 60.3238 70.9717 59.6001 69.895C60.3896 69.3289 61.3108 68.9293 62.2648 68.7517V68.7406Z" fill="#AA2155"/>
<path d="M79.7 60.5492C79.7219 60.4049 79.7329 60.2606 79.7439 60.1163C79.0421 59.8277 78.2635 59.6945 77.5178 59.7167C76.4432 59.75 75.4015 60.0386 74.3816 60.3827C73.4167 60.7046 72.5613 60.7601 71.5415 60.8267C69.2387 60.9599 66.9359 61.1153 64.6331 61.3151C63.405 61.415 62.122 61.5593 61.0254 62.0588C61.1022 62.2697 61.1789 62.4806 61.2886 62.6804C61.9465 63.857 63.1856 64.7228 64.5235 64.7672C65.8613 64.8227 67.221 63.9902 67.6816 62.7248C68.0763 63.7904 69.1729 64.5341 70.3024 64.5008C71.4209 64.4675 72.4846 63.6572 72.8135 62.5694C73.8114 63.6905 75.4563 64.1678 76.8928 63.746C78.3183 63.3242 79.4697 62.0366 79.7219 60.5492H79.7Z" fill="white"/>
<path d="M109.757 79.9514C110.481 85.2572 115.58 88.9423 121.14 88.1653C126.71 87.3883 130.636 82.46 129.912 77.1431C129.188 71.8374 123.278 69.5286 117.718 70.3056C112.159 71.0826 109.033 74.6457 109.757 79.9514Z" fill="#D24C79"/>
<path d="M11.0987 93.6931C11.8224 98.9989 16.9215 102.684 22.4811 101.907C28.0517 101.13 31.9774 96.2017 31.2537 90.8848C30.5299 85.5791 24.6194 83.2703 19.0598 84.0473C13.4892 84.8243 10.3749 88.3874 11.0987 93.6931Z" fill="#D24C79"/>
<path d="M41.2322 105.925C42.6687 113.606 46.09 121.032 51.1343 128.225C51.7264 129.079 52.6366 129.668 53.6564 129.845C67.3745 132.365 84.3056 127.836 102.794 124.939C104.647 124.651 106.051 123.097 106.171 121.198C106.895 110.343 107.103 103.505 106.259 94.5809C106.051 92.3387 104.033 90.7181 101.829 90.9623C81.7067 93.1934 62.418 96.4901 44.182 101.141C42.1095 101.674 40.8375 103.772 41.2432 105.903L41.2322 105.925Z" fill="#45459A"/>
<path d="M101.829 90.9847C81.7067 93.2157 62.418 96.5124 44.182 101.163C42.1095 101.696 40.8375 103.794 41.2432 105.925C41.8682 109.266 42.888 112.552 44.2368 115.793C54.0183 113.762 63.8655 111.997 73.7456 110.509C84.3604 108.911 95.0081 107.635 105.7 106.669C106.062 106.636 106.423 106.602 106.785 106.569C106.785 102.373 106.632 98.355 106.281 94.5921C106.073 92.35 104.055 90.7294 101.851 90.9736L101.829 90.9847Z" fill="#5F5FC0"/>
<path d="M73.0327 95.0361C73.0327 95.0361 60.8388 80.9059 56.0249 89.5194C51.1999 98.1329 73.0327 95.0361 73.0327 95.0361Z" stroke="white" stroke-width="1.5" stroke-linecap="round" stroke-linejoin="round"/>
<path d="M73.0327 95.0361C73.0327 95.0361 80.1714 78.5306 84.448 82.6931C88.7247 86.8666 73.0327 95.0361 73.0327 95.0361Z" stroke="white" stroke-width="1.5" stroke-linecap="round" stroke-linejoin="round"/>
<path d="M67.7144 108.844C71.333 105.037 73.1753 100.464 73.0327 95.0361C74.8859 102.318 78.8884 105.448 84.4809 105.503" stroke="white" stroke-width="1.5" stroke-linecap="round" stroke-linejoin="round"/>
<path d="M36.2209 116.737C37.0324 115.549 38.4579 114.75 39.8725 114.905L40.7278 115.738C43.1183 117.658 45.2018 119.967 46.8905 122.531C47.6362 123.663 48.3271 124.95 48.2503 126.305C48.1516 128.047 46.7151 129.546 45.0373 129.968C43.3596 130.4 41.5502 129.879 40.1357 128.88C38.7211 127.881 37.6684 126.427 36.824 124.906C36.1332 123.641 35.563 122.298 35.3765 120.866C35.1901 119.434 35.4314 117.913 36.2319 116.725L36.2209 116.737Z" fill="#E98F2F"/>
<path d="M37.9314 117.058C39.7627 124.284 46.5066 130.744 54.2813 128.069C56.1126 127.437 57.911 126.382 59.172 124.873C60.1151 123.729 60.5756 122.031 59.819 120.743C61.2884 119.545 60.9046 117.236 59.3146 116.348C59.808 115.205 59.7094 113.806 58.9198 112.807C58.2619 111.963 57.2859 111.553 56.288 111.542C56.4745 110.554 56.1894 109.488 55.3998 108.8C54.1826 107.745 52.5049 107.912 51.3535 108.966C50.2021 110.021 49.599 111.486 48.2831 112.396C47.1646 113.173 44.5876 114.261 43.8529 112.452C43.3814 111.297 43.491 109.91 42.3396 109.122C41.2979 108.411 39.8504 108.689 38.9293 109.477C36.8349 111.264 37.3283 114.705 37.9314 117.069V117.058Z" fill="white"/>
<path d="M59.6544 120.776C57.209 122.497 54.2154 123.418 51.2437 123.34" stroke="#E98F2F" stroke-linecap="round" stroke-linejoin="round"/>
<path d="M59.3367 116.458C57.3848 118.368 54.6653 119.478 51.9458 119.455" stroke="#E98F2F" stroke-linecap="round" stroke-linejoin="round"/>
<path d="M56.288 111.408C54.4896 113.34 52.1429 114.749 49.6099 115.426" stroke="#E98F2F" stroke-linecap="round" stroke-linejoin="round"/>
<path d="M115.185 105.736C114.088 104.815 112.509 104.438 111.182 104.971L110.59 106.003C108.803 108.5 107.41 111.298 106.478 114.228C106.061 115.527 105.743 116.947 106.182 118.235C106.741 119.889 108.529 120.932 110.25 120.888C111.972 120.843 113.584 119.856 114.68 118.501C115.777 117.147 116.402 115.471 116.808 113.773C117.137 112.374 117.323 110.909 117.126 109.488C116.917 108.056 116.292 106.658 115.196 105.736H115.185Z" fill="#E98F2F"/>
<path d="M110.645 99.476C109.548 98.9654 108.079 99.0986 107.268 100.064C106.368 101.13 106.84 102.44 106.697 103.683C106.478 105.636 103.704 105.281 102.421 104.837C100.907 104.327 99.9425 103.083 98.5498 102.373C97.1681 101.674 95.4904 101.973 94.6131 103.317C94.032 104.205 94.0429 105.303 94.4815 106.203C93.5275 106.491 92.6941 107.146 92.2884 108.145C91.8059 109.333 92.0801 110.698 92.8586 111.664C91.5537 112.962 91.8059 115.293 93.5385 116.037C93.1547 117.48 94.0429 118.99 95.2601 119.833C96.8721 120.943 98.8898 121.465 100.82 121.576C109.022 122.031 113.792 113.972 113.628 106.513C113.573 104.071 113.123 100.63 110.634 99.476H110.645Z" fill="white"/>
<path d="M93.7139 116.037C96.5211 117.036 99.6463 117.091 102.497 116.203" stroke="#E98F2F" stroke-linecap="round" stroke-linejoin="round"/>
<path d="M92.8584 111.786C95.2489 113.095 98.1548 113.417 100.776 112.651" stroke="#E98F2F" stroke-linecap="round" stroke-linejoin="round"/>
<path d="M94.4482 106.091C96.6962 107.457 99.328 108.178 101.949 108.134" stroke="#E98F2F" stroke-linecap="round" stroke-linejoin="round"/>
</g>
<defs>
<filter id="filter0_d_3805_3243" x="-4.00488" y="-5" width="149.005" height="151" filterUnits="userSpaceOnUse" color-interpolation-filters="sRGB">
<feFlood flood-opacity="0" result="BackgroundImageFix"/>
<feColorMatrix in="SourceAlpha" type="matrix" values="0 0 0 0 0 0 0 0 0 0 0 0 0 0 0 0 0 0 127 0" result="hardAlpha"/>
<feOffset/>
<feGaussianBlur stdDeviation="7.5"/>
<feComposite in2="hardAlpha" operator="out"/>
<feColorMatrix type="matrix" values="0 0 0 0 0.0313726 0 0 0 0 0.0470588 0 0 0 0 0.00392157 0 0 0 0.25 0"/>
<feBlend mode="normal" in2="BackgroundImageFix" result="effect1_dropShadow_3805_3243"/>
<feBlend mode="normal" in="SourceGraphic" in2="effect1_dropShadow_3805_3243" result="shape"/>
</filter>
</defs>
</svg>
