<svg width="344" height="103" viewBox="0 0 344 103" fill="none" xmlns="http://www.w3.org/2000/svg">
<g clip-path="url(#clip0_3517_28508)">
<path fill-rule="evenodd" clip-rule="evenodd" d="M330.033 1.7077C349.051 7.7538 359.57 28.0823 353.523 47.1152C347.477 66.1326 327.149 76.6516 308.116 70.6055C289.099 64.5594 278.58 44.2309 284.626 25.198C290.672 6.18058 311 -4.3384 330.033 1.7077Z" fill="#BE6C2B"/>
<path fill-rule="evenodd" clip-rule="evenodd" d="M330.034 1.7077C336.419 3.74363 341.848 7.38363 346.013 12.057C352.028 20.9102 354.048 32.3392 350.563 43.3209C344.517 62.3384 324.188 72.8574 305.155 66.8113C298.77 64.7753 293.341 61.1353 289.176 56.4619C283.161 47.6087 281.141 36.1797 284.626 25.198C290.672 6.18058 311.001 -4.3384 330.034 1.7077Z" fill="#DC8944"/>
<path fill-rule="evenodd" clip-rule="evenodd" d="M326.394 8.16677C340.26 12.578 347.926 27.3847 343.515 41.2507C339.103 55.1166 324.297 62.7822 310.431 58.371C296.565 53.9598 288.899 39.153 293.31 25.2871C297.722 11.4212 312.528 3.75558 326.394 8.16677Z" fill="#FDFFF8"/>
<path fill-rule="evenodd" clip-rule="evenodd" d="M325.761 10.1898C338.516 14.2462 345.565 27.8654 341.509 40.6208C338.223 50.9393 328.692 57.5098 318.419 57.5098V55.2116C327.72 55.2116 336.357 49.2581 339.318 39.9113C342.989 28.3589 336.604 16.0199 325.067 12.3491C322.861 11.6396 320.625 11.3157 318.419 11.3157V9.01758C320.856 9.01758 323.324 9.38775 325.761 10.1589V10.1898ZM318.404 57.5098C315.967 57.5098 313.499 57.1396 311.062 56.3684C298.307 52.312 291.258 38.6928 295.315 25.9374C298.6 15.6189 308.132 9.04843 318.404 9.04843V11.3466C309.103 11.3466 300.466 17.3001 297.505 26.6469C293.834 38.1993 300.219 50.5382 311.756 54.2091C313.962 54.9186 316.198 55.2425 318.404 55.2425V57.5406V57.5098Z" fill="#DC8944"/>
<path d="M318.432 44.8307C316.439 44.6138 314.702 44.0974 313.219 43.2815C311.746 42.4578 310.632 41.433 309.875 40.2072C309.118 38.9813 308.817 37.6523 308.973 36.2203C309.093 35.116 309.453 34.1296 310.054 33.261C310.665 32.3847 311.439 31.6876 312.377 31.1699C313.316 30.6436 314.334 30.3529 315.431 30.2977L315.451 30.1165C314.067 29.6779 312.994 28.8672 312.232 27.6844C311.472 26.4931 311.17 25.1728 311.328 23.7234C311.477 22.3518 312.011 21.1747 312.93 20.1923C313.849 19.2012 315.041 18.4755 316.505 18.015C317.979 17.5469 319.609 17.41 321.395 17.6043C323.18 17.7986 324.738 18.2824 326.068 19.0556C327.407 19.8297 328.419 20.7996 329.104 21.9653C329.79 23.1223 330.063 24.3828 329.923 25.7468C329.756 27.2038 329.169 28.4275 328.162 29.4178C327.155 30.4081 325.942 30.97 324.522 31.1035L324.502 31.2847C325.544 31.5727 326.463 32.0742 327.258 32.7892C328.063 33.4965 328.669 34.3437 329.076 35.3308C329.494 36.3102 329.646 37.3525 329.535 38.4577C329.371 39.8888 328.787 41.1215 327.784 42.1559C326.781 43.1903 325.467 43.9508 323.843 44.4375C322.229 44.9165 320.425 45.0475 318.432 44.8307ZM318.88 40.7157C319.768 40.8124 320.562 40.7372 321.261 40.4903C321.961 40.2348 322.528 39.8425 322.961 39.3135C323.403 38.7768 323.665 38.1332 323.747 37.3827C323.83 36.6149 323.71 35.9165 323.386 35.2877C323.062 34.6502 322.587 34.1271 321.959 33.7183C321.332 33.301 320.587 33.0454 319.725 32.9515C318.871 32.8586 318.088 32.948 317.378 33.2199C316.669 33.4831 316.087 33.8912 315.634 34.4443C315.191 34.9896 314.927 35.6461 314.844 36.4139C314.762 37.1645 314.875 37.8489 315.183 38.4673C315.492 39.077 315.966 39.5824 316.603 39.9834C317.241 40.3758 318 40.6199 318.88 40.7157ZM320.168 28.8753C320.91 28.956 321.587 28.8769 322.197 28.6378C322.808 28.3988 323.307 28.0297 323.693 27.5305C324.079 27.0313 324.31 26.4323 324.386 25.7335C324.461 25.0434 324.363 24.4217 324.091 23.8684C323.821 23.3065 323.417 22.8479 322.879 22.4926C322.343 22.1287 321.695 21.9055 320.936 21.8229C320.185 21.7412 319.504 21.8199 318.894 22.0589C318.284 22.2893 317.786 22.6498 317.401 23.1404C317.026 23.6233 316.8 24.2098 316.725 24.9C316.649 25.5987 316.746 26.2334 317.016 26.8039C317.285 27.3745 317.693 27.8421 318.238 28.207C318.783 28.5718 319.426 28.7946 320.168 28.8753Z" fill="#DC8944"/>
<path opacity="0.5" fill-rule="evenodd" clip-rule="evenodd" d="M303.829 5.92626C312.559 1.63847 321.489 1.94694 323.787 6.62033C326.085 11.2937 320.857 18.5429 312.127 22.8307C303.397 27.1185 294.467 26.81 292.168 22.1366C289.87 17.4632 295.099 10.2141 303.829 5.92626Z" fill="#FDFFF8"/>
<path fill-rule="evenodd" clip-rule="evenodd" d="M11.2941 25.3901C33.6431 23.5701 53.2467 40.1969 55.0667 62.5459C56.8867 84.8949 40.2599 104.498 17.9109 106.318C-4.43809 108.138 -24.0417 91.5117 -25.8617 69.1627C-27.6971 46.8137 -11.0549 27.2101 11.2941 25.3901Z" fill="#65987F"/>
<path fill-rule="evenodd" clip-rule="evenodd" d="M11.2946 25.3913C33.1654 23.6022 52.3988 39.4886 54.9283 61.1127C54.9283 82.0427 38.8568 99.8108 17.6337 101.554C-4.23712 103.343 -23.4705 87.4564 -26 65.8323C-26 44.9023 -9.92848 27.1342 11.2946 25.4067V25.3913Z" fill="#8BC1A9"/>
<path fill-rule="evenodd" clip-rule="evenodd" d="M17.8181 37.0524C34.1055 35.7259 48.3879 47.849 49.7143 64.1364C51.0408 80.4239 38.9177 94.7063 22.6303 96.0327C6.34283 97.3591 -7.93954 85.2361 -9.26598 68.9486C-10.5924 52.6612 1.53063 38.3788 17.8181 37.037V37.0524Z" fill="#FDFFF8"/>
<path fill-rule="evenodd" clip-rule="evenodd" d="M20.2259 39.3164C34.2615 39.301 46.184 50.0822 47.3562 64.3183C48.5747 79.2947 37.4233 92.4357 22.4469 93.6696C21.7065 93.7313 20.9662 93.7622 20.2259 93.7622V91.1864C20.8891 91.1864 21.5677 91.1556 22.2309 91.1093C35.8038 89.9988 45.8909 78.1071 44.7804 64.5342C43.7316 51.64 32.935 41.8768 20.2104 41.8922V39.3164H20.2259ZM18.0203 39.409C18.7606 39.3473 19.5009 39.3164 20.2413 39.3164V41.8922C19.5781 41.8922 18.8994 41.923 18.2362 41.9693C4.66332 43.0798 -5.4238 54.9715 -4.31329 68.5444C-3.26448 81.4386 7.53213 91.2018 20.2567 91.1864V93.7622C6.22112 93.7622 -5.70143 82.9964 -6.87363 68.7603C-8.10753 53.7839 3.05925 40.6429 18.0357 39.409H18.0203Z" fill="#8BC1A9"/>
<path d="M14.8121 80.9859L13.5192 76.4945L21.2162 63.7564C21.8601 62.6357 22.3849 61.6429 22.7906 60.7778C23.2059 59.91 23.4765 59.0994 23.6026 58.3461C23.7259 57.5831 23.6757 56.8129 23.4519 56.0356C23.2032 55.1718 22.7924 54.4847 22.2193 53.9742C21.6435 53.454 20.9665 53.1241 20.1885 52.9843C19.4076 52.835 18.5853 52.8847 17.7216 53.1333C16.8194 53.393 16.085 53.8019 15.5182 54.36C14.9514 54.9181 14.5837 55.5903 14.4152 56.3767C14.2466 57.1631 14.2978 58.0265 14.5685 58.967L8.65192 60.6703C8.0966 58.7413 8.05116 56.9409 8.5156 55.2691C8.98003 53.5973 9.88732 52.1462 11.2375 50.9157C12.5876 49.6853 14.2895 48.7744 16.3433 48.1832C18.4547 47.5754 20.4002 47.4206 22.1801 47.7188C23.9667 48.0047 25.486 48.6793 26.7378 49.7427C27.9896 50.8061 28.8601 52.1871 29.3491 53.8858C29.6696 54.9991 29.7652 56.1615 29.6359 57.373C29.5162 58.5818 29.0904 60.0087 28.3584 61.6535C27.6236 63.2888 26.509 65.3193 25.0145 67.7448L21.9244 73.2019L21.9825 73.4034L34.3627 69.8394L35.8297 74.9354L14.8121 80.9859Z" fill="#8BC1A9"/>
<path opacity="0.5" fill-rule="evenodd" clip-rule="evenodd" d="M-2.55449 32.6054C8.04161 27.4076 18.8845 27.7778 21.6608 33.4383C24.437 39.0988 18.1133 47.9212 7.51721 53.119C-3.07889 58.3168 -13.9218 57.9466 -16.698 52.2861C-19.4743 46.6256 -13.1506 37.8032 -2.55449 32.6054Z" fill="#FDFFF8"/>
<path fill-rule="evenodd" clip-rule="evenodd" d="M193.441 26.5659C215.79 24.7459 235.393 41.3727 237.213 63.7217C239.033 86.0707 222.406 105.674 200.057 107.494C177.708 109.314 158.105 92.6875 156.285 70.3385C154.449 47.9895 171.092 28.3859 193.441 26.5659Z" fill="#65987F"/>
<path fill-rule="evenodd" clip-rule="evenodd" d="M193.441 26.5671C215.312 24.7779 234.545 40.6644 237.075 62.2885C237.075 83.2184 221.003 100.987 199.78 102.729C177.909 104.519 158.676 88.6322 156.146 67.0081C156.146 46.0781 172.218 28.31 193.441 26.5825V26.5671Z" fill="#8BC1A9"/>
<path fill-rule="evenodd" clip-rule="evenodd" d="M199.965 38.2282C216.252 36.9017 230.534 49.0248 231.861 65.3122C233.187 81.5997 221.064 95.882 204.777 97.2085C188.489 98.5349 174.207 86.4119 172.881 70.1244C171.554 53.837 183.677 39.5546 199.965 38.2127V38.2282Z" fill="#FDFFF8"/>
<path fill-rule="evenodd" clip-rule="evenodd" d="M202.372 40.4922C216.408 40.4768 228.33 51.258 229.503 65.4941C230.721 80.4705 219.57 93.6115 204.593 94.8454C203.853 94.9071 203.113 94.9379 202.372 94.9379V92.3622C203.036 92.3622 203.714 92.3313 204.377 92.2851C217.95 91.1746 228.037 79.2829 226.927 65.71C225.878 52.8158 215.082 43.0525 202.357 43.068V40.4922H202.372ZM200.167 40.5847C200.907 40.523 201.647 40.4922 202.388 40.4922V43.068C201.725 43.068 201.046 43.0988 200.383 43.1451C186.81 44.2556 176.723 56.1473 177.833 69.7202C178.882 82.6144 189.679 92.3776 202.403 92.3622V94.9379C188.368 94.9379 176.445 84.1722 175.273 69.9361C174.039 54.9597 185.206 41.8186 200.182 40.5847H200.167Z" fill="#8BC1A9"/>
<path d="M196.959 82.1617L195.666 77.6703L203.363 64.9322C204.007 63.8115 204.531 62.8186 204.937 61.9536C205.352 61.0858 205.623 60.2752 205.749 59.5218C205.872 58.7589 205.822 57.9887 205.598 57.2113C205.35 56.3476 204.939 55.6605 204.366 55.1499C203.79 54.6298 203.113 54.2999 202.335 54.1601C201.554 54.0108 200.732 54.0605 199.868 54.3091C198.966 54.5688 198.231 54.9777 197.665 55.5358C197.098 56.0939 196.73 56.7661 196.562 57.5525C196.393 58.3389 196.444 59.2023 196.715 60.1428L190.798 61.8461C190.243 59.9171 190.198 58.1167 190.662 56.4449C191.127 54.7731 192.034 53.322 193.384 52.0915C194.734 50.8611 196.436 49.9502 198.49 49.359C200.601 48.7512 202.547 48.5964 204.327 48.8946C206.113 49.1805 207.632 49.8551 208.884 50.9185C210.136 51.9819 211.007 53.3629 211.496 55.0616C211.816 56.1749 211.912 57.3373 211.782 58.5488C211.663 59.7576 211.237 61.1844 210.505 62.8293C209.77 64.4646 208.655 66.495 207.161 68.9206L204.071 74.3776L204.129 74.5792L216.509 71.0152L217.976 76.1112L196.959 82.1617Z" fill="#8BC1A9"/>
<path opacity="0.5" fill-rule="evenodd" clip-rule="evenodd" d="M179.586 33.7812C190.182 28.5834 201.025 28.9536 203.801 34.6141C206.578 40.2746 200.254 49.097 189.658 54.2948C179.062 59.4926 168.219 59.1224 165.443 53.4619C162.666 47.8014 168.99 38.979 179.586 33.7812Z" fill="#FDFFF8"/>
<path fill-rule="evenodd" clip-rule="evenodd" d="M244.067 33.0883C271.951 22.5376 303.119 36.5873 313.67 64.4713C324.22 92.3554 310.171 123.523 282.286 134.074C254.402 144.625 223.235 130.575 212.684 102.691C202.133 74.8067 216.183 43.639 244.067 33.0883Z" fill="#5B3267"/>
<path fill-rule="evenodd" clip-rule="evenodd" d="M244.068 33.0875C271.441 22.7251 301.99 36.1019 313.052 62.9632C320.965 89.7976 306.942 118.624 280.35 128.663C252.977 139.025 222.428 125.649 211.366 98.7873C203.453 71.9529 217.476 43.1268 244.068 33.0875Z" fill="#875796"/>
<path fill-rule="evenodd" clip-rule="evenodd" d="M248.238 55.1491C268.559 47.4514 291.275 57.7061 298.946 78.027C306.644 98.3479 296.389 121.064 276.068 128.735C255.747 136.433 233.031 126.178 225.36 105.857C217.662 85.5363 227.917 62.8199 248.238 55.1491Z" fill="#FDFFF8"/>
<path fill-rule="evenodd" clip-rule="evenodd" d="M262.149 55.7617C276.764 55.7617 290.518 64.6706 296.009 79.151C303.087 97.857 293.667 118.743 274.961 125.795C270.735 127.383 266.402 128.136 262.149 128.136V124.718C265.998 124.718 269.928 124.045 273.75 122.592C290.679 116.186 299.211 97.2648 292.806 80.3621C287.853 67.2545 275.392 59.1799 262.149 59.1799V55.7617ZM249.338 58.1033C253.563 56.5153 257.897 55.7617 262.149 55.7617V59.1799C258.3 59.1799 254.371 59.8528 250.549 61.3062C233.619 67.712 225.087 86.6334 231.493 103.536C236.445 116.644 248.907 124.718 262.149 124.718V128.136C247.534 128.136 233.781 119.228 228.29 104.747C221.211 86.0412 230.632 65.1551 249.338 58.1033Z" fill="#875796"/>
<path d="M248.172 105.549L247.057 99.0144L259.038 70.4085L264.671 69.4476L266.214 78.4921L262.88 79.0608L255.34 97.1677L255.392 97.4743L278.674 93.5031L279.808 100.152L248.172 105.549ZM268.185 109.234L266.668 100.343L266.328 97.4232L261.644 69.964L269.424 68.637L276.118 107.881L268.185 109.234Z" fill="#875796"/>
<path opacity="0.5" fill-rule="evenodd" clip-rule="evenodd" d="M242.375 40.4995C257.609 33.0171 273.193 33.5554 277.203 41.7107C281.213 49.866 272.089 62.5161 256.855 69.9985C241.621 77.4809 226.037 76.9426 222.027 68.7873C218.017 60.632 227.141 47.9819 242.375 40.4995Z" fill="#FDFFF8"/>
<path fill-rule="evenodd" clip-rule="evenodd" d="M351.606 71.1658C359.009 81.2837 356.803 95.4736 346.685 102.862C336.567 110.249 322.378 108.059 314.99 97.9414C307.586 87.8234 309.792 73.6336 319.91 66.2456C330.028 58.8422 344.218 61.0478 351.606 71.1658Z" fill="#395B7E"/>
<path fill-rule="evenodd" clip-rule="evenodd" d="M351.603 71.1658C353.068 73.1708 354.148 75.3302 354.873 77.5666C356.477 85.9108 353.299 94.8103 345.989 100.162C335.871 107.55 321.681 105.36 314.293 95.2422C312.827 93.2371 311.748 91.0778 311.023 88.8413C309.419 80.4971 312.596 71.5976 319.907 66.2456C330.025 58.8422 344.215 61.0478 351.603 71.1658Z" fill="#5884AD"/>
<path fill-rule="evenodd" clip-rule="evenodd" d="M349.49 76.4114C354.872 83.784 353.268 94.1179 345.896 99.5162C338.523 104.899 328.189 103.295 322.791 95.9379C317.408 88.5653 319.012 78.2314 326.369 72.8331C333.742 67.4503 344.076 69.0543 349.474 76.4114H349.49Z" fill="#FDFFF8"/>
<path fill-rule="evenodd" clip-rule="evenodd" d="M348.425 77.198C353.377 83.969 351.911 93.4854 345.125 98.4519C342.41 100.442 339.264 101.382 336.148 101.382V99.948C338.971 99.948 341.824 99.0842 344.277 97.2951C350.415 92.8068 351.757 84.1849 347.269 78.0617C344.57 74.3754 340.39 72.432 336.148 72.4166V70.9822C340.837 70.9822 345.449 73.1415 348.425 77.2134V77.198ZM336.148 101.382C331.459 101.382 326.848 99.2231 323.871 95.1512C318.92 88.3802 320.385 78.8637 327.172 73.8973C329.886 71.9231 333.033 70.9668 336.148 70.9668V72.4012C333.326 72.4012 330.472 73.2649 328.02 75.0541C321.881 79.5424 320.539 88.1642 325.028 94.2875C327.727 97.9737 331.907 99.9325 336.148 99.9325V101.367V101.382Z" fill="#5884AD"/>
<path d="M327.052 88.6739L342.103 85.1659L342.191 85.0921L336.979 78.8655L339.208 77L346.781 86.0472L344.52 87.939L329.407 91.4882L327.052 88.6739Z" fill="#5884AD"/>
<path opacity="0.5" fill-rule="evenodd" clip-rule="evenodd" d="M323.995 66.6012C331.168 63.0846 338.509 63.3314 340.391 67.1719C342.273 71.0124 337.985 76.966 330.813 80.498C323.641 84.0146 316.299 83.7678 314.417 79.9273C312.536 76.0868 316.823 70.1333 323.995 66.6012Z" fill="#FDFFF8"/>
<path fill-rule="evenodd" clip-rule="evenodd" d="M143.375 37.9679C161.055 62.1302 155.787 96.0162 131.625 113.659C107.463 131.302 73.577 126.072 55.9341 101.909C38.2545 77.7472 43.5215 43.8612 67.6838 26.2183C91.846 8.53864 125.732 13.8057 143.375 37.9679Z" fill="#395B7E"/>
<path fill-rule="evenodd" clip-rule="evenodd" d="M143.373 37.9679C146.872 42.7562 149.45 47.9128 151.182 53.2535C155.012 73.18 147.425 94.4324 129.966 107.213C105.804 124.856 71.9177 119.626 54.2749 95.4637C50.7758 90.6755 48.1975 85.5189 46.4664 80.1782C42.6358 60.2517 50.2233 38.9992 67.682 26.2183C91.8442 8.53864 125.73 13.8057 143.373 37.9679Z" fill="#5884AD"/>
<path fill-rule="evenodd" clip-rule="evenodd" d="M138.329 50.4902C151.184 68.0963 147.353 92.7741 129.747 105.666C112.141 118.52 87.4635 114.69 74.572 97.1204C61.7174 79.5144 65.548 54.8365 83.1172 41.9451C100.723 29.0905 125.401 32.9211 138.293 50.4902H138.329Z" fill="#FDFFF8"/>
<path fill-rule="evenodd" clip-rule="evenodd" d="M135.79 52.3726C147.614 68.5421 144.115 91.2679 127.908 103.128C121.426 107.879 113.912 110.126 106.472 110.126V106.701C113.212 106.701 120.026 104.638 125.882 100.366C140.542 89.6472 143.746 69.0578 133.028 54.4352C126.582 45.6322 116.601 40.9913 106.472 40.9544V37.529C117.669 37.529 128.682 42.6856 135.79 52.4094V52.3726ZM106.472 110.126C95.2746 110.126 84.2616 104.97 77.1529 95.2458C65.3296 79.0763 68.8287 56.3505 85.0351 44.4904C91.5177 39.7758 99.0315 37.4922 106.472 37.4922V40.9176C99.7313 40.9176 92.9172 42.9803 87.0609 47.2528C72.4015 57.9712 69.1971 78.5606 79.9154 93.1832C86.3611 101.986 96.3427 106.664 106.472 106.664V110.089V110.126Z" fill="#5884AD"/>
<path d="M84.7351 79.79L120.678 71.4127L120.888 71.2365L108.442 56.367L113.765 51.9121L131.849 73.5172L126.451 78.035L90.3603 86.5106L84.7351 79.79Z" fill="#5884AD"/>
<path opacity="0.5" fill-rule="evenodd" clip-rule="evenodd" d="M77.4443 27.0563C94.5715 18.6584 112.104 19.2478 116.597 28.4191C121.091 37.5904 110.852 51.8078 93.7244 60.2425C76.5972 68.6403 59.0648 68.051 54.5713 58.8797C50.0777 49.7083 60.3171 35.4909 77.4443 27.0563Z" fill="#FDFFF8"/>
<path fill-rule="evenodd" clip-rule="evenodd" d="M144.877 60.9218C162.136 55.7857 180.274 65.6106 185.41 82.8697C190.546 100.129 180.721 118.267 163.462 123.403C146.203 128.539 128.065 118.714 122.929 101.455C117.793 84.1962 127.617 66.0579 144.877 60.9218Z" fill="#B65155"/>
<path fill-rule="evenodd" clip-rule="evenodd" d="M146.291 73.8658C158.861 70.1178 172.095 77.2898 175.827 89.8602C179.575 102.431 172.403 115.664 159.833 119.397C147.263 123.145 134.029 115.973 130.296 103.402C126.548 90.8319 133.721 77.5983 146.291 73.8658Z" fill="#FDFFF8"/>
<path fill-rule="evenodd" clip-rule="evenodd" d="M153.063 74.7773C162.486 74.7773 171.185 80.916 174.008 90.4016C177.447 101.969 170.862 114.139 159.294 117.578C157.212 118.195 155.129 118.488 153.063 118.488V116.421C154.929 116.421 156.826 116.159 158.708 115.589C169.18 112.473 175.149 101.46 172.034 90.9877C169.473 82.3967 161.607 76.8441 153.078 76.8441V74.7773H153.063ZM146.831 75.7028C148.914 75.0858 150.996 74.7928 153.063 74.7928V76.8595C151.196 76.8595 149.299 77.1217 147.417 77.6924C136.945 80.808 130.976 91.8206 134.091 102.293C136.652 110.884 144.518 116.437 153.047 116.437V118.504C143.623 118.504 134.924 112.365 132.102 102.879C128.662 91.3116 135.248 79.1423 146.816 75.7028H146.831Z" fill="#B65155"/>
<path d="M153.664 109.644C151.883 109.542 150.315 109.144 148.959 108.452C147.612 107.752 146.568 106.839 145.827 105.711C145.095 104.577 144.758 103.297 144.817 101.873L150.015 102.172C150.013 102.77 150.177 103.306 150.509 103.78C150.849 104.246 151.314 104.62 151.903 104.901C152.493 105.183 153.166 105.345 153.921 105.388C154.708 105.434 155.412 105.335 156.032 105.091C156.652 104.848 157.147 104.49 157.517 104.017C157.887 103.544 158.091 102.985 158.128 102.341C158.166 101.689 158.016 101.103 157.679 100.581C157.351 100.051 156.857 99.6241 156.198 99.299C155.547 98.9743 154.76 98.7854 153.838 98.7322L151.561 98.6009L151.78 94.8093L154.057 94.9406C154.836 94.9855 155.531 94.89 156.143 94.6542C156.763 94.4187 157.253 94.0722 157.615 93.6145C157.976 93.1488 158.176 92.5941 158.213 91.9502C158.248 91.3382 158.132 90.7931 157.865 90.3151C157.606 89.8297 157.221 89.4406 156.712 89.1481C156.21 88.856 155.614 88.69 154.922 88.6501C154.223 88.6098 153.575 88.7 152.98 88.921C152.386 89.1339 151.901 89.4608 151.524 89.9017C151.148 90.3426 150.93 90.8723 150.87 91.491L145.922 91.2057C146.027 89.8001 146.5 88.5832 147.341 87.555C148.182 86.5268 149.279 85.7487 150.634 85.2207C151.996 84.6851 153.512 84.4655 155.182 84.5617C156.867 84.6589 158.324 85.05 159.552 85.7349C160.781 86.4199 161.715 87.3031 162.354 88.3848C163.002 89.4589 163.285 90.6396 163.203 91.9269C163.132 93.2946 162.641 94.4107 161.73 95.2754C160.827 96.1404 159.684 96.6568 158.303 96.8244L158.292 97.0151C160.075 97.3492 161.406 98.0521 162.286 99.1236C163.173 100.188 163.569 101.479 163.474 102.996C163.402 104.388 162.929 105.601 162.056 106.635C161.191 107.67 160.033 108.456 158.582 108.995C157.131 109.533 155.492 109.75 153.664 109.644Z" fill="#B65155"/>
<path opacity="0.5" fill-rule="evenodd" clip-rule="evenodd" d="M141.033 65.4231C150.133 60.9503 159.449 61.2742 161.84 66.1481C164.23 71.022 158.786 78.5796 149.686 83.0525C140.586 87.5253 131.27 87.2014 128.879 82.3275C126.489 77.4536 131.933 69.896 141.033 65.4231Z" fill="#FDFFF8"/>
</g>
<defs>
<clipPath id="clip0_3517_28508">
<rect width="344" height="103" fill="white"/>
</clipPath>
</defs>
</svg>
