<svg width="19" height="18" viewBox="0 0 19 18" fill="none" xmlns="http://www.w3.org/2000/svg">
<path fill-rule="evenodd" clip-rule="evenodd" d="M3.40901 2.90901C3.83097 2.48705 4.40326 2.25 5 2.25H12.5C12.8978 2.25 13.2794 2.40804 13.5607 2.68934C13.842 2.97065 14 3.35218 14 3.75V5.25C14.3978 5.25 14.7794 5.40804 15.0607 5.68934C15.342 5.97065 15.5 6.35218 15.5 6.75V8.25C15.9142 8.25 16.25 8.58579 16.25 9V12C16.25 12.4142 15.9142 12.75 15.5 12.75V14.25C15.5 14.6478 15.342 15.0294 15.0607 15.3107C14.7794 15.592 14.3978 15.75 14 15.75H5C4.40326 15.75 3.83097 15.5129 3.40901 15.091C2.98705 14.669 2.75 14.0967 2.75 13.5V4.5C2.75 3.90326 2.98705 3.33097 3.40901 2.90901ZM4.25 6.62132V13.5C4.25 13.6989 4.32902 13.8897 4.46967 14.0303C4.61032 14.171 4.80109 14.25 5 14.25H14V12.75H12.5C11.9033 12.75 11.331 12.5129 10.909 12.091C10.4871 11.669 10.25 11.0967 10.25 10.5C10.25 9.90326 10.4871 9.33097 10.909 8.90901C11.331 8.48705 11.9033 8.25 12.5 8.25H14V6.75H5C4.74204 6.75 4.48865 6.7057 4.25 6.62132ZM12.5 5.25H5C4.80109 5.25 4.61032 5.17098 4.46967 5.03033C4.32902 4.88968 4.25 4.69891 4.25 4.5C4.25 4.30109 4.32902 4.11032 4.46967 3.96967C4.61032 3.82902 4.80109 3.75 5 3.75L12.5 3.75L12.5 5.25ZM14.75 9.75H12.5C12.3011 9.75 12.1103 9.82902 11.9697 9.96967C11.829 10.1103 11.75 10.3011 11.75 10.5C11.75 10.6989 11.829 10.8897 11.9697 11.0303C12.1103 11.171 12.3011 11.25 12.5 11.25H14.75V9.75Z" fill="#FDFFF8"/>
</svg>
