<svg width="16" height="16" viewBox="0 0 16 16" fill="none" xmlns="http://www.w3.org/2000/svg">
<path fill-rule="evenodd" clip-rule="evenodd" d="M14.4711 1.52876C14.7314 1.78911 14.7314 2.21122 14.4711 2.47157L13.2505 3.69216C13.3442 3.84061 13.425 3.99729 13.4919 4.16055C13.6439 4.53187 13.7206 4.92974 13.7173 5.33098C13.714 5.73221 13.631 6.12879 13.4729 6.4976C13.3156 6.86465 13.0872 7.1969 12.8008 7.47516L11.8044 8.47156C11.5441 8.73191 11.122 8.73191 10.8616 8.47156L7.52827 5.13823C7.40325 5.01321 7.33301 4.84364 7.33301 4.66683C7.33301 4.49002 7.40325 4.32045 7.52827 4.19542L8.52467 3.19902C8.80294 2.91265 9.13518 2.68422 9.50224 2.52692C9.87104 2.36886 10.2676 2.28579 10.6689 2.28253C11.0701 2.27927 11.468 2.3559 11.8393 2.50794C12.0025 2.57479 12.1592 2.65563 12.3077 2.74935L13.5283 1.52876C13.7886 1.26841 14.2107 1.26841 14.4711 1.52876ZM11.7462 3.98355C11.6212 3.88408 11.4825 3.80262 11.3341 3.74184C11.1264 3.65684 10.904 3.614 10.6797 3.61582C10.4554 3.61764 10.2336 3.66409 10.0274 3.75245C9.82125 3.84082 9.6347 3.96934 9.47867 4.13052L9.47108 4.13823L8.94248 4.66683L11.333 7.05735L11.8616 6.52876L11.8693 6.52116C12.0305 6.36513 12.159 6.17859 12.2474 5.97239C12.3357 5.7662 12.3822 5.54448 12.384 5.32016C12.3858 5.09583 12.343 4.87339 12.258 4.66579C12.1972 4.51736 12.1158 4.37865 12.0163 4.25366C11.9607 4.22364 11.9085 4.18517 11.8616 4.13823C11.8147 4.0913 11.7762 4.0391 11.7462 3.98355ZM6.19494 6.86209C6.45529 6.60174 6.8774 6.60174 7.13775 6.86209C7.3981 7.12244 7.3981 7.54455 7.13775 7.8049L6.27582 8.66683L7.33301 9.72402L8.19494 8.86209C8.45529 8.60174 8.8774 8.60174 9.13775 8.86209C9.3981 9.12244 9.3981 9.54455 9.13775 9.8049L8.27582 10.6668L8.47108 10.8621C8.73143 11.1224 8.73143 11.5446 8.47108 11.8049L7.47468 12.8013C7.19641 13.0877 6.86416 13.3161 6.49711 13.4734C6.1283 13.6315 5.73173 13.7145 5.33049 13.7178C4.92925 13.7211 4.53138 13.6444 4.16006 13.4924C3.9968 13.4255 3.84012 13.3447 3.69167 13.251L2.47108 14.4716C2.21073 14.7319 1.78862 14.7319 1.52827 14.4716C1.26792 14.2112 1.26792 13.7891 1.52827 13.5288L2.74886 12.3082C2.65514 12.1597 2.5743 12.003 2.50746 11.8398C2.35541 11.4685 2.27878 11.0706 2.28204 10.6693C2.2853 10.2681 2.36838 9.87153 2.52643 9.50272C2.68373 9.13567 2.91216 8.80343 3.19853 8.52516L4.19493 7.52876C4.31996 7.40373 4.48953 7.3335 4.66634 7.3335C4.84315 7.3335 5.01272 7.40373 5.13774 7.52876L5.33301 7.72402L6.19494 6.86209ZM4.66634 8.94297L4.13774 9.47157L4.13003 9.47916C3.96885 9.63519 3.84033 9.82174 3.75196 10.0279C3.6636 10.2341 3.61715 10.4558 3.61533 10.6802C3.61351 10.9045 3.65635 11.1269 3.74136 11.3345C3.80213 11.483 3.88359 11.6217 3.98306 11.7467C4.03861 11.7767 4.09081 11.8152 4.13775 11.8621C4.18468 11.909 4.22316 11.9612 4.25317 12.0168C4.37816 12.1162 4.51687 12.1977 4.6653 12.2585C4.8729 12.3435 5.09534 12.3863 5.31967 12.3845C5.54399 12.3827 5.76571 12.3362 5.9719 12.2479C6.1781 12.1595 6.36465 12.031 6.52068 11.8698L6.52827 11.8621L7.05686 11.3335L4.66634 8.94297Z" fill="#FB384D"/>
</svg>
