<svg width="32" height="32" viewBox="0 0 32 32" fill="none" xmlns="http://www.w3.org/2000/svg">
<path d="M22.6667 4.45352C24.6778 5.61466 26.3507 7.28088 27.5198 9.28725C28.689 11.2936 29.3139 13.5705 29.3327 15.8926C29.3514 18.2147 28.7634 20.5015 27.6268 22.5264C26.4902 24.5514 24.8444 26.2445 22.8524 27.4379C20.8604 28.6314 18.5912 29.2839 16.2695 29.3309C13.9479 29.3779 11.6541 28.8177 9.61549 27.7058C7.57683 26.5939 5.86391 24.9689 4.6463 22.9915C3.4287 21.0142 2.74863 18.7531 2.67341 16.4322L2.66675 16.0002L2.67341 15.5682C2.74809 13.2655 3.41815 11.0215 4.61827 9.05484C5.81839 7.08821 7.50762 5.46612 9.52127 4.34669C11.5349 3.22727 13.8043 2.64871 16.1081 2.66743C18.4119 2.68615 20.6716 3.30151 22.6667 4.45352ZM20.9427 12.3908C20.7132 12.1613 20.4077 12.0234 20.0837 12.003C19.7596 11.9826 19.4393 12.0812 19.1827 12.2802L19.0574 12.3908L14.6667 16.7802L12.9427 15.0575L12.8174 14.9468C12.5609 14.748 12.2406 14.6495 11.9166 14.67C11.5927 14.6904 11.2873 14.8283 11.0578 15.0579C10.8282 15.2874 10.6903 15.5928 10.6699 15.9167C10.6494 16.2407 10.7479 16.561 10.9467 16.8175L11.0574 16.9428L13.7241 19.6095L13.8494 19.7202C14.0832 19.9016 14.3708 20.0001 14.6667 20.0001C14.9627 20.0001 15.2503 19.9016 15.4841 19.7202L15.6094 19.6095L20.9427 14.2762L21.0534 14.1508C21.2524 13.8943 21.351 13.574 21.3306 13.2499C21.3102 12.9259 21.1723 12.6204 20.9427 12.3908Z" fill="#71A504"/>
</svg>
