<svg width="56" height="56" viewBox="0 0 56 56" fill="none" xmlns="http://www.w3.org/2000/svg">
<path d="M21 28.0002C22.2377 28.0002 23.4247 27.5085 24.2998 26.6333C25.175 25.7582 25.6667 24.5712 25.6667 23.3335C25.6667 22.0958 25.175 20.9088 24.2998 20.0337C23.4247 19.1585 22.2377 18.6668 21 18.6668C19.7623 18.6668 18.5754 19.1585 17.7002 20.0337C16.825 20.9088 16.3333 22.0958 16.3333 23.3335C16.3333 24.5712 16.825 25.7582 17.7002 26.6333C18.5754 27.5085 19.7623 28.0002 21 28.0002ZM50.1667 15.1668L28 2.3335L5.83334 15.1668V40.8335L28 53.6668L50.1667 40.8335V15.1668ZM28 7.72583L45.5 17.8572V33.9105L34.8553 27.5265L16.2563 41.4752L10.5 38.1432V17.8572L28 7.72583ZM28 48.2745L20.6453 44.0162L35.1447 33.1428L44.4733 38.7382L28 48.2745Z" fill="#C0C2BA"/>
</svg>
