<svg width="16" height="16" viewBox="0 0 16 16" fill="none" xmlns="http://www.w3.org/2000/svg">
<path d="M5.99996 7.99984C6.35358 7.99984 6.69272 7.85936 6.94277 7.60931C7.19282 7.35926 7.33329 7.02013 7.33329 6.6665C7.33329 6.31288 7.19282 5.97374 6.94277 5.7237C6.69272 5.47365 6.35358 5.33317 5.99996 5.33317C5.64634 5.33317 5.3072 5.47365 5.05715 5.7237C4.8071 5.97374 4.66663 6.31288 4.66663 6.6665C4.66663 7.02013 4.8071 7.35926 5.05715 7.60931C5.3072 7.85936 5.64634 7.99984 5.99996 7.99984ZM14.3333 4.33317L7.99996 0.666504L1.66663 4.33317V11.6665L7.99996 15.3332L14.3333 11.6665V4.33317ZM7.99996 2.20717L13 5.10184V9.68851L9.95863 7.8645L4.64463 11.8498L2.99996 10.8978V5.10184L7.99996 2.20717ZM7.99996 13.7925L5.89863 12.5758L10.0413 9.46917L12.7066 11.0678L7.99996 13.7925Z" fill="#82857D"/>
</svg>
