<svg width="20" height="20" viewBox="0 0 20 20" fill="none" xmlns="http://www.w3.org/2000/svg">
<path fill-rule="evenodd" clip-rule="evenodd" d="M6.66667 1.6665C7.1269 1.6665 7.5 2.0396 7.5 2.49984V3.33317H12.5V2.49984C12.5 2.0396 12.8731 1.6665 13.3333 1.6665C13.7936 1.6665 14.1667 2.0396 14.1667 2.49984V3.33317H15C15.663 3.33317 16.2989 3.59656 16.7678 4.0654C17.2366 4.53424 17.5 5.17013 17.5 5.83317V15.8332C17.5 16.4962 17.2366 17.1321 16.7678 17.6009C16.2989 18.0698 15.663 18.3332 15 18.3332H5C4.33696 18.3332 3.70107 18.0698 3.23223 17.6009C2.76339 17.1321 2.5 16.4962 2.5 15.8332V5.83317C2.5 5.17013 2.76339 4.53424 3.23223 4.0654C3.70107 3.59656 4.33696 3.33317 5 3.33317H5.83333V2.49984C5.83333 2.0396 6.20643 1.6665 6.66667 1.6665ZM5.83333 4.99984H5C4.77899 4.99984 4.56702 5.08764 4.41074 5.24392C4.25446 5.4002 4.16667 5.61216 4.16667 5.83317V8.33317H15.8333V5.83317C15.8333 5.61216 15.7455 5.4002 15.5893 5.24392C15.433 5.08763 15.221 4.99984 15 4.99984H14.1667V5.83317C14.1667 6.29341 13.7936 6.6665 13.3333 6.6665C12.8731 6.6665 12.5 6.29341 12.5 5.83317V4.99984H7.5V5.83317C7.5 6.29341 7.1269 6.6665 6.66667 6.6665C6.20643 6.6665 5.83333 6.29341 5.83333 5.83317V4.99984ZM15.8333 9.99984H4.16667V15.8332C4.16667 16.0542 4.25446 16.2661 4.41074 16.4224C4.56702 16.5787 4.77899 16.6665 5 16.6665H15C15.221 16.6665 15.433 16.5787 15.5893 16.4224C15.7455 16.2661 15.8333 16.0542 15.8333 15.8332V9.99984ZM5.83333 12.4998C5.83333 12.0396 6.20643 11.6665 6.66667 11.6665H8.33333C8.79357 11.6665 9.16667 12.0396 9.16667 12.4998V14.1665C9.16667 14.6267 8.79357 14.9998 8.33333 14.9998H6.66667C6.20643 14.9998 5.83333 14.6267 5.83333 14.1665V12.4998Z" fill="#82857D"/>
</svg>
