<svg width="16" height="16" viewBox="0 0 16 16" fill="none" xmlns="http://www.w3.org/2000/svg">
<path fill-rule="evenodd" clip-rule="evenodd" d="M5.64296 2.30981C6.26808 1.68469 7.11592 1.3335 7.99998 1.3335C8.88403 1.3335 9.73188 1.68469 10.357 2.30981C10.9821 2.93493 11.3333 3.78277 11.3333 4.66683C11.3333 5.55088 10.9821 6.39873 10.357 7.02385C9.73188 7.64897 8.88403 8.00016 7.99998 8.00016C7.11592 8.00016 6.26808 7.64897 5.64296 7.02385C5.01784 6.39873 4.66665 5.55088 4.66665 4.66683C4.66665 3.78277 5.01784 2.93493 5.64296 2.30981ZM7.99998 2.66683C7.46955 2.66683 6.96084 2.87754 6.58577 3.25262C6.21069 3.62769 5.99998 4.1364 5.99998 4.66683C5.99998 5.19726 6.21069 5.70597 6.58577 6.08104C6.96084 6.45612 7.46955 6.66683 7.99998 6.66683C8.53041 6.66683 9.03912 6.45612 9.41419 6.08104C9.78927 5.70597 9.99998 5.19726 9.99998 4.66683C9.99998 4.1364 9.78927 3.62769 9.41419 3.25262C9.03912 2.87754 8.53041 2.66683 7.99998 2.66683ZM6.66665 10.6668C6.13621 10.6668 5.62751 10.8775 5.25243 11.2526C4.87736 11.6277 4.66665 12.1364 4.66665 12.6668V14.0002C4.66665 14.3684 4.36817 14.6668 3.99998 14.6668C3.63179 14.6668 3.33331 14.3684 3.33331 14.0002V12.6668C3.33331 11.7828 3.6845 10.9349 4.30962 10.3098C4.93474 9.68469 5.78259 9.3335 6.66665 9.3335H9.33331C10.2174 9.3335 11.0652 9.68469 11.6903 10.3098C12.3155 10.9349 12.6666 11.7828 12.6666 12.6668V14.0002C12.6666 14.3684 12.3682 14.6668 12 14.6668C11.6318 14.6668 11.3333 14.3684 11.3333 14.0002V12.6668C11.3333 12.1364 11.1226 11.6277 10.7475 11.2526C10.3725 10.8775 9.86375 10.6668 9.33331 10.6668H6.66665Z" fill="#82857D"/>
</svg>
