<svg width="16" height="16" viewBox="0 0 16 16" fill="none" xmlns="http://www.w3.org/2000/svg">
<path d="M8 5.33362V14.0003M8 5.33362C7.75885 4.33989 7.34363 3.49033 6.80849 2.89573C6.27335 2.30113 5.64312 1.98909 5 2.00029C4.55797 2.00029 4.13405 2.17589 3.82149 2.48845C3.50893 2.80101 3.33333 3.22493 3.33333 3.66696C3.33333 4.10899 3.50893 4.53291 3.82149 4.84547C4.13405 5.15803 4.55797 5.33362 5 5.33362M8 5.33362C8.24115 4.33989 8.65637 3.49033 9.19151 2.89573C9.72665 2.30113 10.3569 1.98909 11 2.00029C11.442 2.00029 11.866 2.17589 12.1785 2.48845C12.4911 2.80101 12.6667 3.22493 12.6667 3.66696C12.6667 4.10899 12.4911 4.53291 12.1785 4.84547C11.866 5.15803 11.442 5.33362 11 5.33362M12.6667 8.00029V12.667C12.6667 13.0206 12.5262 13.3597 12.2761 13.6098C12.0261 13.8598 11.687 14.0003 11.3333 14.0003H4.66667C4.31304 14.0003 3.97391 13.8598 3.72386 13.6098C3.47381 13.3597 3.33333 13.0206 3.33333 12.667V8.00029M2 6.00028C2 5.82347 2.07024 5.6539 2.19526 5.52888C2.32029 5.40386 2.48986 5.33362 2.66667 5.33362H13.3333C13.5101 5.33362 13.6797 5.40386 13.8047 5.52888C13.9298 5.6539 14 5.82347 14 6.00028V7.33362C14 7.51043 13.9298 7.68 13.8047 7.80502C13.6797 7.93005 13.5101 8.00029 13.3333 8.00029H2.66667C2.48986 8.00029 2.32029 7.93005 2.19526 7.80502C2.07024 7.68 2 7.51043 2 7.33362V6.00028Z" stroke="#82857D" stroke-width="1.33333" stroke-linecap="round" stroke-linejoin="round"/>
</svg>
