<svg width="17" height="16" viewBox="0 0 17 16" fill="none" xmlns="http://www.w3.org/2000/svg">
<path fill-rule="evenodd" clip-rule="evenodd" d="M8.49331 1.3335C4.81331 1.3335 1.83331 4.32016 1.83331 8.00016C1.83331 11.6802 4.81331 14.6668 8.49331 14.6668C12.18 14.6668 15.1666 11.6802 15.1666 8.00016C15.1666 4.32016 12.18 1.3335 8.49331 1.3335ZM8.49998 13.3335C5.55331 13.3335 3.16665 10.9468 3.16665 8.00016C3.16665 5.0535 5.55331 2.66683 8.49998 2.66683C11.4466 2.66683 13.8333 5.0535 13.8333 8.00016C13.8333 10.9468 11.4466 13.3335 8.49998 13.3335ZM7.83331 8.7135L11.4933 10.9068L12.1733 9.76016L9.16665 7.9535V4.28016H7.83331V8.7135Z" fill="#82857D"/>
</svg>
