<svg width="25" height="24" viewBox="0 0 25 24" fill="none" xmlns="http://www.w3.org/2000/svg">
<g clip-path="url(#clip0_3599_266)">
<path d="M13.7675 5.00888L12.8825 3.23518C12.7363 2.9272 12.2788 2.91606 12.1175 3.23518L11.2325 5.00888L9.27125 5.28718C8.9225 5.33913 8.7725 5.76585 9.03125 6.02189L10.4563 7.39483L10.1188 9.32809C10.0663 9.67318 10.4262 9.94035 10.7487 9.78079L12.5075 8.86054L14.255 9.76595C14.5775 9.92551 14.9413 9.65834 14.885 9.31325L14.5475 7.37999L15.9725 6.02189C16.2275 5.76956 16.0813 5.34284 15.7325 5.28718L13.7713 5.00888H13.7675ZM10.1 12.5007C9.43625 12.5007 8.9 13.0313 8.9 13.6881V20.8126C8.9 21.4694 9.43625 22 10.1 22H14.9C15.5638 22 16.1 21.4694 16.1 20.8126V13.6881C16.1 13.0313 15.5638 12.5007 14.9 12.5007H10.1ZM1.7 14.8755C1.03625 14.8755 0.5 15.4062 0.5 16.0629V20.8126C0.5 21.4694 1.03625 22 1.7 22H6.5C7.16375 22 7.7 21.4694 7.7 20.8126V16.0629C7.7 15.4062 7.16375 14.8755 6.5 14.8755H1.7ZM17.3 18.4378V20.8126C17.3 21.4694 17.8363 22 18.5 22H23.3C23.9638 22 24.5 21.4694 24.5 20.8126V18.4378C24.5 17.781 23.9638 17.2504 23.3 17.2504H18.5C17.8363 17.2504 17.3 17.781 17.3 18.4378Z" fill="#FDFFF8"/>
</g>
<defs>
<clipPath id="clip0_3599_266">
<rect width="24" height="24" fill="white" transform="translate(0.5)"/>
</clipPath>
</defs>
</svg>
