<svg width="20" height="20" viewBox="0 0 20 20" fill="none" xmlns="http://www.w3.org/2000/svg">
<path fill-rule="evenodd" clip-rule="evenodd" d="M5.78213 2.17446C6.59097 1.83943 7.45787 1.66699 8.33335 1.66699C9.20883 1.66699 10.0757 1.83943 10.8846 2.17446C11.6934 2.50949 12.4283 3.00056 13.0474 3.61961C13.6665 4.23867 14.1575 4.9736 14.4926 5.78244C14.8276 6.59127 15 7.45818 15 8.33366C15 9.20914 14.8276 10.076 14.4926 10.8849C14.2644 11.4358 13.9638 11.9524 13.5997 12.4215L18.0893 16.9111C18.4147 17.2365 18.4147 17.7641 18.0893 18.0896C17.7638 18.415 17.2362 18.415 16.9108 18.0896L12.4212 13.6C11.9521 13.9641 11.4355 14.2647 10.8846 14.4929C10.0757 14.8279 9.20883 15.0003 8.33335 15.0003C7.45788 15.0003 6.59097 14.8279 5.78213 14.4929C4.97329 14.1578 4.23837 13.6668 3.61931 13.0477C3.00025 12.4286 2.50919 11.6937 2.17416 10.8849C1.83913 10.076 1.66669 9.20914 1.66669 8.33366C1.66669 7.45818 1.83913 6.59127 2.17416 5.78244C2.50919 4.9736 3.00025 4.23867 3.61931 3.61961C4.23837 3.00056 4.97329 2.50949 5.78213 2.17446ZM8.33335 3.33366C7.67674 3.33366 7.02656 3.46299 6.41994 3.71426C5.81331 3.96553 5.26211 4.33383 4.79782 4.79813C4.33353 5.26242 3.96523 5.81361 3.71396 6.42024C3.46268 7.02687 3.33335 7.67705 3.33335 8.33366C3.33335 8.99027 3.46268 9.64045 3.71396 10.2471C3.96523 10.8537 4.33353 11.4049 4.79782 11.8692C5.26211 12.3335 5.81331 12.7018 6.41994 12.9531C7.02656 13.2043 7.67674 13.3337 8.33335 13.3337C8.98996 13.3337 9.64014 13.2043 10.2468 12.9531C10.8534 12.7018 11.4046 12.3335 11.8689 11.8692C12.3332 11.4049 12.7015 10.8537 12.9528 10.2471C13.204 9.64045 13.3334 8.99027 13.3334 8.33366C13.3334 7.67705 13.204 7.02687 12.9528 6.42024C12.7015 5.81361 12.3332 5.26242 11.8689 4.79813C11.4046 4.33383 10.8534 3.96553 10.2468 3.71426C9.64014 3.46299 8.98996 3.33366 8.33335 3.33366Z" fill="#82857D"/>
</svg>
