<svg xmlns="http://www.w3.org/2000/svg" width="16" height="16" viewBox="0 0 16 16" fill="none">
<path fill-rule="evenodd" clip-rule="evenodd" d="M5.64302 2.30981C6.26814 1.68469 7.11599 1.3335 8.00004 1.3335C8.8841 1.3335 9.73194 1.68469 10.3571 2.30981C10.9822 2.93493 11.3334 3.78277 11.3334 4.66683C11.3334 5.55088 10.9822 6.39873 10.3571 7.02385C9.73194 7.64897 8.8841 8.00016 8.00004 8.00016C7.11599 8.00016 6.26814 7.64897 5.64302 7.02385C5.0179 6.39873 4.66671 5.55088 4.66671 4.66683C4.66671 3.78277 5.0179 2.93493 5.64302 2.30981ZM8.00004 2.66683C7.46961 2.66683 6.9609 2.87754 6.58583 3.25262C6.21075 3.62769 6.00004 4.1364 6.00004 4.66683C6.00004 5.19726 6.21075 5.70597 6.58583 6.08104C6.9609 6.45612 7.46961 6.66683 8.00004 6.66683C8.53047 6.66683 9.03918 6.45612 9.41425 6.08104C9.78933 5.70597 10 5.19726 10 4.66683C10 4.1364 9.78933 3.62769 9.41425 3.25262C9.03918 2.87754 8.53047 2.66683 8.00004 2.66683ZM6.66671 10.6668C6.13627 10.6668 5.62757 10.8775 5.25249 11.2526C4.87742 11.6277 4.66671 12.1364 4.66671 12.6668V14.0002C4.66671 14.3684 4.36823 14.6668 4.00004 14.6668C3.63185 14.6668 3.33337 14.3684 3.33337 14.0002V12.6668C3.33337 11.7828 3.68456 10.9349 4.30968 10.3098C4.93481 9.68469 5.78265 9.3335 6.66671 9.3335H9.33337C10.2174 9.3335 11.0653 9.68469 11.6904 10.3098C12.3155 10.9349 12.6667 11.7828 12.6667 12.6668V14.0002C12.6667 14.3684 12.3682 14.6668 12 14.6668C11.6319 14.6668 11.3334 14.3684 11.3334 14.0002V12.6668C11.3334 12.1364 11.1227 11.6277 10.7476 11.2526C10.3725 10.8775 9.86381 10.6668 9.33337 10.6668H6.66671Z" fill="#45493F"/>
</svg>