<svg width="61" height="61" viewBox="0 0 61 61" fill="none" xmlns="http://www.w3.org/2000/svg">
<g filter="url(#filter0_i_3570_20218)">
<g clip-path="url(#clip0_3570_20218)">
<rect x="0.800781" y="0.333984" width="60" height="60" rx="30" fill="#82857D"/>
<path fill-rule="evenodd" clip-rule="evenodd" d="M18.0644 -3.32725C36.6521 -10.3609 57.4287 -0.994651 64.4619 17.5944C71.4951 36.1834 62.1295 56.9615 43.5418 63.9952C24.9541 71.0289 4.17744 61.6626 -2.85574 43.0736C-9.88893 24.4845 -0.523302 3.70644 18.0644 -3.32725Z" fill="#904D16"/>
<path fill-rule="evenodd" clip-rule="evenodd" d="M18.0652 -3.32781C36.312 -10.2359 56.6759 -1.31818 64.05 16.589C69.3249 34.4783 59.9772 53.6953 42.2507 60.3881C24.0039 67.2962 3.63995 58.3785 -3.73413 40.4713C-9.00902 22.582 0.338676 3.36497 18.0652 -3.32781Z" fill="#DC8944"/>
<path fill-rule="evenodd" clip-rule="evenodd" d="M22.3384 6.62511C35.8845 1.49338 51.0273 8.3297 56.1408 21.8767C61.2721 35.4238 54.4363 50.5677 40.8902 55.6815C27.3442 60.8132 12.2013 53.9769 7.08788 40.4299C1.95652 26.8829 8.79235 11.7389 22.3384 6.62511Z" fill="#FDFFF8"/>
<path fill-rule="evenodd" clip-rule="evenodd" d="M31.614 7.0332C41.3564 7.0332 50.5246 12.9724 54.1848 22.6257C58.9035 35.0962 52.6238 49.02 40.1543 53.7211C37.3374 54.7798 34.4488 55.2822 31.614 55.2822V53.0034C34.1796 53.0034 36.7991 52.5548 39.3469 51.5859C50.6323 47.3155 56.3198 34.7015 52.0497 23.4332C48.7484 14.6949 40.4413 9.31198 31.614 9.31198V7.0332ZM23.0736 8.59425C25.8905 7.53561 28.7792 7.0332 31.614 7.0332V9.31198C29.0483 9.31198 26.4288 9.76056 23.881 10.7295C12.5957 14.9999 6.9081 27.6139 11.1782 38.8822C14.4795 47.6205 22.7866 53.0034 31.614 53.0034V55.2822C21.8716 55.2822 12.7033 49.343 9.04317 39.6896C4.32447 27.2192 10.6041 13.2953 23.0736 8.59425Z" fill="#DC8944"/>
<path d="M21.9519 42.6599C20.9252 42.6599 19.9359 42.5665 18.9839 42.3799C18.0505 42.1745 17.2105 41.8479 16.4639 41.3999C15.7359 40.9332 15.1572 40.3079 14.7279 39.5239C14.2985 38.7399 14.0839 37.7599 14.0839 36.5839C14.0839 35.3892 14.3359 34.4279 14.8399 33.6999C15.3439 32.9719 16.0065 32.4119 16.8279 32.0199C16.3052 31.5719 15.8572 31.0025 15.4839 30.3119C15.1105 29.6212 14.9239 28.7812 14.9239 27.7919C14.9239 26.1865 15.4932 24.8705 16.6319 23.8439C17.7705 22.7985 19.5252 22.2759 21.8959 22.2759C24.2852 22.2759 26.0305 22.7519 27.1319 23.7039C28.2332 24.6559 28.7839 26.0185 28.7839 27.7919C28.7839 28.6879 28.5972 29.4999 28.2239 30.2279C27.8505 30.9559 27.3932 31.5345 26.8519 31.9639C27.6359 32.3559 28.2892 32.9345 28.8119 33.6999C29.3532 34.4652 29.6239 35.4265 29.6239 36.5839C29.6239 38.1519 29.2692 39.3745 28.5599 40.2519C27.8505 41.1292 26.9172 41.7545 25.7599 42.1279C24.6025 42.4825 23.3332 42.6599 21.9519 42.6599ZM21.9519 30.7319C22.8665 30.7319 23.5479 30.5452 23.9959 30.1719C24.4439 29.7985 24.6679 29.2945 24.6679 28.6599C24.6679 27.8945 24.4532 27.2972 24.0239 26.8679C23.6132 26.4199 22.9225 26.1959 21.9519 26.1959C21.1119 26.1959 20.4212 26.3825 19.8799 26.7559C19.3572 27.1292 19.0959 27.6705 19.0959 28.3799C19.0959 28.9585 19.2359 29.4252 19.5159 29.7799C19.8145 30.1159 20.1785 30.3585 20.6079 30.5079C21.0559 30.6572 21.5039 30.7319 21.9519 30.7319ZM21.9519 38.7399C22.9599 38.7399 23.7999 38.5719 24.4719 38.2359C25.1625 37.8999 25.5079 37.3865 25.5079 36.6959C25.5079 35.7252 25.0225 34.9505 24.0519 34.3719C23.0999 33.7745 21.6625 33.4665 19.7399 33.4479C19.3665 33.7279 19.0492 34.0919 18.7879 34.5399C18.5452 34.9692 18.4239 35.4265 18.4239 35.9119C18.4239 36.9385 18.7599 37.6665 19.4319 38.0959C20.1039 38.5252 20.9439 38.7399 21.9519 38.7399ZM41.6853 42.3799V39.5799H31.0173V36.7239L40.1173 22.5559H45.7173L46.2773 24.2639L45.7173 27.0639V35.8839H49.3573V39.2999L45.7173 39.5799V42.3799H41.6853ZM36.1413 35.8839H41.6853V27.5399H41.1813L36.1413 35.8839Z" fill="#DC8944"/>
<path opacity="0.5" fill-rule="evenodd" clip-rule="evenodd" d="M11.4424 0.550735C20.1165 -3.71 28.9898 -3.40347 31.2733 1.24042C33.5568 5.88432 28.3615 13.0877 19.6874 17.3485C11.0133 21.6092 2.13992 21.3027 -0.143553 16.6588C-2.42702 12.0149 2.76825 4.81147 11.4424 0.550735Z" fill="#FDFFF8"/>
</g>
</g>
<defs>
<filter id="filter0_i_3570_20218" x="0.800781" y="0.333984" width="60" height="60" filterUnits="userSpaceOnUse" color-interpolation-filters="sRGB">
<feFlood flood-opacity="0" result="BackgroundImageFix"/>
<feBlend mode="normal" in="SourceGraphic" in2="BackgroundImageFix" result="shape"/>
<feColorMatrix in="SourceAlpha" type="matrix" values="0 0 0 0 0 0 0 0 0 0 0 0 0 0 0 0 0 0 127 0" result="hardAlpha"/>
<feOffset/>
<feGaussianBlur stdDeviation="5"/>
<feComposite in2="hardAlpha" operator="arithmetic" k2="-1" k3="1"/>
<feColorMatrix type="matrix" values="0 0 0 0 0 0 0 0 0 0 0 0 0 0 0 0 0 0 0.6 0"/>
<feBlend mode="normal" in2="shape" result="effect1_innerShadow_3570_20218"/>
</filter>
<clipPath id="clip0_3570_20218">
<rect x="0.800781" y="0.333984" width="60" height="60" rx="30" fill="white"/>
</clipPath>
</defs>
</svg>
