<svg width="61" height="61" viewBox="0 0 61 61" fill="none" xmlns="http://www.w3.org/2000/svg">
<g filter="url(#filter0_i_3570_20012)">
<g clip-path="url(#clip0_3570_20012)">
<rect x="0.200195" y="0.666992" width="60" height="60" rx="30" fill="#82857D"/>
<path fill-rule="evenodd" clip-rule="evenodd" d="M17.4638 -2.99425C36.0515 -10.0279 56.8281 -0.661643 63.8613 17.9274C70.8945 36.5164 61.5289 57.2945 42.9412 64.3282C24.3535 71.3619 3.57686 61.9956 -3.45633 43.4066C-10.4895 24.8175 -1.12389 4.03945 17.4638 -2.99425Z" fill="#5B3267"/>
<path fill-rule="evenodd" clip-rule="evenodd" d="M17.4646 -2.9948C35.7114 -9.90289 56.0753 -0.985174 63.4494 16.922C68.7243 34.8113 59.3766 54.0283 41.6501 60.7211C23.4033 67.6292 3.03937 58.7115 -4.33472 40.8043C-9.60961 22.915 -0.261909 3.69797 17.4646 -2.9948Z" fill="#875796"/>
<path fill-rule="evenodd" clip-rule="evenodd" d="M21.7378 6.95812C35.2839 1.82639 50.4268 8.66271 55.5402 22.2097C60.6715 35.7568 53.8357 50.9007 40.2896 56.0145C26.7436 61.1462 11.6007 54.3099 6.48729 40.7629C1.35593 27.2159 8.19176 12.0719 21.7378 6.95812Z" fill="#FDFFF8"/>
<path fill-rule="evenodd" clip-rule="evenodd" d="M31.0134 7.36621C40.7558 7.36621 49.924 13.3054 53.5842 22.9588C58.3029 35.4292 52.0232 49.3531 39.5537 54.0541C36.7368 55.1128 33.8482 55.6152 31.0134 55.6152V53.3364C33.5791 53.3364 36.1986 52.8878 38.7463 51.9189C50.0317 47.6485 55.7192 35.0345 51.4491 23.7662C48.1478 15.0279 39.8407 9.64498 31.0134 9.64498V7.36621ZM22.4731 8.92726C25.2899 7.86862 28.1786 7.36621 31.0134 7.36621V9.64498C28.4477 9.64498 25.8282 10.0936 23.2805 11.0625C11.9951 15.3329 6.30751 27.9469 10.5777 39.2152C13.879 47.9535 22.186 53.3364 31.0134 53.3364V55.6152C21.271 55.6152 12.1027 49.676 8.44258 40.0226C3.72389 27.5522 10.0035 13.6284 22.4731 8.92726Z" fill="#875796"/>
<path d="M23.5936 42.9929C22.0442 42.9929 20.6256 42.6476 19.3376 41.9569C18.0496 41.2476 17.0229 40.1836 16.2576 38.7649C15.5109 37.3462 15.1376 35.5542 15.1376 33.3889C15.1376 31.5036 15.3989 29.8796 15.9216 28.5169C16.4629 27.1542 17.1722 26.0436 18.0496 25.1849C18.9456 24.3076 19.9349 23.6636 21.0176 23.2529C22.1189 22.8236 23.2296 22.6089 24.3496 22.6089C25.3016 22.6089 26.0389 22.6836 26.5616 22.8329C27.1029 22.9822 27.5789 23.1502 27.9896 23.3369L30.5376 25.6329L28.5776 28.8249L24.3496 26.5009C23.5282 26.5009 22.7536 26.7062 22.0256 27.1169C21.2976 27.5276 20.7002 28.1156 20.2336 28.8809C19.7669 29.6462 19.5056 30.5796 19.4496 31.6809L23.8736 30.5609C25.1802 30.5609 26.3656 30.7756 27.4296 31.2049C28.5122 31.6156 29.3802 32.2689 30.0336 33.1649C30.6869 34.0422 31.0136 35.1996 31.0136 36.6369C31.0136 38.5596 30.3602 40.0996 29.0536 41.2569C27.7656 42.4142 25.9456 42.9929 23.5936 42.9929ZM23.8456 39.0449C24.7789 39.0449 25.5069 38.8209 26.0296 38.3729C26.5709 37.9249 26.8416 37.2902 26.8416 36.4689C26.8416 35.6849 26.5429 35.0876 25.9456 34.6769C25.3482 34.2476 24.5736 34.0329 23.6216 34.0329C22.8189 34.0329 22.0629 34.1449 21.3536 34.3689C20.6442 34.5929 20.1309 34.8262 19.8136 35.0689C19.8509 35.6662 20.0096 36.2729 20.2896 36.8889C20.5882 37.5049 21.0269 38.0182 21.6056 38.4289C22.1842 38.8396 22.9309 39.0449 23.8456 39.0449ZM35.7865 42.7129L41.0225 29.4409L42.5065 26.5009H41.6665L32.9865 27.0609V22.8889H46.5385V25.7169L41.9185 38.2329L40.5185 42.7129H35.7865Z" fill="#875796"/>
<path opacity="0.5" fill-rule="evenodd" clip-rule="evenodd" d="M10.8418 0.883743C19.5159 -3.37699 28.3892 -3.07046 30.6727 1.57343C32.9562 6.21733 27.7609 13.4207 19.0868 17.6815C10.4127 21.9422 1.53933 21.6357 -0.744139 16.9918C-3.02761 12.3479 2.16766 5.14448 10.8418 0.883743Z" fill="#FDFFF8"/>
</g>
</g>
<defs>
<filter id="filter0_i_3570_20012" x="0.200195" y="0.666992" width="60" height="60" filterUnits="userSpaceOnUse" color-interpolation-filters="sRGB">
<feFlood flood-opacity="0" result="BackgroundImageFix"/>
<feBlend mode="normal" in="SourceGraphic" in2="BackgroundImageFix" result="shape"/>
<feColorMatrix in="SourceAlpha" type="matrix" values="0 0 0 0 0 0 0 0 0 0 0 0 0 0 0 0 0 0 127 0" result="hardAlpha"/>
<feOffset/>
<feGaussianBlur stdDeviation="5"/>
<feComposite in2="hardAlpha" operator="arithmetic" k2="-1" k3="1"/>
<feColorMatrix type="matrix" values="0 0 0 0 0 0 0 0 0 0 0 0 0 0 0 0 0 0 0.6 0"/>
<feBlend mode="normal" in2="shape" result="effect1_innerShadow_3570_20012"/>
</filter>
<clipPath id="clip0_3570_20012">
<rect x="0.200195" y="0.666992" width="60" height="60" rx="30" fill="white"/>
</clipPath>
</defs>
</svg>
