<svg width="61" height="60" viewBox="0 0 61 60" fill="none" xmlns="http://www.w3.org/2000/svg">
<g filter="url(#filter0_i_3570_19806)">
<g clip-path="url(#clip0_3570_19806)">
<rect x="0.600586" width="60" height="60" rx="30" fill="#82857D"/>
<path fill-rule="evenodd" clip-rule="evenodd" d="M17.8642 -3.66124C36.4519 -10.6949 57.2285 -1.32864 64.2617 17.2604C71.2949 35.8494 61.9293 56.6275 43.3416 63.6612C24.7539 70.6949 3.97725 61.3286 -3.05594 42.7396C-10.0891 24.1506 -0.723497 3.37245 17.8642 -3.66124Z" fill="#5B3267"/>
<path fill-rule="evenodd" clip-rule="evenodd" d="M17.865 -3.66179C36.1118 -10.5699 56.4757 -1.65217 63.8498 16.255C69.1247 34.1443 59.777 53.3614 42.0505 60.0541C23.8037 66.9622 3.43976 58.0445 -3.93433 40.1373C-9.20922 22.248 0.138481 3.03098 17.865 -3.66179Z" fill="#875796"/>
<path fill-rule="evenodd" clip-rule="evenodd" d="M22.1382 6.29112C35.6843 1.1594 50.8272 7.99572 55.9406 21.5427C61.0719 35.0898 54.2361 50.2338 40.69 55.3475C27.144 60.4793 12.0011 53.6429 6.88768 40.0959C1.75632 26.5489 8.59215 11.4049 22.1382 6.29112Z" fill="#FDFFF8"/>
<path fill-rule="evenodd" clip-rule="evenodd" d="M31.4138 6.69922C41.1562 6.69922 50.3244 12.6384 53.9846 22.2918C58.7033 34.7622 52.4236 48.6861 39.9541 53.3871C37.1372 54.4458 34.2486 54.9482 31.4138 54.9482V52.6694C33.9794 52.6694 36.5989 52.2209 39.1467 51.2519C50.4321 46.9815 56.1196 34.3675 51.8495 23.0992C48.5482 14.3609 40.2411 8.97799 31.4138 8.97799V6.69922ZM22.8734 8.26027C25.6903 7.20163 28.579 6.69922 31.4138 6.69922V8.97799C28.8481 8.97799 26.2286 9.42657 23.6809 10.3955C12.3955 14.666 6.7079 27.2799 10.978 38.5482C14.2793 47.2865 22.5864 52.6694 31.4138 52.6694V54.9482C21.6714 54.9482 12.5031 49.009 8.84297 39.3557C4.12428 26.8852 10.4039 12.9614 22.8734 8.26027Z" fill="#875796"/>
<path d="M21.7567 42.3259C21.0474 42.3259 20.4314 42.3072 19.9087 42.2699C19.4047 42.2326 18.8914 42.1766 18.3687 42.1019L14.8407 40.8139L15.9607 36.9219L20.9167 38.4619C22.2047 38.4619 23.1847 38.2286 23.8567 37.7619C24.5474 37.2766 24.8927 36.5859 24.8927 35.6899C24.8927 34.8499 24.6594 34.1779 24.1927 33.6739C23.726 33.1699 22.83 32.9179 21.5047 32.9179H15.6807V22.2219H28.1407V26.1139L21.1407 25.8339H19.9647V29.6419H21.8407C24.4354 29.6419 26.3207 30.1366 27.4967 31.1259C28.6727 32.1152 29.2607 33.5806 29.2607 35.5219C29.2607 36.8472 28.962 38.0232 28.3647 39.0499C27.786 40.0766 26.9367 40.8792 25.8167 41.4579C24.6967 42.0366 23.3434 42.3259 21.7567 42.3259ZM39.5778 42.3259C37.9912 42.3259 36.6098 41.9992 35.4338 41.3459C34.2765 40.6926 33.3805 39.6286 32.7458 38.1539C32.1112 36.6606 31.7938 34.6539 31.7938 32.1339C31.7938 29.7259 32.1112 27.7752 32.7458 26.2819C33.3805 24.7886 34.2765 23.6966 35.4338 23.0059C36.6098 22.2966 37.9912 21.9419 39.5778 21.9419C41.1832 21.9419 42.5645 22.2966 43.7218 23.0059C44.8792 23.7152 45.7752 24.8166 46.4098 26.3099C47.0445 27.8032 47.3618 29.7446 47.3618 32.1339C47.3618 34.6166 47.0445 36.6046 46.4098 38.0979C45.7752 39.5912 44.8792 40.6739 43.7218 41.3459C42.5645 41.9992 41.1832 42.3259 39.5778 42.3259ZM39.5778 38.2939C40.8658 38.2939 41.7898 37.8366 42.3498 36.9219C42.9098 35.9886 43.1898 34.3926 43.1898 32.1339C43.1898 30.0059 42.9098 28.4472 42.3498 27.4579C41.7898 26.4686 40.8658 25.9739 39.5778 25.9739C38.3272 25.9739 37.4125 26.4779 36.8338 27.4859C36.2552 28.4752 35.9658 30.0246 35.9658 32.1339C35.9658 34.3739 36.2552 35.9606 36.8338 36.8939C37.4125 37.8272 38.3272 38.2939 39.5778 38.2939Z" fill="#875796"/>
<path opacity="0.5" fill-rule="evenodd" clip-rule="evenodd" d="M11.2422 0.216751C19.9163 -4.04399 28.7896 -3.73746 31.0731 0.90644C33.3566 5.55034 28.1613 12.7537 19.4872 17.0145C10.8131 21.2752 1.93972 20.9687 -0.343749 16.3248C-2.62722 11.6809 2.56805 4.47749 11.2422 0.216751Z" fill="#FDFFF8"/>
</g>
</g>
<defs>
<filter id="filter0_i_3570_19806" x="0.600586" y="0" width="60" height="60" filterUnits="userSpaceOnUse" color-interpolation-filters="sRGB">
<feFlood flood-opacity="0" result="BackgroundImageFix"/>
<feBlend mode="normal" in="SourceGraphic" in2="BackgroundImageFix" result="shape"/>
<feColorMatrix in="SourceAlpha" type="matrix" values="0 0 0 0 0 0 0 0 0 0 0 0 0 0 0 0 0 0 127 0" result="hardAlpha"/>
<feOffset/>
<feGaussianBlur stdDeviation="5"/>
<feComposite in2="hardAlpha" operator="arithmetic" k2="-1" k3="1"/>
<feColorMatrix type="matrix" values="0 0 0 0 0 0 0 0 0 0 0 0 0 0 0 0 0 0 0.6 0"/>
<feBlend mode="normal" in2="shape" result="effect1_innerShadow_3570_19806"/>
</filter>
<clipPath id="clip0_3570_19806">
<rect x="0.600586" width="60" height="60" rx="30" fill="white"/>
</clipPath>
</defs>
</svg>
