<svg width="61" height="60" viewBox="0 0 61 60" fill="none" xmlns="http://www.w3.org/2000/svg">
<g filter="url(#filter0_i_3570_19710)">
<g clip-path="url(#clip0_3570_19710)">
<rect x="0.200195" width="60" height="60" rx="30" fill="#82857D"/>
<path fill-rule="evenodd" clip-rule="evenodd" d="M17.4638 -3.66124C36.0515 -10.6949 56.8281 -1.32864 63.8613 17.2604C70.8945 35.8494 61.5289 56.6275 42.9412 63.6612C24.3535 70.6949 3.57686 61.3286 -3.45633 42.7396C-10.4895 24.1506 -1.12389 3.37245 17.4638 -3.66124Z" fill="#904D16"/>
<path fill-rule="evenodd" clip-rule="evenodd" d="M17.4646 -3.66179C35.7114 -10.5699 56.0753 -1.65217 63.4494 16.255C68.7243 34.1443 59.3766 53.3614 41.6501 60.0541C23.4033 66.9622 3.03937 58.0445 -4.33472 40.1373C-9.60961 22.248 -0.261909 3.03098 17.4646 -3.66179Z" fill="#DC8944"/>
<path fill-rule="evenodd" clip-rule="evenodd" d="M21.7378 6.29112C35.2839 1.1594 50.4268 7.99572 55.5402 21.5427C60.6715 35.0898 53.8357 50.2338 40.2896 55.3475C26.7436 60.4793 11.6007 53.6429 6.48729 40.0959C1.35593 26.5489 8.19176 11.4049 21.7378 6.29112Z" fill="#FDFFF8"/>
<path fill-rule="evenodd" clip-rule="evenodd" d="M31.0134 6.69922C40.7558 6.69922 49.924 12.6384 53.5842 22.2918C58.3029 34.7622 52.0232 48.6861 39.5537 53.3871C36.7368 54.4458 33.8482 54.9482 31.0134 54.9482V52.6694C33.5791 52.6694 36.1986 52.2209 38.7463 51.2519C50.0317 46.9815 55.7192 34.3675 51.4491 23.0992C48.1478 14.3609 39.8407 8.97799 31.0134 8.97799V6.69922ZM22.4731 8.26027C25.2899 7.20163 28.1786 6.69922 31.0134 6.69922V8.97799C28.4477 8.97799 25.8282 9.42657 23.2805 10.3955C11.9951 14.666 6.30751 27.2799 10.5777 38.5482C13.879 47.2865 22.186 52.6694 31.0134 52.6694V54.9482C21.271 54.9482 12.1027 49.009 8.44258 39.3557C3.72389 26.8852 10.0035 12.9614 22.4731 8.26027Z" fill="#DC8944"/>
<path d="M24.0085 42.0459V39.2459H13.3405V36.3899L22.4405 22.2219H28.0405L28.6005 23.9299L28.0405 26.7299V35.5499H31.6805V38.9659L28.0405 39.2459V42.0459H24.0085ZM18.4645 35.5499H24.0085V27.2059H23.5045L18.4645 35.5499ZM32.9351 42.0459V38.9939C32.9351 38.9939 33.1497 38.8539 33.5791 38.5739C34.0084 38.2752 34.5591 37.8926 35.2311 37.4259C35.9031 36.9592 36.5937 36.4459 37.3031 35.8859C38.0311 35.3259 38.6751 34.7752 39.2351 34.2339C40.4484 33.0952 41.3537 32.0779 41.9511 31.1819C42.5484 30.2859 42.8471 29.2966 42.8471 28.2139C42.8471 27.4859 42.6137 26.9166 42.1471 26.5059C41.6991 26.0766 40.9524 25.8619 39.9071 25.8619C39.1231 25.8619 38.3297 25.9459 37.5271 26.1139C36.7244 26.2819 35.9777 26.4966 35.2871 26.7579C34.5964 27.0006 34.0084 27.2526 33.5231 27.5139V23.5939C33.7097 23.5006 34.0831 23.3326 34.6431 23.0899C35.2217 22.8286 35.9777 22.5859 36.9111 22.3619C37.8444 22.1379 38.9457 22.0259 40.2151 22.0259C42.5857 22.0259 44.3404 22.5392 45.4791 23.5659C46.6364 24.5739 47.2151 26.0112 47.2151 27.8779C47.2151 29.0352 46.9724 30.1086 46.4871 31.0979C46.0204 32.0872 45.3951 32.9926 44.6111 33.8139C43.8457 34.6352 43.0151 35.3819 42.1191 36.0539C41.2417 36.7259 40.3924 37.3232 39.5711 37.8459L39.7111 38.4059L47.2151 37.8459V42.0459H32.9351Z" fill="#DC8944"/>
<path opacity="0.5" fill-rule="evenodd" clip-rule="evenodd" d="M10.8418 0.216751C19.5159 -4.04399 28.3892 -3.73746 30.6727 0.90644C32.9562 5.55034 27.7609 12.7537 19.0868 17.0145C10.4127 21.2752 1.53933 20.9687 -0.744139 16.3248C-3.02761 11.6809 2.16766 4.47749 10.8418 0.216751Z" fill="#FDFFF8"/>
</g>
</g>
<defs>
<filter id="filter0_i_3570_19710" x="0.200195" y="0" width="60" height="60" filterUnits="userSpaceOnUse" color-interpolation-filters="sRGB">
<feFlood flood-opacity="0" result="BackgroundImageFix"/>
<feBlend mode="normal" in="SourceGraphic" in2="BackgroundImageFix" result="shape"/>
<feColorMatrix in="SourceAlpha" type="matrix" values="0 0 0 0 0 0 0 0 0 0 0 0 0 0 0 0 0 0 127 0" result="hardAlpha"/>
<feOffset/>
<feGaussianBlur stdDeviation="5"/>
<feComposite in2="hardAlpha" operator="arithmetic" k2="-1" k3="1"/>
<feColorMatrix type="matrix" values="0 0 0 0 0 0 0 0 0 0 0 0 0 0 0 0 0 0 0.6 0"/>
<feBlend mode="normal" in2="shape" result="effect1_innerShadow_3570_19710"/>
</filter>
<clipPath id="clip0_3570_19710">
<rect x="0.200195" width="60" height="60" rx="30" fill="white"/>
</clipPath>
</defs>
</svg>
