<svg width="60" height="60" viewBox="0 0 60 60" fill="none" xmlns="http://www.w3.org/2000/svg">
<g filter="url(#filter0_i_3570_20085)">
<g clip-path="url(#clip0_3570_20085)">
<rect width="60" height="60" rx="30" fill="#82857D"/>
<path fill-rule="evenodd" clip-rule="evenodd" d="M17.2636 -3.66124C35.8513 -10.6949 56.6279 -1.32864 63.6611 17.2604C70.6943 35.8494 61.3287 56.6275 42.741 63.6612C24.1533 70.6949 3.37666 61.3286 -3.65652 42.7396C-10.6897 24.1506 -1.32408 3.37245 17.2636 -3.66124Z" fill="#904D16"/>
<path fill-rule="evenodd" clip-rule="evenodd" d="M17.2644 -3.66179C35.5112 -10.5699 55.8751 -1.65217 63.2492 16.255C68.5241 34.1443 59.1765 53.3614 41.4499 60.0541C23.2031 66.9622 2.83917 58.0445 -4.53491 40.1373C-9.8098 22.248 -0.462105 3.03098 17.2644 -3.66179Z" fill="#DC8944"/>
<path fill-rule="evenodd" clip-rule="evenodd" d="M21.5376 6.29112C35.0837 1.1594 50.2266 7.99572 55.34 21.5427C60.4713 35.0898 53.6355 50.2338 40.0894 55.3475C26.5434 60.4793 11.4005 53.6429 6.28709 40.0959C1.15574 26.5489 7.99157 11.4049 21.5376 6.29112Z" fill="#FDFFF8"/>
<path fill-rule="evenodd" clip-rule="evenodd" d="M30.8132 6.69922C40.5556 6.69922 49.7238 12.6384 53.384 22.2918C58.1027 34.7622 51.823 48.6861 39.3535 53.3871C36.5366 54.4458 33.648 54.9482 30.8132 54.9482V52.6694C33.3789 52.6694 35.9984 52.2209 38.5461 51.2519C49.8315 46.9815 55.519 34.3675 51.2489 23.0992C47.9476 14.3609 39.6405 8.97799 30.8132 8.97799V6.69922ZM22.2729 8.26027C25.0897 7.20163 27.9784 6.69922 30.8132 6.69922V8.97799C28.2475 8.97799 25.628 9.42657 23.0803 10.3955C11.7949 14.666 6.10731 27.2799 10.3775 38.5482C13.6788 47.2865 21.9858 52.6694 30.8132 52.6694V54.9482C21.0708 54.9482 11.9025 49.009 8.24238 39.3557C3.52369 26.8852 9.80331 12.9614 22.2729 8.26027Z" fill="#DC8944"/>
<path d="M18.141 42.0459L23.377 28.7739L24.861 25.8339H24.021L15.341 26.3939V22.2219H28.893V25.0499L24.273 37.5659L22.873 42.0459H18.141ZM37.8514 42.3259C37.2541 42.3259 36.6848 42.3072 36.1434 42.2699C35.6208 42.2326 35.1261 42.1766 34.6594 42.1019L30.8514 40.8139L31.9714 36.9219L37.2914 38.4339C38.6168 38.4339 39.5501 38.1819 40.0914 37.6779C40.6514 37.1552 40.9314 36.4832 40.9314 35.6619C40.9314 35.0646 40.7541 34.5886 40.3994 34.2339C40.0634 33.8792 39.4941 33.7019 38.6914 33.7019H35.1354V30.0899H37.9914C39.7648 30.0899 40.6514 29.3059 40.6514 27.7379C40.6514 26.4872 39.7834 25.8619 38.0474 25.8619C36.9834 25.8619 36.0408 25.9646 35.2194 26.1699C34.3981 26.3566 33.6888 26.5806 33.0914 26.8419C32.5128 27.0846 32.0461 27.2899 31.6914 27.4579V23.5379C32.2328 23.1832 33.0168 22.8379 34.0434 22.5019C35.0701 22.1472 36.4141 21.9699 38.0754 21.9699C40.1848 21.9699 41.7808 22.4366 42.8634 23.3699C43.9648 24.2846 44.5154 25.5819 44.5154 27.2619C44.5154 28.2326 44.3568 29.0352 44.0394 29.6699C43.7408 30.2859 43.3581 30.7806 42.8914 31.1539C43.6941 31.6579 44.3101 32.2646 44.7394 32.9739C45.1688 33.6646 45.3834 34.5512 45.3834 35.6339C45.3834 37.0526 45.0661 38.2659 44.4314 39.2739C43.8154 40.2632 42.9381 41.0192 41.7994 41.5419C40.6794 42.0646 39.3634 42.3259 37.8514 42.3259Z" fill="#DC8944"/>
<path opacity="0.5" fill-rule="evenodd" clip-rule="evenodd" d="M10.6416 0.216751C19.3157 -4.04399 28.189 -3.73746 30.4725 0.90644C32.756 5.55034 27.5607 12.7537 18.8866 17.0145C10.2125 21.2752 1.33913 20.9687 -0.944335 16.3248C-3.2278 11.6809 1.96747 4.47749 10.6416 0.216751Z" fill="#FDFFF8"/>
</g>
</g>
<defs>
<filter id="filter0_i_3570_20085" x="0" y="0" width="60" height="60" filterUnits="userSpaceOnUse" color-interpolation-filters="sRGB">
<feFlood flood-opacity="0" result="BackgroundImageFix"/>
<feBlend mode="normal" in="SourceGraphic" in2="BackgroundImageFix" result="shape"/>
<feColorMatrix in="SourceAlpha" type="matrix" values="0 0 0 0 0 0 0 0 0 0 0 0 0 0 0 0 0 0 127 0" result="hardAlpha"/>
<feOffset/>
<feGaussianBlur stdDeviation="5"/>
<feComposite in2="hardAlpha" operator="arithmetic" k2="-1" k3="1"/>
<feColorMatrix type="matrix" values="0 0 0 0 0 0 0 0 0 0 0 0 0 0 0 0 0 0 0.6 0"/>
<feBlend mode="normal" in2="shape" result="effect1_innerShadow_3570_20085"/>
</filter>
<clipPath id="clip0_3570_20085">
<rect width="60" height="60" rx="30" fill="white"/>
</clipPath>
</defs>
</svg>
