<svg width="60" height="60" viewBox="0 0 60 60" fill="none" xmlns="http://www.w3.org/2000/svg">
<g filter="url(#filter0_i_3570_19419)">
<g clip-path="url(#clip0_3570_19419)">
<rect width="60" height="60" rx="30" fill="#82857D"/>
<path fill-rule="evenodd" clip-rule="evenodd" d="M17.2636 -3.66124C35.8513 -10.6949 56.6279 -1.32864 63.6611 17.2604C70.6943 35.8494 61.3287 56.6275 42.741 63.6612C24.1533 70.6949 3.37666 61.3286 -3.65652 42.7396C-10.6897 24.1506 -1.32408 3.37245 17.2636 -3.66124Z" fill="#206446"/>
<path fill-rule="evenodd" clip-rule="evenodd" d="M17.2644 -3.66179C35.5112 -10.5699 55.8751 -1.65217 63.2492 16.255C68.5241 34.1443 59.1765 53.3614 41.4499 60.0541C23.2031 66.9622 2.83917 58.0445 -4.53491 40.1373C-9.8098 22.248 -0.462105 3.03098 17.2644 -3.66179Z" fill="#8BC1A9"/>
<path fill-rule="evenodd" clip-rule="evenodd" d="M21.5376 6.28526C35.0837 1.15354 50.2266 7.98986 55.34 21.5369C60.4713 35.0839 53.6355 50.2279 40.0894 55.3417C26.5434 60.4734 11.4005 53.6371 6.28709 40.09C1.15574 26.543 7.99157 11.399 21.5376 6.28526Z" fill="#FDFFF8"/>
<path fill-rule="evenodd" clip-rule="evenodd" d="M30.8132 6.69336C40.5556 6.69336 49.7238 12.6325 53.384 22.2859C58.1027 34.7564 51.823 48.6802 39.3535 53.3813C36.5366 54.4399 33.648 54.9423 30.8132 54.9423V52.6636C33.3789 52.6636 35.9984 52.215 38.5461 51.2461C49.8315 46.9756 55.519 34.3616 51.2489 23.0933C47.9476 14.3551 39.6405 8.97213 30.8132 8.97213V6.69336ZM22.2729 8.25441C25.0897 7.19577 27.9784 6.69336 30.8132 6.69336V8.97213C28.2475 8.97213 25.628 9.42071 23.0803 10.3896C11.7949 14.6601 6.10731 27.2741 10.3775 38.5424C13.6788 47.2806 21.9858 52.6636 30.8132 52.6636V54.9423C21.0708 54.9423 11.9025 49.0032 8.24238 39.3498C3.52369 26.8793 9.80331 12.9555 22.2729 8.25441Z" fill="#8BC1A9"/>
<path opacity="0.5" fill-rule="evenodd" clip-rule="evenodd" d="M13.484 1.27665C23.6391 -3.71153 34.0274 -3.35267 36.7007 2.08409C39.374 7.52084 33.2918 15.9541 23.1367 20.9423C12.9816 25.9305 2.59332 25.5716 -0.0800052 20.1348C-2.75333 14.6981 3.32893 6.26483 13.484 1.27665Z" fill="#FDFFF8"/>
<path d="M20.7107 42.0459V26.9539H17.3507V23.9019L24.7427 22.2219L25.0227 23.9019L24.7427 26.7019V42.0459H20.7107ZM35.698 42.3259C34.6713 42.3259 33.682 42.2326 32.73 42.0459C31.7966 41.8406 30.9566 41.5139 30.21 41.0659C29.482 40.5992 28.9033 39.9739 28.474 39.1899C28.0446 38.4059 27.83 37.4259 27.83 36.2499C27.83 35.0552 28.082 34.0939 28.586 33.3659C29.09 32.6379 29.7526 32.0779 30.574 31.6859C30.0513 31.2379 29.6033 30.6686 29.23 29.9779C28.8566 29.2872 28.67 28.4472 28.67 27.4579C28.67 25.8526 29.2393 24.5366 30.378 23.5099C31.5166 22.4646 33.2713 21.9419 35.642 21.9419C38.0313 21.9419 39.7766 22.4179 40.878 23.3699C41.9793 24.3219 42.53 25.6846 42.53 27.4579C42.53 28.3539 42.3433 29.1659 41.97 29.8939C41.5966 30.6219 41.1393 31.2006 40.598 31.6299C41.382 32.0219 42.0353 32.6006 42.558 33.3659C43.0993 34.1312 43.37 35.0926 43.37 36.2499C43.37 37.8179 43.0153 39.0406 42.306 39.9179C41.5966 40.7952 40.6633 41.4206 39.506 41.7939C38.3486 42.1486 37.0793 42.3259 35.698 42.3259ZM35.698 30.3979C36.6126 30.3979 37.294 30.2112 37.742 29.8379C38.19 29.4646 38.414 28.9606 38.414 28.3259C38.414 27.5606 38.1993 26.9632 37.77 26.5339C37.3593 26.0859 36.6686 25.8619 35.698 25.8619C34.858 25.8619 34.1673 26.0486 33.626 26.4219C33.1033 26.7952 32.842 27.3366 32.842 28.0459C32.842 28.6246 32.982 29.0912 33.262 29.4459C33.5606 29.7819 33.9246 30.0246 34.354 30.1739C34.802 30.3232 35.25 30.3979 35.698 30.3979ZM35.698 38.4059C36.706 38.4059 37.546 38.2379 38.218 37.9019C38.9086 37.5659 39.254 37.0526 39.254 36.3619C39.254 35.3912 38.7686 34.6166 37.798 34.0379C36.846 33.4406 35.4086 33.1326 33.486 33.1139C33.1126 33.3939 32.7953 33.7579 32.534 34.2059C32.2913 34.6352 32.17 35.0926 32.17 35.5779C32.17 36.6046 32.506 37.3326 33.178 37.7619C33.85 38.1912 34.69 38.4059 35.698 38.4059Z" fill="#8BC1A9"/>
</g>
</g>
<defs>
<filter id="filter0_i_3570_19419" x="0" y="0" width="60" height="60" filterUnits="userSpaceOnUse" color-interpolation-filters="sRGB">
<feFlood flood-opacity="0" result="BackgroundImageFix"/>
<feBlend mode="normal" in="SourceGraphic" in2="BackgroundImageFix" result="shape"/>
<feColorMatrix in="SourceAlpha" type="matrix" values="0 0 0 0 0 0 0 0 0 0 0 0 0 0 0 0 0 0 127 0" result="hardAlpha"/>
<feOffset/>
<feGaussianBlur stdDeviation="5"/>
<feComposite in2="hardAlpha" operator="arithmetic" k2="-1" k3="1"/>
<feColorMatrix type="matrix" values="0 0 0 0 0 0 0 0 0 0 0 0 0 0 0 0 0 0 0.6 0"/>
<feBlend mode="normal" in2="shape" result="effect1_innerShadow_3570_19419"/>
</filter>
<clipPath id="clip0_3570_19419">
<rect width="60" height="60" rx="30" fill="white"/>
</clipPath>
</defs>
</svg>
