<svg width="61" height="60" viewBox="0 0 61 60" fill="none" xmlns="http://www.w3.org/2000/svg">
<g filter="url(#filter0_i_3570_20157)">
<g clip-path="url(#clip0_3570_20157)">
<rect x="0.800781" width="60" height="60" rx="30" fill="#82857D"/>
<path fill-rule="evenodd" clip-rule="evenodd" d="M18.0644 -3.66124C36.6521 -10.6949 57.4287 -1.32864 64.4619 17.2604C71.4951 35.8494 62.1295 56.6275 43.5418 63.6612C24.9541 70.6949 4.17744 61.3286 -2.85574 42.7396C-9.88893 24.1506 -0.523302 3.37245 18.0644 -3.66124Z" fill="#133D63"/>
<path fill-rule="evenodd" clip-rule="evenodd" d="M18.0652 -3.66179C36.312 -10.5699 56.6759 -1.65217 64.05 16.255C69.3249 34.1443 59.9772 53.3614 42.2507 60.0541C24.0039 66.9622 3.63995 58.0445 -3.73413 40.1373C-9.00902 22.248 0.338676 3.03098 18.0652 -3.66179Z" fill="#5884AD"/>
<path fill-rule="evenodd" clip-rule="evenodd" d="M22.3384 6.28526C35.8845 1.15354 51.0273 7.98986 56.1408 21.5369C61.2721 35.0839 54.4363 50.2279 40.8902 55.3417C27.3442 60.4734 12.2013 53.6371 7.08788 40.09C1.95652 26.543 8.79235 11.399 22.3384 6.28526Z" fill="#FDFFF8"/>
<path fill-rule="evenodd" clip-rule="evenodd" d="M31.614 6.69336C41.3564 6.69336 50.5246 12.6325 54.1848 22.2859C58.9034 34.7564 52.6238 48.6802 40.1542 53.3813C37.3374 54.4399 34.4488 54.9423 31.614 54.9423V52.6636C34.1796 52.6636 36.7991 52.215 39.3469 51.2461C50.6323 46.9756 56.3198 34.3616 52.0497 23.0933C48.7484 14.3551 40.4413 8.97213 31.614 8.97213V6.69336ZM23.0736 8.25441C25.8905 7.19577 28.7792 6.69336 31.614 6.69336V8.97213C29.0483 8.97213 26.4288 9.42071 23.881 10.3896C12.5957 14.6601 6.9081 27.2741 11.1782 38.5424C14.4795 47.2806 22.7866 52.6636 31.614 52.6636V54.9423C21.8716 54.9423 12.7033 49.0032 9.04317 39.3498C4.32447 26.8793 10.6041 12.9555 23.0736 8.25441Z" fill="#5884AD"/>
<path d="M18.2582 42.0459L23.4942 28.7739L24.9782 25.8339H24.1382L15.4582 26.3939V22.2219H29.0102V25.0499L24.3902 37.5659L22.9902 42.0459H18.2582ZM37.9406 42.3259C37.194 42.3259 36.5966 42.2886 36.1486 42.2139C35.7006 42.1579 35.2806 42.0926 34.8886 42.0179L31.4726 39.9739L33.1246 36.6699L37.6326 38.4339C38.398 38.4339 39.126 38.2659 39.8166 37.9299C40.526 37.5752 41.114 37.0432 41.5806 36.3339C42.0473 35.6059 42.318 34.6912 42.3926 33.5899L37.8006 34.4299C36.4753 34.4299 35.2993 34.2432 34.2726 33.8699C33.246 33.4966 32.434 32.8712 31.8366 31.9939C31.258 31.0979 30.9686 29.8752 30.9686 28.3259C30.9686 27.2619 31.2393 26.2446 31.7806 25.2739C32.3406 24.2846 33.1713 23.4819 34.2726 22.8659C35.374 22.2499 36.7553 21.9419 38.4166 21.9419C40.0593 21.9419 41.506 22.2779 42.7566 22.9499C44.026 23.6219 45.0246 24.7046 45.7526 26.1979C46.4806 27.6726 46.8446 29.6512 46.8446 32.1339C46.8446 34.2992 46.4713 36.1472 45.7246 37.6779C44.978 39.1899 43.9326 40.3472 42.5886 41.1499C41.2633 41.9339 39.714 42.3259 37.9406 42.3259ZM37.8006 30.9299C38.6406 30.9299 39.4993 30.9019 40.3766 30.8459C41.254 30.7899 41.926 30.7246 42.3926 30.6499C42.2806 27.4952 40.9553 25.9179 38.4166 25.9179C37.278 25.9179 36.4473 26.1979 35.9246 26.7579C35.402 27.3179 35.1406 27.9899 35.1406 28.7739C35.1406 29.5206 35.3553 30.0712 35.7846 30.4259C36.214 30.7619 36.886 30.9299 37.8006 30.9299Z" fill="#5884AD"/>
<path opacity="0.5" fill-rule="evenodd" clip-rule="evenodd" d="M14.2848 1.27665C24.4398 -3.71153 34.8281 -3.35267 37.5015 2.08409C40.1748 7.52084 34.0925 15.9541 23.9375 20.9423C13.7824 25.9305 3.3941 25.5716 0.720776 20.1348C-1.95255 14.6981 4.12971 6.26483 14.2848 1.27665Z" fill="#FDFFF8"/>
</g>
</g>
<defs>
<filter id="filter0_i_3570_20157" x="0.800781" y="0" width="60" height="60" filterUnits="userSpaceOnUse" color-interpolation-filters="sRGB">
<feFlood flood-opacity="0" result="BackgroundImageFix"/>
<feBlend mode="normal" in="SourceGraphic" in2="BackgroundImageFix" result="shape"/>
<feColorMatrix in="SourceAlpha" type="matrix" values="0 0 0 0 0 0 0 0 0 0 0 0 0 0 0 0 0 0 127 0" result="hardAlpha"/>
<feOffset/>
<feGaussianBlur stdDeviation="5"/>
<feComposite in2="hardAlpha" operator="arithmetic" k2="-1" k3="1"/>
<feColorMatrix type="matrix" values="0 0 0 0 0 0 0 0 0 0 0 0 0 0 0 0 0 0 0.6 0"/>
<feBlend mode="normal" in2="shape" result="effect1_innerShadow_3570_20157"/>
</filter>
<clipPath id="clip0_3570_20157">
<rect x="0.800781" width="60" height="60" rx="30" fill="white"/>
</clipPath>
</defs>
</svg>
