<svg width="60" height="61" viewBox="0 0 60 61" fill="none" xmlns="http://www.w3.org/2000/svg">
<g filter="url(#filter0_i_3570_19298)">
<g clip-path="url(#clip0_3570_19298)">
<rect y="0.666992" width="60" height="60" rx="30" fill="#82857D"/>
<path fill-rule="evenodd" clip-rule="evenodd" d="M17.2636 -2.99425C35.8513 -10.0279 56.6279 -0.661643 63.6611 17.9274C70.6943 36.5164 61.3287 57.2945 42.741 64.3282C24.1533 71.3619 3.37666 61.9956 -3.65652 43.4066C-10.6897 24.8175 -1.32408 4.03945 17.2636 -2.99425Z" fill="#782326"/>
<path fill-rule="evenodd" clip-rule="evenodd" d="M17.2644 -2.9948C35.5112 -9.90289 55.8751 -0.985174 63.2492 16.922C68.5241 34.8113 59.1765 54.0284 41.4499 60.7211C23.2031 67.6292 2.83917 58.7115 -4.53491 40.8043C-9.8098 22.915 -0.462105 3.69798 17.2644 -2.9948Z" fill="#B65155"/>
<path fill-rule="evenodd" clip-rule="evenodd" d="M21.5376 6.95226C35.0837 1.82053 50.2266 8.65685 55.34 22.2039C60.4713 35.7509 53.6355 50.8949 40.0894 56.0087C26.5434 61.1404 11.4005 54.3041 6.28709 40.757C1.15574 27.21 7.99157 12.066 21.5376 6.95226Z" fill="#FDFFF8"/>
<path fill-rule="evenodd" clip-rule="evenodd" d="M30.8132 7.36035C40.5556 7.36035 49.7238 13.2995 53.384 22.9529C58.1027 35.4233 51.823 49.3472 39.3535 54.0483C36.5366 55.1069 33.648 55.6093 30.8132 55.6093V53.3306C33.3789 53.3306 35.9984 52.882 38.5461 51.9131C49.8315 47.6426 55.519 35.0286 51.2489 23.7603C47.9476 15.0221 39.6405 9.63913 30.8132 9.63913V7.36035ZM22.2729 8.9214C25.0897 7.86276 27.9784 7.36035 30.8132 7.36035V9.63913C28.2475 9.63913 25.628 10.0877 23.0803 11.0566C11.7949 15.3271 6.10731 27.9411 10.3775 39.2093C13.6788 47.9476 21.9858 53.3306 30.8132 53.3306V55.6093C21.0708 55.6093 11.9025 49.6702 8.24238 40.0168C3.52369 27.5463 9.80331 13.6225 22.2729 8.9214Z" fill="#B65155"/>
<path d="M30.5984 42.9929C29.5717 42.9929 28.5824 42.8996 27.6304 42.7129C26.697 42.5076 25.857 42.1809 25.1104 41.7329C24.3824 41.2662 23.8037 40.6409 23.3744 39.8569C22.945 39.0729 22.7304 38.0929 22.7304 36.9169C22.7304 35.7222 22.9824 34.7609 23.4864 34.0329C23.9904 33.3049 24.653 32.7449 25.4744 32.3529C24.9517 31.9049 24.5037 31.3356 24.1304 30.6449C23.757 29.9542 23.5704 29.1142 23.5704 28.1249C23.5704 26.5196 24.1397 25.2036 25.2784 24.1769C26.417 23.1316 28.1717 22.6089 30.5424 22.6089C32.9317 22.6089 34.677 23.0849 35.7784 24.0369C36.8797 24.9889 37.4304 26.3516 37.4304 28.1249C37.4304 29.0209 37.2437 29.8329 36.8704 30.5609C36.497 31.2889 36.0397 31.8676 35.4984 32.2969C36.2824 32.6889 36.9357 33.2676 37.4584 34.0329C37.9997 34.7982 38.2704 35.7596 38.2704 36.9169C38.2704 38.4849 37.9157 39.7076 37.2064 40.5849C36.497 41.4622 35.5637 42.0876 34.4064 42.4609C33.249 42.8156 31.9797 42.9929 30.5984 42.9929ZM30.5984 31.0649C31.513 31.0649 32.1944 30.8782 32.6424 30.5049C33.0904 30.1316 33.3144 29.6276 33.3144 28.9929C33.3144 28.2276 33.0997 27.6302 32.6704 27.2009C32.2597 26.7529 31.569 26.5289 30.5984 26.5289C29.7584 26.5289 29.0677 26.7156 28.5264 27.0889C28.0037 27.4622 27.7424 28.0036 27.7424 28.7129C27.7424 29.2916 27.8824 29.7582 28.1624 30.1129C28.461 30.4489 28.825 30.6916 29.2544 30.8409C29.7024 30.9902 30.1504 31.0649 30.5984 31.0649ZM30.5984 39.0729C31.6064 39.0729 32.4464 38.9049 33.1184 38.5689C33.809 38.2329 34.1544 37.7196 34.1544 37.0289C34.1544 36.0582 33.669 35.2836 32.6984 34.7049C31.7464 34.1076 30.309 33.7996 28.3864 33.7809C28.013 34.0609 27.6957 34.4249 27.4344 34.8729C27.1917 35.3022 27.0704 35.7596 27.0704 36.2449C27.0704 37.2716 27.4064 37.9996 28.0784 38.4289C28.7504 38.8582 29.5904 39.0729 30.5984 39.0729Z" fill="#B65155"/>
<path opacity="0.5" fill-rule="evenodd" clip-rule="evenodd" d="M13.484 1.94364C23.6391 -3.04454 34.0274 -2.68568 36.7007 2.75108C39.374 8.18784 33.2918 16.6211 23.1367 21.6093C12.9816 26.5974 2.59332 26.2386 -0.0800052 20.8018C-2.75333 15.3651 3.32893 6.93182 13.484 1.94364Z" fill="#FDFFF8"/>
</g>
</g>
<defs>
<filter id="filter0_i_3570_19298" x="0" y="0.666992" width="60" height="60" filterUnits="userSpaceOnUse" color-interpolation-filters="sRGB">
<feFlood flood-opacity="0" result="BackgroundImageFix"/>
<feBlend mode="normal" in="SourceGraphic" in2="BackgroundImageFix" result="shape"/>
<feColorMatrix in="SourceAlpha" type="matrix" values="0 0 0 0 0 0 0 0 0 0 0 0 0 0 0 0 0 0 127 0" result="hardAlpha"/>
<feOffset/>
<feGaussianBlur stdDeviation="5"/>
<feComposite in2="hardAlpha" operator="arithmetic" k2="-1" k3="1"/>
<feColorMatrix type="matrix" values="0 0 0 0 0 0 0 0 0 0 0 0 0 0 0 0 0 0 0.6 0"/>
<feBlend mode="normal" in2="shape" result="effect1_innerShadow_3570_19298"/>
</filter>
<clipPath id="clip0_3570_19298">
<rect y="0.666992" width="60" height="60" rx="30" fill="white"/>
</clipPath>
</defs>
</svg>
