<svg width="61" height="61" viewBox="0 0 61 61" fill="none" xmlns="http://www.w3.org/2000/svg">
<g filter="url(#filter0_i_3570_19637)">
<g clip-path="url(#clip0_3570_19637)">
<rect x="0.400391" y="0.666992" width="60" height="60" rx="30" fill="#82857D"/>
<path fill-rule="evenodd" clip-rule="evenodd" d="M17.664 -2.99425C36.2517 -10.0279 57.0283 -0.661643 64.0615 17.9274C71.0947 36.5164 61.7291 57.2945 43.1414 64.3282C24.5537 71.3619 3.77705 61.9956 -3.25613 43.4066C-10.2893 24.8175 -0.923692 4.03945 17.664 -2.99425Z" fill="#904D16"/>
<path fill-rule="evenodd" clip-rule="evenodd" d="M17.6648 -2.9948C35.9116 -9.90289 56.2755 -0.985174 63.6496 16.922C68.9245 34.8113 59.5768 54.0283 41.8503 60.7211C23.6035 67.6292 3.23956 58.7115 -4.13452 40.8043C-9.40941 22.915 -0.0617142 3.69797 17.6648 -2.9948Z" fill="#DC8944"/>
<path fill-rule="evenodd" clip-rule="evenodd" d="M21.938 6.95812C35.4841 1.82639 50.627 8.66271 55.7404 22.2097C60.8717 35.7568 54.0359 50.9007 40.4898 56.0145C26.9438 61.1462 11.8009 54.3099 6.68748 40.7629C1.55613 27.2159 8.39196 12.0719 21.938 6.95812Z" fill="#FDFFF8"/>
<path fill-rule="evenodd" clip-rule="evenodd" d="M31.2136 7.36621C40.956 7.36621 50.1242 13.3054 53.7844 22.9588C58.5031 35.4292 52.2234 49.3531 39.7539 54.0541C36.937 55.1128 34.0484 55.6152 31.2136 55.6152V53.3364C33.7792 53.3364 36.3987 52.8878 38.9465 51.9189C50.2319 47.6485 55.9194 35.0345 51.6493 23.7662C48.348 15.0279 40.0409 9.64498 31.2136 9.64498V7.36621ZM22.6733 8.92726C25.4901 7.86862 28.3788 7.36621 31.2136 7.36621V9.64498C28.6479 9.64498 26.0284 10.0936 23.4807 11.0625C12.1953 15.3329 6.5077 27.9469 10.7779 39.2152C14.0791 47.9535 22.3862 53.3364 31.2136 53.3364V55.6152C21.4712 55.6152 12.3029 49.676 8.64278 40.0226C3.92408 27.5522 10.2037 13.6284 22.6733 8.92726Z" fill="#DC8944"/>
<path d="M21.5721 42.9929C20.9748 42.9929 20.4055 42.9742 19.8641 42.9369C19.3415 42.8996 18.8468 42.8436 18.3801 42.7689L14.5721 41.4809L15.6921 37.5889L21.0121 39.1009C22.3375 39.1009 23.2708 38.8489 23.8121 38.3449C24.3721 37.8222 24.6521 37.1502 24.6521 36.3289C24.6521 35.7316 24.4748 35.2556 24.1201 34.9009C23.7841 34.5462 23.2148 34.3689 22.4121 34.3689H18.8561V30.7569H21.7121C23.4855 30.7569 24.3721 29.9729 24.3721 28.4049C24.3721 27.1542 23.5041 26.5289 21.7681 26.5289C20.7041 26.5289 19.7615 26.6316 18.9401 26.8369C18.1188 27.0236 17.4095 27.2476 16.8121 27.5089C16.2335 27.7516 15.7668 27.9569 15.4121 28.1249V24.2049C15.9535 23.8502 16.7375 23.5049 17.7641 23.1689C18.7908 22.8142 20.1348 22.6369 21.7961 22.6369C23.9055 22.6369 25.5015 23.1036 26.5841 24.0369C27.6855 24.9516 28.2361 26.2489 28.2361 27.9289C28.2361 28.8996 28.0775 29.7022 27.7601 30.3369C27.4615 30.9529 27.0788 31.4476 26.6121 31.8209C27.4148 32.3249 28.0308 32.9316 28.4601 33.6409C28.8895 34.3316 29.1041 35.2182 29.1041 36.3009C29.1041 37.7196 28.7868 38.9329 28.1521 39.9409C27.5361 40.9302 26.6588 41.6862 25.5201 42.2089C24.4001 42.7316 23.0841 42.9929 21.5721 42.9929ZM39.7899 42.9929C38.2405 42.9929 36.8219 42.6476 35.5339 41.9569C34.2459 41.2476 33.2192 40.1836 32.4539 38.7649C31.7072 37.3462 31.3339 35.5542 31.3339 33.3889C31.3339 31.5036 31.5952 29.8796 32.1179 28.5169C32.6592 27.1542 33.3685 26.0436 34.2459 25.1849C35.1419 24.3076 36.1312 23.6636 37.2139 23.2529C38.3152 22.8236 39.4259 22.6089 40.5459 22.6089C41.4979 22.6089 42.2352 22.6836 42.7579 22.8329C43.2992 22.9822 43.7752 23.1502 44.1859 23.3369L46.7339 25.6329L44.7739 28.8249L40.5459 26.5009C39.7245 26.5009 38.9499 26.7062 38.2219 27.1169C37.4939 27.5276 36.8965 28.1156 36.4299 28.8809C35.9632 29.6462 35.7019 30.5796 35.6459 31.6809L40.0699 30.5609C41.3765 30.5609 42.5619 30.7756 43.6259 31.2049C44.7085 31.6156 45.5765 32.2689 46.2299 33.1649C46.8832 34.0422 47.2099 35.1996 47.2099 36.6369C47.2099 38.5596 46.5565 40.0996 45.2499 41.2569C43.9619 42.4142 42.1419 42.9929 39.7899 42.9929ZM40.0419 39.0449C40.9752 39.0449 41.7032 38.8209 42.2259 38.3729C42.7672 37.9249 43.0379 37.2902 43.0379 36.4689C43.0379 35.6849 42.7392 35.0876 42.1419 34.6769C41.5445 34.2476 40.7699 34.0329 39.8179 34.0329C39.0152 34.0329 38.2592 34.1449 37.5499 34.3689C36.8405 34.5929 36.3272 34.8262 36.0099 35.0689C36.0472 35.6662 36.2059 36.2729 36.4859 36.8889C36.7845 37.5049 37.2232 38.0182 37.8019 38.4289C38.3805 38.8396 39.1272 39.0449 40.0419 39.0449Z" fill="#DC8944"/>
<path opacity="0.5" fill-rule="evenodd" clip-rule="evenodd" d="M11.042 0.883743C19.7161 -3.37699 28.5894 -3.07046 30.8729 1.57343C33.1564 6.21733 27.9611 13.4207 19.287 17.6815C10.6129 21.9422 1.73952 21.6357 -0.543944 16.9918C-2.82741 12.3479 2.36786 5.14448 11.042 0.883743Z" fill="#FDFFF8"/>
</g>
</g>
<defs>
<filter id="filter0_i_3570_19637" x="0.400391" y="0.666992" width="60" height="60" filterUnits="userSpaceOnUse" color-interpolation-filters="sRGB">
<feFlood flood-opacity="0" result="BackgroundImageFix"/>
<feBlend mode="normal" in="SourceGraphic" in2="BackgroundImageFix" result="shape"/>
<feColorMatrix in="SourceAlpha" type="matrix" values="0 0 0 0 0 0 0 0 0 0 0 0 0 0 0 0 0 0 127 0" result="hardAlpha"/>
<feOffset/>
<feGaussianBlur stdDeviation="5"/>
<feComposite in2="hardAlpha" operator="arithmetic" k2="-1" k3="1"/>
<feColorMatrix type="matrix" values="0 0 0 0 0 0 0 0 0 0 0 0 0 0 0 0 0 0 0.6 0"/>
<feBlend mode="normal" in2="shape" result="effect1_innerShadow_3570_19637"/>
</filter>
<clipPath id="clip0_3570_19637">
<rect x="0.400391" y="0.666992" width="60" height="60" rx="30" fill="white"/>
</clipPath>
</defs>
</svg>
