<svg width="60" height="61" viewBox="0 0 60 61" fill="none" xmlns="http://www.w3.org/2000/svg">
<g filter="url(#filter0_i_3570_19964)">
<g clip-path="url(#clip0_3570_19964)">
<rect y="0.666992" width="60" height="60" rx="30" fill="#82857D"/>
<path fill-rule="evenodd" clip-rule="evenodd" d="M17.2636 -2.99425C35.8513 -10.0279 56.6279 -0.661643 63.6611 17.9274C70.6943 36.5164 61.3287 57.2945 42.741 64.3282C24.1533 71.3619 3.37666 61.9956 -3.65652 43.4066C-10.6897 24.8175 -1.32408 4.03945 17.2636 -2.99425Z" fill="#782326"/>
<path fill-rule="evenodd" clip-rule="evenodd" d="M17.2644 -2.9948C35.5112 -9.90289 55.8751 -0.985174 63.2492 16.922C68.5241 34.8113 59.1765 54.0284 41.4499 60.7211C23.2031 67.6292 2.83917 58.7115 -4.53491 40.8043C-9.8098 22.915 -0.462105 3.69798 17.2644 -2.9948Z" fill="#B65155"/>
<path fill-rule="evenodd" clip-rule="evenodd" d="M21.5376 6.95226C35.0837 1.82053 50.2266 8.65685 55.34 22.2039C60.4713 35.7509 53.6355 50.8949 40.0894 56.0087C26.5434 61.1404 11.4005 54.3041 6.28709 40.757C1.15574 27.21 7.99157 12.066 21.5376 6.95226Z" fill="#FDFFF8"/>
<path fill-rule="evenodd" clip-rule="evenodd" d="M30.8132 7.36035C40.5556 7.36035 49.7238 13.2995 53.384 22.9529C58.1027 35.4233 51.823 49.3472 39.3535 54.0483C36.5366 55.1069 33.648 55.6093 30.8132 55.6093V53.3306C33.3789 53.3306 35.9984 52.882 38.5461 51.9131C49.8315 47.6426 55.519 35.0286 51.2489 23.7603C47.9476 15.0221 39.6405 9.63913 30.8132 9.63913V7.36035ZM22.2729 8.9214C25.0897 7.86276 27.9784 7.36035 30.8132 7.36035V9.63913C28.2475 9.63913 25.628 10.0877 23.0803 11.0566C11.7949 15.3271 6.10731 27.9411 10.3775 39.2093C13.6788 47.9476 21.9858 53.3306 30.8132 53.3306V55.6093C21.0708 55.6093 11.9025 49.6702 8.24238 40.0168C3.52369 27.5463 9.80331 13.6225 22.2729 8.9214Z" fill="#B65155"/>
<path d="M22.6278 42.9929C21.0784 42.9929 19.6598 42.6476 18.3718 41.9569C17.0838 41.2476 16.0571 40.1836 15.2918 38.7649C14.5451 37.3462 14.1718 35.5542 14.1718 33.3889C14.1718 31.5036 14.4331 29.8796 14.9558 28.5169C15.4971 27.1542 16.2064 26.0436 17.0838 25.1849C17.9798 24.3076 18.9691 23.6636 20.0518 23.2529C21.1531 22.8236 22.2638 22.6089 23.3838 22.6089C24.3358 22.6089 25.0731 22.6836 25.5958 22.8329C26.1371 22.9822 26.6131 23.1502 27.0238 23.3369L29.5718 25.6329L27.6118 28.8249L23.3838 26.5009C22.5624 26.5009 21.7878 26.7062 21.0598 27.1169C20.3318 27.5276 19.7344 28.1156 19.2678 28.8809C18.8011 29.6462 18.5398 30.5796 18.4838 31.6809L22.9078 30.5609C24.2144 30.5609 25.3998 30.7756 26.4638 31.2049C27.5464 31.6156 28.4144 32.2689 29.0678 33.1649C29.7211 34.0422 30.0478 35.1996 30.0478 36.6369C30.0478 38.5596 29.3944 40.0996 28.0878 41.2569C26.7998 42.4142 24.9798 42.9929 22.6278 42.9929ZM22.8798 39.0449C23.8131 39.0449 24.5411 38.8209 25.0638 38.3729C25.6051 37.9249 25.8758 37.2902 25.8758 36.4689C25.8758 35.6849 25.5771 35.0876 24.9798 34.6769C24.3824 34.2476 23.6078 34.0329 22.6558 34.0329C21.8531 34.0329 21.0971 34.1449 20.3878 34.3689C19.6784 34.5929 19.1651 34.8262 18.8478 35.0689C18.8851 35.6662 19.0438 36.2729 19.3238 36.8889C19.6224 37.5049 20.0611 38.0182 20.6398 38.4289C21.2184 38.8396 21.9651 39.0449 22.8798 39.0449ZM39.3007 42.9929C38.7033 42.9929 38.134 42.9742 37.5927 42.9369C37.07 42.8996 36.5753 42.8436 36.1087 42.7689L32.3007 41.4809L33.4207 37.5889L38.7407 39.1009C40.066 39.1009 40.9993 38.8489 41.5407 38.3449C42.1007 37.8222 42.3807 37.1502 42.3807 36.3289C42.3807 35.7316 42.2033 35.2556 41.8487 34.9009C41.5127 34.5462 40.9433 34.3689 40.1407 34.3689H36.5847V30.7569H39.4407C41.214 30.7569 42.1007 29.9729 42.1007 28.4049C42.1007 27.1542 41.2327 26.5289 39.4967 26.5289C38.4327 26.5289 37.49 26.6316 36.6687 26.8369C35.8473 27.0236 35.138 27.2476 34.5407 27.5089C33.962 27.7516 33.4953 27.9569 33.1407 28.1249V24.2049C33.682 23.8502 34.466 23.5049 35.4927 23.1689C36.5193 22.8142 37.8633 22.6369 39.5247 22.6369C41.634 22.6369 43.23 23.1036 44.3127 24.0369C45.414 24.9516 45.9647 26.2489 45.9647 27.9289C45.9647 28.8996 45.806 29.7022 45.4887 30.3369C45.19 30.9529 44.8073 31.4476 44.3407 31.8209C45.1433 32.3249 45.7593 32.9316 46.1887 33.6409C46.618 34.3316 46.8327 35.2182 46.8327 36.3009C46.8327 37.7196 46.5153 38.9329 45.8807 39.9409C45.2647 40.9302 44.3873 41.6862 43.2487 42.2089C42.1287 42.7316 40.8127 42.9929 39.3007 42.9929Z" fill="#B65155"/>
<path opacity="0.5" fill-rule="evenodd" clip-rule="evenodd" d="M13.484 1.94364C23.6391 -3.04454 34.0274 -2.68568 36.7007 2.75108C39.374 8.18784 33.2918 16.6211 23.1367 21.6093C12.9816 26.5974 2.59332 26.2386 -0.0800052 20.8018C-2.75333 15.3651 3.32893 6.93182 13.484 1.94364Z" fill="#FDFFF8"/>
</g>
</g>
<defs>
<filter id="filter0_i_3570_19964" x="0" y="0.666992" width="60" height="60" filterUnits="userSpaceOnUse" color-interpolation-filters="sRGB">
<feFlood flood-opacity="0" result="BackgroundImageFix"/>
<feBlend mode="normal" in="SourceGraphic" in2="BackgroundImageFix" result="shape"/>
<feColorMatrix in="SourceAlpha" type="matrix" values="0 0 0 0 0 0 0 0 0 0 0 0 0 0 0 0 0 0 127 0" result="hardAlpha"/>
<feOffset/>
<feGaussianBlur stdDeviation="5"/>
<feComposite in2="hardAlpha" operator="arithmetic" k2="-1" k3="1"/>
<feColorMatrix type="matrix" values="0 0 0 0 0 0 0 0 0 0 0 0 0 0 0 0 0 0 0.6 0"/>
<feBlend mode="normal" in2="shape" result="effect1_innerShadow_3570_19964"/>
</filter>
<clipPath id="clip0_3570_19964">
<rect y="0.666992" width="60" height="60" rx="30" fill="white"/>
</clipPath>
</defs>
</svg>
