<svg width="61" height="60" viewBox="0 0 61 60" fill="none" xmlns="http://www.w3.org/2000/svg">
<g filter="url(#filter0_i_3570_19746)">
<g clip-path="url(#clip0_3570_19746)">
<rect x="0.600586" width="60" height="60" rx="30" fill="#82857D"/>
<path fill-rule="evenodd" clip-rule="evenodd" d="M17.8642 -3.66124C36.4519 -10.6949 57.2285 -1.32864 64.2617 17.2604C71.2949 35.8494 61.9293 56.6275 43.3416 63.6612C24.7539 70.6949 3.97725 61.3286 -3.05594 42.7396C-10.0891 24.1506 -0.723497 3.37245 17.8642 -3.66124Z" fill="#5B3267"/>
<path fill-rule="evenodd" clip-rule="evenodd" d="M17.865 -3.66179C36.1118 -10.5699 56.4757 -1.65217 63.8498 16.255C69.1247 34.1443 59.777 53.3614 42.0505 60.0541C23.8037 66.9622 3.43976 58.0445 -3.93433 40.1373C-9.20922 22.248 0.138481 3.03098 17.865 -3.66179Z" fill="#875796"/>
<path fill-rule="evenodd" clip-rule="evenodd" d="M22.1382 6.29112C35.6843 1.1594 50.8272 7.99572 55.9406 21.5427C61.0719 35.0898 54.2361 50.2338 40.69 55.3475C27.144 60.4793 12.0011 53.6429 6.88768 40.0959C1.75632 26.5489 8.59215 11.4049 22.1382 6.29112Z" fill="#FDFFF8"/>
<path fill-rule="evenodd" clip-rule="evenodd" d="M31.4138 6.69922C41.1562 6.69922 50.3244 12.6384 53.9846 22.2918C58.7033 34.7622 52.4236 48.6861 39.9541 53.3871C37.1372 54.4458 34.2486 54.9482 31.4138 54.9482V52.6694C33.9794 52.6694 36.5989 52.2209 39.1467 51.2519C50.4321 46.9815 56.1196 34.3675 51.8495 23.0992C48.5482 14.3609 40.2411 8.97799 31.4138 8.97799V6.69922ZM22.8734 8.26027C25.6903 7.20163 28.579 6.69922 31.4138 6.69922V8.97799C28.8481 8.97799 26.2286 9.42657 23.6809 10.3955C12.3955 14.666 6.7079 27.2799 10.978 38.5482C14.2793 47.2865 22.5864 52.6694 31.4138 52.6694V54.9482C21.6714 54.9482 12.5031 49.009 8.84297 39.3557C4.12428 26.8852 10.4039 12.9614 22.8734 8.26027Z" fill="#875796"/>
<path d="M24.1218 42.0459V39.2459H13.4538V36.3899L22.5538 22.2219H28.1538L28.7138 23.9299L28.1538 26.7299V35.5499H31.7938V38.9659L28.1538 39.2459V42.0459H24.1218ZM18.5778 35.5499H24.1218V27.2059H23.6178L18.5778 35.5499ZM40.1044 42.3259C39.395 42.3259 38.779 42.3072 38.2564 42.2699C37.7524 42.2326 37.239 42.1766 36.7164 42.1019L33.1884 40.8139L34.3084 36.9219L39.2644 38.4619C40.5524 38.4619 41.5324 38.2286 42.2044 37.7619C42.895 37.2766 43.2404 36.5859 43.2404 35.6899C43.2404 34.8499 43.007 34.1779 42.5404 33.6739C42.0737 33.1699 41.1777 32.9179 39.8524 32.9179H34.0284V22.2219H46.4884V26.1139L39.4884 25.8339H38.3124V29.6419H40.1884C42.783 29.6419 44.6684 30.1366 45.8444 31.1259C47.0204 32.1152 47.6084 33.5806 47.6084 35.5219C47.6084 36.8472 47.3097 38.0232 46.7124 39.0499C46.1337 40.0766 45.2844 40.8792 44.1644 41.4579C43.0444 42.0366 41.691 42.3259 40.1044 42.3259Z" fill="#875796"/>
<path opacity="0.5" fill-rule="evenodd" clip-rule="evenodd" d="M11.2422 0.216751C19.9163 -4.04399 28.7896 -3.73746 31.0731 0.90644C33.3566 5.55034 28.1613 12.7537 19.4872 17.0145C10.8131 21.2752 1.93972 20.9687 -0.343749 16.3248C-2.62722 11.6809 2.56805 4.47749 11.2422 0.216751Z" fill="#FDFFF8"/>
</g>
</g>
<defs>
<filter id="filter0_i_3570_19746" x="0.600586" y="0" width="60" height="60" filterUnits="userSpaceOnUse" color-interpolation-filters="sRGB">
<feFlood flood-opacity="0" result="BackgroundImageFix"/>
<feBlend mode="normal" in="SourceGraphic" in2="BackgroundImageFix" result="shape"/>
<feColorMatrix in="SourceAlpha" type="matrix" values="0 0 0 0 0 0 0 0 0 0 0 0 0 0 0 0 0 0 127 0" result="hardAlpha"/>
<feOffset/>
<feGaussianBlur stdDeviation="5"/>
<feComposite in2="hardAlpha" operator="arithmetic" k2="-1" k3="1"/>
<feColorMatrix type="matrix" values="0 0 0 0 0 0 0 0 0 0 0 0 0 0 0 0 0 0 0.6 0"/>
<feBlend mode="normal" in2="shape" result="effect1_innerShadow_3570_19746"/>
</filter>
<clipPath id="clip0_3570_19746">
<rect x="0.600586" width="60" height="60" rx="30" fill="white"/>
</clipPath>
</defs>
</svg>
