<svg width="61" height="61" viewBox="0 0 61 61" fill="none" xmlns="http://www.w3.org/2000/svg">
<g filter="url(#filter0_i_3570_19516)">
<g clip-path="url(#clip0_3570_19516)">
<rect x="0.400391" y="0.333984" width="60" height="60" rx="30" fill="#82857D"/>
<path fill-rule="evenodd" clip-rule="evenodd" d="M17.664 -3.32725C36.2517 -10.3609 57.0283 -0.994651 64.0615 17.5944C71.0947 36.1834 61.7291 56.9615 43.1414 63.9952C24.5537 71.0289 3.77705 61.6626 -3.25613 43.0736C-10.2893 24.4845 -0.923692 3.70644 17.664 -3.32725Z" fill="#5B3267"/>
<path fill-rule="evenodd" clip-rule="evenodd" d="M17.6648 -3.32781C35.9116 -10.2359 56.2755 -1.31818 63.6496 16.589C68.9245 34.4783 59.5768 53.6953 41.8503 60.3881C23.6035 67.2962 3.23956 58.3785 -4.13452 40.4713C-9.40941 22.582 -0.0617142 3.36497 17.6648 -3.32781Z" fill="#875796"/>
<path fill-rule="evenodd" clip-rule="evenodd" d="M21.938 6.62511C35.4841 1.49338 50.627 8.3297 55.7404 21.8767C60.8717 35.4238 54.0359 50.5677 40.4898 55.6815C26.9438 60.8132 11.8009 53.9769 6.68748 40.4299C1.55613 26.8829 8.39196 11.7389 21.938 6.62511Z" fill="#FDFFF8"/>
<path fill-rule="evenodd" clip-rule="evenodd" d="M31.2136 7.0332C40.956 7.0332 50.1242 12.9724 53.7844 22.6257C58.5031 35.0962 52.2234 49.02 39.7539 53.7211C36.937 54.7798 34.0484 55.2822 31.2136 55.2822V53.0034C33.7792 53.0034 36.3987 52.5548 38.9465 51.5859C50.2319 47.3155 55.9194 34.7015 51.6493 23.4332C48.348 14.6949 40.0409 9.31198 31.2136 9.31198V7.0332ZM22.6733 8.59425C25.4901 7.53561 28.3788 7.0332 31.2136 7.0332V9.31198C28.6479 9.31198 26.0284 9.76056 23.4807 10.7295C12.1953 14.9999 6.5077 27.6139 10.7779 38.8822C14.0791 47.6205 22.3862 53.0034 31.2136 53.0034V55.2822C21.4712 55.2822 12.3029 49.343 8.64278 39.6896C3.92408 27.2192 10.2037 13.2953 22.6733 8.59425Z" fill="#875796"/>
<path d="M14.6236 42.3799V39.3279C14.6236 39.3279 14.8382 39.1879 15.2676 38.9079C15.6969 38.6092 16.2476 38.2265 16.9196 37.7599C17.5916 37.2932 18.2822 36.7799 18.9916 36.2199C19.7196 35.6599 20.3636 35.1092 20.9236 34.5679C22.1369 33.4292 23.0422 32.4119 23.6396 31.5159C24.2369 30.6199 24.5356 29.6305 24.5356 28.5479C24.5356 27.8199 24.3022 27.2505 23.8356 26.8399C23.3876 26.4105 22.6409 26.1959 21.5956 26.1959C20.8116 26.1959 20.0182 26.2799 19.2156 26.4479C18.4129 26.6159 17.6662 26.8305 16.9756 27.0919C16.2849 27.3345 15.6969 27.5865 15.2116 27.8479V23.9279C15.3982 23.8345 15.7716 23.6665 16.3316 23.4239C16.9102 23.1625 17.6662 22.9199 18.5996 22.6959C19.5329 22.4719 20.6342 22.3599 21.9036 22.3599C24.2742 22.3599 26.0289 22.8732 27.1676 23.8999C28.3249 24.9079 28.9036 26.3452 28.9036 28.2119C28.9036 29.3692 28.6609 30.4425 28.1756 31.4319C27.7089 32.4212 27.0836 33.3265 26.2996 34.1479C25.5342 34.9692 24.7036 35.7159 23.8076 36.3879C22.9302 37.0599 22.0809 37.6572 21.2596 38.1799L21.3996 38.7399L28.9036 38.1799V42.3799H14.6236ZM39.5985 42.6599C38.0491 42.6599 36.6305 42.3145 35.3425 41.6239C34.0545 40.9145 33.0278 39.8505 32.2625 38.4319C31.5158 37.0132 31.1425 35.2212 31.1425 33.0559C31.1425 31.1705 31.4038 29.5465 31.9265 28.1839C32.4678 26.8212 33.1771 25.7105 34.0545 24.8519C34.9505 23.9745 35.9398 23.3305 37.0225 22.9199C38.1238 22.4905 39.2345 22.2759 40.3545 22.2759C41.3065 22.2759 42.0438 22.3505 42.5665 22.4999C43.1078 22.6492 43.5838 22.8172 43.9945 23.0039L46.5425 25.2999L44.5825 28.4919L40.3545 26.1679C39.5331 26.1679 38.7585 26.3732 38.0305 26.7839C37.3025 27.1945 36.7051 27.7825 36.2385 28.5479C35.7718 29.3132 35.5105 30.2465 35.4545 31.3479L39.8785 30.2279C41.1851 30.2279 42.3705 30.4425 43.4345 30.8719C44.5171 31.2825 45.3851 31.9359 46.0385 32.8319C46.6918 33.7092 47.0185 34.8665 47.0185 36.3039C47.0185 38.2265 46.3651 39.7665 45.0585 40.9239C43.7705 42.0812 41.9505 42.6599 39.5985 42.6599ZM39.8505 38.7119C40.7838 38.7119 41.5118 38.4879 42.0345 38.0399C42.5758 37.5919 42.8465 36.9572 42.8465 36.1359C42.8465 35.3519 42.5478 34.7545 41.9505 34.3439C41.3531 33.9145 40.5785 33.6999 39.6265 33.6999C38.8238 33.6999 38.0678 33.8119 37.3585 34.0359C36.6491 34.2599 36.1358 34.4932 35.8185 34.7359C35.8558 35.3332 36.0145 35.9399 36.2945 36.5559C36.5931 37.1719 37.0318 37.6852 37.6105 38.0959C38.1891 38.5065 38.9358 38.7119 39.8505 38.7119Z" fill="#875796"/>
<path opacity="0.5" fill-rule="evenodd" clip-rule="evenodd" d="M11.042 0.550735C19.7161 -3.71 28.5894 -3.40347 30.8729 1.24042C33.1564 5.88432 27.9611 13.0877 19.287 17.3485C10.6129 21.6092 1.73952 21.3027 -0.543944 16.6588C-2.82741 12.0149 2.36786 4.81147 11.042 0.550735Z" fill="#FDFFF8"/>
</g>
</g>
<defs>
<filter id="filter0_i_3570_19516" x="0.400391" y="0.333984" width="60" height="60" filterUnits="userSpaceOnUse" color-interpolation-filters="sRGB">
<feFlood flood-opacity="0" result="BackgroundImageFix"/>
<feBlend mode="normal" in="SourceGraphic" in2="BackgroundImageFix" result="shape"/>
<feColorMatrix in="SourceAlpha" type="matrix" values="0 0 0 0 0 0 0 0 0 0 0 0 0 0 0 0 0 0 127 0" result="hardAlpha"/>
<feOffset/>
<feGaussianBlur stdDeviation="5"/>
<feComposite in2="hardAlpha" operator="arithmetic" k2="-1" k3="1"/>
<feColorMatrix type="matrix" values="0 0 0 0 0 0 0 0 0 0 0 0 0 0 0 0 0 0 0.6 0"/>
<feBlend mode="normal" in2="shape" result="effect1_innerShadow_3570_19516"/>
</filter>
<clipPath id="clip0_3570_19516">
<rect x="0.400391" y="0.333984" width="60" height="60" rx="30" fill="white"/>
</clipPath>
</defs>
</svg>
