<svg width="60" height="61" viewBox="0 0 60 61" fill="none" xmlns="http://www.w3.org/2000/svg">
<g filter="url(#filter0_i_3570_19843)">
<g clip-path="url(#clip0_3570_19843)">
<rect y="0.333984" width="60" height="60" rx="30" fill="#82857D"/>
<path fill-rule="evenodd" clip-rule="evenodd" d="M17.2636 -3.32725C35.8513 -10.3609 56.6279 -0.994651 63.6611 17.5944C70.6943 36.1834 61.3287 56.9615 42.741 63.9952C24.1533 71.0289 3.37666 61.6626 -3.65652 43.0736C-10.6897 24.4845 -1.32408 3.70644 17.2636 -3.32725Z" fill="#904D16"/>
<path fill-rule="evenodd" clip-rule="evenodd" d="M17.2644 -3.32781C35.5112 -10.2359 55.8751 -1.31818 63.2492 16.589C68.5241 34.4783 59.1765 53.6953 41.4499 60.3881C23.2031 67.2962 2.83917 58.3785 -4.53491 40.4713C-9.8098 22.582 -0.462105 3.36497 17.2644 -3.32781Z" fill="#DC8944"/>
<path fill-rule="evenodd" clip-rule="evenodd" d="M21.5376 6.62511C35.0837 1.49338 50.2266 8.3297 55.34 21.8767C60.4713 35.4238 53.6355 50.5677 40.0894 55.6815C26.5434 60.8132 11.4005 53.9769 6.28709 40.4299C1.15574 26.8829 7.99157 11.7389 21.5376 6.62511Z" fill="#FDFFF8"/>
<path fill-rule="evenodd" clip-rule="evenodd" d="M30.8132 7.0332C40.5556 7.0332 49.7238 12.9724 53.384 22.6257C58.1027 35.0962 51.823 49.02 39.3535 53.7211C36.5366 54.7798 33.648 55.2822 30.8132 55.2822V53.0034C33.3789 53.0034 35.9984 52.5548 38.5461 51.5859C49.8315 47.3155 55.519 34.7015 51.2489 23.4332C47.9476 14.6949 39.6405 9.31198 30.8132 9.31198V7.0332ZM22.2729 8.59425C25.0897 7.53561 27.9784 7.0332 30.8132 7.0332V9.31198C28.2475 9.31198 25.628 9.76056 23.0803 10.7295C11.7949 14.9999 6.10731 27.6139 10.3775 38.8822C13.6788 47.6205 21.9858 53.0034 30.8132 53.0034V55.2822C21.0708 55.2822 11.9025 49.343 8.24238 39.6896C3.52369 27.2192 9.80331 13.2953 22.2729 8.59425Z" fill="#DC8944"/>
<path d="M21.6756 42.6599C20.9663 42.6599 20.3503 42.6412 19.8276 42.6039C19.3236 42.5665 18.8103 42.5105 18.2876 42.4359L14.7596 41.1479L15.8796 37.2559L20.8356 38.7959C22.1236 38.7959 23.1036 38.5625 23.7756 38.0959C24.4663 37.6105 24.8116 36.9199 24.8116 36.0239C24.8116 35.1839 24.5783 34.5119 24.1116 34.0079C23.645 33.5039 22.749 33.2519 21.4236 33.2519H15.5996V22.5559H28.0596V26.4479L21.0596 26.1679H19.8836V29.9759H21.7596C24.3543 29.9759 26.2396 30.4705 27.4156 31.4599C28.5916 32.4492 29.1796 33.9145 29.1796 35.8559C29.1796 37.1812 28.881 38.3572 28.2836 39.3839C27.705 40.4105 26.8556 41.2132 25.7356 41.7919C24.6156 42.3705 23.2623 42.6599 21.6756 42.6599ZM38.7128 42.6599C38.1154 42.6599 37.5461 42.6412 37.0048 42.6039C36.4821 42.5665 35.9874 42.5105 35.5208 42.4359L31.7128 41.1479L32.8328 37.2559L38.1528 38.7679C39.4781 38.7679 40.4114 38.5159 40.9528 38.0119C41.5128 37.4892 41.7928 36.8172 41.7928 35.9959C41.7928 35.3985 41.6154 34.9225 41.2608 34.5679C40.9248 34.2132 40.3554 34.0359 39.5528 34.0359H35.9968V30.4239H38.8528C40.6261 30.4239 41.5128 29.6399 41.5128 28.0719C41.5128 26.8212 40.6448 26.1959 38.9088 26.1959C37.8448 26.1959 36.9021 26.2985 36.0808 26.5039C35.2594 26.6905 34.5501 26.9145 33.9528 27.1759C33.3741 27.4185 32.9074 27.6239 32.5528 27.7919V23.8719C33.0941 23.5172 33.8781 23.1719 34.9048 22.8359C35.9314 22.4812 37.2754 22.3039 38.9368 22.3039C41.0461 22.3039 42.6421 22.7705 43.7248 23.7039C44.8261 24.6185 45.3768 25.9159 45.3768 27.5959C45.3768 28.5665 45.2181 29.3692 44.9008 30.0039C44.6021 30.6199 44.2194 31.1145 43.7528 31.4879C44.5554 31.9919 45.1714 32.5985 45.6008 33.3079C46.0301 33.9985 46.2448 34.8852 46.2448 35.9679C46.2448 37.3865 45.9274 38.5999 45.2928 39.6079C44.6768 40.5972 43.7994 41.3532 42.6608 41.8759C41.5408 42.3985 40.2248 42.6599 38.7128 42.6599Z" fill="#DC8944"/>
<path opacity="0.5" fill-rule="evenodd" clip-rule="evenodd" d="M10.6416 0.550735C19.3157 -3.71 28.189 -3.40347 30.4725 1.24042C32.756 5.88432 27.5607 13.0877 18.8866 17.3485C10.2125 21.6092 1.33913 21.3027 -0.944335 16.6588C-3.2278 12.0149 1.96747 4.81147 10.6416 0.550735Z" fill="#FDFFF8"/>
</g>
</g>
<defs>
<filter id="filter0_i_3570_19843" x="0" y="0.333984" width="60" height="60" filterUnits="userSpaceOnUse" color-interpolation-filters="sRGB">
<feFlood flood-opacity="0" result="BackgroundImageFix"/>
<feBlend mode="normal" in="SourceGraphic" in2="BackgroundImageFix" result="shape"/>
<feColorMatrix in="SourceAlpha" type="matrix" values="0 0 0 0 0 0 0 0 0 0 0 0 0 0 0 0 0 0 127 0" result="hardAlpha"/>
<feOffset/>
<feGaussianBlur stdDeviation="5"/>
<feComposite in2="hardAlpha" operator="arithmetic" k2="-1" k3="1"/>
<feColorMatrix type="matrix" values="0 0 0 0 0 0 0 0 0 0 0 0 0 0 0 0 0 0 0.6 0"/>
<feBlend mode="normal" in2="shape" result="effect1_innerShadow_3570_19843"/>
</filter>
<clipPath id="clip0_3570_19843">
<rect y="0.333984" width="60" height="60" rx="30" fill="white"/>
</clipPath>
</defs>
</svg>
