<svg width="61" height="61" viewBox="0 0 61 61" fill="none" xmlns="http://www.w3.org/2000/svg">
<g filter="url(#filter0_i_3570_20278)">
<g clip-path="url(#clip0_3570_20278)">
<rect x="0.800781" y="0.333984" width="60" height="60" rx="30" fill="#82857D"/>
<path fill-rule="evenodd" clip-rule="evenodd" d="M18.0644 -3.32725C36.6521 -10.3609 57.4287 -0.994651 64.4619 17.5944C71.4951 36.1834 62.1295 56.9615 43.5418 63.9952C24.9541 71.0289 4.17744 61.6626 -2.85574 43.0736C-9.88893 24.4845 -0.523302 3.70644 18.0644 -3.32725Z" fill="#904D16"/>
<path fill-rule="evenodd" clip-rule="evenodd" d="M18.0652 -3.32781C36.312 -10.2359 56.6759 -1.31818 64.05 16.589C69.3249 34.4783 59.9772 53.6953 42.2507 60.3881C24.0039 67.2962 3.63995 58.3785 -3.73413 40.4713C-9.00902 22.582 0.338676 3.36497 18.0652 -3.32781Z" fill="#DC8944"/>
<path fill-rule="evenodd" clip-rule="evenodd" d="M22.3384 6.62511C35.8845 1.49338 51.0273 8.3297 56.1408 21.8767C61.2721 35.4238 54.4363 50.5677 40.8902 55.6815C27.3442 60.8132 12.2013 53.9769 7.08788 40.4299C1.95652 26.8829 8.79235 11.7389 22.3384 6.62511Z" fill="#FDFFF8"/>
<path fill-rule="evenodd" clip-rule="evenodd" d="M31.614 7.0332C41.3564 7.0332 50.5246 12.9724 54.1848 22.6257C58.9035 35.0962 52.6238 49.02 40.1543 53.7211C37.3374 54.7798 34.4488 55.2822 31.614 55.2822V53.0034C34.1796 53.0034 36.7991 52.5548 39.3469 51.5859C50.6323 47.3155 56.3198 34.7015 52.0497 23.4332C48.7484 14.6949 40.4413 9.31198 31.614 9.31198V7.0332ZM23.0736 8.59425C25.8905 7.53561 28.7792 7.0332 31.614 7.0332V9.31198C29.0483 9.31198 26.4288 9.76056 23.881 10.7295C12.5957 14.9999 6.9081 27.6139 11.1782 38.8822C14.4795 47.6205 22.7866 53.0034 31.614 53.0034V55.2822C21.8716 55.2822 12.7033 49.343 9.04317 39.6896C4.32447 27.2192 10.6041 13.2953 23.0736 8.59425Z" fill="#DC8944"/>
<path d="M22.3347 42.6599C21.308 42.6599 20.3187 42.5665 19.3667 42.3799C18.4333 42.1745 17.5933 41.8479 16.8467 41.3999C16.1187 40.9332 15.54 40.3079 15.1107 39.5239C14.6813 38.7399 14.4667 37.7599 14.4667 36.5839C14.4667 35.3892 14.7187 34.4279 15.2227 33.6999C15.7267 32.9719 16.3893 32.4119 17.2107 32.0199C16.688 31.5719 16.24 31.0025 15.8667 30.3119C15.4933 29.6212 15.3067 28.7812 15.3067 27.7919C15.3067 26.1865 15.876 24.8705 17.0147 23.8439C18.1533 22.7985 19.908 22.2759 22.2787 22.2759C24.668 22.2759 26.4133 22.7519 27.5147 23.7039C28.616 24.6559 29.1667 26.0185 29.1667 27.7919C29.1667 28.6879 28.98 29.4999 28.6067 30.2279C28.2333 30.9559 27.776 31.5345 27.2347 31.9639C28.0187 32.3559 28.672 32.9345 29.1947 33.6999C29.736 34.4652 30.0067 35.4265 30.0067 36.5839C30.0067 38.1519 29.652 39.3745 28.9427 40.2519C28.2333 41.1292 27.3 41.7545 26.1427 42.1279C24.9853 42.4825 23.716 42.6599 22.3347 42.6599ZM22.3347 30.7319C23.2493 30.7319 23.9307 30.5452 24.3787 30.1719C24.8267 29.7985 25.0507 29.2945 25.0507 28.6599C25.0507 27.8945 24.836 27.2972 24.4067 26.8679C23.996 26.4199 23.3053 26.1959 22.3347 26.1959C21.4947 26.1959 20.804 26.3825 20.2627 26.7559C19.74 27.1292 19.4787 27.6705 19.4787 28.3799C19.4787 28.9585 19.6187 29.4252 19.8987 29.7799C20.1973 30.1159 20.5613 30.3585 20.9907 30.5079C21.4387 30.6572 21.8867 30.7319 22.3347 30.7319ZM22.3347 38.7399C23.3427 38.7399 24.1827 38.5719 24.8547 38.2359C25.5453 37.8999 25.8907 37.3865 25.8907 36.6959C25.8907 35.7252 25.4053 34.9505 24.4347 34.3719C23.4827 33.7745 22.0453 33.4665 20.1227 33.4479C19.7493 33.7279 19.432 34.0919 19.1707 34.5399C18.928 34.9692 18.8067 35.4265 18.8067 35.9119C18.8067 36.9385 19.1427 37.6665 19.8147 38.0959C20.4867 38.5252 21.3267 38.7399 22.3347 38.7399ZM39.2121 42.6599C38.4655 42.6599 37.8681 42.6225 37.4201 42.5479C36.9721 42.4919 36.5521 42.4265 36.1601 42.3519L32.7441 40.3079L34.3961 37.0039L38.9041 38.7679C39.6695 38.7679 40.3975 38.5999 41.0881 38.2639C41.7975 37.9092 42.3855 37.3772 42.8521 36.6679C43.3188 35.9399 43.5895 35.0252 43.6641 33.9239L39.0721 34.7639C37.7468 34.7639 36.5708 34.5772 35.5441 34.2039C34.5175 33.8305 33.7055 33.2052 33.1081 32.3279C32.5295 31.4319 32.2401 30.2092 32.2401 28.6599C32.2401 27.5959 32.5108 26.5785 33.0521 25.6079C33.6121 24.6185 34.4428 23.8159 35.5441 23.1999C36.6455 22.5839 38.0268 22.2759 39.6881 22.2759C41.3308 22.2759 42.7775 22.6119 44.0281 23.2839C45.2975 23.9559 46.2961 25.0385 47.0241 26.5319C47.7521 28.0065 48.1161 29.9852 48.1161 32.4679C48.1161 34.6332 47.7428 36.4812 46.9961 38.0119C46.2495 39.5239 45.2041 40.6812 43.8601 41.4839C42.5348 42.2679 40.9855 42.6599 39.2121 42.6599ZM39.0721 31.2639C39.9121 31.2639 40.7708 31.2359 41.6481 31.1799C42.5255 31.1239 43.1975 31.0585 43.6641 30.9839C43.5521 27.8292 42.2268 26.2519 39.6881 26.2519C38.5495 26.2519 37.7188 26.5319 37.1961 27.0919C36.6735 27.6519 36.4121 28.3239 36.4121 29.1079C36.4121 29.8545 36.6268 30.4052 37.0561 30.7599C37.4855 31.0959 38.1575 31.2639 39.0721 31.2639Z" fill="#DC8944"/>
<path opacity="0.5" fill-rule="evenodd" clip-rule="evenodd" d="M11.4424 0.550735C20.1165 -3.71 28.9898 -3.40347 31.2733 1.24042C33.5568 5.88432 28.3615 13.0877 19.6874 17.3485C11.0133 21.6092 2.13992 21.3027 -0.143553 16.6588C-2.42702 12.0149 2.76825 4.81147 11.4424 0.550735Z" fill="#FDFFF8"/>
</g>
</g>
<defs>
<filter id="filter0_i_3570_20278" x="0.800781" y="0.333984" width="60" height="60" filterUnits="userSpaceOnUse" color-interpolation-filters="sRGB">
<feFlood flood-opacity="0" result="BackgroundImageFix"/>
<feBlend mode="normal" in="SourceGraphic" in2="BackgroundImageFix" result="shape"/>
<feColorMatrix in="SourceAlpha" type="matrix" values="0 0 0 0 0 0 0 0 0 0 0 0 0 0 0 0 0 0 127 0" result="hardAlpha"/>
<feOffset/>
<feGaussianBlur stdDeviation="5"/>
<feComposite in2="hardAlpha" operator="arithmetic" k2="-1" k3="1"/>
<feColorMatrix type="matrix" values="0 0 0 0 0 0 0 0 0 0 0 0 0 0 0 0 0 0 0.6 0"/>
<feBlend mode="normal" in2="shape" result="effect1_innerShadow_3570_20278"/>
</filter>
<clipPath id="clip0_3570_20278">
<rect x="0.800781" y="0.333984" width="60" height="60" rx="30" fill="white"/>
</clipPath>
</defs>
</svg>
