<svg width="61" height="61" viewBox="0 0 61 61" fill="none" xmlns="http://www.w3.org/2000/svg">
<g filter="url(#filter0_i_3570_19552)">
<g clip-path="url(#clip0_3570_19552)">
<rect x="0.800781" y="0.333984" width="60" height="60" rx="30" fill="#82857D"/>
<path fill-rule="evenodd" clip-rule="evenodd" d="M18.0644 -3.32725C36.6521 -10.3609 57.4287 -0.994651 64.4619 17.5944C71.4951 36.1834 62.1295 56.9615 43.5418 63.9952C24.9541 71.0289 4.17744 61.6626 -2.85574 43.0736C-9.88893 24.4845 -0.523302 3.70644 18.0644 -3.32725Z" fill="#133D63"/>
<path fill-rule="evenodd" clip-rule="evenodd" d="M18.0652 -3.32781C36.312 -10.2359 56.6759 -1.31818 64.05 16.589C69.3249 34.4783 59.9772 53.6953 42.2507 60.3881C24.0039 67.2962 3.63995 58.3785 -3.73413 40.4713C-9.00902 22.582 0.338676 3.36497 18.0652 -3.32781Z" fill="#5884AD"/>
<path fill-rule="evenodd" clip-rule="evenodd" d="M22.3384 6.61925C35.8845 1.48752 51.0273 8.32384 56.1408 21.8709C61.2721 35.4179 54.4363 50.5619 40.8902 55.6757C27.3442 60.8074 12.2013 53.9711 7.08788 40.424C1.95652 26.877 8.79235 11.733 22.3384 6.61925Z" fill="#FDFFF8"/>
<path fill-rule="evenodd" clip-rule="evenodd" d="M31.614 7.02734C41.3564 7.02734 50.5246 12.9665 54.1848 22.6199C58.9034 35.0903 52.6238 49.0142 40.1542 53.7153C37.3374 54.7739 34.4488 55.2763 31.614 55.2763V52.9975C34.1796 52.9975 36.7991 52.549 39.3469 51.58C50.6323 47.3096 56.3198 34.6956 52.0497 23.4273C48.7484 14.689 40.4413 9.30612 31.614 9.30612V7.02734ZM23.0736 8.58839C25.8905 7.52975 28.7792 7.02734 31.614 7.02734V9.30612C29.0483 9.30612 26.4288 9.7547 23.881 10.7236C12.5957 14.9941 6.9081 27.6081 11.1782 38.8763C14.4795 47.6146 22.7866 52.9975 31.614 52.9975V55.2763C21.8716 55.2763 12.7033 49.3372 9.04317 39.6838C4.32447 27.2133 10.6041 13.2895 23.0736 8.58839Z" fill="#5884AD"/>
<path d="M15.0239 42.3799V39.3279C15.0239 39.3279 15.2386 39.1879 15.6679 38.9079C16.0973 38.6092 16.6479 38.2265 17.3199 37.7599C17.9919 37.2932 18.6826 36.7799 19.3919 36.2199C20.1199 35.6599 20.7639 35.1092 21.3239 34.5679C22.5373 33.4292 23.4426 32.4119 24.0399 31.5159C24.6373 30.6199 24.9359 29.6305 24.9359 28.5479C24.9359 27.8199 24.7026 27.2505 24.2359 26.8399C23.7879 26.4105 23.0413 26.1959 21.9959 26.1959C21.2119 26.1959 20.4186 26.2799 19.6159 26.4479C18.8133 26.6159 18.0666 26.8305 17.3759 27.0919C16.6853 27.3345 16.0973 27.5865 15.6119 27.8479V23.9279C15.7986 23.8345 16.1719 23.6665 16.7319 23.4239C17.3106 23.1625 18.0666 22.9199 18.9999 22.6959C19.9333 22.4719 21.0346 22.3599 22.3039 22.3599C24.6746 22.3599 26.4293 22.8732 27.5679 23.8999C28.7253 24.9079 29.3039 26.3452 29.3039 28.2119C29.3039 29.3692 29.0613 30.4425 28.5759 31.4319C28.1093 32.4212 27.4839 33.3265 26.6999 34.1479C25.9346 34.9692 25.1039 35.7159 24.2079 36.3879C23.3306 37.0599 22.4813 37.6572 21.6599 38.1799L21.7999 38.7399L29.3039 38.1799V42.3799H15.0239ZM38.5149 42.6599C37.7682 42.6599 37.1709 42.6225 36.7229 42.5479C36.2749 42.4919 35.8549 42.4265 35.4629 42.3519L32.0469 40.3079L33.6989 37.0039L38.2069 38.7679C38.9722 38.7679 39.7002 38.5999 40.3909 38.2639C41.1002 37.9092 41.6882 37.3772 42.1549 36.6679C42.6215 35.9399 42.8922 35.0252 42.9669 33.9239L38.3749 34.7639C37.0495 34.7639 35.8735 34.5772 34.8469 34.2039C33.8202 33.8305 33.0082 33.2052 32.4109 32.3279C31.8322 31.4319 31.5429 30.2092 31.5429 28.6599C31.5429 27.5959 31.8135 26.5785 32.3549 25.6079C32.9149 24.6185 33.7455 23.8159 34.8469 23.1999C35.9482 22.5839 37.3295 22.2759 38.9909 22.2759C40.6335 22.2759 42.0802 22.6119 43.3309 23.2839C44.6002 23.9559 45.5989 25.0385 46.3269 26.5319C47.0549 28.0065 47.4189 29.9852 47.4189 32.4679C47.4189 34.6332 47.0455 36.4812 46.2989 38.0119C45.5522 39.5239 44.5069 40.6812 43.1629 41.4839C41.8375 42.2679 40.2882 42.6599 38.5149 42.6599ZM38.3749 31.2639C39.2149 31.2639 40.0735 31.2359 40.9509 31.1799C41.8282 31.1239 42.5002 31.0585 42.9669 30.9839C42.8549 27.8292 41.5295 26.2519 38.9909 26.2519C37.8522 26.2519 37.0215 26.5319 36.4989 27.0919C35.9762 27.6519 35.7149 28.3239 35.7149 29.1079C35.7149 29.8545 35.9295 30.4052 36.3589 30.7599C36.7882 31.0959 37.4602 31.2639 38.3749 31.2639Z" fill="#5884AD"/>
<path opacity="0.5" fill-rule="evenodd" clip-rule="evenodd" d="M14.2848 1.61063C24.4398 -3.37755 34.8281 -3.01868 37.5015 2.41807C40.1748 7.85483 34.0925 16.2881 23.9375 21.2763C13.7824 26.2644 3.3941 25.9056 0.720776 20.4688C-1.95255 15.0321 4.12971 6.59881 14.2848 1.61063Z" fill="#FDFFF8"/>
</g>
</g>
<defs>
<filter id="filter0_i_3570_19552" x="0.800781" y="0.333984" width="60" height="60" filterUnits="userSpaceOnUse" color-interpolation-filters="sRGB">
<feFlood flood-opacity="0" result="BackgroundImageFix"/>
<feBlend mode="normal" in="SourceGraphic" in2="BackgroundImageFix" result="shape"/>
<feColorMatrix in="SourceAlpha" type="matrix" values="0 0 0 0 0 0 0 0 0 0 0 0 0 0 0 0 0 0 127 0" result="hardAlpha"/>
<feOffset/>
<feGaussianBlur stdDeviation="5"/>
<feComposite in2="hardAlpha" operator="arithmetic" k2="-1" k3="1"/>
<feColorMatrix type="matrix" values="0 0 0 0 0 0 0 0 0 0 0 0 0 0 0 0 0 0 0.6 0"/>
<feBlend mode="normal" in2="shape" result="effect1_innerShadow_3570_19552"/>
</filter>
<clipPath id="clip0_3570_19552">
<rect x="0.800781" y="0.333984" width="60" height="60" rx="30" fill="white"/>
</clipPath>
</defs>
</svg>
