<svg width="61" height="61" viewBox="0 0 61 61" fill="none" xmlns="http://www.w3.org/2000/svg">
<g filter="url(#filter0_i_3570_19262)">
<g clip-path="url(#clip0_3570_19262)">
<rect x="0.600586" y="0.666992" width="60" height="60" rx="30" fill="#82857D"/>
<path fill-rule="evenodd" clip-rule="evenodd" d="M17.8642 -2.99425C36.4519 -10.0279 57.2285 -0.661643 64.2617 17.9274C71.2949 36.5164 61.9293 57.2945 43.3416 64.3282C24.7539 71.3619 3.97725 61.9956 -3.05594 43.4066C-10.0891 24.8175 -0.723497 4.03945 17.8642 -2.99425Z" fill="#904D16"/>
<path fill-rule="evenodd" clip-rule="evenodd" d="M17.865 -2.9948C36.1118 -9.90289 56.4757 -0.985174 63.8498 16.922C69.1247 34.8113 59.777 54.0283 42.0505 60.7211C23.8037 67.6292 3.43976 58.7115 -3.93433 40.8043C-9.20922 22.915 0.138481 3.69797 17.865 -2.9948Z" fill="#DC8944"/>
<path fill-rule="evenodd" clip-rule="evenodd" d="M22.1382 6.95812C35.6843 1.82639 50.8272 8.66271 55.9406 22.2097C61.0719 35.7568 54.2361 50.9007 40.69 56.0145C27.144 61.1462 12.0011 54.3099 6.88768 40.7629C1.75632 27.2159 8.59215 12.0719 22.1382 6.95812Z" fill="#FDFFF8"/>
<path fill-rule="evenodd" clip-rule="evenodd" d="M31.4138 7.36621C41.1562 7.36621 50.3244 13.3054 53.9846 22.9588C58.7033 35.4292 52.4236 49.3531 39.9541 54.0541C37.1372 55.1128 34.2486 55.6152 31.4138 55.6152V53.3364C33.9794 53.3364 36.5989 52.8878 39.1467 51.9189C50.4321 47.6485 56.1196 35.0345 51.8495 23.7662C48.5482 15.0279 40.2411 9.64498 31.4138 9.64498V7.36621ZM22.8734 8.92726C25.6903 7.86862 28.579 7.36621 31.4138 7.36621V9.64498C28.8481 9.64498 26.2286 10.0936 23.6809 11.0625C12.3955 15.3329 6.7079 27.9469 10.978 39.2152C14.2793 47.9535 22.5864 53.3364 31.4138 53.3364V55.6152C21.6714 55.6152 12.5031 49.676 8.84297 40.0226C4.12428 27.5522 10.4039 13.6284 22.8734 8.92726Z" fill="#DC8944"/>
<path d="M30.6571 42.9929C29.9478 42.9929 29.3318 42.9742 28.8091 42.9369C28.3051 42.8996 27.7918 42.8436 27.2691 42.7689L23.7411 41.4809L24.8611 37.5889L29.8171 39.1289C31.1051 39.1289 32.0851 38.8956 32.7571 38.4289C33.4478 37.9436 33.7931 37.2529 33.7931 36.3569C33.7931 35.5169 33.5598 34.8449 33.0931 34.3409C32.6264 33.8369 31.7304 33.5849 30.4051 33.5849H24.5811V22.8889H37.0411V26.7809L30.0411 26.5009H28.8651V30.3089H30.7411C33.3358 30.3089 35.2211 30.8036 36.3971 31.7929C37.5731 32.7822 38.1611 34.2476 38.1611 36.1889C38.1611 37.5142 37.8624 38.6902 37.2651 39.7169C36.6864 40.7436 35.8371 41.5462 34.7171 42.1249C33.5971 42.7036 32.2438 42.9929 30.6571 42.9929Z" fill="#DC8944"/>
<path opacity="0.5" fill-rule="evenodd" clip-rule="evenodd" d="M11.2422 0.883743C19.9163 -3.37699 28.7896 -3.07046 31.0731 1.57343C33.3566 6.21733 28.1613 13.4207 19.4872 17.6815C10.8131 21.9422 1.93972 21.6357 -0.343749 16.9918C-2.62722 12.3479 2.56805 5.14448 11.2422 0.883743Z" fill="#FDFFF8"/>
</g>
</g>
<defs>
<filter id="filter0_i_3570_19262" x="0.600586" y="0.666992" width="60" height="60" filterUnits="userSpaceOnUse" color-interpolation-filters="sRGB">
<feFlood flood-opacity="0" result="BackgroundImageFix"/>
<feBlend mode="normal" in="SourceGraphic" in2="BackgroundImageFix" result="shape"/>
<feColorMatrix in="SourceAlpha" type="matrix" values="0 0 0 0 0 0 0 0 0 0 0 0 0 0 0 0 0 0 127 0" result="hardAlpha"/>
<feOffset/>
<feGaussianBlur stdDeviation="5"/>
<feComposite in2="hardAlpha" operator="arithmetic" k2="-1" k3="1"/>
<feColorMatrix type="matrix" values="0 0 0 0 0 0 0 0 0 0 0 0 0 0 0 0 0 0 0.6 0"/>
<feBlend mode="normal" in2="shape" result="effect1_innerShadow_3570_19262"/>
</filter>
<clipPath id="clip0_3570_19262">
<rect x="0.600586" y="0.666992" width="60" height="60" rx="30" fill="white"/>
</clipPath>
</defs>
</svg>
