<svg width="60" height="61" viewBox="0 0 60 61" fill="none" xmlns="http://www.w3.org/2000/svg">
<g filter="url(#filter0_i_3570_19540)">
<g clip-path="url(#clip0_3570_19540)">
<rect y="0.333984" width="60" height="60" rx="30" fill="#82857D"/>
<path fill-rule="evenodd" clip-rule="evenodd" d="M17.2636 -3.32725C35.8513 -10.3609 56.6279 -0.994651 63.6611 17.5944C70.6943 36.1834 61.3287 56.9615 42.741 63.9952C24.1533 71.0289 3.37666 61.6626 -3.65652 43.0736C-10.6897 24.4845 -1.32408 3.70644 17.2636 -3.32725Z" fill="#5B3267"/>
<path fill-rule="evenodd" clip-rule="evenodd" d="M17.2644 -3.32781C35.5112 -10.2359 55.8751 -1.31818 63.2492 16.589C68.5241 34.4783 59.1765 53.6953 41.4499 60.3881C23.2031 67.2962 2.83917 58.3785 -4.53491 40.4713C-9.8098 22.582 -0.462105 3.36497 17.2644 -3.32781Z" fill="#875796"/>
<path fill-rule="evenodd" clip-rule="evenodd" d="M21.5376 6.62511C35.0837 1.49338 50.2266 8.3297 55.34 21.8767C60.4713 35.4238 53.6355 50.5677 40.0894 55.6815C26.5434 60.8132 11.4005 53.9769 6.28709 40.4299C1.15574 26.8829 7.99157 11.7389 21.5376 6.62511Z" fill="#FDFFF8"/>
<path fill-rule="evenodd" clip-rule="evenodd" d="M30.8132 7.0332C40.5556 7.0332 49.7238 12.9724 53.384 22.6257C58.1027 35.0962 51.823 49.02 39.3535 53.7211C36.5366 54.7798 33.648 55.2822 30.8132 55.2822V53.0034C33.3789 53.0034 35.9984 52.5548 38.5461 51.5859C49.8315 47.3155 55.519 34.7015 51.2489 23.4332C47.9476 14.6949 39.6405 9.31198 30.8132 9.31198V7.0332ZM22.2729 8.59425C25.0897 7.53561 27.9784 7.0332 30.8132 7.0332V9.31198C28.2475 9.31198 25.628 9.76056 23.0803 10.7295C11.7949 14.9999 6.10731 27.6139 10.3775 38.8822C13.6788 47.6205 21.9858 53.0034 30.8132 53.0034V55.2822C21.0708 55.2822 11.9025 49.343 8.24238 39.6896C3.52369 27.2192 9.80331 13.2953 22.2729 8.59425Z" fill="#875796"/>
<path d="M14.4009 42.3799V39.3279C14.4009 39.3279 14.6156 39.1879 15.0449 38.9079C15.4742 38.6092 16.0249 38.2265 16.6969 37.7599C17.3689 37.2932 18.0596 36.7799 18.7689 36.2199C19.4969 35.6599 20.1409 35.1092 20.7009 34.5679C21.9142 33.4292 22.8196 32.4119 23.4169 31.5159C24.0142 30.6199 24.3129 29.6305 24.3129 28.5479C24.3129 27.8199 24.0796 27.2505 23.6129 26.8399C23.1649 26.4105 22.4182 26.1959 21.3729 26.1959C20.5889 26.1959 19.7956 26.2799 18.9929 26.4479C18.1902 26.6159 17.4436 26.8305 16.7529 27.0919C16.0622 27.3345 15.4742 27.5865 14.9889 27.8479V23.9279C15.1756 23.8345 15.5489 23.6665 16.1089 23.4239C16.6876 23.1625 17.4436 22.9199 18.3769 22.6959C19.3102 22.4719 20.4116 22.3599 21.6809 22.3599C24.0516 22.3599 25.8062 22.8732 26.9449 23.8999C28.1022 24.9079 28.6809 26.3452 28.6809 28.2119C28.6809 29.3692 28.4382 30.4425 27.9529 31.4319C27.4862 32.4212 26.8609 33.3265 26.0769 34.1479C25.3116 34.9692 24.4809 35.7159 23.5849 36.3879C22.7076 37.0599 21.8582 37.6572 21.0369 38.1799L21.1769 38.7399L28.6809 38.1799V42.3799H14.4009ZM38.7878 42.6599C37.7611 42.6599 36.7718 42.5665 35.8198 42.3799C34.8865 42.1745 34.0465 41.8479 33.2998 41.3999C32.5718 40.9332 31.9931 40.3079 31.5638 39.5239C31.1345 38.7399 30.9198 37.7599 30.9198 36.5839C30.9198 35.3892 31.1718 34.4279 31.6758 33.6999C32.1798 32.9719 32.8425 32.4119 33.6638 32.0199C33.1411 31.5719 32.6931 31.0025 32.3198 30.3119C31.9465 29.6212 31.7598 28.7812 31.7598 27.7919C31.7598 26.1865 32.3291 24.8705 33.4678 23.8439C34.6065 22.7985 36.3611 22.2759 38.7318 22.2759C41.1211 22.2759 42.8665 22.7519 43.9678 23.7039C45.0691 24.6559 45.6198 26.0185 45.6198 27.7919C45.6198 28.6879 45.4331 29.4999 45.0598 30.2279C44.6865 30.9559 44.2291 31.5345 43.6878 31.9639C44.4718 32.3559 45.1251 32.9345 45.6478 33.6999C46.1891 34.4652 46.4598 35.4265 46.4598 36.5839C46.4598 38.1519 46.1051 39.3745 45.3958 40.2519C44.6865 41.1292 43.7531 41.7545 42.5958 42.1279C41.4385 42.4825 40.1691 42.6599 38.7878 42.6599ZM38.7878 30.7319C39.7025 30.7319 40.3838 30.5452 40.8318 30.1719C41.2798 29.7985 41.5038 29.2945 41.5038 28.6599C41.5038 27.8945 41.2891 27.2972 40.8598 26.8679C40.4491 26.4199 39.7585 26.1959 38.7878 26.1959C37.9478 26.1959 37.2571 26.3825 36.7158 26.7559C36.1931 27.1292 35.9318 27.6705 35.9318 28.3799C35.9318 28.9585 36.0718 29.4252 36.3518 29.7799C36.6505 30.1159 37.0145 30.3585 37.4438 30.5079C37.8918 30.6572 38.3398 30.7319 38.7878 30.7319ZM38.7878 38.7399C39.7958 38.7399 40.6358 38.5719 41.3078 38.2359C41.9985 37.8999 42.3438 37.3865 42.3438 36.6959C42.3438 35.7252 41.8585 34.9505 40.8878 34.3719C39.9358 33.7745 38.4985 33.4665 36.5758 33.4479C36.2025 33.7279 35.8851 34.0919 35.6238 34.5399C35.3811 34.9692 35.2598 35.4265 35.2598 35.9119C35.2598 36.9385 35.5958 37.6665 36.2678 38.0959C36.9398 38.5252 37.7798 38.7399 38.7878 38.7399Z" fill="#875796"/>
<path opacity="0.5" fill-rule="evenodd" clip-rule="evenodd" d="M10.6416 0.550735C19.3157 -3.71 28.189 -3.40347 30.4725 1.24042C32.756 5.88432 27.5607 13.0877 18.8866 17.3485C10.2125 21.6092 1.33913 21.3027 -0.944335 16.6588C-3.2278 12.0149 1.96747 4.81147 10.6416 0.550735Z" fill="#FDFFF8"/>
</g>
</g>
<defs>
<filter id="filter0_i_3570_19540" x="0" y="0.333984" width="60" height="60" filterUnits="userSpaceOnUse" color-interpolation-filters="sRGB">
<feFlood flood-opacity="0" result="BackgroundImageFix"/>
<feBlend mode="normal" in="SourceGraphic" in2="BackgroundImageFix" result="shape"/>
<feColorMatrix in="SourceAlpha" type="matrix" values="0 0 0 0 0 0 0 0 0 0 0 0 0 0 0 0 0 0 127 0" result="hardAlpha"/>
<feOffset/>
<feGaussianBlur stdDeviation="5"/>
<feComposite in2="hardAlpha" operator="arithmetic" k2="-1" k3="1"/>
<feColorMatrix type="matrix" values="0 0 0 0 0 0 0 0 0 0 0 0 0 0 0 0 0 0 0.6 0"/>
<feBlend mode="normal" in2="shape" result="effect1_innerShadow_3570_19540"/>
</filter>
<clipPath id="clip0_3570_19540">
<rect y="0.333984" width="60" height="60" rx="30" fill="white"/>
</clipPath>
</defs>
</svg>
