<svg width="61" height="61" viewBox="0 0 61 61" fill="none" xmlns="http://www.w3.org/2000/svg">
<g filter="url(#filter0_i_3570_20242)">
<g clip-path="url(#clip0_3570_20242)">
<rect x="0.400391" y="0.333984" width="60" height="60" rx="30" fill="#82857D"/>
<path fill-rule="evenodd" clip-rule="evenodd" d="M17.664 -3.32725C36.2517 -10.3609 57.0283 -0.994651 64.0615 17.5944C71.0947 36.1834 61.7291 56.9615 43.1414 63.9952C24.5537 71.0289 3.77705 61.6626 -3.25613 43.0736C-10.2893 24.4845 -0.923692 3.70644 17.664 -3.32725Z" fill="#5B3267"/>
<path fill-rule="evenodd" clip-rule="evenodd" d="M17.6648 -3.32781C35.9116 -10.2359 56.2755 -1.31818 63.6496 16.589C68.9245 34.4783 59.5768 53.6953 41.8503 60.3881C23.6035 67.2962 3.23956 58.3785 -4.13452 40.4713C-9.40941 22.582 -0.0617142 3.36497 17.6648 -3.32781Z" fill="#875796"/>
<path fill-rule="evenodd" clip-rule="evenodd" d="M21.938 6.62511C35.4841 1.49338 50.627 8.3297 55.7404 21.8767C60.8717 35.4238 54.0359 50.5677 40.4898 55.6815C26.9438 60.8132 11.8009 53.9769 6.68748 40.4299C1.55613 26.8829 8.39196 11.7389 21.938 6.62511Z" fill="#FDFFF8"/>
<path fill-rule="evenodd" clip-rule="evenodd" d="M31.2136 7.0332C40.956 7.0332 50.1242 12.9724 53.7844 22.6257C58.5031 35.0962 52.2234 49.02 39.7539 53.7211C36.937 54.7798 34.0484 55.2822 31.2136 55.2822V53.0034C33.7792 53.0034 36.3987 52.5548 38.9465 51.5859C50.2319 47.3155 55.9194 34.7015 51.6493 23.4332C48.348 14.6949 40.0409 9.31198 31.2136 9.31198V7.0332ZM22.6733 8.59425C25.4901 7.53561 28.3788 7.0332 31.2136 7.0332V9.31198C28.6479 9.31198 26.0284 9.76056 23.4807 10.7295C12.1953 14.9999 6.5077 27.6139 10.7779 38.8822C14.0791 47.6205 22.3862 53.0034 31.2136 53.0034V55.2822C21.4712 55.2822 12.3029 49.343 8.64278 39.6896C3.92408 27.2192 10.2037 13.2953 22.6733 8.59425Z" fill="#875796"/>
<path d="M21.9343 42.6599C20.9076 42.6599 19.9183 42.5665 18.9663 42.3799C18.033 42.1745 17.193 41.8479 16.4463 41.3999C15.7183 40.9332 15.1396 40.3079 14.7103 39.5239C14.281 38.7399 14.0663 37.7599 14.0663 36.5839C14.0663 35.3892 14.3183 34.4279 14.8223 33.6999C15.3263 32.9719 15.989 32.4119 16.8103 32.0199C16.2876 31.5719 15.8396 31.0025 15.4663 30.3119C15.093 29.6212 14.9063 28.7812 14.9063 27.7919C14.9063 26.1865 15.4756 24.8705 16.6143 23.8439C17.753 22.7985 19.5076 22.2759 21.8783 22.2759C24.2676 22.2759 26.013 22.7519 27.1143 23.7039C28.2156 24.6559 28.7663 26.0185 28.7663 27.7919C28.7663 28.6879 28.5796 29.4999 28.2063 30.2279C27.833 30.9559 27.3756 31.5345 26.8343 31.9639C27.6183 32.3559 28.2716 32.9345 28.7943 33.6999C29.3356 34.4652 29.6063 35.4265 29.6063 36.5839C29.6063 38.1519 29.2516 39.3745 28.5423 40.2519C27.833 41.1292 26.8996 41.7545 25.7423 42.1279C24.585 42.4825 23.3156 42.6599 21.9343 42.6599ZM21.9343 30.7319C22.849 30.7319 23.5303 30.5452 23.9783 30.1719C24.4263 29.7985 24.6503 29.2945 24.6503 28.6599C24.6503 27.8945 24.4356 27.2972 24.0063 26.8679C23.5956 26.4199 22.905 26.1959 21.9343 26.1959C21.0943 26.1959 20.4036 26.3825 19.8623 26.7559C19.3396 27.1292 19.0783 27.6705 19.0783 28.3799C19.0783 28.9585 19.2183 29.4252 19.4983 29.7799C19.797 30.1159 20.161 30.3585 20.5903 30.5079C21.0383 30.6572 21.4863 30.7319 21.9343 30.7319ZM21.9343 38.7399C22.9423 38.7399 23.7823 38.5719 24.4543 38.2359C25.145 37.8999 25.4903 37.3865 25.4903 36.6959C25.4903 35.7252 25.005 34.9505 24.0343 34.3719C23.0823 33.7745 21.645 33.4665 19.7223 33.4479C19.349 33.7279 19.0316 34.0919 18.7703 34.5399C18.5276 34.9692 18.4063 35.4265 18.4063 35.9119C18.4063 36.9385 18.7423 37.6665 19.4143 38.0959C20.0863 38.5252 20.9263 38.7399 21.9343 38.7399ZM40.2957 42.6599C38.7464 42.6599 37.3277 42.3145 36.0397 41.6239C34.7517 40.9145 33.7251 39.8505 32.9597 38.4319C32.2131 37.0132 31.8397 35.2212 31.8397 33.0559C31.8397 31.1705 32.1011 29.5465 32.6237 28.1839C33.1651 26.8212 33.8744 25.7105 34.7517 24.8519C35.6477 23.9745 36.6371 23.3305 37.7197 22.9199C38.8211 22.4905 39.9317 22.2759 41.0517 22.2759C42.0037 22.2759 42.7411 22.3505 43.2637 22.4999C43.8051 22.6492 44.2811 22.8172 44.6917 23.0039L47.2397 25.2999L45.2797 28.4919L41.0517 26.1679C40.2304 26.1679 39.4557 26.3732 38.7277 26.7839C37.9997 27.1945 37.4024 27.7825 36.9357 28.5479C36.4691 29.3132 36.2077 30.2465 36.1517 31.3479L40.5757 30.2279C41.8824 30.2279 43.0677 30.4425 44.1317 30.8719C45.2144 31.2825 46.0824 31.9359 46.7357 32.8319C47.3891 33.7092 47.7157 34.8665 47.7157 36.3039C47.7157 38.2265 47.0624 39.7665 45.7557 40.9239C44.4677 42.0812 42.6477 42.6599 40.2957 42.6599ZM40.5477 38.7119C41.4811 38.7119 42.2091 38.4879 42.7317 38.0399C43.2731 37.5919 43.5437 36.9572 43.5437 36.1359C43.5437 35.3519 43.2451 34.7545 42.6477 34.3439C42.0504 33.9145 41.2757 33.6999 40.3237 33.6999C39.5211 33.6999 38.7651 33.8119 38.0557 34.0359C37.3464 34.2599 36.8331 34.4932 36.5157 34.7359C36.5531 35.3332 36.7117 35.9399 36.9917 36.5559C37.2904 37.1719 37.7291 37.6852 38.3077 38.0959C38.8864 38.5065 39.6331 38.7119 40.5477 38.7119Z" fill="#875796"/>
<path opacity="0.5" fill-rule="evenodd" clip-rule="evenodd" d="M11.042 0.550735C19.7161 -3.71 28.5894 -3.40347 30.8729 1.24042C33.1564 5.88432 27.9611 13.0877 19.287 17.3485C10.6129 21.6092 1.73952 21.3027 -0.543944 16.6588C-2.82741 12.0149 2.36786 4.81147 11.042 0.550735Z" fill="#FDFFF8"/>
</g>
</g>
<defs>
<filter id="filter0_i_3570_20242" x="0.400391" y="0.333984" width="60" height="60" filterUnits="userSpaceOnUse" color-interpolation-filters="sRGB">
<feFlood flood-opacity="0" result="BackgroundImageFix"/>
<feBlend mode="normal" in="SourceGraphic" in2="BackgroundImageFix" result="shape"/>
<feColorMatrix in="SourceAlpha" type="matrix" values="0 0 0 0 0 0 0 0 0 0 0 0 0 0 0 0 0 0 127 0" result="hardAlpha"/>
<feOffset/>
<feGaussianBlur stdDeviation="5"/>
<feComposite in2="hardAlpha" operator="arithmetic" k2="-1" k3="1"/>
<feColorMatrix type="matrix" values="0 0 0 0 0 0 0 0 0 0 0 0 0 0 0 0 0 0 0.6 0"/>
<feBlend mode="normal" in2="shape" result="effect1_innerShadow_3570_20242"/>
</filter>
<clipPath id="clip0_3570_20242">
<rect x="0.400391" y="0.333984" width="60" height="60" rx="30" fill="white"/>
</clipPath>
</defs>
</svg>
