<svg width="61" height="61" viewBox="0 0 61 61" fill="none" xmlns="http://www.w3.org/2000/svg">
<g filter="url(#filter0_i_3570_19456)">
<g clip-path="url(#clip0_3570_19456)">
<rect x="0.400391" y="0.333984" width="60" height="60" rx="30" fill="#82857D"/>
<path fill-rule="evenodd" clip-rule="evenodd" d="M17.664 -3.32725C36.2517 -10.3609 57.0283 -0.994651 64.0615 17.5944C71.0947 36.1834 61.7291 56.9615 43.1414 63.9952C24.5537 71.0289 3.77705 61.6626 -3.25613 43.0736C-10.2893 24.4845 -0.923692 3.70644 17.664 -3.32725Z" fill="#133D63"/>
<path fill-rule="evenodd" clip-rule="evenodd" d="M17.6648 -3.32781C35.9116 -10.2359 56.2755 -1.31818 63.6496 16.589C68.9245 34.4783 59.5768 53.6953 41.8503 60.3881C23.6035 67.2962 3.23956 58.3785 -4.13452 40.4713C-9.40941 22.582 -0.0617142 3.36497 17.6648 -3.32781Z" fill="#5884AD"/>
<path fill-rule="evenodd" clip-rule="evenodd" d="M21.938 6.61925C35.4841 1.48752 50.627 8.32384 55.7404 21.8709C60.8717 35.4179 54.0359 50.5619 40.4898 55.6757C26.9438 60.8074 11.8009 53.9711 6.68748 40.424C1.55613 26.877 8.39196 11.733 21.938 6.61925Z" fill="#FDFFF8"/>
<path fill-rule="evenodd" clip-rule="evenodd" d="M31.2136 7.02734C40.956 7.02734 50.1242 12.9665 53.7844 22.6199C58.5031 35.0903 52.2234 49.0142 39.7539 53.7153C36.937 54.7739 34.0484 55.2763 31.2136 55.2763V52.9975C33.7792 52.9975 36.3987 52.549 38.9465 51.58C50.2319 47.3096 55.9194 34.6956 51.6493 23.4273C48.348 14.689 40.0409 9.30612 31.2136 9.30612V7.02734ZM22.6733 8.58839C25.4901 7.52975 28.3788 7.02734 31.2136 7.02734V9.30612C28.6479 9.30612 26.0284 9.7547 23.4807 10.7236C12.1953 14.9941 6.5077 27.6081 10.7779 38.8763C14.0791 47.6146 22.3862 52.9975 31.2136 52.9975V55.2763C21.4712 55.2763 12.3029 49.3372 8.64278 39.6838C3.92408 27.2133 10.2037 13.2895 22.6733 8.58839Z" fill="#5884AD"/>
<path d="M18.5884 42.3799V39.3279C18.5884 39.3279 18.8031 39.1879 19.2324 38.9079C19.6617 38.6092 20.2124 38.2265 20.8844 37.7599C21.5564 37.2932 22.2471 36.7799 22.9564 36.2199C23.6844 35.6599 24.3284 35.1092 24.8884 34.5679C26.1017 33.4292 27.0071 32.4119 27.6044 31.5159C28.2017 30.6199 28.5004 29.6305 28.5004 28.5479C28.5004 27.8199 28.2671 27.2505 27.8004 26.8399C27.3524 26.4105 26.6057 26.1959 25.5604 26.1959C24.7764 26.1959 23.9831 26.2799 23.1804 26.4479C22.3777 26.6159 21.6311 26.8305 20.9404 27.0919C20.2497 27.3345 19.6617 27.5865 19.1764 27.8479V23.9279C19.3631 23.8345 19.7364 23.6665 20.2964 23.4239C20.8751 23.1625 21.6311 22.9199 22.5644 22.6959C23.4977 22.4719 24.5991 22.3599 25.8684 22.3599C28.2391 22.3599 29.9937 22.8732 31.1324 23.8999C32.2897 24.9079 32.8684 26.3452 32.8684 28.2119C32.8684 29.3692 32.6257 30.4425 32.1404 31.4319C31.6737 32.4212 31.0484 33.3265 30.2644 34.1479C29.4991 34.9692 28.6684 35.7159 27.7724 36.3879C26.8951 37.0599 26.0457 37.6572 25.2244 38.1799L25.3644 38.7399L32.8684 38.1799V42.3799H18.5884ZM38.1873 42.3799V27.2879H34.8273V24.2359L42.2193 22.5559L42.4993 24.2359L42.2193 27.0359V42.3799H38.1873Z" fill="#5884AD"/>
<path opacity="0.5" fill-rule="evenodd" clip-rule="evenodd" d="M13.8844 1.61063C24.0394 -3.37755 34.4278 -3.01868 37.1011 2.41807C39.7744 7.85483 33.6921 16.2881 23.5371 21.2763C13.382 26.2644 2.99371 25.9056 0.320385 20.4688C-2.35294 15.0321 3.72932 6.59881 13.8844 1.61063Z" fill="#FDFFF8"/>
</g>
</g>
<defs>
<filter id="filter0_i_3570_19456" x="0.400391" y="0.333984" width="60" height="60" filterUnits="userSpaceOnUse" color-interpolation-filters="sRGB">
<feFlood flood-opacity="0" result="BackgroundImageFix"/>
<feBlend mode="normal" in="SourceGraphic" in2="BackgroundImageFix" result="shape"/>
<feColorMatrix in="SourceAlpha" type="matrix" values="0 0 0 0 0 0 0 0 0 0 0 0 0 0 0 0 0 0 127 0" result="hardAlpha"/>
<feOffset/>
<feGaussianBlur stdDeviation="5"/>
<feComposite in2="hardAlpha" operator="arithmetic" k2="-1" k3="1"/>
<feColorMatrix type="matrix" values="0 0 0 0 0 0 0 0 0 0 0 0 0 0 0 0 0 0 0.6 0"/>
<feBlend mode="normal" in2="shape" result="effect1_innerShadow_3570_19456"/>
</filter>
<clipPath id="clip0_3570_19456">
<rect x="0.400391" y="0.333984" width="60" height="60" rx="30" fill="white"/>
</clipPath>
</defs>
</svg>
