<svg width="61" height="61" viewBox="0 0 61 61" fill="none" xmlns="http://www.w3.org/2000/svg">
<g filter="url(#filter0_i_3570_19819)">
<g clip-path="url(#clip0_3570_19819)">
<rect x="0.400391" y="0.333984" width="60" height="60" rx="30" fill="#82857D"/>
<path fill-rule="evenodd" clip-rule="evenodd" d="M17.664 -3.32725C36.2517 -10.3609 57.0283 -0.994651 64.0615 17.5944C71.0947 36.1834 61.7291 56.9615 43.1414 63.9952C24.5537 71.0289 3.77705 61.6626 -3.25613 43.0736C-10.2893 24.4845 -0.923692 3.70644 17.664 -3.32725Z" fill="#5B3267"/>
<path fill-rule="evenodd" clip-rule="evenodd" d="M17.6648 -3.32781C35.9116 -10.2359 56.2755 -1.31818 63.6496 16.589C68.9245 34.4783 59.5768 53.6953 41.8503 60.3881C23.6035 67.2962 3.23956 58.3785 -4.13452 40.4713C-9.40941 22.582 -0.0617142 3.36497 17.6648 -3.32781Z" fill="#875796"/>
<path fill-rule="evenodd" clip-rule="evenodd" d="M21.938 6.62511C35.4841 1.49338 50.627 8.3297 55.7404 21.8767C60.8717 35.4238 54.0359 50.5677 40.4898 55.6815C26.9438 60.8132 11.8009 53.9769 6.68748 40.4299C1.55613 26.8829 8.39196 11.7389 21.938 6.62511Z" fill="#FDFFF8"/>
<path fill-rule="evenodd" clip-rule="evenodd" d="M31.2136 7.0332C40.956 7.0332 50.1242 12.9724 53.7844 22.6257C58.5031 35.0962 52.2234 49.02 39.7539 53.7211C36.937 54.7798 34.0484 55.2822 31.2136 55.2822V53.0034C33.7792 53.0034 36.3987 52.5548 38.9465 51.5859C50.2319 47.3155 55.9194 34.7015 51.6493 23.4332C48.348 14.6949 40.0409 9.31198 31.2136 9.31198V7.0332ZM22.6733 8.59425C25.4901 7.53561 28.3788 7.0332 31.2136 7.0332V9.31198C28.6479 9.31198 26.0284 9.76056 23.4807 10.7295C12.1953 14.9999 6.5077 27.6139 10.7779 38.8822C14.0791 47.6205 22.3862 53.0034 31.2136 53.0034V55.2822C21.4712 55.2822 12.3029 49.343 8.64278 39.6896C3.92408 27.2192 10.2037 13.2953 22.6733 8.59425Z" fill="#875796"/>
<path d="M25.3573 42.6599C24.648 42.6599 24.032 42.6412 23.5093 42.6039C23.0053 42.5665 22.492 42.5105 21.9693 42.4359L18.4413 41.1479L19.5613 37.2559L24.5173 38.7959C25.8053 38.7959 26.7853 38.5625 27.4573 38.0959C28.148 37.6105 28.4933 36.9199 28.4933 36.0239C28.4933 35.1839 28.26 34.5119 27.7933 34.0079C27.3266 33.5039 26.4306 33.2519 25.1053 33.2519H19.2813V22.5559H31.7413V26.4479L24.7413 26.1679H23.5653V29.9759H25.4413C28.036 29.9759 29.9213 30.4705 31.0973 31.4599C32.2733 32.4492 32.8613 33.9145 32.8613 35.8559C32.8613 37.1812 32.5626 38.3572 31.9653 39.3839C31.3866 40.4105 30.5373 41.2132 29.4173 41.7919C28.2973 42.3705 26.944 42.6599 25.3573 42.6599ZM38.4744 42.3799V27.2879H35.1144V24.2359L42.5064 22.5559L42.7864 24.2359L42.5064 27.0359V42.3799H38.4744Z" fill="#875796"/>
<path opacity="0.5" fill-rule="evenodd" clip-rule="evenodd" d="M11.042 0.550735C19.7161 -3.71 28.5894 -3.40347 30.8729 1.24042C33.1564 5.88432 27.9611 13.0877 19.287 17.3485C10.6129 21.6092 1.73952 21.3027 -0.543944 16.6588C-2.82741 12.0149 2.36786 4.81147 11.042 0.550735Z" fill="#FDFFF8"/>
</g>
</g>
<defs>
<filter id="filter0_i_3570_19819" x="0.400391" y="0.333984" width="60" height="60" filterUnits="userSpaceOnUse" color-interpolation-filters="sRGB">
<feFlood flood-opacity="0" result="BackgroundImageFix"/>
<feBlend mode="normal" in="SourceGraphic" in2="BackgroundImageFix" result="shape"/>
<feColorMatrix in="SourceAlpha" type="matrix" values="0 0 0 0 0 0 0 0 0 0 0 0 0 0 0 0 0 0 127 0" result="hardAlpha"/>
<feOffset/>
<feGaussianBlur stdDeviation="5"/>
<feComposite in2="hardAlpha" operator="arithmetic" k2="-1" k3="1"/>
<feColorMatrix type="matrix" values="0 0 0 0 0 0 0 0 0 0 0 0 0 0 0 0 0 0 0.6 0"/>
<feBlend mode="normal" in2="shape" result="effect1_innerShadow_3570_19819"/>
</filter>
<clipPath id="clip0_3570_19819">
<rect x="0.400391" y="0.333984" width="60" height="60" rx="30" fill="white"/>
</clipPath>
</defs>
</svg>
