<svg width="61" height="60" viewBox="0 0 61 60" fill="none" xmlns="http://www.w3.org/2000/svg">
<g filter="url(#filter0_i_3570_20061)">
<g clip-path="url(#clip0_3570_20061)">
<rect x="0.400391" width="60" height="60" rx="30" fill="#82857D"/>
<path fill-rule="evenodd" clip-rule="evenodd" d="M17.664 -3.66124C36.2517 -10.6949 57.0283 -1.32864 64.0615 17.2604C71.0947 35.8494 61.7291 56.6275 43.1414 63.6612C24.5537 70.6949 3.77705 61.3286 -3.25613 42.7396C-10.2893 24.1506 -0.923692 3.37245 17.664 -3.66124Z" fill="#782326"/>
<path fill-rule="evenodd" clip-rule="evenodd" d="M17.6648 -3.66179C35.9116 -10.5699 56.2755 -1.65217 63.6496 16.255C68.9245 34.1443 59.5768 53.3614 41.8503 60.0541C23.6035 66.9622 3.23956 58.0445 -4.13452 40.1373C-9.40941 22.248 -0.0617142 3.03098 17.6648 -3.66179Z" fill="#B65155"/>
<path fill-rule="evenodd" clip-rule="evenodd" d="M21.938 6.28526C35.4841 1.15354 50.627 7.98986 55.7404 21.5369C60.8717 35.0839 54.0359 50.2279 40.4898 55.3417C26.9438 60.4734 11.8009 53.6371 6.68748 40.09C1.55613 26.543 8.39196 11.399 21.938 6.28526Z" fill="#FDFFF8"/>
<path fill-rule="evenodd" clip-rule="evenodd" d="M31.2136 6.69336C40.956 6.69336 50.1242 12.6325 53.7844 22.2859C58.5031 34.7564 52.2234 48.6802 39.7539 53.3813C36.937 54.4399 34.0484 54.9423 31.2136 54.9423V52.6636C33.7792 52.6636 36.3987 52.215 38.9465 51.2461C50.2319 46.9756 55.9194 34.3616 51.6493 23.0933C48.348 14.3551 40.0409 8.97213 31.2136 8.97213V6.69336ZM22.6733 8.25441C25.4901 7.19577 28.3788 6.69336 31.2136 6.69336V8.97213C28.6479 8.97213 26.0284 9.42071 23.4807 10.3896C12.1953 14.6601 6.5077 27.2741 10.7779 38.5424C14.0791 47.2806 22.3862 52.6636 31.2136 52.6636V54.9423C21.4712 54.9423 12.3029 49.0032 8.64278 39.3498C3.92408 26.8793 10.2037 12.9555 22.6733 8.25441Z" fill="#B65155"/>
<path d="M21.8226 42.0459L27.0586 28.7739L28.5426 25.8339H27.7026L19.0226 26.3939V22.2219H32.5746V25.0499L27.9546 37.5659L26.5546 42.0459H21.8226ZM37.6131 42.0459V26.9539H34.2531V23.9019L41.6451 22.2219L41.9251 23.9019L41.6451 26.7019V42.0459H37.6131Z" fill="#B65155"/>
<path opacity="0.5" fill-rule="evenodd" clip-rule="evenodd" d="M13.8844 1.27665C24.0394 -3.71153 34.4278 -3.35267 37.1011 2.08409C39.7744 7.52084 33.6921 15.9541 23.5371 20.9423C13.382 25.9305 2.99371 25.5716 0.320385 20.1348C-2.35294 14.6981 3.72932 6.26483 13.8844 1.27665Z" fill="#FDFFF8"/>
</g>
</g>
<defs>
<filter id="filter0_i_3570_20061" x="0.400391" y="0" width="60" height="60" filterUnits="userSpaceOnUse" color-interpolation-filters="sRGB">
<feFlood flood-opacity="0" result="BackgroundImageFix"/>
<feBlend mode="normal" in="SourceGraphic" in2="BackgroundImageFix" result="shape"/>
<feColorMatrix in="SourceAlpha" type="matrix" values="0 0 0 0 0 0 0 0 0 0 0 0 0 0 0 0 0 0 127 0" result="hardAlpha"/>
<feOffset/>
<feGaussianBlur stdDeviation="5"/>
<feComposite in2="hardAlpha" operator="arithmetic" k2="-1" k3="1"/>
<feColorMatrix type="matrix" values="0 0 0 0 0 0 0 0 0 0 0 0 0 0 0 0 0 0 0.6 0"/>
<feBlend mode="normal" in2="shape" result="effect1_innerShadow_3570_20061"/>
</filter>
<clipPath id="clip0_3570_20061">
<rect x="0.400391" width="60" height="60" rx="30" fill="white"/>
</clipPath>
</defs>
</svg>
