<svg width="61" height="60" viewBox="0 0 61 60" fill="none" xmlns="http://www.w3.org/2000/svg">
<g filter="url(#filter0_i_3570_19371)">
<g clip-path="url(#clip0_3570_19371)">
<rect x="0.800781" width="60" height="60" rx="30" fill="#82857D"/>
<path fill-rule="evenodd" clip-rule="evenodd" d="M18.0644 -3.66124C36.6521 -10.6949 57.4287 -1.32864 64.4619 17.2604C71.4951 35.8494 62.1295 56.6275 43.5418 63.6612C24.9541 70.6949 4.17744 61.3286 -2.85574 42.7396C-9.88893 24.1506 -0.523302 3.37245 18.0644 -3.66124Z" fill="#5B3267"/>
<path fill-rule="evenodd" clip-rule="evenodd" d="M18.0652 -3.66179C36.312 -10.5699 56.6759 -1.65217 64.05 16.255C69.3249 34.1443 59.9772 53.3614 42.2507 60.0541C24.0039 66.9622 3.63995 58.0445 -3.73413 40.1373C-9.00902 22.248 0.338676 3.03098 18.0652 -3.66179Z" fill="#875796"/>
<path fill-rule="evenodd" clip-rule="evenodd" d="M22.3384 6.29112C35.8845 1.1594 51.0273 7.99572 56.1408 21.5427C61.2721 35.0898 54.4363 50.2338 40.8902 55.3475C27.3442 60.4793 12.2013 53.6429 7.08788 40.0959C1.95652 26.5489 8.79235 11.4049 22.3384 6.29112Z" fill="#FDFFF8"/>
<path fill-rule="evenodd" clip-rule="evenodd" d="M31.614 6.69922C41.3564 6.69922 50.5246 12.6384 54.1848 22.2918C58.9035 34.7622 52.6238 48.6861 40.1543 53.3871C37.3374 54.4458 34.4488 54.9482 31.614 54.9482V52.6694C34.1796 52.6694 36.7991 52.2209 39.3469 51.2519C50.6323 46.9815 56.3198 34.3675 52.0497 23.0992C48.7484 14.3609 40.4413 8.97799 31.614 8.97799V6.69922ZM23.0736 8.26027C25.8905 7.20163 28.7792 6.69922 31.614 6.69922V8.97799C29.0483 8.97799 26.4288 9.42657 23.881 10.3955C12.5957 14.666 6.9081 27.2799 11.1782 38.5482C14.4795 47.2865 22.7866 52.6694 31.614 52.6694V54.9482C21.8716 54.9482 12.7033 49.009 9.04317 39.3557C4.32447 26.8852 10.6041 12.9614 23.0736 8.26027Z" fill="#875796"/>
<path d="M20.951 42.0459V26.9539H17.591V23.9019L24.983 22.2219L25.263 23.9019L24.983 26.7019V42.0459H20.951ZM37.8982 42.0459V39.2459H27.2302V36.3899L36.3302 22.2219H41.9302L42.4902 23.9299L41.9302 26.7299V35.5499H45.5702V38.9659L41.9302 39.2459V42.0459H37.8982ZM32.3542 35.5499H37.8982V27.2059H37.3942L32.3542 35.5499Z" fill="#875796"/>
<path opacity="0.5" fill-rule="evenodd" clip-rule="evenodd" d="M11.4424 0.216751C20.1165 -4.04399 28.9898 -3.73746 31.2733 0.90644C33.5568 5.55034 28.3615 12.7537 19.6874 17.0145C11.0133 21.2752 2.13992 20.9687 -0.143553 16.3248C-2.42702 11.6809 2.76825 4.47749 11.4424 0.216751Z" fill="#FDFFF8"/>
</g>
</g>
<defs>
<filter id="filter0_i_3570_19371" x="0.800781" y="0" width="60" height="60" filterUnits="userSpaceOnUse" color-interpolation-filters="sRGB">
<feFlood flood-opacity="0" result="BackgroundImageFix"/>
<feBlend mode="normal" in="SourceGraphic" in2="BackgroundImageFix" result="shape"/>
<feColorMatrix in="SourceAlpha" type="matrix" values="0 0 0 0 0 0 0 0 0 0 0 0 0 0 0 0 0 0 127 0" result="hardAlpha"/>
<feOffset/>
<feGaussianBlur stdDeviation="5"/>
<feComposite in2="hardAlpha" operator="arithmetic" k2="-1" k3="1"/>
<feColorMatrix type="matrix" values="0 0 0 0 0 0 0 0 0 0 0 0 0 0 0 0 0 0 0.6 0"/>
<feBlend mode="normal" in2="shape" result="effect1_innerShadow_3570_19371"/>
</filter>
<clipPath id="clip0_3570_19371">
<rect x="0.800781" width="60" height="60" rx="30" fill="white"/>
</clipPath>
</defs>
</svg>
