<svg width="61" height="61" viewBox="0 0 61 61" fill="none" xmlns="http://www.w3.org/2000/svg">
<g filter="url(#filter0_i_3570_20182)">
<g clip-path="url(#clip0_3570_20182)">
<rect x="0.400391" y="0.333984" width="60" height="60" rx="30" fill="#82857D"/>
<path fill-rule="evenodd" clip-rule="evenodd" d="M17.664 -3.32725C36.2517 -10.3609 57.0283 -0.994651 64.0615 17.5944C71.0947 36.1834 61.7291 56.9615 43.1414 63.9952C24.5537 71.0289 3.77705 61.6626 -3.25613 43.0736C-10.2893 24.4845 -0.923692 3.70644 17.664 -3.32725Z" fill="#206446"/>
<path fill-rule="evenodd" clip-rule="evenodd" d="M17.6648 -3.32781C35.9116 -10.2359 56.2755 -1.31818 63.6496 16.589C68.9245 34.4783 59.5768 53.6953 41.8503 60.3881C23.6035 67.2962 3.23956 58.3785 -4.13452 40.4713C-9.40941 22.582 -0.0617142 3.36497 17.6648 -3.32781Z" fill="#8BC1A9"/>
<path fill-rule="evenodd" clip-rule="evenodd" d="M21.938 6.61925C35.4841 1.48752 50.627 8.32384 55.7404 21.8709C60.8717 35.4179 54.0359 50.5619 40.4898 55.6757C26.9438 60.8074 11.8009 53.9711 6.68748 40.424C1.55613 26.877 8.39196 11.733 21.938 6.61925Z" fill="#FDFFF8"/>
<path fill-rule="evenodd" clip-rule="evenodd" d="M31.2136 7.02734C40.956 7.02734 50.1242 12.9665 53.7844 22.6199C58.5031 35.0903 52.2234 49.0142 39.7539 53.7153C36.937 54.7739 34.0484 55.2763 31.2136 55.2763V52.9975C33.7792 52.9975 36.3987 52.549 38.9465 51.58C50.2319 47.3096 55.9194 34.6956 51.6493 23.4273C48.348 14.689 40.0409 9.30612 31.2136 9.30612V7.02734ZM22.6733 8.58839C25.4901 7.52975 28.3788 7.02734 31.2136 7.02734V9.30612C28.6479 9.30612 26.0284 9.7547 23.4807 10.7236C12.1953 14.9941 6.5077 27.6081 10.7779 38.8763C14.0791 47.6146 22.3862 52.9975 31.2136 52.9975V55.2763C21.4712 55.2763 12.3029 49.3372 8.64278 39.6838C3.92408 27.2133 10.2037 13.2895 22.6733 8.58839Z" fill="#8BC1A9"/>
<path opacity="0.5" fill-rule="evenodd" clip-rule="evenodd" d="M13.8844 1.61063C24.0394 -3.37755 34.4278 -3.01868 37.1011 2.41807C39.7744 7.85483 33.6921 16.2881 23.5371 21.2763C13.382 26.2644 2.99371 25.9056 0.320385 20.4688C-2.35294 15.0321 3.72932 6.59881 13.8844 1.61063Z" fill="#FDFFF8"/>
<path d="M25.8991 42.6599C24.8725 42.6599 23.8831 42.5665 22.9311 42.3799C21.9978 42.1745 21.1578 41.8479 20.4111 41.3999C19.6831 40.9332 19.1045 40.3079 18.6751 39.5239C18.2458 38.7399 18.0311 37.7599 18.0311 36.5839C18.0311 35.3892 18.2831 34.4279 18.7871 33.6999C19.2911 32.9719 19.9538 32.4119 20.7751 32.0199C20.2525 31.5719 19.8045 31.0025 19.4311 30.3119C19.0578 29.6212 18.8711 28.7812 18.8711 27.7919C18.8711 26.1865 19.4405 24.8705 20.5791 23.8439C21.7178 22.7985 23.4725 22.2759 25.8431 22.2759C28.2325 22.2759 29.9778 22.7519 31.0791 23.7039C32.1805 24.6559 32.7311 26.0185 32.7311 27.7919C32.7311 28.6879 32.5445 29.4999 32.1711 30.2279C31.7978 30.9559 31.3405 31.5345 30.7991 31.9639C31.5831 32.3559 32.2365 32.9345 32.7591 33.6999C33.3005 34.4652 33.5711 35.4265 33.5711 36.5839C33.5711 38.1519 33.2165 39.3745 32.5071 40.2519C31.7978 41.1292 30.8645 41.7545 29.7071 42.1279C28.5498 42.4825 27.2805 42.6599 25.8991 42.6599ZM25.8991 30.7319C26.8138 30.7319 27.4951 30.5452 27.9431 30.1719C28.3911 29.7985 28.6151 29.2945 28.6151 28.6599C28.6151 27.8945 28.4005 27.2972 27.9711 26.8679C27.5605 26.4199 26.8698 26.1959 25.8991 26.1959C25.0591 26.1959 24.3685 26.3825 23.8271 26.7559C23.3045 27.1292 23.0431 27.6705 23.0431 28.3799C23.0431 28.9585 23.1831 29.4252 23.4631 29.7799C23.7618 30.1159 24.1258 30.3585 24.5551 30.5079C25.0031 30.6572 25.4511 30.7319 25.8991 30.7319ZM25.8991 38.7399C26.9071 38.7399 27.7471 38.5719 28.4191 38.2359C29.1098 37.8999 29.4551 37.3865 29.4551 36.6959C29.4551 35.7252 28.9698 34.9505 27.9991 34.3719C27.0471 33.7745 25.6098 33.4665 23.6871 33.4479C23.3138 33.7279 22.9965 34.0919 22.7351 34.5399C22.4925 34.9692 22.3711 35.4265 22.3711 35.9119C22.3711 36.9385 22.7071 37.6665 23.3791 38.0959C24.0511 38.5252 24.8911 38.7399 25.8991 38.7399ZM38.8846 42.3799V27.2879H35.5246V24.2359L42.9166 22.5559L43.1966 24.2359L42.9166 27.0359V42.3799H38.8846Z" fill="#8BC1A9"/>
</g>
</g>
<defs>
<filter id="filter0_i_3570_20182" x="0.400391" y="0.333984" width="60" height="60" filterUnits="userSpaceOnUse" color-interpolation-filters="sRGB">
<feFlood flood-opacity="0" result="BackgroundImageFix"/>
<feBlend mode="normal" in="SourceGraphic" in2="BackgroundImageFix" result="shape"/>
<feColorMatrix in="SourceAlpha" type="matrix" values="0 0 0 0 0 0 0 0 0 0 0 0 0 0 0 0 0 0 127 0" result="hardAlpha"/>
<feOffset/>
<feGaussianBlur stdDeviation="5"/>
<feComposite in2="hardAlpha" operator="arithmetic" k2="-1" k3="1"/>
<feColorMatrix type="matrix" values="0 0 0 0 0 0 0 0 0 0 0 0 0 0 0 0 0 0 0.6 0"/>
<feBlend mode="normal" in2="shape" result="effect1_innerShadow_3570_20182"/>
</filter>
<clipPath id="clip0_3570_20182">
<rect x="0.400391" y="0.333984" width="60" height="60" rx="30" fill="white"/>
</clipPath>
</defs>
</svg>
