<svg width="61" height="61" viewBox="0 0 61 61" fill="none" xmlns="http://www.w3.org/2000/svg">
<g filter="url(#filter0_i_3570_20290)">
<g clip-path="url(#clip0_3570_20290)">
<rect x="0.600586" y="0.333984" width="60" height="60" rx="30" fill="#82857D"/>
<path fill-rule="evenodd" clip-rule="evenodd" d="M17.8642 -3.32725C36.4519 -10.3609 57.2285 -0.994651 64.2617 17.5944C71.2949 36.1834 61.9293 56.9615 43.3416 63.9952C24.7539 71.0289 3.97725 61.6626 -3.05594 43.0736C-10.0891 24.4845 -0.723497 3.70644 17.8642 -3.32725Z" fill="#206446"/>
<path fill-rule="evenodd" clip-rule="evenodd" d="M17.865 -3.32781C36.1118 -10.2359 56.4757 -1.31818 63.8498 16.589C69.1247 34.4783 59.777 53.6953 42.0505 60.3881C23.8037 67.2962 3.43976 58.3785 -3.93433 40.4713C-9.20922 22.582 0.138481 3.36497 17.865 -3.32781Z" fill="#8BC1A9"/>
<path fill-rule="evenodd" clip-rule="evenodd" d="M22.1382 6.61925C35.6843 1.48752 50.8272 8.32384 55.9406 21.8709C61.0719 35.4179 54.2361 50.5619 40.69 55.6757C27.144 60.8074 12.0011 53.9711 6.88768 40.424C1.75632 26.877 8.59215 11.733 22.1382 6.61925Z" fill="#FDFFF8"/>
<path fill-rule="evenodd" clip-rule="evenodd" d="M31.4138 7.02734C41.1562 7.02734 50.3244 12.9665 53.9846 22.6199C58.7033 35.0903 52.4236 49.0142 39.9541 53.7153C37.1372 54.7739 34.2486 55.2763 31.4138 55.2763V52.9975C33.9794 52.9975 36.5989 52.549 39.1467 51.58C50.4321 47.3096 56.1196 34.6956 51.8495 23.4273C48.5482 14.689 40.2411 9.30612 31.4138 9.30612V7.02734ZM22.8734 8.58839C25.6903 7.52975 28.579 7.02734 31.4138 7.02734V9.30612C28.8481 9.30612 26.2286 9.7547 23.6809 10.7236C12.3955 14.9941 6.7079 27.6081 10.978 38.8763C14.2793 47.6146 22.5864 52.9975 31.4138 52.9975V55.2763C21.6714 55.2763 12.5031 49.3372 8.84297 39.6838C4.12428 27.2133 10.4039 13.2895 22.8734 8.58839Z" fill="#8BC1A9"/>
<path opacity="0.5" fill-rule="evenodd" clip-rule="evenodd" d="M14.0846 1.61063C24.2396 -3.37755 34.628 -3.01868 37.3013 2.41807C39.9746 7.85483 33.8923 16.2881 23.7373 21.2763C13.5822 26.2644 3.19391 25.9056 0.520581 20.4688C-2.15275 15.0321 3.92952 6.59881 14.0846 1.61063Z" fill="#FDFFF8"/>
<path d="M21.2248 42.6599C20.4781 42.6599 19.8808 42.6225 19.4328 42.5479C18.9848 42.4919 18.5648 42.4265 18.1728 42.3519L14.7568 40.3079L16.4088 37.0039L20.9168 38.7679C21.6821 38.7679 22.4101 38.5999 23.1008 38.2639C23.8101 37.9092 24.3981 37.3772 24.8648 36.6679C25.3315 35.9399 25.6021 35.0252 25.6768 33.9239L21.0848 34.7639C19.7595 34.7639 18.5835 34.5772 17.5568 34.2039C16.5301 33.8305 15.7181 33.2052 15.1208 32.3279C14.5421 31.4319 14.2528 30.2092 14.2528 28.6599C14.2528 27.5959 14.5235 26.5785 15.0648 25.6079C15.6248 24.6185 16.4555 23.8159 17.5568 23.1999C18.6581 22.5839 20.0395 22.2759 21.7008 22.2759C23.3435 22.2759 24.7901 22.6119 26.0408 23.2839C27.3101 23.9559 28.3088 25.0385 29.0368 26.5319C29.7648 28.0065 30.1288 29.9852 30.1288 32.4679C30.1288 34.6332 29.7555 36.4812 29.0088 38.0119C28.2621 39.5239 27.2168 40.6812 25.8728 41.4839C24.5475 42.2679 22.9981 42.6599 21.2248 42.6599ZM21.0848 31.2639C21.9248 31.2639 22.7835 31.2359 23.6608 31.1799C24.5381 31.1239 25.2101 31.0585 25.6768 30.9839C25.5648 27.8292 24.2395 26.2519 21.7008 26.2519C20.5621 26.2519 19.7315 26.5319 19.2088 27.0919C18.6861 27.6519 18.4248 28.3239 18.4248 29.1079C18.4248 29.8545 18.6395 30.4052 19.0688 30.7599C19.4981 31.0959 20.1701 31.2639 21.0848 31.2639ZM40.1657 42.6599C38.5791 42.6599 37.1977 42.3332 36.0217 41.6799C34.8644 41.0265 33.9684 39.9625 33.3337 38.4879C32.6991 36.9945 32.3817 34.9879 32.3817 32.4679C32.3817 30.0599 32.6991 28.1092 33.3337 26.6159C33.9684 25.1225 34.8644 24.0305 36.0217 23.3399C37.1977 22.6305 38.5791 22.2759 40.1657 22.2759C41.7711 22.2759 43.1524 22.6305 44.3097 23.3399C45.4671 24.0492 46.3631 25.1505 46.9977 26.6439C47.6324 28.1372 47.9497 30.0785 47.9497 32.4679C47.9497 34.9505 47.6324 36.9385 46.9977 38.4319C46.3631 39.9252 45.4671 41.0079 44.3097 41.6799C43.1524 42.3332 41.7711 42.6599 40.1657 42.6599ZM40.1657 38.6279C41.4537 38.6279 42.3777 38.1705 42.9377 37.2559C43.4977 36.3225 43.7777 34.7265 43.7777 32.4679C43.7777 30.3399 43.4977 28.7812 42.9377 27.7919C42.3777 26.8025 41.4537 26.3079 40.1657 26.3079C38.9151 26.3079 38.0004 26.8119 37.4217 27.8199C36.8431 28.8092 36.5537 30.3585 36.5537 32.4679C36.5537 34.7079 36.8431 36.2945 37.4217 37.2279C38.0004 38.1612 38.9151 38.6279 40.1657 38.6279Z" fill="#8BC1A9"/>
</g>
</g>
<defs>
<filter id="filter0_i_3570_20290" x="0.600586" y="0.333984" width="60" height="60" filterUnits="userSpaceOnUse" color-interpolation-filters="sRGB">
<feFlood flood-opacity="0" result="BackgroundImageFix"/>
<feBlend mode="normal" in="SourceGraphic" in2="BackgroundImageFix" result="shape"/>
<feColorMatrix in="SourceAlpha" type="matrix" values="0 0 0 0 0 0 0 0 0 0 0 0 0 0 0 0 0 0 127 0" result="hardAlpha"/>
<feOffset/>
<feGaussianBlur stdDeviation="5"/>
<feComposite in2="hardAlpha" operator="arithmetic" k2="-1" k3="1"/>
<feColorMatrix type="matrix" values="0 0 0 0 0 0 0 0 0 0 0 0 0 0 0 0 0 0 0.6 0"/>
<feBlend mode="normal" in2="shape" result="effect1_innerShadow_3570_20290"/>
</filter>
<clipPath id="clip0_3570_20290">
<rect x="0.600586" y="0.333984" width="60" height="60" rx="30" fill="white"/>
</clipPath>
</defs>
</svg>
