<svg width="60" height="61" viewBox="0 0 60 61" fill="none" xmlns="http://www.w3.org/2000/svg">
<g filter="url(#filter0_i_3570_19661)">
<g clip-path="url(#clip0_3570_19661)">
<rect y="0.666992" width="60" height="60" rx="30" fill="#82857D"/>
<path fill-rule="evenodd" clip-rule="evenodd" d="M17.2636 -2.99425C35.8513 -10.0279 56.6279 -0.661643 63.6611 17.9274C70.6943 36.5164 61.3287 57.2945 42.741 64.3282C24.1533 71.3619 3.37666 61.9956 -3.65652 43.4066C-10.6897 24.8175 -1.32408 4.03945 17.2636 -2.99425Z" fill="#133D63"/>
<path fill-rule="evenodd" clip-rule="evenodd" d="M17.2644 -2.9948C35.5112 -9.90289 55.8751 -0.985174 63.2492 16.922C68.5241 34.8113 59.1765 54.0284 41.4499 60.7211C23.2031 67.6292 2.83917 58.7115 -4.53491 40.8043C-9.8098 22.915 -0.462105 3.69798 17.2644 -2.9948Z" fill="#5884AD"/>
<path fill-rule="evenodd" clip-rule="evenodd" d="M21.5376 6.95226C35.0837 1.82053 50.2266 8.65685 55.34 22.2039C60.4713 35.7509 53.6355 50.8949 40.0894 56.0087C26.5434 61.1404 11.4005 54.3041 6.28709 40.757C1.15574 27.21 7.99157 12.066 21.5376 6.95226Z" fill="#FDFFF8"/>
<path fill-rule="evenodd" clip-rule="evenodd" d="M30.8132 7.36035C40.5556 7.36035 49.7238 13.2995 53.384 22.9529C58.1027 35.4233 51.823 49.3472 39.3535 54.0483C36.5366 55.1069 33.648 55.6093 30.8132 55.6093V53.3306C33.3789 53.3306 35.9984 52.882 38.5461 51.9131C49.8315 47.6426 55.519 35.0286 51.2489 23.7603C47.9476 15.0221 39.6405 9.63913 30.8132 9.63913V7.36035ZM22.2729 8.9214C25.0897 7.86276 27.9784 7.36035 30.8132 7.36035V9.63913C28.2475 9.63913 25.628 10.0877 23.0803 11.0566C11.7949 15.3271 6.10731 27.9411 10.3775 39.2093C13.6788 47.9476 21.9858 53.3306 30.8132 53.3306V55.6093C21.0708 55.6093 11.9025 49.6702 8.24238 40.0168C3.52369 27.5463 9.80331 13.6225 22.2729 8.9214Z" fill="#5884AD"/>
<path d="M21.3495 42.9929C20.7522 42.9929 20.1828 42.9742 19.6415 42.9369C19.1188 42.8996 18.6242 42.8436 18.1575 42.7689L14.3495 41.4809L15.4695 37.5889L20.7895 39.1009C22.1148 39.1009 23.0482 38.8489 23.5895 38.3449C24.1495 37.8222 24.4295 37.1502 24.4295 36.3289C24.4295 35.7316 24.2522 35.2556 23.8975 34.9009C23.5615 34.5462 22.9922 34.3689 22.1895 34.3689H18.6335V30.7569H21.4895C23.2628 30.7569 24.1495 29.9729 24.1495 28.4049C24.1495 27.1542 23.2815 26.5289 21.5455 26.5289C20.4815 26.5289 19.5388 26.6316 18.7175 26.8369C17.8962 27.0236 17.1868 27.2476 16.5895 27.5089C16.0108 27.7516 15.5442 27.9569 15.1895 28.1249V24.2049C15.7308 23.8502 16.5148 23.5049 17.5415 23.1689C18.5682 22.8142 19.9122 22.6369 21.5735 22.6369C23.6828 22.6369 25.2788 23.1036 26.3615 24.0369C27.4628 24.9516 28.0135 26.2489 28.0135 27.9289C28.0135 28.8996 27.8548 29.7022 27.5375 30.3369C27.2388 30.9529 26.8562 31.4476 26.3895 31.8209C27.1922 32.3249 27.8082 32.9316 28.2375 33.6409C28.6668 34.3316 28.8815 35.2182 28.8815 36.3009C28.8815 37.7196 28.5642 38.9329 27.9295 39.9409C27.3135 40.9302 26.4362 41.6862 25.2975 42.2089C24.1775 42.7316 22.8615 42.9929 21.3495 42.9929ZM38.9792 42.9929C37.9525 42.9929 36.9632 42.8996 36.0112 42.7129C35.0779 42.5076 34.2379 42.1809 33.4912 41.7329C32.7632 41.2662 32.1845 40.6409 31.7552 39.8569C31.3259 39.0729 31.1112 38.0929 31.1112 36.9169C31.1112 35.7222 31.3632 34.7609 31.8672 34.0329C32.3712 33.3049 33.0339 32.7449 33.8552 32.3529C33.3325 31.9049 32.8845 31.3356 32.5112 30.6449C32.1379 29.9542 31.9512 29.1142 31.9512 28.1249C31.9512 26.5196 32.5205 25.2036 33.6592 24.1769C34.7979 23.1316 36.5525 22.6089 38.9232 22.6089C41.3125 22.6089 43.0579 23.0849 44.1592 24.0369C45.2605 24.9889 45.8112 26.3516 45.8112 28.1249C45.8112 29.0209 45.6245 29.8329 45.2512 30.5609C44.8779 31.2889 44.4205 31.8676 43.8792 32.2969C44.6632 32.6889 45.3165 33.2676 45.8392 34.0329C46.3805 34.7982 46.6512 35.7596 46.6512 36.9169C46.6512 38.4849 46.2965 39.7076 45.5872 40.5849C44.8779 41.4622 43.9445 42.0876 42.7872 42.4609C41.6299 42.8156 40.3605 42.9929 38.9792 42.9929ZM38.9792 31.0649C39.8939 31.0649 40.5752 30.8782 41.0232 30.5049C41.4712 30.1316 41.6952 29.6276 41.6952 28.9929C41.6952 28.2276 41.4805 27.6302 41.0512 27.2009C40.6405 26.7529 39.9499 26.5289 38.9792 26.5289C38.1392 26.5289 37.4485 26.7156 36.9072 27.0889C36.3845 27.4622 36.1232 28.0036 36.1232 28.7129C36.1232 29.2916 36.2632 29.7582 36.5432 30.1129C36.8419 30.4489 37.2059 30.6916 37.6352 30.8409C38.0832 30.9902 38.5312 31.0649 38.9792 31.0649ZM38.9792 39.0729C39.9872 39.0729 40.8272 38.9049 41.4992 38.5689C42.1899 38.2329 42.5352 37.7196 42.5352 37.0289C42.5352 36.0582 42.0499 35.2836 41.0792 34.7049C40.1272 34.1076 38.6899 33.7996 36.7672 33.7809C36.3939 34.0609 36.0765 34.4249 35.8152 34.8729C35.5725 35.3022 35.4512 35.7596 35.4512 36.2449C35.4512 37.2716 35.7872 37.9996 36.4592 38.4289C37.1312 38.8582 37.9712 39.0729 38.9792 39.0729Z" fill="#5884AD"/>
<path opacity="0.5" fill-rule="evenodd" clip-rule="evenodd" d="M13.484 1.94364C23.6391 -3.04454 34.0274 -2.68568 36.7007 2.75108C39.374 8.18784 33.2918 16.6211 23.1367 21.6093C12.9816 26.5974 2.59332 26.2386 -0.0800052 20.8018C-2.75333 15.3651 3.32893 6.93182 13.484 1.94364Z" fill="#FDFFF8"/>
</g>
</g>
<defs>
<filter id="filter0_i_3570_19661" x="0" y="0.666992" width="60" height="60" filterUnits="userSpaceOnUse" color-interpolation-filters="sRGB">
<feFlood flood-opacity="0" result="BackgroundImageFix"/>
<feBlend mode="normal" in="SourceGraphic" in2="BackgroundImageFix" result="shape"/>
<feColorMatrix in="SourceAlpha" type="matrix" values="0 0 0 0 0 0 0 0 0 0 0 0 0 0 0 0 0 0 127 0" result="hardAlpha"/>
<feOffset/>
<feGaussianBlur stdDeviation="5"/>
<feComposite in2="hardAlpha" operator="arithmetic" k2="-1" k3="1"/>
<feColorMatrix type="matrix" values="0 0 0 0 0 0 0 0 0 0 0 0 0 0 0 0 0 0 0.6 0"/>
<feBlend mode="normal" in2="shape" result="effect1_innerShadow_3570_19661"/>
</filter>
<clipPath id="clip0_3570_19661">
<rect y="0.666992" width="60" height="60" rx="30" fill="white"/>
</clipPath>
</defs>
</svg>
