<svg width="60" height="60" viewBox="0 0 60 60" fill="none" xmlns="http://www.w3.org/2000/svg">
<g filter="url(#filter0_i_3570_19722)">
<g clip-path="url(#clip0_3570_19722)">
<rect width="60" height="60" rx="30" fill="#82857D"/>
<path fill-rule="evenodd" clip-rule="evenodd" d="M17.2636 -3.66124C35.8513 -10.6949 56.6279 -1.32864 63.6611 17.2604C70.6943 35.8494 61.3287 56.6275 42.741 63.6612C24.1533 70.6949 3.37666 61.3286 -3.65652 42.7396C-10.6897 24.1506 -1.32408 3.37245 17.2636 -3.66124Z" fill="#206446"/>
<path fill-rule="evenodd" clip-rule="evenodd" d="M17.2644 -3.66179C35.5112 -10.5699 55.8751 -1.65217 63.2492 16.255C68.5241 34.1443 59.1765 53.3614 41.4499 60.0541C23.2031 66.9622 2.83917 58.0445 -4.53491 40.1373C-9.8098 22.248 -0.462105 3.03098 17.2644 -3.66179Z" fill="#8BC1A9"/>
<path fill-rule="evenodd" clip-rule="evenodd" d="M21.5376 6.28526C35.0837 1.15354 50.2266 7.98986 55.34 21.5369C60.4713 35.0839 53.6355 50.2279 40.0894 55.3417C26.5434 60.4734 11.4005 53.6371 6.28709 40.09C1.15574 26.543 7.99157 11.399 21.5376 6.28526Z" fill="#FDFFF8"/>
<path fill-rule="evenodd" clip-rule="evenodd" d="M30.8132 6.69336C40.5556 6.69336 49.7238 12.6325 53.384 22.2859C58.1027 34.7564 51.823 48.6802 39.3535 53.3813C36.5366 54.4399 33.648 54.9423 30.8132 54.9423V52.6636C33.3789 52.6636 35.9984 52.215 38.5461 51.2461C49.8315 46.9756 55.519 34.3616 51.2489 23.0933C47.9476 14.3551 39.6405 8.97213 30.8132 8.97213V6.69336ZM22.2729 8.25441C25.0897 7.19577 27.9784 6.69336 30.8132 6.69336V8.97213C28.2475 8.97213 25.628 9.42071 23.0803 10.3896C11.7949 14.6601 6.10731 27.2741 10.3775 38.5424C13.6788 47.2806 21.9858 52.6636 30.8132 52.6636V54.9423C21.0708 54.9423 11.9025 49.0032 8.24238 39.3498C3.52369 26.8793 9.80331 12.9555 22.2729 8.25441Z" fill="#8BC1A9"/>
<path opacity="0.5" fill-rule="evenodd" clip-rule="evenodd" d="M13.484 1.27665C23.6391 -3.71153 34.0274 -3.35267 36.7007 2.08409C39.374 7.52084 33.2918 15.9541 23.1367 20.9423C12.9816 25.9305 2.59332 25.5716 -0.0800052 20.1348C-2.75333 14.6981 3.32893 6.26483 13.484 1.27665Z" fill="#FDFFF8"/>
<path d="M23.6169 42.0459V39.2459H12.9489V36.3899L22.0489 22.2219H27.6489L28.2089 23.9299L27.6489 26.7299V35.5499H31.2889V38.9659L27.6489 39.2459V42.0459H23.6169ZM18.0729 35.5499H23.6169V27.2059H23.1129L18.0729 35.5499ZM39.6835 42.3259C39.0861 42.3259 38.5168 42.3072 37.9755 42.2699C37.4528 42.2326 36.9581 42.1766 36.4915 42.1019L32.6835 40.8139L33.8035 36.9219L39.1235 38.4339C40.4488 38.4339 41.3821 38.1819 41.9235 37.6779C42.4835 37.1552 42.7635 36.4832 42.7635 35.6619C42.7635 35.0646 42.5861 34.5886 42.2315 34.2339C41.8955 33.8792 41.3261 33.7019 40.5235 33.7019H36.9675V30.0899H39.8235C41.5968 30.0899 42.4835 29.3059 42.4835 27.7379C42.4835 26.4872 41.6155 25.8619 39.8795 25.8619C38.8155 25.8619 37.8728 25.9646 37.0515 26.1699C36.2301 26.3566 35.5208 26.5806 34.9235 26.8419C34.3448 27.0846 33.8781 27.2899 33.5235 27.4579V23.5379C34.0648 23.1832 34.8488 22.8379 35.8755 22.5019C36.9021 22.1472 38.2461 21.9699 39.9075 21.9699C42.0168 21.9699 43.6128 22.4366 44.6955 23.3699C45.7968 24.2846 46.3475 25.5819 46.3475 27.2619C46.3475 28.2326 46.1888 29.0352 45.8715 29.6699C45.5728 30.2859 45.1901 30.7806 44.7235 31.1539C45.5261 31.6579 46.1421 32.2646 46.5715 32.9739C47.0008 33.6646 47.2155 34.5512 47.2155 35.6339C47.2155 37.0526 46.8981 38.2659 46.2635 39.2739C45.6475 40.2632 44.7701 41.0192 43.6315 41.5419C42.5115 42.0646 41.1955 42.3259 39.6835 42.3259Z" fill="#8BC1A9"/>
</g>
</g>
<defs>
<filter id="filter0_i_3570_19722" x="0" y="0" width="60" height="60" filterUnits="userSpaceOnUse" color-interpolation-filters="sRGB">
<feFlood flood-opacity="0" result="BackgroundImageFix"/>
<feBlend mode="normal" in="SourceGraphic" in2="BackgroundImageFix" result="shape"/>
<feColorMatrix in="SourceAlpha" type="matrix" values="0 0 0 0 0 0 0 0 0 0 0 0 0 0 0 0 0 0 127 0" result="hardAlpha"/>
<feOffset/>
<feGaussianBlur stdDeviation="5"/>
<feComposite in2="hardAlpha" operator="arithmetic" k2="-1" k3="1"/>
<feColorMatrix type="matrix" values="0 0 0 0 0 0 0 0 0 0 0 0 0 0 0 0 0 0 0.6 0"/>
<feBlend mode="normal" in2="shape" result="effect1_innerShadow_3570_19722"/>
</filter>
<clipPath id="clip0_3570_19722">
<rect width="60" height="60" rx="30" fill="white"/>
</clipPath>
</defs>
</svg>
