<svg width="61" height="61" viewBox="0 0 61 61" fill="none" xmlns="http://www.w3.org/2000/svg">
<g filter="url(#filter0_i_3570_19685)">
<g clip-path="url(#clip0_3570_19685)">
<rect x="0.600586" y="0.666992" width="60" height="60" rx="30" fill="#82857D"/>
<path fill-rule="evenodd" clip-rule="evenodd" d="M17.8642 -2.99425C36.4519 -10.0279 57.2285 -0.661643 64.2617 17.9274C71.2949 36.5164 61.9293 57.2945 43.3416 64.3282C24.7539 71.3619 3.97725 61.9956 -3.05594 43.4066C-10.0891 24.8175 -0.723497 4.03945 17.8642 -2.99425Z" fill="#782326"/>
<path fill-rule="evenodd" clip-rule="evenodd" d="M17.865 -2.9948C36.1118 -9.90289 56.4757 -0.985174 63.8498 16.922C69.1247 34.8113 59.777 54.0284 42.0505 60.7211C23.8037 67.6292 3.43976 58.7115 -3.93433 40.8043C-9.20922 22.915 0.138481 3.69798 17.865 -2.9948Z" fill="#B65155"/>
<path fill-rule="evenodd" clip-rule="evenodd" d="M22.1382 6.95226C35.6843 1.82053 50.8272 8.65685 55.9406 22.2039C61.0719 35.7509 54.2361 50.8949 40.69 56.0087C27.144 61.1404 12.0011 54.3041 6.88768 40.757C1.75632 27.21 8.59215 12.066 22.1382 6.95226Z" fill="#FDFFF8"/>
<path fill-rule="evenodd" clip-rule="evenodd" d="M31.4138 7.36035C41.1562 7.36035 50.3244 13.2995 53.9846 22.9529C58.7033 35.4233 52.4236 49.3472 39.9541 54.0483C37.1372 55.1069 34.2486 55.6093 31.4138 55.6093V53.3306C33.9794 53.3306 36.5989 52.882 39.1467 51.9131C50.4321 47.6426 56.1196 35.0286 51.8495 23.7603C48.5482 15.0221 40.2411 9.63913 31.4138 9.63913V7.36035ZM22.8734 8.9214C25.6903 7.86276 28.579 7.36035 31.4138 7.36035V9.63913C28.8481 9.63913 26.2286 10.0877 23.6809 11.0566C12.3955 15.3271 6.7079 27.9411 10.978 39.2093C14.2793 47.9476 22.5864 53.3306 31.4138 53.3306V55.6093C21.6714 55.6093 12.5031 49.6702 8.84297 40.0168C4.12428 27.5463 10.4039 13.6225 22.8734 8.9214Z" fill="#B65155"/>
<path d="M23.698 42.7129V39.9129H13.03V37.0569L22.13 22.8889H27.73L28.29 24.5969L27.73 27.3969V36.2169H31.37V39.6329L27.73 39.9129V42.7129H23.698ZM18.154 36.2169H23.698V27.8729H23.194L18.154 36.2169ZM40.5485 42.9929C38.9619 42.9929 37.5805 42.6662 36.4045 42.0129C35.2472 41.3596 34.3512 40.2956 33.7165 38.8209C33.0819 37.3276 32.7645 35.3209 32.7645 32.8009C32.7645 30.3929 33.0819 28.4422 33.7165 26.9489C34.3512 25.4556 35.2472 24.3636 36.4045 23.6729C37.5805 22.9636 38.9619 22.6089 40.5485 22.6089C42.1539 22.6089 43.5352 22.9636 44.6925 23.6729C45.8499 24.3822 46.7459 25.4836 47.3805 26.9769C48.0152 28.4702 48.3325 30.4116 48.3325 32.8009C48.3325 35.2836 48.0152 37.2716 47.3805 38.7649C46.7459 40.2582 45.8499 41.3409 44.6925 42.0129C43.5352 42.6662 42.1539 42.9929 40.5485 42.9929ZM40.5485 38.9609C41.8365 38.9609 42.7605 38.5036 43.3205 37.5889C43.8805 36.6556 44.1605 35.0596 44.1605 32.8009C44.1605 30.6729 43.8805 29.1142 43.3205 28.1249C42.7605 27.1356 41.8365 26.6409 40.5485 26.6409C39.2979 26.6409 38.3832 27.1449 37.8045 28.1529C37.2259 29.1422 36.9365 30.6916 36.9365 32.8009C36.9365 35.0409 37.2259 36.6276 37.8045 37.5609C38.3832 38.4942 39.2979 38.9609 40.5485 38.9609Z" fill="#B65155"/>
<path opacity="0.5" fill-rule="evenodd" clip-rule="evenodd" d="M14.0846 1.94364C24.2396 -3.04454 34.6279 -2.68568 37.3013 2.75108C39.9746 8.18784 33.8923 16.6211 23.7373 21.6093C13.5822 26.5974 3.19391 26.2386 0.520581 20.8018C-2.15275 15.3651 3.92952 6.93182 14.0846 1.94364Z" fill="#FDFFF8"/>
</g>
</g>
<defs>
<filter id="filter0_i_3570_19685" x="0.600586" y="0.666992" width="60" height="60" filterUnits="userSpaceOnUse" color-interpolation-filters="sRGB">
<feFlood flood-opacity="0" result="BackgroundImageFix"/>
<feBlend mode="normal" in="SourceGraphic" in2="BackgroundImageFix" result="shape"/>
<feColorMatrix in="SourceAlpha" type="matrix" values="0 0 0 0 0 0 0 0 0 0 0 0 0 0 0 0 0 0 127 0" result="hardAlpha"/>
<feOffset/>
<feGaussianBlur stdDeviation="5"/>
<feComposite in2="hardAlpha" operator="arithmetic" k2="-1" k3="1"/>
<feColorMatrix type="matrix" values="0 0 0 0 0 0 0 0 0 0 0 0 0 0 0 0 0 0 0.6 0"/>
<feBlend mode="normal" in2="shape" result="effect1_innerShadow_3570_19685"/>
</filter>
<clipPath id="clip0_3570_19685">
<rect x="0.600586" y="0.666992" width="60" height="60" rx="30" fill="white"/>
</clipPath>
</defs>
</svg>
