<svg width="61" height="60" viewBox="0 0 61 60" fill="none" xmlns="http://www.w3.org/2000/svg">
<g filter="url(#filter0_i_3570_20121)">
<g clip-path="url(#clip0_3570_20121)">
<rect x="0.400391" width="60" height="60" rx="30" fill="#82857D"/>
<path fill-rule="evenodd" clip-rule="evenodd" d="M17.664 -3.66124C36.2517 -10.6949 57.0283 -1.32864 64.0615 17.2604C71.0947 35.8494 61.7291 56.6275 43.1414 63.6612C24.5537 70.6949 3.77705 61.3286 -3.25613 42.7396C-10.2893 24.1506 -0.923692 3.37245 17.664 -3.66124Z" fill="#5B3267"/>
<path fill-rule="evenodd" clip-rule="evenodd" d="M17.6648 -3.66179C35.9116 -10.5699 56.2755 -1.65217 63.6496 16.255C68.9245 34.1443 59.5768 53.3614 41.8503 60.0541C23.6035 66.9622 3.23956 58.0445 -4.13452 40.1373C-9.40941 22.248 -0.0617142 3.03098 17.6648 -3.66179Z" fill="#875796"/>
<path fill-rule="evenodd" clip-rule="evenodd" d="M21.938 6.29112C35.4841 1.1594 50.627 7.99572 55.7404 21.5427C60.8717 35.0898 54.0359 50.2338 40.4898 55.3475C26.9438 60.4793 11.8009 53.6429 6.68748 40.0959C1.55613 26.5489 8.39196 11.4049 21.938 6.29112Z" fill="#FDFFF8"/>
<path fill-rule="evenodd" clip-rule="evenodd" d="M31.2136 6.69922C40.956 6.69922 50.1242 12.6384 53.7844 22.2918C58.5031 34.7622 52.2234 48.6861 39.7539 53.3871C36.937 54.4458 34.0484 54.9482 31.2136 54.9482V52.6694C33.7792 52.6694 36.3987 52.2209 38.9465 51.2519C50.2319 46.9815 55.9194 34.3675 51.6493 23.0992C48.348 14.3609 40.0409 8.97799 31.2136 8.97799V6.69922ZM22.6733 8.26027C25.4901 7.20163 28.3788 6.69922 31.2136 6.69922V8.97799C28.6479 8.97799 26.0284 9.42657 23.4807 10.3955C12.1953 14.666 6.5077 27.2799 10.7779 38.5482C14.0791 47.2865 22.3862 52.6694 31.2136 52.6694V54.9482C21.4712 54.9482 12.3029 49.009 8.64278 39.3557C3.92408 26.8852 10.2037 12.9614 22.6733 8.26027Z" fill="#875796"/>
<path d="M17.8578 42.0459L23.0938 28.7739L24.5778 25.8339H23.7378L15.0578 26.3939V22.2219H28.6098V25.0499L23.9898 37.5659L22.5898 42.0459H17.8578ZM39.0242 42.3259C37.4749 42.3259 36.0562 41.9806 34.7682 41.2899C33.4802 40.5806 32.4536 39.5166 31.6882 38.0979C30.9416 36.6792 30.5682 34.8872 30.5682 32.7219C30.5682 30.8366 30.8296 29.2126 31.3522 27.8499C31.8936 26.4872 32.6029 25.3766 33.4802 24.5179C34.3762 23.6406 35.3656 22.9966 36.4482 22.5859C37.5496 22.1566 38.6602 21.9419 39.7802 21.9419C40.7322 21.9419 41.4696 22.0166 41.9922 22.1659C42.5336 22.3152 43.0096 22.4832 43.4202 22.6699L45.9682 24.9659L44.0082 28.1579L39.7802 25.8339C38.9589 25.8339 38.1842 26.0392 37.4562 26.4499C36.7282 26.8606 36.1309 27.4486 35.6642 28.2139C35.1976 28.9792 34.9362 29.9126 34.8802 31.0139L39.3042 29.8939C40.6109 29.8939 41.7962 30.1086 42.8602 30.5379C43.9429 30.9486 44.8109 31.6019 45.4642 32.4979C46.1176 33.3752 46.4442 34.5326 46.4442 35.9699C46.4442 37.8926 45.7909 39.4326 44.4842 40.5899C43.1962 41.7472 41.3762 42.3259 39.0242 42.3259ZM39.2762 38.3779C40.2096 38.3779 40.9376 38.1539 41.4602 37.7059C42.0016 37.2579 42.2722 36.6232 42.2722 35.8019C42.2722 35.0179 41.9736 34.4206 41.3762 34.0099C40.7789 33.5806 40.0042 33.3659 39.0522 33.3659C38.2496 33.3659 37.4936 33.4779 36.7842 33.7019C36.0749 33.9259 35.5616 34.1592 35.2442 34.4019C35.2816 34.9992 35.4402 35.6059 35.7202 36.2219C36.0189 36.8379 36.4576 37.3512 37.0362 37.7619C37.6149 38.1726 38.3616 38.3779 39.2762 38.3779Z" fill="#875796"/>
<path opacity="0.5" fill-rule="evenodd" clip-rule="evenodd" d="M11.042 0.216751C19.7161 -4.04399 28.5894 -3.73746 30.8729 0.90644C33.1564 5.55034 27.9611 12.7537 19.287 17.0145C10.6129 21.2752 1.73952 20.9687 -0.543944 16.3248C-2.82741 11.6809 2.36786 4.47749 11.042 0.216751Z" fill="#FDFFF8"/>
</g>
</g>
<defs>
<filter id="filter0_i_3570_20121" x="0.400391" y="0" width="60" height="60" filterUnits="userSpaceOnUse" color-interpolation-filters="sRGB">
<feFlood flood-opacity="0" result="BackgroundImageFix"/>
<feBlend mode="normal" in="SourceGraphic" in2="BackgroundImageFix" result="shape"/>
<feColorMatrix in="SourceAlpha" type="matrix" values="0 0 0 0 0 0 0 0 0 0 0 0 0 0 0 0 0 0 127 0" result="hardAlpha"/>
<feOffset/>
<feGaussianBlur stdDeviation="5"/>
<feComposite in2="hardAlpha" operator="arithmetic" k2="-1" k3="1"/>
<feColorMatrix type="matrix" values="0 0 0 0 0 0 0 0 0 0 0 0 0 0 0 0 0 0 0.6 0"/>
<feBlend mode="normal" in2="shape" result="effect1_innerShadow_3570_20121"/>
</filter>
<clipPath id="clip0_3570_20121">
<rect x="0.400391" width="60" height="60" rx="30" fill="white"/>
</clipPath>
</defs>
</svg>
