<svg width="61" height="61" viewBox="0 0 61 61" fill="none" xmlns="http://www.w3.org/2000/svg">
<g filter="url(#filter0_i_3570_19891)">
<g clip-path="url(#clip0_3570_19891)">
<rect x="0.200195" y="0.333984" width="60" height="60" rx="30" fill="#82857D"/>
<path fill-rule="evenodd" clip-rule="evenodd" d="M17.4638 -3.32725C36.0515 -10.3609 56.8281 -0.994651 63.8613 17.5944C70.8945 36.1834 61.5289 56.9615 42.9412 63.9952C24.3535 71.0289 3.57686 61.6626 -3.45633 43.0736C-10.4895 24.4845 -1.12389 3.70644 17.4638 -3.32725Z" fill="#904D16"/>
<path fill-rule="evenodd" clip-rule="evenodd" d="M17.4646 -3.32781C35.7114 -10.2359 56.0753 -1.31818 63.4494 16.589C68.7243 34.4783 59.3766 53.6953 41.6501 60.3881C23.4033 67.2962 3.03937 58.3785 -4.33472 40.4713C-9.60961 22.582 -0.261909 3.36497 17.4646 -3.32781Z" fill="#DC8944"/>
<path fill-rule="evenodd" clip-rule="evenodd" d="M21.7378 6.62511C35.2839 1.49338 50.4268 8.3297 55.5402 21.8767C60.6715 35.4238 53.8357 50.5677 40.2896 55.6815C26.7436 60.8132 11.6007 53.9769 6.48729 40.4299C1.35593 26.8829 8.19176 11.7389 21.7378 6.62511Z" fill="#FDFFF8"/>
<path fill-rule="evenodd" clip-rule="evenodd" d="M31.0134 7.0332C40.7558 7.0332 49.924 12.9724 53.5842 22.6257C58.3029 35.0962 52.0232 49.02 39.5537 53.7211C36.7368 54.7798 33.8482 55.2822 31.0134 55.2822V53.0034C33.5791 53.0034 36.1986 52.5548 38.7463 51.5859C50.0317 47.3155 55.7192 34.7015 51.4491 23.4332C48.1478 14.6949 39.8407 9.31198 31.0134 9.31198V7.0332ZM22.4731 8.59425C25.2899 7.53561 28.1786 7.0332 31.0134 7.0332V9.31198C28.4477 9.31198 25.8282 9.76056 23.2805 10.7295C11.9951 14.9999 6.30751 27.6139 10.5777 38.8822C13.879 47.6205 22.186 53.0034 31.0134 53.0034V55.2822C21.271 55.2822 12.1027 49.343 8.44258 39.6896C3.72389 27.2192 10.0035 13.2953 22.4731 8.59425Z" fill="#DC8944"/>
<path d="M22.6415 42.6599C21.9321 42.6599 21.3161 42.6412 20.7935 42.6039C20.2895 42.5665 19.7761 42.5105 19.2535 42.4359L15.7255 41.1479L16.8455 37.2559L21.8015 38.7959C23.0895 38.7959 24.0695 38.5625 24.7415 38.0959C25.4321 37.6105 25.7775 36.9199 25.7775 36.0239C25.7775 35.1839 25.5441 34.5119 25.0775 34.0079C24.6108 33.5039 23.7148 33.2519 22.3895 33.2519H16.5655V22.5559H29.0255V26.4479L22.0255 26.1679H20.8495V29.9759H22.7255C25.3201 29.9759 27.2055 30.4705 28.3815 31.4599C29.5575 32.4492 30.1455 33.9145 30.1455 35.8559C30.1455 37.1812 29.8468 38.3572 29.2495 39.3839C28.6708 40.4105 27.8215 41.2132 26.7015 41.7919C25.5815 42.3705 24.2281 42.6599 22.6415 42.6599ZM35.1986 42.3799L40.4346 29.1079L41.9186 26.1679H41.0786L32.3986 26.7279V22.5559H45.9506V25.3839L41.3306 37.8999L39.9306 42.3799H35.1986Z" fill="#DC8944"/>
<path opacity="0.5" fill-rule="evenodd" clip-rule="evenodd" d="M10.8418 0.550735C19.5159 -3.71 28.3892 -3.40347 30.6727 1.24042C32.9562 5.88432 27.7609 13.0877 19.0868 17.3485C10.4127 21.6092 1.53933 21.3027 -0.744139 16.6588C-3.02761 12.0149 2.16766 4.81147 10.8418 0.550735Z" fill="#FDFFF8"/>
</g>
</g>
<defs>
<filter id="filter0_i_3570_19891" x="0.200195" y="0.333984" width="60" height="60" filterUnits="userSpaceOnUse" color-interpolation-filters="sRGB">
<feFlood flood-opacity="0" result="BackgroundImageFix"/>
<feBlend mode="normal" in="SourceGraphic" in2="BackgroundImageFix" result="shape"/>
<feColorMatrix in="SourceAlpha" type="matrix" values="0 0 0 0 0 0 0 0 0 0 0 0 0 0 0 0 0 0 127 0" result="hardAlpha"/>
<feOffset/>
<feGaussianBlur stdDeviation="5"/>
<feComposite in2="hardAlpha" operator="arithmetic" k2="-1" k3="1"/>
<feColorMatrix type="matrix" values="0 0 0 0 0 0 0 0 0 0 0 0 0 0 0 0 0 0 0.6 0"/>
<feBlend mode="normal" in2="shape" result="effect1_innerShadow_3570_19891"/>
</filter>
<clipPath id="clip0_3570_19891">
<rect x="0.200195" y="0.333984" width="60" height="60" rx="30" fill="white"/>
</clipPath>
</defs>
</svg>
