<svg width="60" height="61" viewBox="0 0 60 61" fill="none" xmlns="http://www.w3.org/2000/svg">
<g filter="url(#filter0_i_3570_20024)">
<g clip-path="url(#clip0_3570_20024)">
<rect y="0.666992" width="60" height="60" rx="30" fill="#82857D"/>
<path fill-rule="evenodd" clip-rule="evenodd" d="M17.2636 -2.99425C35.8513 -10.0279 56.6279 -0.661643 63.6611 17.9274C70.6943 36.5164 61.3287 57.2945 42.741 64.3282C24.1533 71.3619 3.37666 61.9956 -3.65652 43.4066C-10.6897 24.8175 -1.32408 4.03945 17.2636 -2.99425Z" fill="#133D63"/>
<path fill-rule="evenodd" clip-rule="evenodd" d="M17.2644 -2.9948C35.5112 -9.90289 55.8751 -0.985174 63.2492 16.922C68.5241 34.8113 59.1765 54.0284 41.4499 60.7211C23.2031 67.6292 2.83917 58.7115 -4.53491 40.8043C-9.8098 22.915 -0.462105 3.69798 17.2644 -2.9948Z" fill="#5884AD"/>
<path fill-rule="evenodd" clip-rule="evenodd" d="M21.5376 6.95226C35.0837 1.82053 50.2266 8.65685 55.34 22.2039C60.4713 35.7509 53.6355 50.8949 40.0894 56.0087C26.5434 61.1404 11.4005 54.3041 6.28709 40.757C1.15574 27.21 7.99157 12.066 21.5376 6.95226Z" fill="#FDFFF8"/>
<path fill-rule="evenodd" clip-rule="evenodd" d="M30.8132 7.36035C40.5556 7.36035 49.7238 13.2995 53.384 22.9529C58.1027 35.4233 51.823 49.3472 39.3535 54.0483C36.5366 55.1069 33.648 55.6093 30.8132 55.6093V53.3306C33.3789 53.3306 35.9984 52.882 38.5461 51.9131C49.8315 47.6426 55.519 35.0286 51.2489 23.7603C47.9476 15.0221 39.6405 9.63913 30.8132 9.63913V7.36035ZM22.2729 8.9214C25.0897 7.86276 27.9784 7.36035 30.8132 7.36035V9.63913C28.2475 9.63913 25.628 10.0877 23.0803 11.0566C11.7949 15.3271 6.10731 27.9411 10.3775 39.2093C13.6788 47.9476 21.9858 53.3306 30.8132 53.3306V55.6093C21.0708 55.6093 11.9025 49.6702 8.24238 40.0168C3.52369 27.5463 9.80331 13.6225 22.2729 8.9214Z" fill="#5884AD"/>
<path d="M22.1219 42.9929C20.5726 42.9929 19.1539 42.6476 17.8659 41.9569C16.5779 41.2476 15.5512 40.1836 14.7859 38.7649C14.0392 37.3462 13.6659 35.5542 13.6659 33.3889C13.6659 31.5036 13.9272 29.8796 14.4499 28.5169C14.9912 27.1542 15.7006 26.0436 16.5779 25.1849C17.4739 24.3076 18.4632 23.6636 19.5459 23.2529C20.6472 22.8236 21.7579 22.6089 22.8779 22.6089C23.8299 22.6089 24.5672 22.6836 25.0899 22.8329C25.6312 22.9822 26.1072 23.1502 26.5179 23.3369L29.0659 25.6329L27.1059 28.8249L22.8779 26.5009C22.0566 26.5009 21.2819 26.7062 20.5539 27.1169C19.8259 27.5276 19.2286 28.1156 18.7619 28.8809C18.2952 29.6462 18.0339 30.5796 17.9779 31.6809L22.4019 30.5609C23.7086 30.5609 24.8939 30.7756 25.9579 31.2049C27.0406 31.6156 27.9086 32.2689 28.5619 33.1649C29.2152 34.0422 29.5419 35.1996 29.5419 36.6369C29.5419 38.5596 28.8886 40.0996 27.5819 41.2569C26.2939 42.4142 24.4739 42.9929 22.1219 42.9929ZM22.3739 39.0449C23.3072 39.0449 24.0352 38.8209 24.5579 38.3729C25.0992 37.9249 25.3699 37.2902 25.3699 36.4689C25.3699 35.6849 25.0712 35.0876 24.4739 34.6769C23.8766 34.2476 23.1019 34.0329 22.1499 34.0329C21.3472 34.0329 20.5912 34.1449 19.8819 34.3689C19.1726 34.5929 18.6592 34.8262 18.3419 35.0689C18.3792 35.6662 18.5379 36.2729 18.8179 36.8889C19.1166 37.5049 19.5552 38.0182 20.1339 38.4289C20.7126 38.8396 21.4592 39.0449 22.3739 39.0449ZM39.6628 42.9929C38.6361 42.9929 37.6468 42.8996 36.6948 42.7129C35.7615 42.5076 34.9215 42.1809 34.1748 41.7329C33.4468 41.2662 32.8681 40.6409 32.4388 39.8569C32.0095 39.0729 31.7948 38.0929 31.7948 36.9169C31.7948 35.7222 32.0468 34.7609 32.5508 34.0329C33.0548 33.3049 33.7175 32.7449 34.5388 32.3529C34.0161 31.9049 33.5681 31.3356 33.1948 30.6449C32.8215 29.9542 32.6348 29.1142 32.6348 28.1249C32.6348 26.5196 33.2041 25.2036 34.3428 24.1769C35.4815 23.1316 37.2361 22.6089 39.6068 22.6089C41.9961 22.6089 43.7415 23.0849 44.8428 24.0369C45.9441 24.9889 46.4948 26.3516 46.4948 28.1249C46.4948 29.0209 46.3081 29.8329 45.9348 30.5609C45.5615 31.2889 45.1041 31.8676 44.5628 32.2969C45.3468 32.6889 46.0001 33.2676 46.5228 34.0329C47.0641 34.7982 47.3348 35.7596 47.3348 36.9169C47.3348 38.4849 46.9801 39.7076 46.2708 40.5849C45.5615 41.4622 44.6281 42.0876 43.4708 42.4609C42.3135 42.8156 41.0441 42.9929 39.6628 42.9929ZM39.6628 31.0649C40.5775 31.0649 41.2588 30.8782 41.7068 30.5049C42.1548 30.1316 42.3788 29.6276 42.3788 28.9929C42.3788 28.2276 42.1641 27.6302 41.7348 27.2009C41.3241 26.7529 40.6335 26.5289 39.6628 26.5289C38.8228 26.5289 38.1321 26.7156 37.5908 27.0889C37.0681 27.4622 36.8068 28.0036 36.8068 28.7129C36.8068 29.2916 36.9468 29.7582 37.2268 30.1129C37.5255 30.4489 37.8895 30.6916 38.3188 30.8409C38.7668 30.9902 39.2148 31.0649 39.6628 31.0649ZM39.6628 39.0729C40.6708 39.0729 41.5108 38.9049 42.1828 38.5689C42.8735 38.2329 43.2188 37.7196 43.2188 37.0289C43.2188 36.0582 42.7335 35.2836 41.7628 34.7049C40.8108 34.1076 39.3735 33.7996 37.4508 33.7809C37.0775 34.0609 36.7601 34.4249 36.4988 34.8729C36.2561 35.3022 36.1348 35.7596 36.1348 36.2449C36.1348 37.2716 36.4708 37.9996 37.1428 38.4289C37.8148 38.8582 38.6548 39.0729 39.6628 39.0729Z" fill="#5884AD"/>
<path opacity="0.5" fill-rule="evenodd" clip-rule="evenodd" d="M13.484 1.94364C23.6391 -3.04454 34.0274 -2.68568 36.7007 2.75108C39.374 8.18784 33.2918 16.6211 23.1367 21.6093C12.9816 26.5974 2.59332 26.2386 -0.0800052 20.8018C-2.75333 15.3651 3.32893 6.93182 13.484 1.94364Z" fill="#FDFFF8"/>
</g>
</g>
<defs>
<filter id="filter0_i_3570_20024" x="0" y="0.666992" width="60" height="60" filterUnits="userSpaceOnUse" color-interpolation-filters="sRGB">
<feFlood flood-opacity="0" result="BackgroundImageFix"/>
<feBlend mode="normal" in="SourceGraphic" in2="BackgroundImageFix" result="shape"/>
<feColorMatrix in="SourceAlpha" type="matrix" values="0 0 0 0 0 0 0 0 0 0 0 0 0 0 0 0 0 0 127 0" result="hardAlpha"/>
<feOffset/>
<feGaussianBlur stdDeviation="5"/>
<feComposite in2="hardAlpha" operator="arithmetic" k2="-1" k3="1"/>
<feColorMatrix type="matrix" values="0 0 0 0 0 0 0 0 0 0 0 0 0 0 0 0 0 0 0.6 0"/>
<feBlend mode="normal" in2="shape" result="effect1_innerShadow_3570_20024"/>
</filter>
<clipPath id="clip0_3570_20024">
<rect y="0.666992" width="60" height="60" rx="30" fill="white"/>
</clipPath>
</defs>
</svg>
