<svg width="61" height="61" viewBox="0 0 61 61" fill="none" xmlns="http://www.w3.org/2000/svg">
<g filter="url(#filter0_i_3570_19528)">
<g clip-path="url(#clip0_3570_19528)">
<rect x="0.200195" y="0.333984" width="60" height="60" rx="30" fill="#82857D"/>
<path fill-rule="evenodd" clip-rule="evenodd" d="M17.4638 -3.32725C36.0515 -10.3609 56.8281 -0.994651 63.8613 17.5944C70.8945 36.1834 61.5289 56.9615 42.9412 63.9952C24.3535 71.0289 3.57686 61.6626 -3.45633 43.0736C-10.4895 24.4845 -1.12389 3.70644 17.4638 -3.32725Z" fill="#206446"/>
<path fill-rule="evenodd" clip-rule="evenodd" d="M17.4646 -3.32781C35.7114 -10.2359 56.0753 -1.31818 63.4494 16.589C68.7243 34.4783 59.3766 53.6953 41.6501 60.3881C23.4033 67.2962 3.03937 58.3785 -4.33472 40.4713C-9.60961 22.582 -0.261909 3.36497 17.4646 -3.32781Z" fill="#8BC1A9"/>
<path fill-rule="evenodd" clip-rule="evenodd" d="M21.7378 6.61925C35.2839 1.48752 50.4268 8.32384 55.5402 21.8709C60.6715 35.4179 53.8357 50.5619 40.2896 55.6757C26.7436 60.8074 11.6007 53.9711 6.48729 40.424C1.35593 26.877 8.19176 11.733 21.7378 6.61925Z" fill="#FDFFF8"/>
<path fill-rule="evenodd" clip-rule="evenodd" d="M31.0134 7.02734C40.7558 7.02734 49.924 12.9665 53.5842 22.6199C58.3029 35.0903 52.0232 49.0142 39.5537 53.7153C36.7368 54.7739 33.8482 55.2763 31.0134 55.2763V52.9975C33.5791 52.9975 36.1986 52.549 38.7463 51.58C50.0317 47.3096 55.7192 34.6956 51.4491 23.4273C48.1478 14.689 39.8407 9.30612 31.0134 9.30612V7.02734ZM22.4731 8.58839C25.2899 7.52975 28.1786 7.02734 31.0134 7.02734V9.30612C28.4477 9.30612 25.8282 9.7547 23.2805 10.7236C11.9951 14.9941 6.30751 27.6081 10.5777 38.8763C13.879 47.6146 22.186 52.9975 31.0134 52.9975V55.2763C21.271 55.2763 12.1027 49.3372 8.44258 39.6838C3.72389 27.2133 10.0035 13.2895 22.4731 8.58839Z" fill="#8BC1A9"/>
<path opacity="0.5" fill-rule="evenodd" clip-rule="evenodd" d="M13.6842 1.61063C23.8393 -3.37755 34.2276 -3.01868 36.9009 2.41807C39.5742 7.85483 33.492 16.2881 23.3369 21.2763C13.1818 26.2644 2.79352 25.9056 0.12019 20.4688C-2.55314 15.0321 3.52913 6.59881 13.6842 1.61063Z" fill="#FDFFF8"/>
<path d="M15.8726 42.3799V39.3279C15.8726 39.3279 16.0872 39.1879 16.5166 38.9079C16.9459 38.6092 17.4966 38.2265 18.1686 37.7599C18.8406 37.2932 19.5312 36.7799 20.2406 36.2199C20.9686 35.6599 21.6126 35.1092 22.1726 34.5679C23.3859 33.4292 24.2912 32.4119 24.8886 31.5159C25.4859 30.6199 25.7846 29.6305 25.7846 28.5479C25.7846 27.8199 25.5512 27.2505 25.0846 26.8399C24.6366 26.4105 23.8899 26.1959 22.8446 26.1959C22.0606 26.1959 21.2672 26.2799 20.4646 26.4479C19.6619 26.6159 18.9152 26.8305 18.2246 27.0919C17.5339 27.3345 16.9459 27.5865 16.4606 27.8479V23.9279C16.6472 23.8345 17.0206 23.6665 17.5806 23.4239C18.1592 23.1625 18.9152 22.9199 19.8486 22.6959C20.7819 22.4719 21.8832 22.3599 23.1526 22.3599C25.5232 22.3599 27.2779 22.8732 28.4166 23.8999C29.5739 24.9079 30.1526 26.3452 30.1526 28.2119C30.1526 29.3692 29.9099 30.4425 29.4246 31.4319C28.9579 32.4212 28.3326 33.3265 27.5486 34.1479C26.7832 34.9692 25.9526 35.7159 25.0566 36.3879C24.1792 37.0599 23.3299 37.6572 22.5086 38.1799L22.6486 38.7399L30.1526 38.1799V42.3799H15.8726ZM34.9115 42.3799L40.1475 29.1079L41.6315 26.1679H40.7915L32.1115 26.7279V22.5559H45.6635V25.3839L41.0435 37.8999L39.6435 42.3799H34.9115Z" fill="#8BC1A9"/>
</g>
</g>
<defs>
<filter id="filter0_i_3570_19528" x="0.200195" y="0.333984" width="60" height="60" filterUnits="userSpaceOnUse" color-interpolation-filters="sRGB">
<feFlood flood-opacity="0" result="BackgroundImageFix"/>
<feBlend mode="normal" in="SourceGraphic" in2="BackgroundImageFix" result="shape"/>
<feColorMatrix in="SourceAlpha" type="matrix" values="0 0 0 0 0 0 0 0 0 0 0 0 0 0 0 0 0 0 127 0" result="hardAlpha"/>
<feOffset/>
<feGaussianBlur stdDeviation="5"/>
<feComposite in2="hardAlpha" operator="arithmetic" k2="-1" k3="1"/>
<feColorMatrix type="matrix" values="0 0 0 0 0 0 0 0 0 0 0 0 0 0 0 0 0 0 0.6 0"/>
<feBlend mode="normal" in2="shape" result="effect1_innerShadow_3570_19528"/>
</filter>
<clipPath id="clip0_3570_19528">
<rect x="0.200195" y="0.333984" width="60" height="60" rx="30" fill="white"/>
</clipPath>
</defs>
</svg>
