<svg width="61" height="60" viewBox="0 0 61 60" fill="none" xmlns="http://www.w3.org/2000/svg">
<g filter="url(#filter0_i_3570_19431)">
<g clip-path="url(#clip0_3570_19431)">
<rect x="0.800781" width="60" height="60" rx="30" fill="#82857D"/>
<path fill-rule="evenodd" clip-rule="evenodd" d="M18.0644 -3.66124C36.6521 -10.6949 57.4287 -1.32864 64.4619 17.2604C71.4951 35.8494 62.1295 56.6275 43.5418 63.6612C24.9541 70.6949 4.17744 61.3286 -2.85574 42.7396C-9.88893 24.1506 -0.523302 3.37245 18.0644 -3.66124Z" fill="#133D63"/>
<path fill-rule="evenodd" clip-rule="evenodd" d="M18.0652 -3.66179C36.312 -10.5699 56.6759 -1.65217 64.05 16.255C69.3249 34.1443 59.9772 53.3614 42.2507 60.0541C24.0039 66.9622 3.63995 58.0445 -3.73413 40.1373C-9.00902 22.248 0.338676 3.03098 18.0652 -3.66179Z" fill="#5884AD"/>
<path fill-rule="evenodd" clip-rule="evenodd" d="M22.3384 6.28526C35.8845 1.15354 51.0273 7.98986 56.1408 21.5369C61.2721 35.0839 54.4363 50.2279 40.8902 55.3417C27.3442 60.4734 12.2013 53.6371 7.08788 40.09C1.95652 26.543 8.79235 11.399 22.3384 6.28526Z" fill="#FDFFF8"/>
<path fill-rule="evenodd" clip-rule="evenodd" d="M31.614 6.69336C41.3564 6.69336 50.5246 12.6325 54.1848 22.2859C58.9034 34.7564 52.6238 48.6802 40.1542 53.3813C37.3374 54.4399 34.4488 54.9423 31.614 54.9423V52.6636C34.1796 52.6636 36.7991 52.215 39.3469 51.2461C50.6323 46.9756 56.3198 34.3616 52.0497 23.0933C48.7484 14.3551 40.4413 8.97213 31.614 8.97213V6.69336ZM23.0736 8.25441C25.8905 7.19577 28.7792 6.69336 31.614 6.69336V8.97213C29.0483 8.97213 26.4288 9.42071 23.881 10.3896C12.5957 14.6601 6.9081 27.2741 11.1782 38.5424C14.4795 47.2806 22.7866 52.6636 31.614 52.6636V54.9423C21.8716 54.9423 12.7033 49.0032 9.04317 39.3498C4.32447 26.8793 10.6041 12.9555 23.0736 8.25441Z" fill="#5884AD"/>
<path d="M21.3338 42.0459V26.9539H17.9738V23.9019L25.3658 22.2219L25.6458 23.9019L25.3658 26.7019V42.0459H21.3338ZM35.425 42.3259C34.6783 42.3259 34.081 42.2886 33.633 42.2139C33.185 42.1579 32.765 42.0926 32.373 42.0179L28.957 39.9739L30.609 36.6699L35.117 38.4339C35.8823 38.4339 36.6103 38.2659 37.301 37.9299C38.0103 37.5752 38.5983 37.0432 39.065 36.3339C39.5317 35.6059 39.8023 34.6912 39.877 33.5899L35.285 34.4299C33.9597 34.4299 32.7837 34.2432 31.757 33.8699C30.7303 33.4966 29.9183 32.8712 29.321 31.9939C28.7423 31.0979 28.453 29.8752 28.453 28.3259C28.453 27.2619 28.7237 26.2446 29.265 25.2739C29.825 24.2846 30.6557 23.4819 31.757 22.8659C32.8583 22.2499 34.2397 21.9419 35.901 21.9419C37.5437 21.9419 38.9903 22.2779 40.241 22.9499C41.5103 23.6219 42.509 24.7046 43.237 26.1979C43.965 27.6726 44.329 29.6512 44.329 32.1339C44.329 34.2992 43.9557 36.1472 43.209 37.6779C42.4623 39.1899 41.417 40.3472 40.073 41.1499C38.7477 41.9339 37.1983 42.3259 35.425 42.3259ZM35.285 30.9299C36.125 30.9299 36.9837 30.9019 37.861 30.8459C38.7383 30.7899 39.4103 30.7246 39.877 30.6499C39.765 27.4952 38.4397 25.9179 35.901 25.9179C34.7623 25.9179 33.9317 26.1979 33.409 26.7579C32.8863 27.3179 32.625 27.9899 32.625 28.7739C32.625 29.5206 32.8397 30.0712 33.269 30.4259C33.6983 30.7619 34.3703 30.9299 35.285 30.9299Z" fill="#5884AD"/>
<path opacity="0.5" fill-rule="evenodd" clip-rule="evenodd" d="M14.2848 1.27665C24.4398 -3.71153 34.8281 -3.35267 37.5015 2.08409C40.1748 7.52084 34.0925 15.9541 23.9375 20.9423C13.7824 25.9305 3.3941 25.5716 0.720776 20.1348C-1.95255 14.6981 4.12971 6.26483 14.2848 1.27665Z" fill="#FDFFF8"/>
</g>
</g>
<defs>
<filter id="filter0_i_3570_19431" x="0.800781" y="0" width="60" height="60" filterUnits="userSpaceOnUse" color-interpolation-filters="sRGB">
<feFlood flood-opacity="0" result="BackgroundImageFix"/>
<feBlend mode="normal" in="SourceGraphic" in2="BackgroundImageFix" result="shape"/>
<feColorMatrix in="SourceAlpha" type="matrix" values="0 0 0 0 0 0 0 0 0 0 0 0 0 0 0 0 0 0 127 0" result="hardAlpha"/>
<feOffset/>
<feGaussianBlur stdDeviation="5"/>
<feComposite in2="hardAlpha" operator="arithmetic" k2="-1" k3="1"/>
<feColorMatrix type="matrix" values="0 0 0 0 0 0 0 0 0 0 0 0 0 0 0 0 0 0 0.6 0"/>
<feBlend mode="normal" in2="shape" result="effect1_innerShadow_3570_19431"/>
</filter>
<clipPath id="clip0_3570_19431">
<rect x="0.800781" width="60" height="60" rx="30" fill="white"/>
</clipPath>
</defs>
</svg>
