<svg width="60" height="60" viewBox="0 0 60 60" fill="none" xmlns="http://www.w3.org/2000/svg">
<g filter="url(#filter0_i_3570_19359)">
<g clip-path="url(#clip0_3570_19359)">
<rect width="60" height="60" rx="30" fill="#82857D"/>
<path fill-rule="evenodd" clip-rule="evenodd" d="M17.2636 -3.66124C35.8513 -10.6949 56.6279 -1.32864 63.6611 17.2604C70.6943 35.8494 61.3287 56.6275 42.741 63.6612C24.1533 70.6949 3.37666 61.3286 -3.65652 42.7396C-10.6897 24.1506 -1.32408 3.37245 17.2636 -3.66124Z" fill="#206446"/>
<path fill-rule="evenodd" clip-rule="evenodd" d="M17.2644 -3.66179C35.5112 -10.5699 55.8751 -1.65217 63.2492 16.255C68.5241 34.1443 59.1765 53.3614 41.4499 60.0541C23.2031 66.9622 2.83917 58.0445 -4.53491 40.1373C-9.8098 22.248 -0.462105 3.03098 17.2644 -3.66179Z" fill="#8BC1A9"/>
<path fill-rule="evenodd" clip-rule="evenodd" d="M21.5376 6.28526C35.0837 1.15354 50.2266 7.98986 55.34 21.5369C60.4713 35.0839 53.6355 50.2279 40.0894 55.3417C26.5434 60.4734 11.4005 53.6371 6.28709 40.09C1.15574 26.543 7.99157 11.399 21.5376 6.28526Z" fill="#FDFFF8"/>
<path fill-rule="evenodd" clip-rule="evenodd" d="M30.8132 6.69336C40.5556 6.69336 49.7238 12.6325 53.384 22.2859C58.1027 34.7564 51.823 48.6802 39.3535 53.3813C36.5366 54.4399 33.648 54.9423 30.8132 54.9423V52.6636C33.3789 52.6636 35.9984 52.215 38.5461 51.2461C49.8315 46.9756 55.519 34.3616 51.2489 23.0933C47.9476 14.3551 39.6405 8.97213 30.8132 8.97213V6.69336ZM22.2729 8.25441C25.0897 7.19577 27.9784 6.69336 30.8132 6.69336V8.97213C28.2475 8.97213 25.628 9.42071 23.0803 10.3896C11.7949 14.6601 6.10731 27.2741 10.3775 38.5424C13.6788 47.2806 21.9858 52.6636 30.8132 52.6636V54.9423C21.0708 54.9423 11.9025 49.0032 8.24238 39.3498C3.52369 26.8793 9.80331 12.9555 22.2729 8.25441Z" fill="#8BC1A9"/>
<path opacity="0.5" fill-rule="evenodd" clip-rule="evenodd" d="M13.484 1.27665C23.6391 -3.71153 34.0274 -3.35267 36.7007 2.08409C39.374 7.52084 33.2918 15.9541 23.1367 20.9423C12.9816 25.9305 2.59332 25.5716 -0.0800052 20.1348C-2.75333 14.6981 3.32893 6.26483 13.484 1.27665Z" fill="#FDFFF8"/>
<path d="M21.2166 42.0459V26.9539H17.8566V23.9019L25.2486 22.2219L25.5286 23.9019L25.2486 26.7019V42.0459H21.2166ZM35.3358 42.3259C34.7385 42.3259 34.1692 42.3072 33.6278 42.2699C33.1052 42.2326 32.6105 42.1766 32.1438 42.1019L28.3358 40.8139L29.4558 36.9219L34.7758 38.4339C36.1012 38.4339 37.0345 38.1819 37.5758 37.6779C38.1358 37.1552 38.4158 36.4832 38.4158 35.6619C38.4158 35.0646 38.2385 34.5886 37.8838 34.2339C37.5478 33.8792 36.9785 33.7019 36.1758 33.7019H32.6198V30.0899H35.4758C37.2492 30.0899 38.1358 29.3059 38.1358 27.7379C38.1358 26.4872 37.2678 25.8619 35.5318 25.8619C34.4678 25.8619 33.5252 25.9646 32.7038 26.1699C31.8825 26.3566 31.1732 26.5806 30.5758 26.8419C29.9972 27.0846 29.5305 27.2899 29.1758 27.4579V23.5379C29.7172 23.1832 30.5012 22.8379 31.5278 22.5019C32.5545 22.1472 33.8985 21.9699 35.5598 21.9699C37.6692 21.9699 39.2652 22.4366 40.3478 23.3699C41.4492 24.2846 41.9998 25.5819 41.9998 27.2619C41.9998 28.2326 41.8412 29.0352 41.5238 29.6699C41.2252 30.2859 40.8425 30.7806 40.3758 31.1539C41.1785 31.6579 41.7945 32.2646 42.2238 32.9739C42.6532 33.6646 42.8678 34.5512 42.8678 35.6339C42.8678 37.0526 42.5505 38.2659 41.9158 39.2739C41.2998 40.2632 40.4225 41.0192 39.2838 41.5419C38.1638 42.0646 36.8478 42.3259 35.3358 42.3259Z" fill="#8BC1A9"/>
</g>
</g>
<defs>
<filter id="filter0_i_3570_19359" x="0" y="0" width="60" height="60" filterUnits="userSpaceOnUse" color-interpolation-filters="sRGB">
<feFlood flood-opacity="0" result="BackgroundImageFix"/>
<feBlend mode="normal" in="SourceGraphic" in2="BackgroundImageFix" result="shape"/>
<feColorMatrix in="SourceAlpha" type="matrix" values="0 0 0 0 0 0 0 0 0 0 0 0 0 0 0 0 0 0 127 0" result="hardAlpha"/>
<feOffset/>
<feGaussianBlur stdDeviation="5"/>
<feComposite in2="hardAlpha" operator="arithmetic" k2="-1" k3="1"/>
<feColorMatrix type="matrix" values="0 0 0 0 0 0 0 0 0 0 0 0 0 0 0 0 0 0 0.6 0"/>
<feBlend mode="normal" in2="shape" result="effect1_innerShadow_3570_19359"/>
</filter>
<clipPath id="clip0_3570_19359">
<rect width="60" height="60" rx="30" fill="white"/>
</clipPath>
</defs>
</svg>
