<svg width="61" height="61" viewBox="0 0 61 61" fill="none" xmlns="http://www.w3.org/2000/svg">
<g filter="url(#filter0_i_3570_19855)">
<g clip-path="url(#clip0_3570_19855)">
<rect x="0.800781" y="0.333984" width="60" height="60" rx="30" fill="#82857D"/>
<path fill-rule="evenodd" clip-rule="evenodd" d="M18.0644 -3.32725C36.6521 -10.3609 57.4287 -0.994651 64.4619 17.5944C71.4951 36.1834 62.1295 56.9615 43.5418 63.9952C24.9541 71.0289 4.17744 61.6626 -2.85574 43.0736C-9.88893 24.4845 -0.523302 3.70644 18.0644 -3.32725Z" fill="#5B3267"/>
<path fill-rule="evenodd" clip-rule="evenodd" d="M18.0652 -3.32781C36.312 -10.2359 56.6759 -1.31818 64.05 16.589C69.3249 34.4783 59.9772 53.6953 42.2507 60.3881C24.0039 67.2962 3.63995 58.3785 -3.73413 40.4713C-9.00902 22.582 0.338676 3.36497 18.0652 -3.32781Z" fill="#875796"/>
<path fill-rule="evenodd" clip-rule="evenodd" d="M22.3384 6.62511C35.8845 1.49338 51.0273 8.3297 56.1408 21.8767C61.2721 35.4238 54.4363 50.5677 40.8902 55.6815C27.3442 60.8132 12.2013 53.9769 7.08788 40.4299C1.95652 26.8829 8.79235 11.7389 22.3384 6.62511Z" fill="#FDFFF8"/>
<path fill-rule="evenodd" clip-rule="evenodd" d="M31.614 7.0332C41.3564 7.0332 50.5246 12.9724 54.1848 22.6257C58.9035 35.0962 52.6238 49.02 40.1543 53.7211C37.3374 54.7798 34.4488 55.2822 31.614 55.2822V53.0034C34.1796 53.0034 36.7991 52.5548 39.3469 51.5859C50.6323 47.3155 56.3198 34.7015 52.0497 23.4332C48.7484 14.6949 40.4413 9.31198 31.614 9.31198V7.0332ZM23.0736 8.59425C25.8905 7.53561 28.7792 7.0332 31.614 7.0332V9.31198C29.0483 9.31198 26.4288 9.76056 23.881 10.7295C12.5957 14.9999 6.9081 27.6139 11.1782 38.8822C14.4795 47.6205 22.7866 53.0034 31.614 53.0034V55.2822C21.8716 55.2822 12.7033 49.343 9.04317 39.6896C4.32447 27.2192 10.6041 13.2953 23.0736 8.59425Z" fill="#875796"/>
<path d="M21.41 42.6599C20.7007 42.6599 20.0847 42.6412 19.562 42.6039C19.058 42.5665 18.5447 42.5105 18.022 42.4359L14.494 41.1479L15.614 37.2559L20.57 38.7959C21.858 38.7959 22.838 38.5625 23.51 38.0959C24.2007 37.6105 24.546 36.9199 24.546 36.0239C24.546 35.1839 24.3127 34.5119 23.846 34.0079C23.3794 33.5039 22.4834 33.2519 21.158 33.2519H15.334V22.5559H27.794V26.4479L20.794 26.1679H19.618V29.9759H21.494C24.0887 29.9759 25.974 30.4705 27.15 31.4599C28.326 32.4492 28.914 33.9145 28.914 35.8559C28.914 37.1812 28.6154 38.3572 28.018 39.3839C27.4394 40.4105 26.59 41.2132 25.47 41.7919C24.35 42.3705 22.9967 42.6599 21.41 42.6599ZM41.2751 42.3799V39.5799H30.6071V36.7239L39.7071 22.5559H45.3071L45.8671 24.2639L45.3071 27.0639V35.8839H48.9471V39.2999L45.3071 39.5799V42.3799H41.2751ZM35.7311 35.8839H41.2751V27.5399H40.7711L35.7311 35.8839Z" fill="#875796"/>
<path opacity="0.5" fill-rule="evenodd" clip-rule="evenodd" d="M11.4424 0.550735C20.1165 -3.71 28.9898 -3.40347 31.2733 1.24042C33.5568 5.88432 28.3615 13.0877 19.6874 17.3485C11.0133 21.6092 2.13992 21.3027 -0.143553 16.6588C-2.42702 12.0149 2.76825 4.81147 11.4424 0.550735Z" fill="#FDFFF8"/>
</g>
</g>
<defs>
<filter id="filter0_i_3570_19855" x="0.800781" y="0.333984" width="60" height="60" filterUnits="userSpaceOnUse" color-interpolation-filters="sRGB">
<feFlood flood-opacity="0" result="BackgroundImageFix"/>
<feBlend mode="normal" in="SourceGraphic" in2="BackgroundImageFix" result="shape"/>
<feColorMatrix in="SourceAlpha" type="matrix" values="0 0 0 0 0 0 0 0 0 0 0 0 0 0 0 0 0 0 127 0" result="hardAlpha"/>
<feOffset/>
<feGaussianBlur stdDeviation="5"/>
<feComposite in2="hardAlpha" operator="arithmetic" k2="-1" k3="1"/>
<feColorMatrix type="matrix" values="0 0 0 0 0 0 0 0 0 0 0 0 0 0 0 0 0 0 0.6 0"/>
<feBlend mode="normal" in2="shape" result="effect1_innerShadow_3570_19855"/>
</filter>
<clipPath id="clip0_3570_19855">
<rect x="0.800781" y="0.333984" width="60" height="60" rx="30" fill="white"/>
</clipPath>
</defs>
</svg>
