<svg width="61" height="61" viewBox="0 0 61 61" fill="none" xmlns="http://www.w3.org/2000/svg">
<g filter="url(#filter0_i_3570_19274)">
<g clip-path="url(#clip0_3570_19274)">
<rect x="0.400391" y="0.666992" width="60" height="60" rx="30" fill="#82857D"/>
<path fill-rule="evenodd" clip-rule="evenodd" d="M17.664 -2.99425C36.2517 -10.0279 57.0283 -0.661643 64.0615 17.9274C71.0947 36.5164 61.7291 57.2945 43.1414 64.3282C24.5537 71.3619 3.77705 61.9956 -3.25613 43.4066C-10.2893 24.8175 -0.923692 4.03945 17.664 -2.99425Z" fill="#782326"/>
<path fill-rule="evenodd" clip-rule="evenodd" d="M17.6648 -2.9948C35.9116 -9.90289 56.2755 -0.985174 63.6496 16.922C68.9245 34.8113 59.5768 54.0284 41.8503 60.7211C23.6035 67.6292 3.23956 58.7115 -4.13452 40.8043C-9.40941 22.915 -0.0617142 3.69798 17.6648 -2.9948Z" fill="#B65155"/>
<path fill-rule="evenodd" clip-rule="evenodd" d="M21.938 6.95226C35.4841 1.82053 50.627 8.65685 55.7404 22.2039C60.8717 35.7509 54.0359 50.8949 40.4898 56.0087C26.9438 61.1404 11.8009 54.3041 6.68748 40.757C1.55613 27.21 8.39196 12.066 21.938 6.95226Z" fill="#FDFFF8"/>
<path fill-rule="evenodd" clip-rule="evenodd" d="M31.2136 7.36035C40.956 7.36035 50.1242 13.2995 53.7844 22.9529C58.5031 35.4233 52.2234 49.3472 39.7539 54.0483C36.937 55.1069 34.0484 55.6093 31.2136 55.6093V53.3306C33.7792 53.3306 36.3987 52.882 38.9465 51.9131C50.2319 47.6426 55.9194 35.0286 51.6493 23.7603C48.348 15.0221 40.0409 9.63913 31.2136 9.63913V7.36035ZM22.6733 8.9214C25.4901 7.86276 28.3788 7.36035 31.2136 7.36035V9.63913C28.6479 9.63913 26.0284 10.0877 23.4807 11.0566C12.1953 15.3271 6.5077 27.9411 10.7779 39.2093C14.0791 47.9476 22.3862 53.3306 31.2136 53.3306V55.6093C21.4712 55.6093 12.3029 49.6702 8.64278 40.0168C3.92408 27.5463 10.2037 13.6225 22.6733 8.9214Z" fill="#B65155"/>
<path d="M31.409 42.9929C29.8597 42.9929 28.441 42.6476 27.153 41.9569C25.865 41.2476 24.8383 40.1836 24.073 38.7649C23.3263 37.3462 22.953 35.5542 22.953 33.3889C22.953 31.5036 23.2143 29.8796 23.737 28.5169C24.2783 27.1542 24.9877 26.0436 25.865 25.1849C26.761 24.3076 27.7503 23.6636 28.833 23.2529C29.9343 22.8236 31.045 22.6089 32.165 22.6089C33.117 22.6089 33.8543 22.6836 34.377 22.8329C34.9183 22.9822 35.3943 23.1502 35.805 23.3369L38.353 25.6329L36.393 28.8249L32.165 26.5009C31.3437 26.5009 30.569 26.7062 29.841 27.1169C29.113 27.5276 28.5157 28.1156 28.049 28.8809C27.5823 29.6462 27.321 30.5796 27.265 31.6809L31.689 30.5609C32.9957 30.5609 34.181 30.7756 35.245 31.2049C36.3277 31.6156 37.1957 32.2689 37.849 33.1649C38.5023 34.0422 38.829 35.1996 38.829 36.6369C38.829 38.5596 38.1757 40.0996 36.869 41.2569C35.581 42.4142 33.761 42.9929 31.409 42.9929ZM31.661 39.0449C32.5943 39.0449 33.3223 38.8209 33.845 38.3729C34.3863 37.9249 34.657 37.2902 34.657 36.4689C34.657 35.6849 34.3583 35.0876 33.761 34.6769C33.1637 34.2476 32.389 34.0329 31.437 34.0329C30.6343 34.0329 29.8783 34.1449 29.169 34.3689C28.4597 34.5929 27.9463 34.8262 27.629 35.0689C27.6663 35.6662 27.825 36.2729 28.105 36.8889C28.4037 37.5049 28.8423 38.0182 29.421 38.4289C29.9997 38.8396 30.7463 39.0449 31.661 39.0449Z" fill="#B65155"/>
<path opacity="0.5" fill-rule="evenodd" clip-rule="evenodd" d="M13.8844 1.94364C24.0394 -3.04454 34.4278 -2.68568 37.1011 2.75108C39.7744 8.18784 33.6921 16.6211 23.5371 21.6093C13.382 26.5974 2.99371 26.2386 0.320385 20.8018C-2.35294 15.3651 3.72932 6.93182 13.8844 1.94364Z" fill="#FDFFF8"/>
</g>
</g>
<defs>
<filter id="filter0_i_3570_19274" x="0.400391" y="0.666992" width="60" height="60" filterUnits="userSpaceOnUse" color-interpolation-filters="sRGB">
<feFlood flood-opacity="0" result="BackgroundImageFix"/>
<feBlend mode="normal" in="SourceGraphic" in2="BackgroundImageFix" result="shape"/>
<feColorMatrix in="SourceAlpha" type="matrix" values="0 0 0 0 0 0 0 0 0 0 0 0 0 0 0 0 0 0 127 0" result="hardAlpha"/>
<feOffset/>
<feGaussianBlur stdDeviation="5"/>
<feComposite in2="hardAlpha" operator="arithmetic" k2="-1" k3="1"/>
<feColorMatrix type="matrix" values="0 0 0 0 0 0 0 0 0 0 0 0 0 0 0 0 0 0 0.6 0"/>
<feBlend mode="normal" in2="shape" result="effect1_innerShadow_3570_19274"/>
</filter>
<clipPath id="clip0_3570_19274">
<rect x="0.400391" y="0.666992" width="60" height="60" rx="30" fill="white"/>
</clipPath>
</defs>
</svg>
