<svg width="61" height="61" viewBox="0 0 61 61" fill="none" xmlns="http://www.w3.org/2000/svg">
<g filter="url(#filter0_i_3570_20048)">
<g clip-path="url(#clip0_3570_20048)">
<rect x="0.600586" y="0.666992" width="60" height="60" rx="30" fill="#82857D"/>
<path fill-rule="evenodd" clip-rule="evenodd" d="M17.8642 -2.99425C36.4519 -10.0279 57.2285 -0.661643 64.2617 17.9274C71.2949 36.5164 61.9293 57.2945 43.3416 64.3282C24.7539 71.3619 3.97725 61.9956 -3.05594 43.4066C-10.0891 24.8175 -0.723497 4.03945 17.8642 -2.99425Z" fill="#782326"/>
<path fill-rule="evenodd" clip-rule="evenodd" d="M17.865 -2.9948C36.1118 -9.90289 56.4757 -0.985174 63.8498 16.922C69.1247 34.8113 59.777 54.0284 42.0505 60.7211C23.8037 67.6292 3.43976 58.7115 -3.93433 40.8043C-9.20922 22.915 0.138481 3.69798 17.865 -2.9948Z" fill="#B65155"/>
<path fill-rule="evenodd" clip-rule="evenodd" d="M22.1382 6.95226C35.6843 1.82053 50.8272 8.65685 55.9406 22.2039C61.0719 35.7509 54.2361 50.8949 40.69 56.0087C27.144 61.1404 12.0011 54.3041 6.88768 40.757C1.75632 27.21 8.59215 12.066 22.1382 6.95226Z" fill="#FDFFF8"/>
<path fill-rule="evenodd" clip-rule="evenodd" d="M31.4138 7.36035C41.1562 7.36035 50.3244 13.2995 53.9846 22.9529C58.7033 35.4233 52.4236 49.3472 39.9541 54.0483C37.1372 55.1069 34.2486 55.6093 31.4138 55.6093V53.3306C33.9794 53.3306 36.5989 52.882 39.1467 51.9131C50.4321 47.6426 56.1196 35.0286 51.8495 23.7603C48.5482 15.0221 40.2411 9.63913 31.4138 9.63913V7.36035ZM22.8734 8.9214C25.6903 7.86276 28.579 7.36035 31.4138 7.36035V9.63913C28.8481 9.63913 26.2286 10.0877 23.6809 11.0566C12.3955 15.3271 6.7079 27.9411 10.978 39.2093C14.2793 47.9476 22.5864 53.3306 31.4138 53.3306V55.6093C21.6714 55.6093 12.5031 49.6702 8.84297 40.0168C4.12428 27.5463 10.4039 13.6225 22.8734 8.9214Z" fill="#B65155"/>
<path d="M18.222 42.7129L23.458 29.4409L24.942 26.5009H24.102L15.422 27.0609V22.8889H28.974V25.7169L24.354 38.2329L22.954 42.7129H18.222ZM38.7165 42.9929C37.1298 42.9929 35.7485 42.6662 34.5725 42.0129C33.4152 41.3596 32.5192 40.2956 31.8845 38.8209C31.2498 37.3276 30.9325 35.3209 30.9325 32.8009C30.9325 30.3929 31.2498 28.4422 31.8845 26.9489C32.5192 25.4556 33.4152 24.3636 34.5725 23.6729C35.7485 22.9636 37.1298 22.6089 38.7165 22.6089C40.3218 22.6089 41.7032 22.9636 42.8605 23.6729C44.0178 24.3822 44.9138 25.4836 45.5485 26.9769C46.1832 28.4702 46.5005 30.4116 46.5005 32.8009C46.5005 35.2836 46.1832 37.2716 45.5485 38.7649C44.9138 40.2582 44.0178 41.3409 42.8605 42.0129C41.7032 42.6662 40.3218 42.9929 38.7165 42.9929ZM38.7165 38.9609C40.0045 38.9609 40.9285 38.5036 41.4885 37.5889C42.0485 36.6556 42.3285 35.0596 42.3285 32.8009C42.3285 30.6729 42.0485 29.1142 41.4885 28.1249C40.9285 27.1356 40.0045 26.6409 38.7165 26.6409C37.4658 26.6409 36.5512 27.1449 35.9725 28.1529C35.3938 29.1422 35.1045 30.6916 35.1045 32.8009C35.1045 35.0409 35.3938 36.6276 35.9725 37.5609C36.5512 38.4942 37.4658 38.9609 38.7165 38.9609Z" fill="#B65155"/>
<path opacity="0.5" fill-rule="evenodd" clip-rule="evenodd" d="M14.0846 1.94364C24.2396 -3.04454 34.6279 -2.68568 37.3013 2.75108C39.9746 8.18784 33.8923 16.6211 23.7373 21.6093C13.5822 26.5974 3.19391 26.2386 0.520581 20.8018C-2.15275 15.3651 3.92952 6.93182 14.0846 1.94364Z" fill="#FDFFF8"/>
</g>
</g>
<defs>
<filter id="filter0_i_3570_20048" x="0.600586" y="0.666992" width="60" height="60" filterUnits="userSpaceOnUse" color-interpolation-filters="sRGB">
<feFlood flood-opacity="0" result="BackgroundImageFix"/>
<feBlend mode="normal" in="SourceGraphic" in2="BackgroundImageFix" result="shape"/>
<feColorMatrix in="SourceAlpha" type="matrix" values="0 0 0 0 0 0 0 0 0 0 0 0 0 0 0 0 0 0 127 0" result="hardAlpha"/>
<feOffset/>
<feGaussianBlur stdDeviation="5"/>
<feComposite in2="hardAlpha" operator="arithmetic" k2="-1" k3="1"/>
<feColorMatrix type="matrix" values="0 0 0 0 0 0 0 0 0 0 0 0 0 0 0 0 0 0 0.6 0"/>
<feBlend mode="normal" in2="shape" result="effect1_innerShadow_3570_20048"/>
</filter>
<clipPath id="clip0_3570_20048">
<rect x="0.600586" y="0.666992" width="60" height="60" rx="30" fill="white"/>
</clipPath>
</defs>
</svg>
