<svg width="61" height="61" viewBox="0 0 61 61" fill="none" xmlns="http://www.w3.org/2000/svg">
<g filter="url(#filter0_i_3570_19286)">
<g clip-path="url(#clip0_3570_19286)">
<rect x="0.200195" y="0.666992" width="60" height="60" rx="30" fill="#82857D"/>
<path fill-rule="evenodd" clip-rule="evenodd" d="M17.4638 -2.99425C36.0515 -10.0279 56.8281 -0.661643 63.8613 17.9274C70.8945 36.5164 61.5289 57.2945 42.9412 64.3282C24.3535 71.3619 3.57686 61.9956 -3.45633 43.4066C-10.4895 24.8175 -1.12389 4.03945 17.4638 -2.99425Z" fill="#133D63"/>
<path fill-rule="evenodd" clip-rule="evenodd" d="M17.4646 -2.9948C35.7114 -9.90289 56.0753 -0.985174 63.4494 16.922C68.7243 34.8113 59.3766 54.0284 41.6501 60.7211C23.4033 67.6292 3.03937 58.7115 -4.33472 40.8043C-9.60961 22.915 -0.261909 3.69798 17.4646 -2.9948Z" fill="#5884AD"/>
<path fill-rule="evenodd" clip-rule="evenodd" d="M21.7378 6.95226C35.2839 1.82053 50.4268 8.65685 55.5402 22.2039C60.6715 35.7509 53.8357 50.8949 40.2896 56.0087C26.7436 61.1404 11.6007 54.3041 6.48729 40.757C1.35593 27.21 8.19176 12.066 21.7378 6.95226Z" fill="#FDFFF8"/>
<path fill-rule="evenodd" clip-rule="evenodd" d="M31.0134 7.36035C40.7558 7.36035 49.924 13.2995 53.5842 22.9529C58.3029 35.4233 52.0232 49.3472 39.5537 54.0483C36.7368 55.1069 33.8482 55.6093 31.0134 55.6093V53.3306C33.5791 53.3306 36.1986 52.882 38.7463 51.9131C50.0317 47.6426 55.7192 35.0286 51.4491 23.7603C48.1478 15.0221 39.8407 9.63913 31.0134 9.63913V7.36035ZM22.4731 8.9214C25.2899 7.86276 28.1786 7.36035 31.0134 7.36035V9.63913C28.4477 9.63913 25.8282 10.0877 23.2805 11.0566C11.9951 15.3271 6.30751 27.9411 10.5777 39.2093C13.879 47.9476 22.186 53.3306 31.0134 53.3306V55.6093C21.271 55.6093 12.1027 49.6702 8.44258 40.0168C3.72389 27.5463 10.0035 13.6225 22.4731 8.9214Z" fill="#5884AD"/>
<path d="M26.722 42.7129L31.958 29.4409L33.442 26.5009H32.602L23.922 27.0609V22.8889H37.474V25.7169L32.854 38.2329L31.454 42.7129H26.722Z" fill="#5884AD"/>
<path opacity="0.5" fill-rule="evenodd" clip-rule="evenodd" d="M13.6842 1.94364C23.8393 -3.04454 34.2276 -2.68568 36.9009 2.75108C39.5742 8.18784 33.492 16.6211 23.3369 21.6093C13.1818 26.5974 2.79352 26.2386 0.12019 20.8018C-2.55314 15.3651 3.52913 6.93182 13.6842 1.94364Z" fill="#FDFFF8"/>
</g>
</g>
<defs>
<filter id="filter0_i_3570_19286" x="0.200195" y="0.666992" width="60" height="60" filterUnits="userSpaceOnUse" color-interpolation-filters="sRGB">
<feFlood flood-opacity="0" result="BackgroundImageFix"/>
<feBlend mode="normal" in="SourceGraphic" in2="BackgroundImageFix" result="shape"/>
<feColorMatrix in="SourceAlpha" type="matrix" values="0 0 0 0 0 0 0 0 0 0 0 0 0 0 0 0 0 0 127 0" result="hardAlpha"/>
<feOffset/>
<feGaussianBlur stdDeviation="5"/>
<feComposite in2="hardAlpha" operator="arithmetic" k2="-1" k3="1"/>
<feColorMatrix type="matrix" values="0 0 0 0 0 0 0 0 0 0 0 0 0 0 0 0 0 0 0.6 0"/>
<feBlend mode="normal" in2="shape" result="effect1_innerShadow_3570_19286"/>
</filter>
<clipPath id="clip0_3570_19286">
<rect x="0.200195" y="0.666992" width="60" height="60" rx="30" fill="white"/>
</clipPath>
</defs>
</svg>
