<svg width="61" height="61" viewBox="0 0 61 61" fill="none" xmlns="http://www.w3.org/2000/svg">
<g filter="url(#filter0_i_3570_19214)">
<g clip-path="url(#clip0_3570_19214)">
<rect x="0.400391" y="0.666992" width="60" height="60" rx="30" fill="#82857D"/>
<path fill-rule="evenodd" clip-rule="evenodd" d="M17.664 -2.99425C36.2517 -10.0279 57.0283 -0.661643 64.0615 17.9274C71.0947 36.5164 61.7291 57.2945 43.1414 64.3282C24.5537 71.3619 3.77705 61.9956 -3.25613 43.4066C-10.2893 24.8175 -0.923692 4.03945 17.664 -2.99425Z" fill="#5B3267"/>
<path fill-rule="evenodd" clip-rule="evenodd" d="M17.6648 -2.9948C35.9116 -9.90289 56.2755 -0.985174 63.6496 16.922C68.9245 34.8113 59.5768 54.0283 41.8503 60.7211C23.6035 67.6292 3.23956 58.7115 -4.13452 40.8043C-9.40941 22.915 -0.0617142 3.69797 17.6648 -2.9948Z" fill="#875796"/>
<path fill-rule="evenodd" clip-rule="evenodd" d="M21.938 6.95812C35.4841 1.82639 50.627 8.66271 55.7404 22.2097C60.8717 35.7568 54.0359 50.9007 40.4898 56.0145C26.9438 61.1462 11.8009 54.3099 6.68748 40.7629C1.55613 27.2159 8.39196 12.0719 21.938 6.95812Z" fill="#FDFFF8"/>
<path fill-rule="evenodd" clip-rule="evenodd" d="M31.2136 7.36621C40.956 7.36621 50.1242 13.3054 53.7844 22.9588C58.5031 35.4292 52.2234 49.3531 39.7539 54.0541C36.937 55.1128 34.0484 55.6152 31.2136 55.6152V53.3364C33.7792 53.3364 36.3987 52.8878 38.9465 51.9189C50.2319 47.6485 55.9194 35.0345 51.6493 23.7662C48.348 15.0279 40.0409 9.64498 31.2136 9.64498V7.36621ZM22.6733 8.92726C25.4901 7.86862 28.3788 7.36621 31.2136 7.36621V9.64498C28.6479 9.64498 26.0284 10.0936 23.4807 11.0625C12.1953 15.3329 6.5077 27.9469 10.7779 39.2152C14.0791 47.9535 22.3862 53.3364 31.2136 53.3364V55.6152C21.4712 55.6152 12.3029 49.676 8.64278 40.0226C3.92408 27.5522 10.2037 13.6284 22.6733 8.92726Z" fill="#875796"/>
<path d="M29.9979 42.7129V27.6209H26.6379V24.5689L34.0299 22.8889L34.3099 24.5689L34.0299 27.3689V42.7129H29.9979Z" fill="#875796"/>
<path opacity="0.5" fill-rule="evenodd" clip-rule="evenodd" d="M11.042 0.883743C19.7161 -3.37699 28.5894 -3.07046 30.8729 1.57343C33.1564 6.21733 27.9611 13.4207 19.287 17.6815C10.6129 21.9422 1.73952 21.6357 -0.543944 16.9918C-2.82741 12.3479 2.36786 5.14448 11.042 0.883743Z" fill="#FDFFF8"/>
</g>
</g>
<defs>
<filter id="filter0_i_3570_19214" x="0.400391" y="0.666992" width="60" height="60" filterUnits="userSpaceOnUse" color-interpolation-filters="sRGB">
<feFlood flood-opacity="0" result="BackgroundImageFix"/>
<feBlend mode="normal" in="SourceGraphic" in2="BackgroundImageFix" result="shape"/>
<feColorMatrix in="SourceAlpha" type="matrix" values="0 0 0 0 0 0 0 0 0 0 0 0 0 0 0 0 0 0 127 0" result="hardAlpha"/>
<feOffset/>
<feGaussianBlur stdDeviation="5"/>
<feComposite in2="hardAlpha" operator="arithmetic" k2="-1" k3="1"/>
<feColorMatrix type="matrix" values="0 0 0 0 0 0 0 0 0 0 0 0 0 0 0 0 0 0 0.6 0"/>
<feBlend mode="normal" in2="shape" result="effect1_innerShadow_3570_19214"/>
</filter>
<clipPath id="clip0_3570_19214">
<rect x="0.400391" y="0.666992" width="60" height="60" rx="30" fill="white"/>
</clipPath>
</defs>
</svg>
