<svg width="61" height="61" viewBox="0 0 61 61" fill="none" xmlns="http://www.w3.org/2000/svg">
<g filter="url(#filter0_i_3570_19589)">
<g clip-path="url(#clip0_3570_19589)">
<rect x="0.200195" y="0.666992" width="60" height="60" rx="30" fill="#82857D"/>
<path fill-rule="evenodd" clip-rule="evenodd" d="M17.4638 -2.99425C36.0515 -10.0279 56.8281 -0.661643 63.8613 17.9274C70.8945 36.5164 61.5289 57.2945 42.9412 64.3282C24.3535 71.3619 3.57686 61.9956 -3.45633 43.4066C-10.4895 24.8175 -1.12389 4.03945 17.4638 -2.99425Z" fill="#904D16"/>
<path fill-rule="evenodd" clip-rule="evenodd" d="M17.4646 -2.9948C35.7114 -9.90289 56.0753 -0.985174 63.4494 16.922C68.7243 34.8113 59.3766 54.0283 41.6501 60.7211C23.4033 67.6292 3.03937 58.7115 -4.33472 40.8043C-9.60961 22.915 -0.261909 3.69797 17.4646 -2.9948Z" fill="#DC8944"/>
<path fill-rule="evenodd" clip-rule="evenodd" d="M21.7378 6.95812C35.2839 1.82639 50.4268 8.66271 55.5402 22.2097C60.6715 35.7568 53.8357 50.9007 40.2896 56.0145C26.7436 61.1462 11.6007 54.3099 6.48729 40.7629C1.35593 27.2159 8.19176 12.0719 21.7378 6.95812Z" fill="#FDFFF8"/>
<path fill-rule="evenodd" clip-rule="evenodd" d="M31.0134 7.36621C40.7558 7.36621 49.924 13.3054 53.5842 22.9588C58.3029 35.4292 52.0232 49.3531 39.5537 54.0541C36.7368 55.1128 33.8482 55.6152 31.0134 55.6152V53.3364C33.5791 53.3364 36.1986 52.8878 38.7463 51.9189C50.0317 47.6485 55.7192 35.0345 51.4491 23.7662C48.1478 15.0279 39.8407 9.64498 31.0134 9.64498V7.36621ZM22.4731 8.92726C25.2899 7.86862 28.1786 7.36621 31.0134 7.36621V9.64498C28.4477 9.64498 25.8282 10.0936 23.2805 11.0625C11.9951 15.3329 6.30751 27.9469 10.5777 39.2152C13.879 47.9535 22.186 53.3364 31.0134 53.3364V55.6152C21.271 55.6152 12.1027 49.676 8.44258 40.0226C3.72389 27.5522 10.0035 13.6284 22.4731 8.92726Z" fill="#DC8944"/>
<path d="M22.247 42.9929C21.6496 42.9929 21.0803 42.9742 20.539 42.9369C20.0163 42.8996 19.5216 42.8436 19.055 42.7689L15.247 41.4809L16.367 37.5889L21.687 39.1009C23.0123 39.1009 23.9456 38.8489 24.487 38.3449C25.047 37.8222 25.327 37.1502 25.327 36.3289C25.327 35.7316 25.1496 35.2556 24.795 34.9009C24.459 34.5462 23.8896 34.3689 23.087 34.3689H19.531V30.7569H22.387C24.1603 30.7569 25.047 29.9729 25.047 28.4049C25.047 27.1542 24.179 26.5289 22.443 26.5289C21.379 26.5289 20.4363 26.6316 19.615 26.8369C18.7936 27.0236 18.0843 27.2476 17.487 27.5089C16.9083 27.7516 16.4416 27.9569 16.087 28.1249V24.2049C16.6283 23.8502 17.4123 23.5049 18.439 23.1689C19.4656 22.8142 20.8096 22.6369 22.471 22.6369C24.5803 22.6369 26.1763 23.1036 27.259 24.0369C28.3603 24.9516 28.911 26.2489 28.911 27.9289C28.911 28.8996 28.7523 29.7022 28.435 30.3369C28.1363 30.9529 27.7536 31.4476 27.287 31.8209C28.0896 32.3249 28.7056 32.9316 29.135 33.6409C29.5643 34.3316 29.779 35.2182 29.779 36.3009C29.779 37.7196 29.4616 38.9329 28.827 39.9409C28.211 40.9302 27.3336 41.6862 26.195 42.2089C25.075 42.7316 23.759 42.9929 22.247 42.9929ZM31.8687 42.7129V39.6609C31.8687 39.6609 32.0833 39.5209 32.5127 39.2409C32.942 38.9422 33.4927 38.5596 34.1647 38.0929C34.8367 37.6262 35.5273 37.1129 36.2367 36.5529C36.9647 35.9929 37.6087 35.4422 38.1687 34.9009C39.382 33.7622 40.2873 32.7449 40.8847 31.8489C41.482 30.9529 41.7807 29.9636 41.7807 28.8809C41.7807 28.1529 41.5473 27.5836 41.0807 27.1729C40.6327 26.7436 39.886 26.5289 38.8407 26.5289C38.0567 26.5289 37.2633 26.6129 36.4607 26.7809C35.658 26.9489 34.9113 27.1636 34.2207 27.4249C33.53 27.6676 32.942 27.9196 32.4567 28.1809V24.2609C32.6433 24.1676 33.0167 23.9996 33.5767 23.7569C34.1553 23.4956 34.9113 23.2529 35.8447 23.0289C36.778 22.8049 37.8793 22.6929 39.1487 22.6929C41.5193 22.6929 43.274 23.2062 44.4127 24.2329C45.57 25.2409 46.1487 26.6782 46.1487 28.5449C46.1487 29.7022 45.906 30.7756 45.4207 31.7649C44.954 32.7542 44.3287 33.6596 43.5447 34.4809C42.7793 35.3022 41.9487 36.0489 41.0527 36.7209C40.1753 37.3929 39.326 37.9902 38.5047 38.5129L38.6447 39.0729L46.1487 38.5129V42.7129H31.8687Z" fill="#DC8944"/>
<path opacity="0.5" fill-rule="evenodd" clip-rule="evenodd" d="M10.8418 0.883743C19.5159 -3.37699 28.3892 -3.07046 30.6727 1.57343C32.9562 6.21733 27.7609 13.4207 19.0868 17.6815C10.4127 21.9422 1.53933 21.6357 -0.744139 16.9918C-3.02761 12.3479 2.16766 5.14448 10.8418 0.883743Z" fill="#FDFFF8"/>
</g>
</g>
<defs>
<filter id="filter0_i_3570_19589" x="0.200195" y="0.666992" width="60" height="60" filterUnits="userSpaceOnUse" color-interpolation-filters="sRGB">
<feFlood flood-opacity="0" result="BackgroundImageFix"/>
<feBlend mode="normal" in="SourceGraphic" in2="BackgroundImageFix" result="shape"/>
<feColorMatrix in="SourceAlpha" type="matrix" values="0 0 0 0 0 0 0 0 0 0 0 0 0 0 0 0 0 0 127 0" result="hardAlpha"/>
<feOffset/>
<feGaussianBlur stdDeviation="5"/>
<feComposite in2="hardAlpha" operator="arithmetic" k2="-1" k3="1"/>
<feColorMatrix type="matrix" values="0 0 0 0 0 0 0 0 0 0 0 0 0 0 0 0 0 0 0.6 0"/>
<feBlend mode="normal" in2="shape" result="effect1_innerShadow_3570_19589"/>
</filter>
<clipPath id="clip0_3570_19589">
<rect x="0.200195" y="0.666992" width="60" height="60" rx="30" fill="white"/>
</clipPath>
</defs>
</svg>
