<svg width="60" height="60" viewBox="0 0 60 60" fill="none" xmlns="http://www.w3.org/2000/svg">
<g filter="url(#filter0_i_3570_19782)">
<g clip-path="url(#clip0_3570_19782)">
<rect width="60" height="60" rx="30" fill="#82857D"/>
<path fill-rule="evenodd" clip-rule="evenodd" d="M17.2636 -3.66124C35.8513 -10.6949 56.6279 -1.32864 63.6611 17.2604C70.6943 35.8494 61.3287 56.6275 42.741 63.6612C24.1533 70.6949 3.37666 61.3286 -3.65652 42.7396C-10.6897 24.1506 -1.32408 3.37245 17.2636 -3.66124Z" fill="#5B3267"/>
<path fill-rule="evenodd" clip-rule="evenodd" d="M17.2644 -3.66179C35.5112 -10.5699 55.8751 -1.65217 63.2492 16.255C68.5241 34.1443 59.1765 53.3614 41.4499 60.0541C23.2031 66.9622 2.83917 58.0445 -4.53491 40.1373C-9.8098 22.248 -0.462105 3.03098 17.2644 -3.66179Z" fill="#875796"/>
<path fill-rule="evenodd" clip-rule="evenodd" d="M21.5376 6.29112C35.0837 1.1594 50.2266 7.99572 55.34 21.5427C60.4713 35.0898 53.6355 50.2338 40.0894 55.3475C26.5434 60.4793 11.4005 53.6429 6.28709 40.0959C1.15574 26.5489 7.99157 11.4049 21.5376 6.29112Z" fill="#FDFFF8"/>
<path fill-rule="evenodd" clip-rule="evenodd" d="M30.8132 6.69922C40.5556 6.69922 49.7238 12.6384 53.384 22.2918C58.1027 34.7622 51.823 48.6861 39.3535 53.3871C36.5366 54.4458 33.648 54.9482 30.8132 54.9482V52.6694C33.3789 52.6694 35.9984 52.2209 38.5461 51.2519C49.8315 46.9815 55.519 34.3675 51.2489 23.0992C47.9476 14.3609 39.6405 8.97799 30.8132 8.97799V6.69922ZM22.2729 8.26027C25.0897 7.20163 27.9784 6.69922 30.8132 6.69922V8.97799C28.2475 8.97799 25.628 9.42657 23.0803 10.3955C11.7949 14.666 6.10731 27.2799 10.3775 38.5482C13.6788 47.2865 21.9858 52.6694 30.8132 52.6694V54.9482C21.0708 54.9482 11.9025 49.009 8.24238 39.3557C3.52369 26.8852 9.80331 12.9614 22.2729 8.26027Z" fill="#875796"/>
<path d="M23.1111 42.0459V39.2459H12.4431V36.3899L21.5431 22.2219H27.1431L27.7031 23.9299L27.1431 26.7299V35.5499H30.7831V38.9659L27.1431 39.2459V42.0459H23.1111ZM17.5671 35.5499H23.1111V27.2059H22.6071L17.5671 35.5499ZM40.0456 42.3259C39.019 42.3259 38.0296 42.2326 37.0776 42.0459C36.1443 41.8406 35.3043 41.5139 34.5576 41.0659C33.8296 40.5992 33.251 39.9739 32.8216 39.1899C32.3923 38.4059 32.1776 37.4259 32.1776 36.2499C32.1776 35.0552 32.4296 34.0939 32.9336 33.3659C33.4376 32.6379 34.1003 32.0779 34.9216 31.6859C34.399 31.2379 33.951 30.6686 33.5776 29.9779C33.2043 29.2872 33.0176 28.4472 33.0176 27.4579C33.0176 25.8526 33.587 24.5366 34.7256 23.5099C35.8643 22.4646 37.619 21.9419 39.9896 21.9419C42.379 21.9419 44.1243 22.4179 45.2256 23.3699C46.327 24.3219 46.8776 25.6846 46.8776 27.4579C46.8776 28.3539 46.691 29.1659 46.3176 29.8939C45.9443 30.6219 45.487 31.2006 44.9456 31.6299C45.7296 32.0219 46.383 32.6006 46.9056 33.3659C47.447 34.1312 47.7176 35.0926 47.7176 36.2499C47.7176 37.8179 47.363 39.0406 46.6536 39.9179C45.9443 40.7952 45.011 41.4206 43.8536 41.7939C42.6963 42.1486 41.427 42.3259 40.0456 42.3259ZM40.0456 30.3979C40.9603 30.3979 41.6416 30.2112 42.0896 29.8379C42.5376 29.4646 42.7616 28.9606 42.7616 28.3259C42.7616 27.5606 42.547 26.9632 42.1176 26.5339C41.707 26.0859 41.0163 25.8619 40.0456 25.8619C39.2056 25.8619 38.515 26.0486 37.9736 26.4219C37.451 26.7952 37.1896 27.3366 37.1896 28.0459C37.1896 28.6246 37.3296 29.0912 37.6096 29.4459C37.9083 29.7819 38.2723 30.0246 38.7016 30.1739C39.1496 30.3232 39.5976 30.3979 40.0456 30.3979ZM40.0456 38.4059C41.0536 38.4059 41.8936 38.2379 42.5656 37.9019C43.2563 37.5659 43.6016 37.0526 43.6016 36.3619C43.6016 35.3912 43.1163 34.6166 42.1456 34.0379C41.1936 33.4406 39.7563 33.1326 37.8336 33.1139C37.4603 33.3939 37.143 33.7579 36.8816 34.2059C36.639 34.6352 36.5176 35.0926 36.5176 35.5779C36.5176 36.6046 36.8536 37.3326 37.5256 37.7619C38.1976 38.1912 39.0376 38.4059 40.0456 38.4059Z" fill="#875796"/>
<path opacity="0.5" fill-rule="evenodd" clip-rule="evenodd" d="M10.6416 0.216751C19.3157 -4.04399 28.189 -3.73746 30.4725 0.90644C32.756 5.55034 27.5607 12.7537 18.8866 17.0145C10.2125 21.2752 1.33913 20.9687 -0.944335 16.3248C-3.2278 11.6809 1.96747 4.47749 10.6416 0.216751Z" fill="#FDFFF8"/>
</g>
</g>
<defs>
<filter id="filter0_i_3570_19782" x="0" y="0" width="60" height="60" filterUnits="userSpaceOnUse" color-interpolation-filters="sRGB">
<feFlood flood-opacity="0" result="BackgroundImageFix"/>
<feBlend mode="normal" in="SourceGraphic" in2="BackgroundImageFix" result="shape"/>
<feColorMatrix in="SourceAlpha" type="matrix" values="0 0 0 0 0 0 0 0 0 0 0 0 0 0 0 0 0 0 127 0" result="hardAlpha"/>
<feOffset/>
<feGaussianBlur stdDeviation="5"/>
<feComposite in2="hardAlpha" operator="arithmetic" k2="-1" k3="1"/>
<feColorMatrix type="matrix" values="0 0 0 0 0 0 0 0 0 0 0 0 0 0 0 0 0 0 0.6 0"/>
<feBlend mode="normal" in2="shape" result="effect1_innerShadow_3570_19782"/>
</filter>
<clipPath id="clip0_3570_19782">
<rect width="60" height="60" rx="30" fill="white"/>
</clipPath>
</defs>
</svg>
