<svg width="61" height="60" viewBox="0 0 61 60" fill="none" xmlns="http://www.w3.org/2000/svg">
<g filter="url(#filter0_i_3570_19794)">
<g clip-path="url(#clip0_3570_19794)">
<rect x="0.800781" width="60" height="60" rx="30" fill="#82857D"/>
<path fill-rule="evenodd" clip-rule="evenodd" d="M18.0644 -3.66124C36.6521 -10.6949 57.4287 -1.32864 64.4619 17.2604C71.4951 35.8494 62.1295 56.6275 43.5418 63.6612C24.9541 70.6949 4.17744 61.3286 -2.85574 42.7396C-9.88893 24.1506 -0.523302 3.37245 18.0644 -3.66124Z" fill="#904D16"/>
<path fill-rule="evenodd" clip-rule="evenodd" d="M18.0652 -3.66179C36.312 -10.5699 56.6759 -1.65217 64.05 16.255C69.3249 34.1443 59.9772 53.3614 42.2507 60.0541C24.0039 66.9622 3.63995 58.0445 -3.73413 40.1373C-9.00902 22.248 0.338676 3.03098 18.0652 -3.66179Z" fill="#DC8944"/>
<path fill-rule="evenodd" clip-rule="evenodd" d="M22.3384 6.29112C35.8845 1.1594 51.0273 7.99572 56.1408 21.5427C61.2721 35.0898 54.4363 50.2338 40.8902 55.3475C27.3442 60.4793 12.2013 53.6429 7.08788 40.0959C1.95652 26.5489 8.79235 11.4049 22.3384 6.29112Z" fill="#FDFFF8"/>
<path fill-rule="evenodd" clip-rule="evenodd" d="M31.614 6.69922C41.3564 6.69922 50.5246 12.6384 54.1848 22.2918C58.9035 34.7622 52.6238 48.6861 40.1543 53.3871C37.3374 54.4458 34.4488 54.9482 31.614 54.9482V52.6694C34.1796 52.6694 36.7991 52.2209 39.3469 51.2519C50.6323 46.9815 56.3198 34.3675 52.0497 23.0992C48.7484 14.3609 40.4413 8.97799 31.614 8.97799V6.69922ZM23.0736 8.26027C25.8905 7.20163 28.7792 6.69922 31.614 6.69922V8.97799C29.0483 8.97799 26.4288 9.42657 23.881 10.3955C12.5957 14.666 6.9081 27.2799 11.1782 38.5482C14.4795 47.2865 22.7866 52.6694 31.614 52.6694V54.9482C21.8716 54.9482 12.7033 49.009 9.04317 39.3557C4.32447 26.8852 10.6041 12.9614 23.0736 8.26027Z" fill="#DC8944"/>
<path d="M23.7341 42.0459V39.2459H13.0661V36.3899L22.1661 22.2219H27.7661L28.3261 23.9299L27.7661 26.7299V35.5499H31.4061V38.9659L27.7661 39.2459V42.0459H23.7341ZM18.1901 35.5499H23.7341V27.2059H23.2301L18.1901 35.5499ZM39.7727 42.3259C39.026 42.3259 38.4287 42.2886 37.9807 42.2139C37.5327 42.1579 37.1127 42.0926 36.7207 42.0179L33.3047 39.9739L34.9567 36.6699L39.4647 38.4339C40.23 38.4339 40.958 38.2659 41.6487 37.9299C42.358 37.5752 42.946 37.0432 43.4127 36.3339C43.8793 35.6059 44.15 34.6912 44.2247 33.5899L39.6327 34.4299C38.3073 34.4299 37.1313 34.2432 36.1047 33.8699C35.078 33.4966 34.266 32.8712 33.6687 31.9939C33.09 31.0979 32.8007 29.8752 32.8007 28.3259C32.8007 27.2619 33.0713 26.2446 33.6127 25.2739C34.1727 24.2846 35.0033 23.4819 36.1047 22.8659C37.206 22.2499 38.5873 21.9419 40.2487 21.9419C41.8913 21.9419 43.338 22.2779 44.5887 22.9499C45.858 23.6219 46.8567 24.7046 47.5847 26.1979C48.3127 27.6726 48.6767 29.6512 48.6767 32.1339C48.6767 34.2992 48.3033 36.1472 47.5567 37.6779C46.81 39.1899 45.7647 40.3472 44.4207 41.1499C43.0953 41.9339 41.546 42.3259 39.7727 42.3259ZM39.6327 30.9299C40.4727 30.9299 41.3313 30.9019 42.2087 30.8459C43.086 30.7899 43.758 30.7246 44.2247 30.6499C44.1127 27.4952 42.7873 25.9179 40.2487 25.9179C39.11 25.9179 38.2793 26.1979 37.7567 26.7579C37.234 27.3179 36.9727 27.9899 36.9727 28.7739C36.9727 29.5206 37.1873 30.0712 37.6167 30.4259C38.046 30.7619 38.718 30.9299 39.6327 30.9299Z" fill="#DC8944"/>
<path opacity="0.5" fill-rule="evenodd" clip-rule="evenodd" d="M11.4424 0.216751C20.1165 -4.04399 28.9898 -3.73746 31.2733 0.90644C33.5568 5.55034 28.3615 12.7537 19.6874 17.0145C11.0133 21.2752 2.13992 20.9687 -0.143553 16.3248C-2.42702 11.6809 2.76825 4.47749 11.4424 0.216751Z" fill="#FDFFF8"/>
</g>
</g>
<defs>
<filter id="filter0_i_3570_19794" x="0.800781" y="0" width="60" height="60" filterUnits="userSpaceOnUse" color-interpolation-filters="sRGB">
<feFlood flood-opacity="0" result="BackgroundImageFix"/>
<feBlend mode="normal" in="SourceGraphic" in2="BackgroundImageFix" result="shape"/>
<feColorMatrix in="SourceAlpha" type="matrix" values="0 0 0 0 0 0 0 0 0 0 0 0 0 0 0 0 0 0 127 0" result="hardAlpha"/>
<feOffset/>
<feGaussianBlur stdDeviation="5"/>
<feComposite in2="hardAlpha" operator="arithmetic" k2="-1" k3="1"/>
<feColorMatrix type="matrix" values="0 0 0 0 0 0 0 0 0 0 0 0 0 0 0 0 0 0 0.6 0"/>
<feBlend mode="normal" in2="shape" result="effect1_innerShadow_3570_19794"/>
</filter>
<clipPath id="clip0_3570_19794">
<rect x="0.800781" width="60" height="60" rx="30" fill="white"/>
</clipPath>
</defs>
</svg>
