<svg width="61" height="60" viewBox="0 0 61 60" fill="none" xmlns="http://www.w3.org/2000/svg">
<g filter="url(#filter0_i_3570_20097)">
<g clip-path="url(#clip0_3570_20097)">
<rect x="0.800781" width="60" height="60" rx="30" fill="#82857D"/>
<path fill-rule="evenodd" clip-rule="evenodd" d="M18.0644 -3.66124C36.6521 -10.6949 57.4287 -1.32864 64.4619 17.2604C71.4951 35.8494 62.1295 56.6275 43.5418 63.6612C24.9541 70.6949 4.17744 61.3286 -2.85574 42.7396C-9.88893 24.1506 -0.523302 3.37245 18.0644 -3.66124Z" fill="#206446"/>
<path fill-rule="evenodd" clip-rule="evenodd" d="M18.0652 -3.66179C36.312 -10.5699 56.6759 -1.65217 64.05 16.255C69.3249 34.1443 59.9772 53.3614 42.2507 60.0541C24.0039 66.9622 3.63995 58.0445 -3.73413 40.1373C-9.00902 22.248 0.338676 3.03098 18.0652 -3.66179Z" fill="#8BC1A9"/>
<path fill-rule="evenodd" clip-rule="evenodd" d="M22.3384 6.28526C35.8845 1.15354 51.0273 7.98986 56.1408 21.5369C61.2721 35.0839 54.4363 50.2279 40.8902 55.3417C27.3442 60.4734 12.2013 53.6371 7.08788 40.09C1.95652 26.543 8.79235 11.399 22.3384 6.28526Z" fill="#FDFFF8"/>
<path fill-rule="evenodd" clip-rule="evenodd" d="M31.614 6.69336C41.3564 6.69336 50.5246 12.6325 54.1848 22.2859C58.9034 34.7564 52.6238 48.6802 40.1542 53.3813C37.3374 54.4399 34.4488 54.9423 31.614 54.9423V52.6636C34.1796 52.6636 36.7991 52.215 39.3469 51.2461C50.6323 46.9756 56.3198 34.3616 52.0497 23.0933C48.7484 14.3551 40.4413 8.97213 31.614 8.97213V6.69336ZM23.0736 8.25441C25.8905 7.19577 28.7792 6.69336 31.614 6.69336V8.97213C29.0483 8.97213 26.4288 9.42071 23.881 10.3896C12.5957 14.6601 6.9081 27.2741 11.1782 38.5424C14.4795 47.2806 22.7866 52.6636 31.614 52.6636V54.9423C21.8716 54.9423 12.7033 49.0032 9.04317 39.3498C4.32447 26.8793 10.6041 12.9555 23.0736 8.25441Z" fill="#8BC1A9"/>
<path opacity="0.5" fill-rule="evenodd" clip-rule="evenodd" d="M14.2848 1.27665C24.4398 -3.71153 34.8281 -3.35267 37.5015 2.08409C40.1748 7.52084 34.0925 15.9541 23.9375 20.9423C13.7824 25.9305 3.3941 25.5716 0.720776 20.1348C-1.95255 14.6981 4.12971 6.26483 14.2848 1.27665Z" fill="#FDFFF8"/>
<path d="M18.1488 42.0459L23.3848 28.7739L24.8688 25.8339H24.0288L15.3488 26.3939V22.2219H28.9008V25.0499L24.2808 37.5659L22.8808 42.0459H18.1488ZM40.1404 42.0459V39.2459H29.4724V36.3899L38.5724 22.2219H44.1724L44.7324 23.9299L44.1724 26.7299V35.5499H47.8124V38.9659L44.1724 39.2459V42.0459H40.1404ZM34.5964 35.5499H40.1404V27.2059H39.6364L34.5964 35.5499Z" fill="#8BC1A9"/>
</g>
</g>
<defs>
<filter id="filter0_i_3570_20097" x="0.800781" y="0" width="60" height="60" filterUnits="userSpaceOnUse" color-interpolation-filters="sRGB">
<feFlood flood-opacity="0" result="BackgroundImageFix"/>
<feBlend mode="normal" in="SourceGraphic" in2="BackgroundImageFix" result="shape"/>
<feColorMatrix in="SourceAlpha" type="matrix" values="0 0 0 0 0 0 0 0 0 0 0 0 0 0 0 0 0 0 127 0" result="hardAlpha"/>
<feOffset/>
<feGaussianBlur stdDeviation="5"/>
<feComposite in2="hardAlpha" operator="arithmetic" k2="-1" k3="1"/>
<feColorMatrix type="matrix" values="0 0 0 0 0 0 0 0 0 0 0 0 0 0 0 0 0 0 0.6 0"/>
<feBlend mode="normal" in2="shape" result="effect1_innerShadow_3570_20097"/>
</filter>
<clipPath id="clip0_3570_20097">
<rect x="0.800781" width="60" height="60" rx="30" fill="white"/>
</clipPath>
</defs>
</svg>
