<svg width="61" height="61" viewBox="0 0 61 61" fill="none" xmlns="http://www.w3.org/2000/svg">
<g filter="url(#filter0_i_3570_20000)">
<g clip-path="url(#clip0_3570_20000)">
<rect x="0.400391" y="0.666992" width="60" height="60" rx="30" fill="#82857D"/>
<path fill-rule="evenodd" clip-rule="evenodd" d="M17.664 -2.99425C36.2517 -10.0279 57.0283 -0.661643 64.0615 17.9274C71.0947 36.5164 61.7291 57.2945 43.1414 64.3282C24.5537 71.3619 3.77705 61.9956 -3.25613 43.4066C-10.2893 24.8175 -0.923692 4.03945 17.664 -2.99425Z" fill="#133D63"/>
<path fill-rule="evenodd" clip-rule="evenodd" d="M17.6648 -2.9948C35.9116 -9.90289 56.2755 -0.985174 63.6496 16.922C68.9245 34.8113 59.5768 54.0284 41.8503 60.7211C23.6035 67.6292 3.23956 58.7115 -4.13452 40.8043C-9.40941 22.915 -0.0617142 3.69798 17.6648 -2.9948Z" fill="#5884AD"/>
<path fill-rule="evenodd" clip-rule="evenodd" d="M21.938 6.95226C35.4841 1.82053 50.627 8.65685 55.7404 22.2039C60.8717 35.7509 54.0359 50.8949 40.4898 56.0087C26.9438 61.1404 11.8009 54.3041 6.68748 40.757C1.55613 27.21 8.39196 12.066 21.938 6.95226Z" fill="#FDFFF8"/>
<path fill-rule="evenodd" clip-rule="evenodd" d="M31.2136 7.36035C40.956 7.36035 50.1242 13.2995 53.7844 22.9529C58.5031 35.4233 52.2234 49.3472 39.7539 54.0483C36.937 55.1069 34.0484 55.6093 31.2136 55.6093V53.3306C33.7792 53.3306 36.3987 52.882 38.9465 51.9131C50.2319 47.6426 55.9194 35.0286 51.6493 23.7603C48.348 15.0221 40.0409 9.63913 31.2136 9.63913V7.36035ZM22.6733 8.9214C25.4901 7.86276 28.3788 7.36035 31.2136 7.36035V9.63913C28.6479 9.63913 26.0284 10.0877 23.4807 11.0566C12.1953 15.3271 6.5077 27.9411 10.7779 39.2093C14.0791 47.9476 22.3862 53.3306 31.2136 53.3306V55.6093C21.4712 55.6093 12.3029 49.6702 8.64278 40.0168C3.92408 27.5463 10.2037 13.6225 22.6733 8.9214Z" fill="#5884AD"/>
<path d="M22.3446 42.9929C20.7952 42.9929 19.3766 42.6476 18.0886 41.9569C16.8006 41.2476 15.7739 40.1836 15.0086 38.7649C14.2619 37.3462 13.8886 35.5542 13.8886 33.3889C13.8886 31.5036 14.1499 29.8796 14.6726 28.5169C15.2139 27.1542 15.9232 26.0436 16.8006 25.1849C17.6966 24.3076 18.6859 23.6636 19.7686 23.2529C20.8699 22.8236 21.9806 22.6089 23.1006 22.6089C24.0526 22.6089 24.7899 22.6836 25.3126 22.8329C25.8539 22.9822 26.3299 23.1502 26.7406 23.3369L29.2886 25.6329L27.3286 28.8249L23.1006 26.5009C22.2792 26.5009 21.5046 26.7062 20.7766 27.1169C20.0486 27.5276 19.4512 28.1156 18.9846 28.8809C18.5179 29.6462 18.2566 30.5796 18.2006 31.6809L22.6246 30.5609C23.9312 30.5609 25.1166 30.7756 26.1806 31.2049C27.2632 31.6156 28.1312 32.2689 28.7846 33.1649C29.4379 34.0422 29.7646 35.1996 29.7646 36.6369C29.7646 38.5596 29.1112 40.0996 27.8046 41.2569C26.5166 42.4142 24.6966 42.9929 22.3446 42.9929ZM22.5966 39.0449C23.5299 39.0449 24.2579 38.8209 24.7806 38.3729C25.3219 37.9249 25.5926 37.2902 25.5926 36.4689C25.5926 35.6849 25.2939 35.0876 24.6966 34.6769C24.0992 34.2476 23.3246 34.0329 22.3726 34.0329C21.5699 34.0329 20.8139 34.1449 20.1046 34.3689C19.3952 34.5929 18.8819 34.8262 18.5646 35.0689C18.6019 35.6662 18.7606 36.2729 19.0406 36.8889C19.3392 37.5049 19.7779 38.0182 20.3566 38.4289C20.9352 38.8396 21.6819 39.0449 22.5966 39.0449ZM40.4735 42.9929C38.9241 42.9929 37.5055 42.6476 36.2175 41.9569C34.9295 41.2476 33.9028 40.1836 33.1375 38.7649C32.3908 37.3462 32.0175 35.5542 32.0175 33.3889C32.0175 31.5036 32.2788 29.8796 32.8015 28.5169C33.3428 27.1542 34.0521 26.0436 34.9295 25.1849C35.8255 24.3076 36.8148 23.6636 37.8975 23.2529C38.9988 22.8236 40.1095 22.6089 41.2295 22.6089C42.1815 22.6089 42.9188 22.6836 43.4415 22.8329C43.9828 22.9822 44.4588 23.1502 44.8695 23.3369L47.4175 25.6329L45.4575 28.8249L41.2295 26.5009C40.4081 26.5009 39.6335 26.7062 38.9055 27.1169C38.1775 27.5276 37.5801 28.1156 37.1135 28.8809C36.6468 29.6462 36.3855 30.5796 36.3295 31.6809L40.7535 30.5609C42.0601 30.5609 43.2455 30.7756 44.3095 31.2049C45.3921 31.6156 46.2601 32.2689 46.9135 33.1649C47.5668 34.0422 47.8935 35.1996 47.8935 36.6369C47.8935 38.5596 47.2401 40.0996 45.9335 41.2569C44.6455 42.4142 42.8255 42.9929 40.4735 42.9929ZM40.7255 39.0449C41.6588 39.0449 42.3868 38.8209 42.9095 38.3729C43.4508 37.9249 43.7215 37.2902 43.7215 36.4689C43.7215 35.6849 43.4228 35.0876 42.8255 34.6769C42.2281 34.2476 41.4535 34.0329 40.5015 34.0329C39.6988 34.0329 38.9428 34.1449 38.2335 34.3689C37.5241 34.5929 37.0108 34.8262 36.6935 35.0689C36.7308 35.6662 36.8895 36.2729 37.1695 36.8889C37.4681 37.5049 37.9068 38.0182 38.4855 38.4289C39.0641 38.8396 39.8108 39.0449 40.7255 39.0449Z" fill="#5884AD"/>
<path opacity="0.5" fill-rule="evenodd" clip-rule="evenodd" d="M13.8844 1.94364C24.0394 -3.04454 34.4278 -2.68568 37.1011 2.75108C39.7744 8.18784 33.6921 16.6211 23.5371 21.6093C13.382 26.5974 2.99371 26.2386 0.320385 20.8018C-2.35294 15.3651 3.72932 6.93182 13.8844 1.94364Z" fill="#FDFFF8"/>
</g>
</g>
<defs>
<filter id="filter0_i_3570_20000" x="0.400391" y="0.666992" width="60" height="60" filterUnits="userSpaceOnUse" color-interpolation-filters="sRGB">
<feFlood flood-opacity="0" result="BackgroundImageFix"/>
<feBlend mode="normal" in="SourceGraphic" in2="BackgroundImageFix" result="shape"/>
<feColorMatrix in="SourceAlpha" type="matrix" values="0 0 0 0 0 0 0 0 0 0 0 0 0 0 0 0 0 0 127 0" result="hardAlpha"/>
<feOffset/>
<feGaussianBlur stdDeviation="5"/>
<feComposite in2="hardAlpha" operator="arithmetic" k2="-1" k3="1"/>
<feColorMatrix type="matrix" values="0 0 0 0 0 0 0 0 0 0 0 0 0 0 0 0 0 0 0.6 0"/>
<feBlend mode="normal" in2="shape" result="effect1_innerShadow_3570_20000"/>
</filter>
<clipPath id="clip0_3570_20000">
<rect x="0.400391" y="0.666992" width="60" height="60" rx="30" fill="white"/>
</clipPath>
</defs>
</svg>
