<svg width="61" height="61" viewBox="0 0 61 61" fill="none" xmlns="http://www.w3.org/2000/svg">
<g filter="url(#filter0_i_3570_19988)">
<g clip-path="url(#clip0_3570_19988)">
<rect x="0.600586" y="0.666992" width="60" height="60" rx="30" fill="#82857D"/>
<path fill-rule="evenodd" clip-rule="evenodd" d="M17.8642 -2.99425C36.4519 -10.0279 57.2285 -0.661643 64.2617 17.9274C71.2949 36.5164 61.9293 57.2945 43.3416 64.3282C24.7539 71.3619 3.97725 61.9956 -3.05594 43.4066C-10.0891 24.8175 -0.723497 4.03945 17.8642 -2.99425Z" fill="#904D16"/>
<path fill-rule="evenodd" clip-rule="evenodd" d="M17.865 -2.9948C36.1118 -9.90289 56.4757 -0.985174 63.8498 16.922C69.1247 34.8113 59.777 54.0283 42.0505 60.7211C23.8037 67.6292 3.43976 58.7115 -3.93433 40.8043C-9.20922 22.915 0.138481 3.69797 17.865 -2.9948Z" fill="#DC8944"/>
<path fill-rule="evenodd" clip-rule="evenodd" d="M22.1382 6.95812C35.6843 1.82639 50.8272 8.66271 55.9406 22.2097C61.0719 35.7568 54.2361 50.9007 40.69 56.0145C27.144 61.1462 12.0011 54.3099 6.88768 40.7629C1.75632 27.2159 8.59215 12.0719 22.1382 6.95812Z" fill="#FDFFF8"/>
<path fill-rule="evenodd" clip-rule="evenodd" d="M31.4138 7.36621C41.1562 7.36621 50.3244 13.3054 53.9846 22.9588C58.7033 35.4292 52.4236 49.3531 39.9541 54.0541C37.1372 55.1128 34.2486 55.6152 31.4138 55.6152V53.3364C33.9794 53.3364 36.5989 52.8878 39.1467 51.9189C50.4321 47.6485 56.1196 35.0345 51.8495 23.7662C48.5482 15.0279 40.2411 9.64498 31.4138 9.64498V7.36621ZM22.8734 8.92726C25.6903 7.86862 28.579 7.36621 31.4138 7.36621V9.64498C28.8481 9.64498 26.2286 10.0936 23.6809 11.0625C12.3955 15.3329 6.7079 27.9469 10.978 39.2152C14.2793 47.9535 22.5864 53.3364 31.4138 53.3364V55.6152C21.6714 55.6152 12.5031 49.676 8.84297 40.0226C4.12428 27.5522 10.4039 13.6284 22.8734 8.92726Z" fill="#DC8944"/>
<path d="M23.1326 42.9929C21.5833 42.9929 20.1646 42.6476 18.8766 41.9569C17.5886 41.2476 16.562 40.1836 15.7966 38.7649C15.05 37.3462 14.6766 35.5542 14.6766 33.3889C14.6766 31.5036 14.938 29.8796 15.4606 28.5169C16.002 27.1542 16.7113 26.0436 17.5886 25.1849C18.4846 24.3076 19.474 23.6636 20.5566 23.2529C21.658 22.8236 22.7686 22.6089 23.8886 22.6089C24.8406 22.6089 25.578 22.6836 26.1006 22.8329C26.642 22.9822 27.118 23.1502 27.5286 23.3369L30.0766 25.6329L28.1166 28.8249L23.8886 26.5009C23.0673 26.5009 22.2926 26.7062 21.5646 27.1169C20.8366 27.5276 20.2393 28.1156 19.7726 28.8809C19.306 29.6462 19.0446 30.5796 18.9886 31.6809L23.4126 30.5609C24.7193 30.5609 25.9046 30.7756 26.9686 31.2049C28.0513 31.6156 28.9193 32.2689 29.5726 33.1649C30.226 34.0422 30.5526 35.1996 30.5526 36.6369C30.5526 38.5596 29.8993 40.0996 28.5926 41.2569C27.3046 42.4142 25.4846 42.9929 23.1326 42.9929ZM23.3846 39.0449C24.318 39.0449 25.046 38.8209 25.5686 38.3729C26.11 37.9249 26.3806 37.2902 26.3806 36.4689C26.3806 35.6849 26.082 35.0876 25.4846 34.6769C24.8873 34.2476 24.1126 34.0329 23.1606 34.0329C22.358 34.0329 21.602 34.1449 20.8926 34.3689C20.1833 34.5929 19.67 34.8262 19.3526 35.0689C19.39 35.6662 19.5486 36.2729 19.8286 36.8889C20.1273 37.5049 20.566 38.0182 21.1446 38.4289C21.7233 38.8396 22.47 39.0449 23.3846 39.0449ZM39.7215 42.9929C39.0122 42.9929 38.3962 42.9742 37.8735 42.9369C37.3695 42.8996 36.8562 42.8436 36.3335 42.7689L32.8055 41.4809L33.9255 37.5889L38.8815 39.1289C40.1695 39.1289 41.1495 38.8956 41.8215 38.4289C42.5122 37.9436 42.8575 37.2529 42.8575 36.3569C42.8575 35.5169 42.6242 34.8449 42.1575 34.3409C41.6909 33.8369 40.7949 33.5849 39.4695 33.5849H33.6455V22.8889H46.1055V26.7809L39.1055 26.5009H37.9295V30.3089H39.8055C42.4002 30.3089 44.2855 30.8036 45.4615 31.7929C46.6375 32.7822 47.2255 34.2476 47.2255 36.1889C47.2255 37.5142 46.9269 38.6902 46.3295 39.7169C45.7509 40.7436 44.9015 41.5462 43.7815 42.1249C42.6615 42.7036 41.3082 42.9929 39.7215 42.9929Z" fill="#DC8944"/>
<path opacity="0.5" fill-rule="evenodd" clip-rule="evenodd" d="M11.2422 0.883743C19.9163 -3.37699 28.7896 -3.07046 31.0731 1.57343C33.3566 6.21733 28.1613 13.4207 19.4872 17.6815C10.8131 21.9422 1.93972 21.6357 -0.343749 16.9918C-2.62722 12.3479 2.56805 5.14448 11.2422 0.883743Z" fill="#FDFFF8"/>
</g>
</g>
<defs>
<filter id="filter0_i_3570_19988" x="0.600586" y="0.666992" width="60" height="60" filterUnits="userSpaceOnUse" color-interpolation-filters="sRGB">
<feFlood flood-opacity="0" result="BackgroundImageFix"/>
<feBlend mode="normal" in="SourceGraphic" in2="BackgroundImageFix" result="shape"/>
<feColorMatrix in="SourceAlpha" type="matrix" values="0 0 0 0 0 0 0 0 0 0 0 0 0 0 0 0 0 0 127 0" result="hardAlpha"/>
<feOffset/>
<feGaussianBlur stdDeviation="5"/>
<feComposite in2="hardAlpha" operator="arithmetic" k2="-1" k3="1"/>
<feColorMatrix type="matrix" values="0 0 0 0 0 0 0 0 0 0 0 0 0 0 0 0 0 0 0.6 0"/>
<feBlend mode="normal" in2="shape" result="effect1_innerShadow_3570_19988"/>
</filter>
<clipPath id="clip0_3570_19988">
<rect x="0.600586" y="0.666992" width="60" height="60" rx="30" fill="white"/>
</clipPath>
</defs>
</svg>
