<svg width="61" height="61" viewBox="0 0 61 61" fill="none" xmlns="http://www.w3.org/2000/svg">
<g filter="url(#filter0_i_3570_19673)">
<g clip-path="url(#clip0_3570_19673)">
<rect x="0.800781" y="0.666992" width="60" height="60" rx="30" fill="#82857D"/>
<path fill-rule="evenodd" clip-rule="evenodd" d="M18.0644 -2.99425C36.6521 -10.0279 57.4287 -0.661643 64.4619 17.9274C71.4951 36.5164 62.1295 57.2945 43.5418 64.3282C24.9541 71.3619 4.17744 61.9956 -2.85574 43.4066C-9.88893 24.8175 -0.523302 4.03945 18.0644 -2.99425Z" fill="#904D16"/>
<path fill-rule="evenodd" clip-rule="evenodd" d="M18.0652 -2.9948C36.312 -9.90289 56.6759 -0.985174 64.05 16.922C69.3249 34.8113 59.9772 54.0283 42.2507 60.7211C24.0039 67.6292 3.63995 58.7115 -3.73413 40.8043C-9.00902 22.915 0.338676 3.69797 18.0652 -2.9948Z" fill="#DC8944"/>
<path fill-rule="evenodd" clip-rule="evenodd" d="M22.3384 6.95812C35.8845 1.82639 51.0273 8.66271 56.1408 22.2097C61.2721 35.7568 54.4363 50.9007 40.8902 56.0145C27.3442 61.1462 12.2013 54.3099 7.08788 40.7629C1.95652 27.2159 8.79235 12.0719 22.3384 6.95812Z" fill="#FDFFF8"/>
<path fill-rule="evenodd" clip-rule="evenodd" d="M31.614 7.36621C41.3564 7.36621 50.5246 13.3054 54.1848 22.9588C58.9035 35.4292 52.6238 49.3531 40.1543 54.0541C37.3374 55.1128 34.4488 55.6152 31.614 55.6152V53.3364C34.1796 53.3364 36.7991 52.8878 39.3469 51.9189C50.6323 47.6485 56.3198 35.0345 52.0497 23.7662C48.7484 15.0279 40.4413 9.64498 31.614 9.64498V7.36621ZM23.0736 8.92726C25.8905 7.86862 28.7792 7.36621 31.614 7.36621V9.64498C29.0483 9.64498 26.4288 10.0936 23.881 11.0625C12.5957 15.3329 6.9081 27.9469 11.1782 39.2152C14.4795 47.9535 22.7866 53.3364 31.614 53.3364V55.6152C21.8716 55.6152 12.7033 49.676 9.04317 40.0226C4.32447 27.5522 10.6041 13.6284 23.0736 8.92726Z" fill="#DC8944"/>
<path d="M21.9725 42.9929C21.3752 42.9929 20.8059 42.9742 20.2645 42.9369C19.7419 42.8996 19.2472 42.8436 18.7805 42.7689L14.9725 41.4809L16.0925 37.5889L21.4125 39.1009C22.7379 39.1009 23.6712 38.8489 24.2125 38.3449C24.7725 37.8222 25.0525 37.1502 25.0525 36.3289C25.0525 35.7316 24.8752 35.2556 24.5205 34.9009C24.1845 34.5462 23.6152 34.3689 22.8125 34.3689H19.2565V30.7569H22.1125C23.8859 30.7569 24.7725 29.9729 24.7725 28.4049C24.7725 27.1542 23.9045 26.5289 22.1685 26.5289C21.1045 26.5289 20.1619 26.6316 19.3405 26.8369C18.5192 27.0236 17.8099 27.2476 17.2125 27.5089C16.6339 27.7516 16.1672 27.9569 15.8125 28.1249V24.2049C16.3539 23.8502 17.1379 23.5049 18.1645 23.1689C19.1912 22.8142 20.5352 22.6369 22.1965 22.6369C24.3059 22.6369 25.9019 23.1036 26.9845 24.0369C28.0859 24.9516 28.6365 26.2489 28.6365 27.9289C28.6365 28.8996 28.4779 29.7022 28.1605 30.3369C27.8619 30.9529 27.4792 31.4476 27.0125 31.8209C27.8152 32.3249 28.4312 32.9316 28.8605 33.6409C29.2899 34.3316 29.5045 35.2182 29.5045 36.3009C29.5045 37.7196 29.1872 38.9329 28.5525 39.9409C27.9365 40.9302 27.0592 41.6862 25.9205 42.2089C24.8005 42.7316 23.4845 42.9929 21.9725 42.9929ZM38.7063 42.9929C37.9596 42.9929 37.3623 42.9556 36.9143 42.8809C36.4663 42.8249 36.0463 42.7596 35.6543 42.6849L32.2383 40.6409L33.8903 37.3369L38.3983 39.1009C39.1636 39.1009 39.8916 38.9329 40.5823 38.5969C41.2916 38.2422 41.8796 37.7102 42.3463 37.0009C42.8129 36.2729 43.0836 35.3582 43.1583 34.2569L38.5663 35.0969C37.2409 35.0969 36.0649 34.9102 35.0383 34.5369C34.0116 34.1636 33.1996 33.5382 32.6023 32.6609C32.0236 31.7649 31.7343 30.5422 31.7343 28.9929C31.7343 27.9289 32.0049 26.9116 32.5463 25.9409C33.1063 24.9516 33.9369 24.1489 35.0383 23.5329C36.1396 22.9169 37.5209 22.6089 39.1823 22.6089C40.8249 22.6089 42.2716 22.9449 43.5223 23.6169C44.7916 24.2889 45.7903 25.3716 46.5183 26.8649C47.2463 28.3396 47.6103 30.3182 47.6103 32.8009C47.6103 34.9662 47.2369 36.8142 46.4903 38.3449C45.7436 39.8569 44.6983 41.0142 43.3543 41.8169C42.0289 42.6009 40.4796 42.9929 38.7063 42.9929ZM38.5663 31.5969C39.4063 31.5969 40.2649 31.5689 41.1423 31.5129C42.0196 31.4569 42.6916 31.3916 43.1583 31.3169C43.0463 28.1622 41.7209 26.5849 39.1823 26.5849C38.0436 26.5849 37.2129 26.8649 36.6903 27.4249C36.1676 27.9849 35.9063 28.6569 35.9063 29.4409C35.9063 30.1876 36.1209 30.7382 36.5503 31.0929C36.9796 31.4289 37.6516 31.5969 38.5663 31.5969Z" fill="#DC8944"/>
<path opacity="0.5" fill-rule="evenodd" clip-rule="evenodd" d="M11.4424 0.883743C20.1165 -3.37699 28.9898 -3.07046 31.2733 1.57343C33.5568 6.21733 28.3615 13.4207 19.6874 17.6815C11.0133 21.9422 2.13992 21.6357 -0.143553 16.9918C-2.42702 12.3479 2.76825 5.14448 11.4424 0.883743Z" fill="#FDFFF8"/>
</g>
</g>
<defs>
<filter id="filter0_i_3570_19673" x="0.800781" y="0.666992" width="60" height="60" filterUnits="userSpaceOnUse" color-interpolation-filters="sRGB">
<feFlood flood-opacity="0" result="BackgroundImageFix"/>
<feBlend mode="normal" in="SourceGraphic" in2="BackgroundImageFix" result="shape"/>
<feColorMatrix in="SourceAlpha" type="matrix" values="0 0 0 0 0 0 0 0 0 0 0 0 0 0 0 0 0 0 127 0" result="hardAlpha"/>
<feOffset/>
<feGaussianBlur stdDeviation="5"/>
<feComposite in2="hardAlpha" operator="arithmetic" k2="-1" k3="1"/>
<feColorMatrix type="matrix" values="0 0 0 0 0 0 0 0 0 0 0 0 0 0 0 0 0 0 0.6 0"/>
<feBlend mode="normal" in2="shape" result="effect1_innerShadow_3570_19673"/>
</filter>
<clipPath id="clip0_3570_19673">
<rect x="0.800781" y="0.666992" width="60" height="60" rx="30" fill="white"/>
</clipPath>
</defs>
</svg>
