<svg width="61" height="60" viewBox="0 0 61 60" fill="none" xmlns="http://www.w3.org/2000/svg">
<g filter="url(#filter0_i_3570_20169)">
<g clip-path="url(#clip0_3570_20169)">
<rect x="0.600586" width="60" height="60" rx="30" fill="#82857D"/>
<path fill-rule="evenodd" clip-rule="evenodd" d="M17.8642 -3.66124C36.4519 -10.6949 57.2285 -1.32864 64.2617 17.2604C71.2949 35.8494 61.9293 56.6275 43.3416 63.6612C24.7539 70.6949 3.97725 61.3286 -3.05594 42.7396C-10.0891 24.1506 -0.723497 3.37245 17.8642 -3.66124Z" fill="#206446"/>
<path fill-rule="evenodd" clip-rule="evenodd" d="M17.865 -3.66179C36.1118 -10.5699 56.4757 -1.65217 63.8498 16.255C69.1247 34.1443 59.777 53.3614 42.0505 60.0541C23.8037 66.9622 3.43976 58.0445 -3.93433 40.1373C-9.20922 22.248 0.138481 3.03098 17.865 -3.66179Z" fill="#8BC1A9"/>
<path fill-rule="evenodd" clip-rule="evenodd" d="M22.1382 6.28526C35.6843 1.15354 50.8272 7.98986 55.9406 21.5369C61.0719 35.0839 54.2361 50.2279 40.69 55.3417C27.144 60.4734 12.0011 53.6371 6.88768 40.09C1.75632 26.543 8.59215 11.399 22.1382 6.28526Z" fill="#FDFFF8"/>
<path fill-rule="evenodd" clip-rule="evenodd" d="M31.4138 6.69336C41.1562 6.69336 50.3244 12.6325 53.9846 22.2859C58.7033 34.7564 52.4236 48.6802 39.9541 53.3813C37.1372 54.4399 34.2486 54.9423 31.4138 54.9423V52.6636C33.9794 52.6636 36.5989 52.215 39.1467 51.2461C50.4321 46.9756 56.1196 34.3616 51.8495 23.0933C48.5482 14.3551 40.2411 8.97213 31.4138 8.97213V6.69336ZM22.8734 8.25441C25.6903 7.19577 28.579 6.69336 31.4138 6.69336V8.97213C28.8481 8.97213 26.2286 9.42071 23.6809 10.3896C12.3955 14.6601 6.7079 27.2741 10.978 38.5424C14.2793 47.2806 22.5864 52.6636 31.4138 52.6636V54.9423C21.6714 54.9423 12.5031 49.0032 8.84297 39.3498C4.12428 26.8793 10.4039 12.9555 22.8734 8.25441Z" fill="#8BC1A9"/>
<path opacity="0.5" fill-rule="evenodd" clip-rule="evenodd" d="M14.0846 1.27665C24.2396 -3.71153 34.628 -3.35267 37.3013 2.08409C39.9746 7.52084 33.8923 15.9541 23.7373 20.9423C13.5822 25.9305 3.19391 25.5716 0.520581 20.1348C-2.15275 14.6981 3.92952 6.26483 14.0846 1.27665Z" fill="#FDFFF8"/>
<path d="M22.2985 42.3259C21.2719 42.3259 20.2825 42.2326 19.3305 42.0459C18.3972 41.8406 17.5572 41.5139 16.8105 41.0659C16.0825 40.5992 15.5039 39.9739 15.0745 39.1899C14.6452 38.4059 14.4305 37.4259 14.4305 36.2499C14.4305 35.0552 14.6825 34.0939 15.1865 33.3659C15.6905 32.6379 16.3532 32.0779 17.1745 31.6859C16.6519 31.2379 16.2039 30.6686 15.8305 29.9779C15.4572 29.2872 15.2705 28.4472 15.2705 27.4579C15.2705 25.8526 15.8399 24.5366 16.9785 23.5099C18.1172 22.4646 19.8719 21.9419 22.2425 21.9419C24.6319 21.9419 26.3772 22.4179 27.4785 23.3699C28.5799 24.3219 29.1305 25.6846 29.1305 27.4579C29.1305 28.3539 28.9439 29.1659 28.5705 29.8939C28.1972 30.6219 27.7399 31.2006 27.1985 31.6299C27.9825 32.0219 28.6359 32.6006 29.1585 33.3659C29.6999 34.1312 29.9705 35.0926 29.9705 36.2499C29.9705 37.8179 29.6159 39.0406 28.9065 39.9179C28.1972 40.7952 27.2639 41.4206 26.1065 41.7939C24.9492 42.1486 23.6799 42.3259 22.2985 42.3259ZM22.2985 30.3979C23.2132 30.3979 23.8945 30.2112 24.3425 29.8379C24.7905 29.4646 25.0145 28.9606 25.0145 28.3259C25.0145 27.5606 24.7999 26.9632 24.3705 26.5339C23.9599 26.0859 23.2692 25.8619 22.2985 25.8619C21.4585 25.8619 20.7679 26.0486 20.2265 26.4219C19.7039 26.7952 19.4425 27.3366 19.4425 28.0459C19.4425 28.6246 19.5825 29.0912 19.8625 29.4459C20.1612 29.7819 20.5252 30.0246 20.9545 30.1739C21.4025 30.3232 21.8505 30.3979 22.2985 30.3979ZM22.2985 38.4059C23.3065 38.4059 24.1465 38.2379 24.8185 37.9019C25.5092 37.5659 25.8545 37.0526 25.8545 36.3619C25.8545 35.3912 25.3692 34.6166 24.3985 34.0379C23.4465 33.4406 22.0092 33.1326 20.0865 33.1139C19.7132 33.3939 19.3959 33.7579 19.1345 34.2059C18.8919 34.6352 18.7705 35.0926 18.7705 35.5779C18.7705 36.6046 19.1065 37.3326 19.7785 37.7619C20.4505 38.1912 21.2905 38.4059 22.2985 38.4059ZM39.988 42.3259C38.4013 42.3259 37.02 41.9992 35.844 41.3459C34.6867 40.6926 33.7907 39.6286 33.156 38.1539C32.5213 36.6606 32.204 34.6539 32.204 32.1339C32.204 29.7259 32.5213 27.7752 33.156 26.2819C33.7907 24.7886 34.6867 23.6966 35.844 23.0059C37.02 22.2966 38.4013 21.9419 39.988 21.9419C41.5933 21.9419 42.9747 22.2966 44.132 23.0059C45.2893 23.7152 46.1853 24.8166 46.82 26.3099C47.4547 27.8032 47.772 29.7446 47.772 32.1339C47.772 34.6166 47.4547 36.6046 46.82 38.0979C46.1853 39.5912 45.2893 40.6739 44.132 41.3459C42.9747 41.9992 41.5933 42.3259 39.988 42.3259ZM39.988 38.2939C41.276 38.2939 42.2 37.8366 42.76 36.9219C43.32 35.9886 43.6 34.3926 43.6 32.1339C43.6 30.0059 43.32 28.4472 42.76 27.4579C42.2 26.4686 41.276 25.9739 39.988 25.9739C38.7373 25.9739 37.8227 26.4779 37.244 27.4859C36.6653 28.4752 36.376 30.0246 36.376 32.1339C36.376 34.3739 36.6653 35.9606 37.244 36.8939C37.8227 37.8272 38.7373 38.2939 39.988 38.2939Z" fill="#8BC1A9"/>
</g>
</g>
<defs>
<filter id="filter0_i_3570_20169" x="0.600586" y="0" width="60" height="60" filterUnits="userSpaceOnUse" color-interpolation-filters="sRGB">
<feFlood flood-opacity="0" result="BackgroundImageFix"/>
<feBlend mode="normal" in="SourceGraphic" in2="BackgroundImageFix" result="shape"/>
<feColorMatrix in="SourceAlpha" type="matrix" values="0 0 0 0 0 0 0 0 0 0 0 0 0 0 0 0 0 0 127 0" result="hardAlpha"/>
<feOffset/>
<feGaussianBlur stdDeviation="5"/>
<feComposite in2="hardAlpha" operator="arithmetic" k2="-1" k3="1"/>
<feColorMatrix type="matrix" values="0 0 0 0 0 0 0 0 0 0 0 0 0 0 0 0 0 0 0.6 0"/>
<feBlend mode="normal" in2="shape" result="effect1_innerShadow_3570_20169"/>
</filter>
<clipPath id="clip0_3570_20169">
<rect x="0.600586" width="60" height="60" rx="30" fill="white"/>
</clipPath>
</defs>
</svg>
