<svg width="61" height="61" viewBox="0 0 61 61" fill="none" xmlns="http://www.w3.org/2000/svg">
<g filter="url(#filter0_i_3570_19613)">
<g clip-path="url(#clip0_3570_19613)">
<rect x="0.800781" y="0.666992" width="60" height="60" rx="30" fill="#82857D"/>
<path fill-rule="evenodd" clip-rule="evenodd" d="M18.0644 -2.99425C36.6521 -10.0279 57.4287 -0.661643 64.4619 17.9274C71.4951 36.5164 62.1295 57.2945 43.5418 64.3282C24.9541 71.3619 4.17744 61.9956 -2.85574 43.4066C-9.88893 24.8175 -0.523302 4.03945 18.0644 -2.99425Z" fill="#206446"/>
<path fill-rule="evenodd" clip-rule="evenodd" d="M18.0652 -2.9948C36.312 -9.90289 56.6759 -0.985174 64.05 16.922C69.3249 34.8113 59.9772 54.0284 42.2507 60.7211C24.0039 67.6292 3.63995 58.7115 -3.73413 40.8043C-9.00902 22.915 0.338676 3.69798 18.0652 -2.9948Z" fill="#8BC1A9"/>
<path fill-rule="evenodd" clip-rule="evenodd" d="M22.3384 6.95226C35.8845 1.82053 51.0273 8.65685 56.1408 22.2039C61.2721 35.7509 54.4363 50.8949 40.8902 56.0087C27.3442 61.1404 12.2013 54.3041 7.08788 40.757C1.95652 27.21 8.79235 12.066 22.3384 6.95226Z" fill="#FDFFF8"/>
<path fill-rule="evenodd" clip-rule="evenodd" d="M31.614 7.36035C41.3564 7.36035 50.5246 13.2995 54.1848 22.9529C58.9034 35.4233 52.6238 49.3472 40.1542 54.0483C37.3374 55.1069 34.4488 55.6093 31.614 55.6093V53.3306C34.1796 53.3306 36.7991 52.882 39.3469 51.9131C50.6323 47.6426 56.3198 35.0286 52.0497 23.7603C48.7484 15.0221 40.4413 9.63913 31.614 9.63913V7.36035ZM23.0736 8.9214C25.8905 7.86276 28.7792 7.36035 31.614 7.36035V9.63913C29.0483 9.63913 26.4288 10.0877 23.881 11.0566C12.5957 15.3271 6.9081 27.9411 11.1782 39.2093C14.4795 47.9476 22.7866 53.3306 31.614 53.3306V55.6093C21.8716 55.6093 12.7033 49.6702 9.04317 40.0168C4.32447 27.5463 10.6041 13.6225 23.0736 8.9214Z" fill="#8BC1A9"/>
<path opacity="0.5" fill-rule="evenodd" clip-rule="evenodd" d="M14.2848 1.94364C24.4398 -3.04454 34.8281 -2.68568 37.5015 2.75108C40.1748 8.18784 34.0925 16.6211 23.9375 21.6093C13.7824 26.5974 3.3941 26.2386 0.720776 20.8018C-1.95255 15.3651 4.12971 6.93182 14.2848 1.94364Z" fill="#FDFFF8"/>
<path d="M21.5897 42.9929C20.9924 42.9929 20.4231 42.9742 19.8817 42.9369C19.3591 42.8996 18.8644 42.8436 18.3977 42.7689L14.5897 41.4809L15.7097 37.5889L21.0297 39.1009C22.3551 39.1009 23.2884 38.8489 23.8297 38.3449C24.3897 37.8222 24.6697 37.1502 24.6697 36.3289C24.6697 35.7316 24.4924 35.2556 24.1377 34.9009C23.8017 34.5462 23.2324 34.3689 22.4297 34.3689H18.8737V30.7569H21.7297C23.5031 30.7569 24.3897 29.9729 24.3897 28.4049C24.3897 27.1542 23.5217 26.5289 21.7857 26.5289C20.7217 26.5289 19.7791 26.6316 18.9577 26.8369C18.1364 27.0236 17.4271 27.2476 16.8297 27.5089C16.2511 27.7516 15.7844 27.9569 15.4297 28.1249V24.2049C15.9711 23.8502 16.7551 23.5049 17.7817 23.1689C18.8084 22.8142 20.1524 22.6369 21.8137 22.6369C23.9231 22.6369 25.5191 23.1036 26.6017 24.0369C27.7031 24.9516 28.2537 26.2489 28.2537 27.9289C28.2537 28.8996 28.0951 29.7022 27.7777 30.3369C27.4791 30.9529 27.0964 31.4476 26.6297 31.8209C27.4324 32.3249 28.0484 32.9316 28.4777 33.6409C28.9071 34.3316 29.1217 35.2182 29.1217 36.3009C29.1217 37.7196 28.8044 38.9329 28.1697 39.9409C27.5537 40.9302 26.6764 41.6862 25.5377 42.2089C24.4177 42.7316 23.1017 42.9929 21.5897 42.9929ZM41.1794 42.7129V39.9129H30.5114V37.0569L39.6114 22.8889H45.2114L45.7714 24.5969L45.2114 27.3969V36.2169H48.8514V39.6329L45.2114 39.9129V42.7129H41.1794ZM35.6354 36.2169H41.1794V27.8729H40.6754L35.6354 36.2169Z" fill="#8BC1A9"/>
</g>
</g>
<defs>
<filter id="filter0_i_3570_19613" x="0.800781" y="0.666992" width="60" height="60" filterUnits="userSpaceOnUse" color-interpolation-filters="sRGB">
<feFlood flood-opacity="0" result="BackgroundImageFix"/>
<feBlend mode="normal" in="SourceGraphic" in2="BackgroundImageFix" result="shape"/>
<feColorMatrix in="SourceAlpha" type="matrix" values="0 0 0 0 0 0 0 0 0 0 0 0 0 0 0 0 0 0 127 0" result="hardAlpha"/>
<feOffset/>
<feGaussianBlur stdDeviation="5"/>
<feComposite in2="hardAlpha" operator="arithmetic" k2="-1" k3="1"/>
<feColorMatrix type="matrix" values="0 0 0 0 0 0 0 0 0 0 0 0 0 0 0 0 0 0 0.6 0"/>
<feBlend mode="normal" in2="shape" result="effect1_innerShadow_3570_19613"/>
</filter>
<clipPath id="clip0_3570_19613">
<rect x="0.800781" y="0.666992" width="60" height="60" rx="30" fill="white"/>
</clipPath>
</defs>
</svg>
