<svg width="61" height="61" viewBox="0 0 61 61" fill="none" xmlns="http://www.w3.org/2000/svg">
<g filter="url(#filter0_i_3570_19625)">
<g clip-path="url(#clip0_3570_19625)">
<rect x="0.600586" y="0.666992" width="60" height="60" rx="30" fill="#82857D"/>
<path fill-rule="evenodd" clip-rule="evenodd" d="M17.8642 -2.99425C36.4519 -10.0279 57.2285 -0.661643 64.2617 17.9274C71.2949 36.5164 61.9293 57.2945 43.3416 64.3282C24.7539 71.3619 3.97725 61.9956 -3.05594 43.4066C-10.0891 24.8175 -0.723497 4.03945 17.8642 -2.99425Z" fill="#782326"/>
<path fill-rule="evenodd" clip-rule="evenodd" d="M17.865 -2.9948C36.1118 -9.90289 56.4757 -0.985174 63.8498 16.922C69.1247 34.8113 59.777 54.0284 42.0505 60.7211C23.8037 67.6292 3.43976 58.7115 -3.93433 40.8043C-9.20922 22.915 0.138481 3.69798 17.865 -2.9948Z" fill="#B65155"/>
<path fill-rule="evenodd" clip-rule="evenodd" d="M22.1382 6.95226C35.6843 1.82053 50.8272 8.65685 55.9406 22.2039C61.0719 35.7509 54.2361 50.8949 40.69 56.0087C27.144 61.1404 12.0011 54.3041 6.88768 40.757C1.75632 27.21 8.59215 12.066 22.1382 6.95226Z" fill="#FDFFF8"/>
<path fill-rule="evenodd" clip-rule="evenodd" d="M31.4138 7.36035C41.1562 7.36035 50.3244 13.2995 53.9846 22.9529C58.7033 35.4233 52.4236 49.3472 39.9541 54.0483C37.1372 55.1069 34.2486 55.6093 31.4138 55.6093V53.3306C33.9794 53.3306 36.5989 52.882 39.1467 51.9131C50.4321 47.6426 56.1196 35.0286 51.8495 23.7603C48.5482 15.0221 40.2411 9.63913 31.4138 9.63913V7.36035ZM22.8734 8.9214C25.6903 7.86276 28.579 7.36035 31.4138 7.36035V9.63913C28.8481 9.63913 26.2286 10.0877 23.6809 11.0566C12.3955 15.3271 6.7079 27.9411 10.978 39.2093C14.2793 47.9476 22.5864 53.3306 31.4138 53.3306V55.6093C21.6714 55.6093 12.5031 49.6702 8.84297 40.0168C4.12428 27.5463 10.4039 13.6225 22.8734 8.9214Z" fill="#B65155"/>
<path d="M22.3602 42.9929C21.7629 42.9929 21.1936 42.9742 20.6522 42.9369C20.1296 42.8996 19.6349 42.8436 19.1682 42.7689L15.3602 41.4809L16.4802 37.5889L21.8002 39.1009C23.1256 39.1009 24.0589 38.8489 24.6002 38.3449C25.1602 37.8222 25.4402 37.1502 25.4402 36.3289C25.4402 35.7316 25.2629 35.2556 24.9082 34.9009C24.5722 34.5462 24.0029 34.3689 23.2002 34.3689H19.6442V30.7569H22.5002C24.2736 30.7569 25.1602 29.9729 25.1602 28.4049C25.1602 27.1542 24.2922 26.5289 22.5562 26.5289C21.4922 26.5289 20.5496 26.6316 19.7282 26.8369C18.9069 27.0236 18.1976 27.2476 17.6002 27.5089C17.0216 27.7516 16.5549 27.9569 16.2002 28.1249V24.2049C16.7416 23.8502 17.5256 23.5049 18.5522 23.1689C19.5789 22.8142 20.9229 22.6369 22.5842 22.6369C24.6936 22.6369 26.2896 23.1036 27.3722 24.0369C28.4736 24.9516 29.0242 26.2489 29.0242 27.9289C29.0242 28.8996 28.8656 29.7022 28.5482 30.3369C28.2496 30.9529 27.8669 31.4476 27.4002 31.8209C28.2029 32.3249 28.8189 32.9316 29.2482 33.6409C29.6776 34.3316 29.8922 35.2182 29.8922 36.3009C29.8922 37.7196 29.5749 38.9329 28.9402 39.9409C28.3242 40.9302 27.4469 41.6862 26.3082 42.2089C25.1882 42.7316 23.8722 42.9929 22.3602 42.9929ZM39.038 42.9929C38.3286 42.9929 37.7126 42.9742 37.19 42.9369C36.686 42.8996 36.1726 42.8436 35.65 42.7689L32.122 41.4809L33.242 37.5889L38.198 39.1289C39.486 39.1289 40.466 38.8956 41.138 38.4289C41.8286 37.9436 42.174 37.2529 42.174 36.3569C42.174 35.5169 41.9406 34.8449 41.474 34.3409C41.0073 33.8369 40.1113 33.5849 38.786 33.5849H32.962V22.8889H45.422V26.7809L38.422 26.5009H37.246V30.3089H39.122C41.7166 30.3089 43.602 30.8036 44.778 31.7929C45.954 32.7822 46.542 34.2476 46.542 36.1889C46.542 37.5142 46.2433 38.6902 45.646 39.7169C45.0673 40.7436 44.218 41.5462 43.098 42.1249C41.978 42.7036 40.6246 42.9929 39.038 42.9929Z" fill="#B65155"/>
<path opacity="0.5" fill-rule="evenodd" clip-rule="evenodd" d="M14.0846 1.94364C24.2396 -3.04454 34.6279 -2.68568 37.3013 2.75108C39.9746 8.18784 33.8923 16.6211 23.7373 21.6093C13.5822 26.5974 3.19391 26.2386 0.520581 20.8018C-2.15275 15.3651 3.92952 6.93182 14.0846 1.94364Z" fill="#FDFFF8"/>
</g>
</g>
<defs>
<filter id="filter0_i_3570_19625" x="0.600586" y="0.666992" width="60" height="60" filterUnits="userSpaceOnUse" color-interpolation-filters="sRGB">
<feFlood flood-opacity="0" result="BackgroundImageFix"/>
<feBlend mode="normal" in="SourceGraphic" in2="BackgroundImageFix" result="shape"/>
<feColorMatrix in="SourceAlpha" type="matrix" values="0 0 0 0 0 0 0 0 0 0 0 0 0 0 0 0 0 0 127 0" result="hardAlpha"/>
<feOffset/>
<feGaussianBlur stdDeviation="5"/>
<feComposite in2="hardAlpha" operator="arithmetic" k2="-1" k3="1"/>
<feColorMatrix type="matrix" values="0 0 0 0 0 0 0 0 0 0 0 0 0 0 0 0 0 0 0.6 0"/>
<feBlend mode="normal" in2="shape" result="effect1_innerShadow_3570_19625"/>
</filter>
<clipPath id="clip0_3570_19625">
<rect x="0.600586" y="0.666992" width="60" height="60" rx="30" fill="white"/>
</clipPath>
</defs>
</svg>
