<svg width="61" height="61" viewBox="0 0 61 61" fill="none" xmlns="http://www.w3.org/2000/svg">
<g filter="url(#filter0_i_3570_20036)">
<g clip-path="url(#clip0_3570_20036)">
<rect x="0.800781" y="0.666992" width="60" height="60" rx="30" fill="#82857D"/>
<path fill-rule="evenodd" clip-rule="evenodd" d="M18.0644 -2.99425C36.6521 -10.0279 57.4287 -0.661643 64.4619 17.9274C71.4951 36.5164 62.1295 57.2945 43.5418 64.3282C24.9541 71.3619 4.17744 61.9956 -2.85574 43.4066C-9.88893 24.8175 -0.523302 4.03945 18.0644 -2.99425Z" fill="#5B3267"/>
<path fill-rule="evenodd" clip-rule="evenodd" d="M18.0652 -2.9948C36.312 -9.90289 56.6759 -0.985174 64.05 16.922C69.3249 34.8113 59.9772 54.0283 42.2507 60.7211C24.0039 67.6292 3.63995 58.7115 -3.73413 40.8043C-9.00902 22.915 0.338676 3.69797 18.0652 -2.9948Z" fill="#875796"/>
<path fill-rule="evenodd" clip-rule="evenodd" d="M22.3384 6.95812C35.8845 1.82639 51.0273 8.66271 56.1408 22.2097C61.2721 35.7568 54.4363 50.9007 40.8902 56.0145C27.3442 61.1462 12.2013 54.3099 7.08788 40.7629C1.95652 27.2159 8.79235 12.0719 22.3384 6.95812Z" fill="#FDFFF8"/>
<path fill-rule="evenodd" clip-rule="evenodd" d="M31.614 7.36621C41.3564 7.36621 50.5246 13.3054 54.1848 22.9588C58.9035 35.4292 52.6238 49.3531 40.1543 54.0541C37.3374 55.1128 34.4488 55.6152 31.614 55.6152V53.3364C34.1796 53.3364 36.7991 52.8878 39.3469 51.9189C50.6323 47.6485 56.3198 35.0345 52.0497 23.7662C48.7484 15.0279 40.4413 9.64498 31.614 9.64498V7.36621ZM23.0736 8.92726C25.8905 7.86862 28.7792 7.36621 31.614 7.36621V9.64498C29.0483 9.64498 26.4288 10.0936 23.881 11.0625C12.5957 15.3329 6.9081 27.9469 11.1782 39.2152C14.4795 47.9535 22.7866 53.3364 31.614 53.3364V55.6152C21.8716 55.6152 12.7033 49.676 9.04317 40.0226C4.32447 27.5522 10.6041 13.6284 23.0736 8.92726Z" fill="#875796"/>
<path d="M22.7449 42.9929C21.1956 42.9929 19.7769 42.6476 18.4889 41.9569C17.2009 41.2476 16.1743 40.1836 15.4089 38.7649C14.6623 37.3462 14.2889 35.5542 14.2889 33.3889C14.2889 31.5036 14.5503 29.8796 15.0729 28.5169C15.6143 27.1542 16.3236 26.0436 17.2009 25.1849C18.0969 24.3076 19.0863 23.6636 20.1689 23.2529C21.2703 22.8236 22.3809 22.6089 23.5009 22.6089C24.4529 22.6089 25.1903 22.6836 25.7129 22.8329C26.2543 22.9822 26.7303 23.1502 27.1409 23.3369L29.6889 25.6329L27.7289 28.8249L23.5009 26.5009C22.6796 26.5009 21.9049 26.7062 21.1769 27.1169C20.4489 27.5276 19.8516 28.1156 19.3849 28.8809C18.9183 29.6462 18.6569 30.5796 18.6009 31.6809L23.0249 30.5609C24.3316 30.5609 25.5169 30.7756 26.5809 31.2049C27.6636 31.6156 28.5316 32.2689 29.1849 33.1649C29.8383 34.0422 30.1649 35.1996 30.1649 36.6369C30.1649 38.5596 29.5116 40.0996 28.2049 41.2569C26.9169 42.4142 25.0969 42.9929 22.7449 42.9929ZM22.9969 39.0449C23.9303 39.0449 24.6583 38.8209 25.1809 38.3729C25.7223 37.9249 25.9929 37.2902 25.9929 36.4689C25.9929 35.6849 25.6943 35.0876 25.0969 34.6769C24.4996 34.2476 23.7249 34.0329 22.7729 34.0329C21.9703 34.0329 21.2143 34.1449 20.5049 34.3689C19.7956 34.5929 19.2823 34.8262 18.9649 35.0689C19.0023 35.6662 19.1609 36.2729 19.4409 36.8889C19.7396 37.5049 20.1783 38.0182 20.7569 38.4289C21.3356 38.8396 22.0823 39.0449 22.9969 39.0449ZM39.3899 42.9929C38.6432 42.9929 38.0459 42.9556 37.5979 42.8809C37.1499 42.8249 36.7299 42.7596 36.3379 42.6849L32.9219 40.6409L34.5739 37.3369L39.0819 39.1009C39.8472 39.1009 40.5752 38.9329 41.2659 38.5969C41.9752 38.2422 42.5632 37.7102 43.0299 37.0009C43.4965 36.2729 43.7672 35.3582 43.8419 34.2569L39.2499 35.0969C37.9245 35.0969 36.7485 34.9102 35.7219 34.5369C34.6952 34.1636 33.8832 33.5382 33.2859 32.6609C32.7072 31.7649 32.4179 30.5422 32.4179 28.9929C32.4179 27.9289 32.6885 26.9116 33.2299 25.9409C33.7899 24.9516 34.6205 24.1489 35.7219 23.5329C36.8232 22.9169 38.2045 22.6089 39.8659 22.6089C41.5085 22.6089 42.9552 22.9449 44.2059 23.6169C45.4752 24.2889 46.4739 25.3716 47.2019 26.8649C47.9299 28.3396 48.2939 30.3182 48.2939 32.8009C48.2939 34.9662 47.9205 36.8142 47.1739 38.3449C46.4272 39.8569 45.3819 41.0142 44.0379 41.8169C42.7125 42.6009 41.1632 42.9929 39.3899 42.9929ZM39.2499 31.5969C40.0899 31.5969 40.9485 31.5689 41.8259 31.5129C42.7032 31.4569 43.3752 31.3916 43.8419 31.3169C43.7299 28.1622 42.4045 26.5849 39.8659 26.5849C38.7272 26.5849 37.8965 26.8649 37.3739 27.4249C36.8512 27.9849 36.5899 28.6569 36.5899 29.4409C36.5899 30.1876 36.8045 30.7382 37.2339 31.0929C37.6632 31.4289 38.3352 31.5969 39.2499 31.5969Z" fill="#875796"/>
<path opacity="0.5" fill-rule="evenodd" clip-rule="evenodd" d="M11.4424 0.883743C20.1165 -3.37699 28.9898 -3.07046 31.2733 1.57343C33.5568 6.21733 28.3615 13.4207 19.6874 17.6815C11.0133 21.9422 2.13992 21.6357 -0.143553 16.9918C-2.42702 12.3479 2.76825 5.14448 11.4424 0.883743Z" fill="#FDFFF8"/>
</g>
</g>
<defs>
<filter id="filter0_i_3570_20036" x="0.800781" y="0.666992" width="60" height="60" filterUnits="userSpaceOnUse" color-interpolation-filters="sRGB">
<feFlood flood-opacity="0" result="BackgroundImageFix"/>
<feBlend mode="normal" in="SourceGraphic" in2="BackgroundImageFix" result="shape"/>
<feColorMatrix in="SourceAlpha" type="matrix" values="0 0 0 0 0 0 0 0 0 0 0 0 0 0 0 0 0 0 127 0" result="hardAlpha"/>
<feOffset/>
<feGaussianBlur stdDeviation="5"/>
<feComposite in2="hardAlpha" operator="arithmetic" k2="-1" k3="1"/>
<feColorMatrix type="matrix" values="0 0 0 0 0 0 0 0 0 0 0 0 0 0 0 0 0 0 0.6 0"/>
<feBlend mode="normal" in2="shape" result="effect1_innerShadow_3570_20036"/>
</filter>
<clipPath id="clip0_3570_20036">
<rect x="0.800781" y="0.666992" width="60" height="60" rx="30" fill="white"/>
</clipPath>
</defs>
</svg>
