<svg width="61" height="60" viewBox="0 0 61 60" fill="none" xmlns="http://www.w3.org/2000/svg">
<g filter="url(#filter0_i_3570_19758)">
<g clip-path="url(#clip0_3570_19758)">
<rect x="0.400391" width="60" height="60" rx="30" fill="#82857D"/>
<path fill-rule="evenodd" clip-rule="evenodd" d="M17.664 -3.66124C36.2517 -10.6949 57.0283 -1.32864 64.0615 17.2604C71.0947 35.8494 61.7291 56.6275 43.1414 63.6612C24.5537 70.6949 3.77705 61.3286 -3.25613 42.7396C-10.2893 24.1506 -0.923692 3.37245 17.664 -3.66124Z" fill="#782326"/>
<path fill-rule="evenodd" clip-rule="evenodd" d="M17.6648 -3.66179C35.9116 -10.5699 56.2755 -1.65217 63.6496 16.255C68.9245 34.1443 59.5768 53.3614 41.8503 60.0541C23.6035 66.9622 3.23956 58.0445 -4.13452 40.1373C-9.40941 22.248 -0.0617142 3.03098 17.6648 -3.66179Z" fill="#B65155"/>
<path fill-rule="evenodd" clip-rule="evenodd" d="M21.938 6.28526C35.4841 1.15354 50.627 7.98986 55.7404 21.5369C60.8717 35.0839 54.0359 50.2279 40.4898 55.3417C26.9438 60.4734 11.8009 53.6371 6.68748 40.09C1.55613 26.543 8.39196 11.399 21.938 6.28526Z" fill="#FDFFF8"/>
<path fill-rule="evenodd" clip-rule="evenodd" d="M31.2136 6.69336C40.956 6.69336 50.1242 12.6325 53.7844 22.2859C58.5031 34.7564 52.2234 48.6802 39.7539 53.3813C36.937 54.4399 34.0484 54.9423 31.2136 54.9423V52.6636C33.7792 52.6636 36.3987 52.215 38.9465 51.2461C50.2319 46.9756 55.9194 34.3616 51.6493 23.0933C48.348 14.3551 40.0409 8.97213 31.2136 8.97213V6.69336ZM22.6733 8.25441C25.4901 7.19577 28.3788 6.69336 31.2136 6.69336V8.97213C28.6479 8.97213 26.0284 9.42071 23.4807 10.3896C12.1953 14.6601 6.5077 27.2741 10.7779 38.5424C14.0791 47.2806 22.3862 52.6636 31.2136 52.6636V54.9423C21.4712 54.9423 12.3029 49.0032 8.64278 39.3498C3.92408 26.8793 10.2037 12.9555 22.6733 8.25441Z" fill="#B65155"/>
<path d="M23.3337 42.0459V39.2459H12.6657V36.3899L21.7657 22.2219H27.3657L27.9257 23.9299L27.3657 26.7299V35.5499H31.0057V38.9659L27.3657 39.2459V42.0459H23.3337ZM17.7897 35.5499H23.3337V27.2059H22.8297L17.7897 35.5499ZM40.8563 42.3259C39.3069 42.3259 37.8883 41.9806 36.6003 41.2899C35.3123 40.5806 34.2856 39.5166 33.5203 38.0979C32.7736 36.6792 32.4003 34.8872 32.4003 32.7219C32.4003 30.8366 32.6616 29.2126 33.1843 27.8499C33.7256 26.4872 34.4349 25.3766 35.3123 24.5179C36.2083 23.6406 37.1976 22.9966 38.2803 22.5859C39.3816 22.1566 40.4923 21.9419 41.6123 21.9419C42.5643 21.9419 43.3016 22.0166 43.8243 22.1659C44.3656 22.3152 44.8416 22.4832 45.2523 22.6699L47.8003 24.9659L45.8403 28.1579L41.6123 25.8339C40.7909 25.8339 40.0163 26.0392 39.2883 26.4499C38.5603 26.8606 37.9629 27.4486 37.4963 28.2139C37.0296 28.9792 36.7683 29.9126 36.7123 31.0139L41.1363 29.8939C42.4429 29.8939 43.6283 30.1086 44.6923 30.5379C45.7749 30.9486 46.6429 31.6019 47.2963 32.4979C47.9496 33.3752 48.2763 34.5326 48.2763 35.9699C48.2763 37.8926 47.6229 39.4326 46.3163 40.5899C45.0283 41.7472 43.2083 42.3259 40.8563 42.3259ZM41.1083 38.3779C42.0416 38.3779 42.7696 38.1539 43.2923 37.7059C43.8336 37.2579 44.1043 36.6232 44.1043 35.8019C44.1043 35.0179 43.8056 34.4206 43.2083 34.0099C42.6109 33.5806 41.8363 33.3659 40.8843 33.3659C40.0816 33.3659 39.3256 33.4779 38.6163 33.7019C37.9069 33.9259 37.3936 34.1592 37.0763 34.4019C37.1136 34.9992 37.2723 35.6059 37.5523 36.2219C37.8509 36.8379 38.2896 37.3512 38.8683 37.7619C39.4469 38.1726 40.1936 38.3779 41.1083 38.3779Z" fill="#B65155"/>
<path opacity="0.5" fill-rule="evenodd" clip-rule="evenodd" d="M13.8844 1.27665C24.0394 -3.71153 34.4278 -3.35267 37.1011 2.08409C39.7744 7.52084 33.6921 15.9541 23.5371 20.9423C13.382 25.9305 2.99371 25.5716 0.320385 20.1348C-2.35294 14.6981 3.72932 6.26483 13.8844 1.27665Z" fill="#FDFFF8"/>
</g>
</g>
<defs>
<filter id="filter0_i_3570_19758" x="0.400391" y="0" width="60" height="60" filterUnits="userSpaceOnUse" color-interpolation-filters="sRGB">
<feFlood flood-opacity="0" result="BackgroundImageFix"/>
<feBlend mode="normal" in="SourceGraphic" in2="BackgroundImageFix" result="shape"/>
<feColorMatrix in="SourceAlpha" type="matrix" values="0 0 0 0 0 0 0 0 0 0 0 0 0 0 0 0 0 0 127 0" result="hardAlpha"/>
<feOffset/>
<feGaussianBlur stdDeviation="5"/>
<feComposite in2="hardAlpha" operator="arithmetic" k2="-1" k3="1"/>
<feColorMatrix type="matrix" values="0 0 0 0 0 0 0 0 0 0 0 0 0 0 0 0 0 0 0.6 0"/>
<feBlend mode="normal" in2="shape" result="effect1_innerShadow_3570_19758"/>
</filter>
<clipPath id="clip0_3570_19758">
<rect x="0.400391" width="60" height="60" rx="30" fill="white"/>
</clipPath>
</defs>
</svg>
