<svg width="60" height="61" viewBox="0 0 60 61" fill="none" xmlns="http://www.w3.org/2000/svg">
<g filter="url(#filter0_i_3570_19903)">
<g clip-path="url(#clip0_3570_19903)">
<rect y="0.333984" width="60" height="60" rx="30" fill="#82857D"/>
<path fill-rule="evenodd" clip-rule="evenodd" d="M17.2636 -3.32725C35.8513 -10.3609 56.6279 -0.994651 63.6611 17.5944C70.6943 36.1834 61.3287 56.9615 42.741 63.9952C24.1533 71.0289 3.37666 61.6626 -3.65652 43.0736C-10.6897 24.4845 -1.32408 3.70644 17.2636 -3.32725Z" fill="#133D63"/>
<path fill-rule="evenodd" clip-rule="evenodd" d="M17.2644 -3.32781C35.5112 -10.2359 55.8751 -1.31818 63.2492 16.589C68.5241 34.4783 59.1765 53.6953 41.4499 60.3881C23.2031 67.2962 2.83917 58.3785 -4.53491 40.4713C-9.8098 22.582 -0.462105 3.36497 17.2644 -3.32781Z" fill="#5884AD"/>
<path fill-rule="evenodd" clip-rule="evenodd" d="M21.5376 6.61925C35.0837 1.48752 50.2266 8.32384 55.34 21.8709C60.4713 35.4179 53.6355 50.5619 40.0894 55.6757C26.5434 60.8074 11.4005 53.9711 6.28709 40.424C1.15574 26.877 7.99157 11.733 21.5376 6.61925Z" fill="#FDFFF8"/>
<path fill-rule="evenodd" clip-rule="evenodd" d="M30.8132 7.02734C40.5556 7.02734 49.7238 12.9665 53.384 22.6199C58.1027 35.0903 51.823 49.0142 39.3535 53.7153C36.5366 54.7739 33.648 55.2763 30.8132 55.2763V52.9975C33.3789 52.9975 35.9984 52.549 38.5461 51.58C49.8315 47.3096 55.519 34.6956 51.2489 23.4273C47.9476 14.689 39.6405 9.30612 30.8132 9.30612V7.02734ZM22.2729 8.58839C25.0897 7.52975 27.9784 7.02734 30.8132 7.02734V9.30612C28.2475 9.30612 25.628 9.7547 23.0803 10.7236C11.7949 14.9941 6.10731 27.6081 10.3775 38.8763C13.6788 47.6146 21.9858 52.9975 30.8132 52.9975V55.2763C21.0708 55.2763 11.9025 49.3372 8.24238 39.6838C3.52369 27.2133 9.80331 13.2895 22.2729 8.58839Z" fill="#5884AD"/>
<path d="M21.1698 42.6599C20.4605 42.6599 19.8445 42.6412 19.3218 42.6039C18.8178 42.5665 18.3045 42.5105 17.7818 42.4359L14.2538 41.1479L15.3738 37.2559L20.3298 38.7959C21.6178 38.7959 22.5978 38.5625 23.2698 38.0959C23.9605 37.6105 24.3058 36.9199 24.3058 36.0239C24.3058 35.1839 24.0725 34.5119 23.6058 34.0079C23.1391 33.5039 22.2431 33.2519 20.9178 33.2519H15.0938V22.5559H27.5538V26.4479L20.5538 26.1679H19.3778V29.9759H21.2538C23.8485 29.9759 25.7338 30.4705 26.9098 31.4599C28.0858 32.4492 28.6738 33.9145 28.6738 35.8559C28.6738 37.1812 28.3751 38.3572 27.7778 39.3839C27.1991 40.4105 26.3498 41.2132 25.2298 41.7919C24.1098 42.3705 22.7565 42.6599 21.1698 42.6599ZM39.0749 42.6599C38.0482 42.6599 37.0589 42.5665 36.1069 42.3799C35.1736 42.1745 34.3336 41.8479 33.5869 41.3999C32.8589 40.9332 32.2802 40.3079 31.8509 39.5239C31.4216 38.7399 31.2069 37.7599 31.2069 36.5839C31.2069 35.3892 31.4589 34.4279 31.9629 33.6999C32.4669 32.9719 33.1296 32.4119 33.9509 32.0199C33.4282 31.5719 32.9802 31.0025 32.6069 30.3119C32.2336 29.6212 32.0469 28.7812 32.0469 27.7919C32.0469 26.1865 32.6162 24.8705 33.7549 23.8439C34.8936 22.7985 36.6482 22.2759 39.0189 22.2759C41.4082 22.2759 43.1536 22.7519 44.2549 23.7039C45.3562 24.6559 45.9069 26.0185 45.9069 27.7919C45.9069 28.6879 45.7202 29.4999 45.3469 30.2279C44.9736 30.9559 44.5162 31.5345 43.9749 31.9639C44.7589 32.3559 45.4122 32.9345 45.9349 33.6999C46.4762 34.4652 46.7469 35.4265 46.7469 36.5839C46.7469 38.1519 46.3922 39.3745 45.6829 40.2519C44.9736 41.1292 44.0402 41.7545 42.8829 42.1279C41.7256 42.4825 40.4562 42.6599 39.0749 42.6599ZM39.0749 30.7319C39.9896 30.7319 40.6709 30.5452 41.1189 30.1719C41.5669 29.7985 41.7909 29.2945 41.7909 28.6599C41.7909 27.8945 41.5762 27.2972 41.1469 26.8679C40.7362 26.4199 40.0456 26.1959 39.0749 26.1959C38.2349 26.1959 37.5442 26.3825 37.0029 26.7559C36.4802 27.1292 36.2189 27.6705 36.2189 28.3799C36.2189 28.9585 36.3589 29.4252 36.6389 29.7799C36.9376 30.1159 37.3016 30.3585 37.7309 30.5079C38.1789 30.6572 38.6269 30.7319 39.0749 30.7319ZM39.0749 38.7399C40.0829 38.7399 40.9229 38.5719 41.5949 38.2359C42.2856 37.8999 42.6309 37.3865 42.6309 36.6959C42.6309 35.7252 42.1456 34.9505 41.1749 34.3719C40.2229 33.7745 38.7856 33.4665 36.8629 33.4479C36.4896 33.7279 36.1722 34.0919 35.9109 34.5399C35.6682 34.9692 35.5469 35.4265 35.5469 35.9119C35.5469 36.9385 35.8829 37.6665 36.5549 38.0959C37.2269 38.5252 38.0669 38.7399 39.0749 38.7399Z" fill="#5884AD"/>
<path opacity="0.5" fill-rule="evenodd" clip-rule="evenodd" d="M13.484 1.61063C23.6391 -3.37755 34.0274 -3.01868 36.7007 2.41807C39.374 7.85483 33.2918 16.2881 23.1367 21.2763C12.9816 26.2644 2.59332 25.9056 -0.0800052 20.4688C-2.75333 15.0321 3.32893 6.59881 13.484 1.61063Z" fill="#FDFFF8"/>
</g>
</g>
<defs>
<filter id="filter0_i_3570_19903" x="0" y="0.333984" width="60" height="60" filterUnits="userSpaceOnUse" color-interpolation-filters="sRGB">
<feFlood flood-opacity="0" result="BackgroundImageFix"/>
<feBlend mode="normal" in="SourceGraphic" in2="BackgroundImageFix" result="shape"/>
<feColorMatrix in="SourceAlpha" type="matrix" values="0 0 0 0 0 0 0 0 0 0 0 0 0 0 0 0 0 0 127 0" result="hardAlpha"/>
<feOffset/>
<feGaussianBlur stdDeviation="5"/>
<feComposite in2="hardAlpha" operator="arithmetic" k2="-1" k3="1"/>
<feColorMatrix type="matrix" values="0 0 0 0 0 0 0 0 0 0 0 0 0 0 0 0 0 0 0.6 0"/>
<feBlend mode="normal" in2="shape" result="effect1_innerShadow_3570_19903"/>
</filter>
<clipPath id="clip0_3570_19903">
<rect y="0.333984" width="60" height="60" rx="30" fill="white"/>
</clipPath>
</defs>
</svg>
