<svg width="61" height="60" viewBox="0 0 61 60" fill="none" xmlns="http://www.w3.org/2000/svg">
<g filter="url(#filter0_i_3570_19395)">
<g clip-path="url(#clip0_3570_19395)">
<rect x="0.400391" width="60" height="60" rx="30" fill="#82857D"/>
<path fill-rule="evenodd" clip-rule="evenodd" d="M17.664 -3.66124C36.2517 -10.6949 57.0283 -1.32864 64.0615 17.2604C71.0947 35.8494 61.7291 56.6275 43.1414 63.6612C24.5537 70.6949 3.77705 61.3286 -3.25613 42.7396C-10.2893 24.1506 -0.923692 3.37245 17.664 -3.66124Z" fill="#5B3267"/>
<path fill-rule="evenodd" clip-rule="evenodd" d="M17.6648 -3.66179C35.9116 -10.5699 56.2755 -1.65217 63.6496 16.255C68.9245 34.1443 59.5768 53.3614 41.8503 60.0541C23.6035 66.9622 3.23956 58.0445 -4.13452 40.1373C-9.40941 22.248 -0.0617142 3.03098 17.6648 -3.66179Z" fill="#875796"/>
<path fill-rule="evenodd" clip-rule="evenodd" d="M21.938 6.29112C35.4841 1.1594 50.627 7.99572 55.7404 21.5427C60.8717 35.0898 54.0359 50.2338 40.4898 55.3475C26.9438 60.4793 11.8009 53.6429 6.68748 40.0959C1.55613 26.5489 8.39196 11.4049 21.938 6.29112Z" fill="#FDFFF8"/>
<path fill-rule="evenodd" clip-rule="evenodd" d="M31.2136 6.69922C40.956 6.69922 50.1242 12.6384 53.7844 22.2918C58.5031 34.7622 52.2234 48.6861 39.7539 53.3871C36.937 54.4458 34.0484 54.9482 31.2136 54.9482V52.6694C33.7792 52.6694 36.3987 52.2209 38.9465 51.2519C50.2319 46.9815 55.9194 34.3675 51.6493 23.0992C48.348 14.3609 40.0409 8.97799 31.2136 8.97799V6.69922ZM22.6733 8.26027C25.4901 7.20163 28.3788 6.69922 31.2136 6.69922V8.97799C28.6479 8.97799 26.0284 9.42657 23.4807 10.3955C12.1953 14.666 6.5077 27.2799 10.7779 38.5482C14.0791 47.2865 22.3862 52.6694 31.2136 52.6694V54.9482C21.4712 54.9482 12.3029 49.009 8.64278 39.3557C3.92408 26.8852 10.2037 12.9614 22.6733 8.26027Z" fill="#875796"/>
<path d="M20.9334 42.0459V26.9539H17.5734V23.9019L24.9654 22.2219L25.2454 23.9019L24.9654 26.7019V42.0459H20.9334ZM36.5086 42.3259C34.9593 42.3259 33.5406 41.9806 32.2526 41.2899C30.9646 40.5806 29.938 39.5166 29.1726 38.0979C28.426 36.6792 28.0526 34.8872 28.0526 32.7219C28.0526 30.8366 28.314 29.2126 28.8366 27.8499C29.378 26.4872 30.0873 25.3766 30.9646 24.5179C31.8606 23.6406 32.85 22.9966 33.9326 22.5859C35.034 22.1566 36.1446 21.9419 37.2646 21.9419C38.2166 21.9419 38.954 22.0166 39.4766 22.1659C40.018 22.3152 40.494 22.4832 40.9046 22.6699L43.4526 24.9659L41.4926 28.1579L37.2646 25.8339C36.4433 25.8339 35.6686 26.0392 34.9406 26.4499C34.2126 26.8606 33.6153 27.4486 33.1486 28.2139C32.682 28.9792 32.4206 29.9126 32.3646 31.0139L36.7886 29.8939C38.0953 29.8939 39.2806 30.1086 40.3446 30.5379C41.4273 30.9486 42.2953 31.6019 42.9486 32.4979C43.602 33.3752 43.9286 34.5326 43.9286 35.9699C43.9286 37.8926 43.2753 39.4326 41.9686 40.5899C40.6806 41.7472 38.8606 42.3259 36.5086 42.3259ZM36.7606 38.3779C37.694 38.3779 38.422 38.1539 38.9446 37.7059C39.486 37.2579 39.7566 36.6232 39.7566 35.8019C39.7566 35.0179 39.458 34.4206 38.8606 34.0099C38.2633 33.5806 37.4886 33.3659 36.5366 33.3659C35.734 33.3659 34.978 33.4779 34.2686 33.7019C33.5593 33.9259 33.046 34.1592 32.7286 34.4019C32.766 34.9992 32.9246 35.6059 33.2046 36.2219C33.5033 36.8379 33.942 37.3512 34.5206 37.7619C35.0993 38.1726 35.846 38.3779 36.7606 38.3779Z" fill="#875796"/>
<path opacity="0.5" fill-rule="evenodd" clip-rule="evenodd" d="M11.042 0.216751C19.7161 -4.04399 28.5894 -3.73746 30.8729 0.90644C33.1564 5.55034 27.9611 12.7537 19.287 17.0145C10.6129 21.2752 1.73952 20.9687 -0.543944 16.3248C-2.82741 11.6809 2.36786 4.47749 11.042 0.216751Z" fill="#FDFFF8"/>
</g>
</g>
<defs>
<filter id="filter0_i_3570_19395" x="0.400391" y="0" width="60" height="60" filterUnits="userSpaceOnUse" color-interpolation-filters="sRGB">
<feFlood flood-opacity="0" result="BackgroundImageFix"/>
<feBlend mode="normal" in="SourceGraphic" in2="BackgroundImageFix" result="shape"/>
<feColorMatrix in="SourceAlpha" type="matrix" values="0 0 0 0 0 0 0 0 0 0 0 0 0 0 0 0 0 0 127 0" result="hardAlpha"/>
<feOffset/>
<feGaussianBlur stdDeviation="5"/>
<feComposite in2="hardAlpha" operator="arithmetic" k2="-1" k3="1"/>
<feColorMatrix type="matrix" values="0 0 0 0 0 0 0 0 0 0 0 0 0 0 0 0 0 0 0.6 0"/>
<feBlend mode="normal" in2="shape" result="effect1_innerShadow_3570_19395"/>
</filter>
<clipPath id="clip0_3570_19395">
<rect x="0.400391" width="60" height="60" rx="30" fill="white"/>
</clipPath>
</defs>
</svg>
