<svg width="61" height="61" viewBox="0 0 61 61" fill="none" xmlns="http://www.w3.org/2000/svg">
<g filter="url(#filter0_i_3570_19976)">
<g clip-path="url(#clip0_3570_19976)">
<rect x="0.800781" y="0.666992" width="60" height="60" rx="30" fill="#82857D"/>
<path fill-rule="evenodd" clip-rule="evenodd" d="M18.0644 -2.99425C36.6521 -10.0279 57.4287 -0.661643 64.4619 17.9274C71.4951 36.5164 62.1295 57.2945 43.5418 64.3282C24.9541 71.3619 4.17744 61.9956 -2.85574 43.4066C-9.88893 24.8175 -0.523302 4.03945 18.0644 -2.99425Z" fill="#5B3267"/>
<path fill-rule="evenodd" clip-rule="evenodd" d="M18.0652 -2.9948C36.312 -9.90289 56.6759 -0.985174 64.05 16.922C69.3249 34.8113 59.9772 54.0283 42.2507 60.7211C24.0039 67.6292 3.63995 58.7115 -3.73413 40.8043C-9.00902 22.915 0.338676 3.69797 18.0652 -2.9948Z" fill="#875796"/>
<path fill-rule="evenodd" clip-rule="evenodd" d="M22.3384 6.95812C35.8845 1.82639 51.0273 8.66271 56.1408 22.2097C61.2721 35.7568 54.4363 50.9007 40.8902 56.0145C27.3442 61.1462 12.2013 54.3099 7.08788 40.7629C1.95652 27.2159 8.79235 12.0719 22.3384 6.95812Z" fill="#FDFFF8"/>
<path fill-rule="evenodd" clip-rule="evenodd" d="M31.614 7.36621C41.3564 7.36621 50.5246 13.3054 54.1848 22.9588C58.9035 35.4292 52.6238 49.3531 40.1543 54.0541C37.3374 55.1128 34.4488 55.6152 31.614 55.6152V53.3364C34.1796 53.3364 36.7991 52.8878 39.3469 51.9189C50.6323 47.6485 56.3198 35.0345 52.0497 23.7662C48.7484 15.0279 40.4413 9.64498 31.614 9.64498V7.36621ZM23.0736 8.92726C25.8905 7.86862 28.7792 7.36621 31.614 7.36621V9.64498C29.0483 9.64498 26.4288 10.0936 23.881 11.0625C12.5957 15.3329 6.9081 27.9469 11.1782 39.2152C14.4795 47.9535 22.7866 53.3364 31.614 53.3364V55.6152C21.8716 55.6152 12.7033 49.676 9.04317 40.0226C4.32447 27.5522 10.6041 13.6284 23.0736 8.92726Z" fill="#875796"/>
<path d="M22.3621 42.9929C20.8128 42.9929 19.3941 42.6476 18.1061 41.9569C16.8181 41.2476 15.7915 40.1836 15.0261 38.7649C14.2795 37.3462 13.9061 35.5542 13.9061 33.3889C13.9061 31.5036 14.1675 29.8796 14.6901 28.5169C15.2315 27.1542 15.9408 26.0436 16.8181 25.1849C17.7141 24.3076 18.7035 23.6636 19.7861 23.2529C20.8875 22.8236 21.9981 22.6089 23.1181 22.6089C24.0701 22.6089 24.8075 22.6836 25.3301 22.8329C25.8715 22.9822 26.3475 23.1502 26.7581 23.3369L29.3061 25.6329L27.3461 28.8249L23.1181 26.5009C22.2968 26.5009 21.5221 26.7062 20.7941 27.1169C20.0661 27.5276 19.4688 28.1156 19.0021 28.8809C18.5355 29.6462 18.2741 30.5796 18.2181 31.6809L22.6421 30.5609C23.9488 30.5609 25.1341 30.7756 26.1981 31.2049C27.2808 31.6156 28.1488 32.2689 28.8021 33.1649C29.4555 34.0422 29.7821 35.1996 29.7821 36.6369C29.7821 38.5596 29.1288 40.0996 27.8221 41.2569C26.5341 42.4142 24.7141 42.9929 22.3621 42.9929ZM22.6141 39.0449C23.5475 39.0449 24.2755 38.8209 24.7981 38.3729C25.3395 37.9249 25.6101 37.2902 25.6101 36.4689C25.6101 35.6849 25.3115 35.0876 24.7141 34.6769C24.1168 34.2476 23.3421 34.0329 22.3901 34.0329C21.5875 34.0329 20.8315 34.1449 20.1221 34.3689C19.4128 34.5929 18.8995 34.8262 18.5821 35.0689C18.6195 35.6662 18.7781 36.2729 19.0581 36.8889C19.3568 37.5049 19.7955 38.0182 20.3741 38.4289C20.9528 38.8396 21.6995 39.0449 22.6141 39.0449ZM41.863 42.7129V39.9129H31.195V37.0569L40.295 22.8889H45.895L46.455 24.5969L45.895 27.3969V36.2169H49.535V39.6329L45.895 39.9129V42.7129H41.863ZM36.319 36.2169H41.863V27.8729H41.359L36.319 36.2169Z" fill="#875796"/>
<path opacity="0.5" fill-rule="evenodd" clip-rule="evenodd" d="M11.4424 0.883743C20.1165 -3.37699 28.9898 -3.07046 31.2733 1.57343C33.5568 6.21733 28.3615 13.4207 19.6874 17.6815C11.0133 21.9422 2.13992 21.6357 -0.143553 16.9918C-2.42702 12.3479 2.76825 5.14448 11.4424 0.883743Z" fill="#FDFFF8"/>
</g>
</g>
<defs>
<filter id="filter0_i_3570_19976" x="0.800781" y="0.666992" width="60" height="60" filterUnits="userSpaceOnUse" color-interpolation-filters="sRGB">
<feFlood flood-opacity="0" result="BackgroundImageFix"/>
<feBlend mode="normal" in="SourceGraphic" in2="BackgroundImageFix" result="shape"/>
<feColorMatrix in="SourceAlpha" type="matrix" values="0 0 0 0 0 0 0 0 0 0 0 0 0 0 0 0 0 0 127 0" result="hardAlpha"/>
<feOffset/>
<feGaussianBlur stdDeviation="5"/>
<feComposite in2="hardAlpha" operator="arithmetic" k2="-1" k3="1"/>
<feColorMatrix type="matrix" values="0 0 0 0 0 0 0 0 0 0 0 0 0 0 0 0 0 0 0.6 0"/>
<feBlend mode="normal" in2="shape" result="effect1_innerShadow_3570_19976"/>
</filter>
<clipPath id="clip0_3570_19976">
<rect x="0.800781" y="0.666992" width="60" height="60" rx="30" fill="white"/>
</clipPath>
</defs>
</svg>
