<svg width="61" height="60" viewBox="0 0 61 60" fill="none" xmlns="http://www.w3.org/2000/svg">
<g filter="url(#filter0_i_3570_19383)">
<g clip-path="url(#clip0_3570_19383)">
<rect x="0.600586" width="60" height="60" rx="30" fill="#82857D"/>
<path fill-rule="evenodd" clip-rule="evenodd" d="M17.8642 -3.66124C36.4519 -10.6949 57.2285 -1.32864 64.2617 17.2604C71.2949 35.8494 61.9293 56.6275 43.3416 63.6612C24.7539 70.6949 3.97725 61.3286 -3.05594 42.7396C-10.0891 24.1506 -0.723497 3.37245 17.8642 -3.66124Z" fill="#133D63"/>
<path fill-rule="evenodd" clip-rule="evenodd" d="M17.865 -3.66179C36.1118 -10.5699 56.4757 -1.65217 63.8498 16.255C69.1247 34.1443 59.777 53.3614 42.0505 60.0541C23.8037 66.9622 3.43976 58.0445 -3.93433 40.1373C-9.20922 22.248 0.138481 3.03098 17.865 -3.66179Z" fill="#5884AD"/>
<path fill-rule="evenodd" clip-rule="evenodd" d="M22.1382 6.28526C35.6843 1.15354 50.8272 7.98986 55.9406 21.5369C61.0719 35.0839 54.2361 50.2279 40.69 55.3417C27.144 60.4734 12.0011 53.6371 6.88768 40.09C1.75632 26.543 8.59215 11.399 22.1382 6.28526Z" fill="#FDFFF8"/>
<path fill-rule="evenodd" clip-rule="evenodd" d="M31.4138 6.69336C41.1562 6.69336 50.3244 12.6325 53.9846 22.2859C58.7033 34.7564 52.4236 48.6802 39.9541 53.3813C37.1372 54.4399 34.2486 54.9423 31.4138 54.9423V52.6636C33.9794 52.6636 36.5989 52.215 39.1467 51.2461C50.4321 46.9756 56.1196 34.3616 51.8495 23.0933C48.5482 14.3551 40.2411 8.97213 31.4138 8.97213V6.69336ZM22.8734 8.25441C25.6903 7.19577 28.579 6.69336 31.4138 6.69336V8.97213C28.8481 8.97213 26.2286 9.42071 23.6809 10.3896C12.3955 14.6601 6.7079 27.2741 10.978 38.5424C14.2793 47.2806 22.5864 52.6636 31.4138 52.6636V54.9423C21.6714 54.9423 12.5031 49.0032 8.84297 39.3498C4.12428 26.8793 10.4039 12.9555 22.8734 8.25441Z" fill="#5884AD"/>
<path d="M21.7215 42.0459V26.9539H18.3615V23.9019L25.7535 22.2219L26.0335 23.9019L25.7535 26.7019V42.0459H21.7215ZM35.7567 42.3259C35.0474 42.3259 34.4314 42.3072 33.9087 42.2699C33.4047 42.2326 32.8914 42.1766 32.3687 42.1019L28.8407 40.8139L29.9607 36.9219L34.9167 38.4619C36.2047 38.4619 37.1847 38.2286 37.8567 37.7619C38.5474 37.2766 38.8927 36.5859 38.8927 35.6899C38.8927 34.8499 38.6594 34.1779 38.1927 33.6739C37.726 33.1699 36.83 32.9179 35.5047 32.9179H29.6807V22.2219H42.1407V26.1139L35.1407 25.8339H33.9647V29.6419H35.8407C38.4354 29.6419 40.3207 30.1366 41.4967 31.1259C42.6727 32.1152 43.2607 33.5806 43.2607 35.5219C43.2607 36.8472 42.962 38.0232 42.3647 39.0499C41.786 40.0766 40.9367 40.8792 39.8167 41.4579C38.6967 42.0366 37.3434 42.3259 35.7567 42.3259Z" fill="#5884AD"/>
<path opacity="0.5" fill-rule="evenodd" clip-rule="evenodd" d="M14.0846 1.27665C24.2396 -3.71153 34.628 -3.35267 37.3013 2.08409C39.9746 7.52084 33.8923 15.9541 23.7373 20.9423C13.5822 25.9305 3.19391 25.5716 0.520581 20.1348C-2.15275 14.6981 3.92952 6.26483 14.0846 1.27665Z" fill="#FDFFF8"/>
</g>
</g>
<defs>
<filter id="filter0_i_3570_19383" x="0.600586" y="0" width="60" height="60" filterUnits="userSpaceOnUse" color-interpolation-filters="sRGB">
<feFlood flood-opacity="0" result="BackgroundImageFix"/>
<feBlend mode="normal" in="SourceGraphic" in2="BackgroundImageFix" result="shape"/>
<feColorMatrix in="SourceAlpha" type="matrix" values="0 0 0 0 0 0 0 0 0 0 0 0 0 0 0 0 0 0 127 0" result="hardAlpha"/>
<feOffset/>
<feGaussianBlur stdDeviation="5"/>
<feComposite in2="hardAlpha" operator="arithmetic" k2="-1" k3="1"/>
<feColorMatrix type="matrix" values="0 0 0 0 0 0 0 0 0 0 0 0 0 0 0 0 0 0 0.6 0"/>
<feBlend mode="normal" in2="shape" result="effect1_innerShadow_3570_19383"/>
</filter>
<clipPath id="clip0_3570_19383">
<rect x="0.600586" width="60" height="60" rx="30" fill="white"/>
</clipPath>
</defs>
</svg>
