<svg width="61" height="60" viewBox="0 0 61 60" fill="none" xmlns="http://www.w3.org/2000/svg">
<g filter="url(#filter0_i_3570_19335)">
<g clip-path="url(#clip0_3570_19335)">
<rect x="0.400391" width="60" height="60" rx="30" fill="#82857D"/>
<path fill-rule="evenodd" clip-rule="evenodd" d="M17.664 -3.66124C36.2517 -10.6949 57.0283 -1.32864 64.0615 17.2604C71.0947 35.8494 61.7291 56.6275 43.1414 63.6612C24.5537 70.6949 3.77705 61.3286 -3.25613 42.7396C-10.2893 24.1506 -0.923692 3.37245 17.664 -3.66124Z" fill="#5B3267"/>
<path fill-rule="evenodd" clip-rule="evenodd" d="M17.6648 -3.66179C35.9116 -10.5699 56.2755 -1.65217 63.6496 16.255C68.9245 34.1443 59.5768 53.3614 41.8503 60.0541C23.6035 66.9622 3.23956 58.0445 -4.13452 40.1373C-9.40941 22.248 -0.0617142 3.03098 17.6648 -3.66179Z" fill="#875796"/>
<path fill-rule="evenodd" clip-rule="evenodd" d="M21.938 6.29112C35.4841 1.1594 50.627 7.99572 55.7404 21.5427C60.8717 35.0898 54.0359 50.2338 40.4898 55.3475C26.9438 60.4793 11.8009 53.6429 6.68748 40.0959C1.55613 26.5489 8.39196 11.4049 21.938 6.29112Z" fill="#FDFFF8"/>
<path fill-rule="evenodd" clip-rule="evenodd" d="M31.2136 6.69922C40.956 6.69922 50.1242 12.6384 53.7844 22.2918C58.5031 34.7622 52.2234 48.6861 39.7539 53.3871C36.937 54.4458 34.0484 54.9482 31.2136 54.9482V52.6694C33.7792 52.6694 36.3987 52.2209 38.9465 51.2519C50.2319 46.9815 55.9194 34.3675 51.6493 23.0992C48.348 14.3609 40.0409 8.97799 31.2136 8.97799V6.69922ZM22.6733 8.26027C25.4901 7.20163 28.3788 6.69922 31.2136 6.69922V8.97799C28.6479 8.97799 26.0284 9.42657 23.4807 10.3955C12.1953 14.666 6.5077 27.2799 10.7779 38.5482C14.0791 47.2865 22.3862 52.6694 31.2136 52.6694V54.9482C21.4712 54.9482 12.3029 49.009 8.64278 39.3557C3.92408 26.8852 10.2037 12.9614 22.6733 8.26027Z" fill="#875796"/>
<path d="M24.8982 42.0459V26.9539H21.5382V23.9019L28.9302 22.2219L29.2102 23.9019L28.9302 26.7019V42.0459H24.8982ZM35.0975 42.0459V26.9539H31.7375V23.9019L39.1295 22.2219L39.4095 23.9019L39.1295 26.7019V42.0459H35.0975Z" fill="#875796"/>
<path opacity="0.5" fill-rule="evenodd" clip-rule="evenodd" d="M11.042 0.216751C19.7161 -4.04399 28.5894 -3.73746 30.8729 0.90644C33.1564 5.55034 27.9611 12.7537 19.287 17.0145C10.6129 21.2752 1.73952 20.9687 -0.543944 16.3248C-2.82741 11.6809 2.36786 4.47749 11.042 0.216751Z" fill="#FDFFF8"/>
</g>
</g>
<defs>
<filter id="filter0_i_3570_19335" x="0.400391" y="0" width="60" height="60" filterUnits="userSpaceOnUse" color-interpolation-filters="sRGB">
<feFlood flood-opacity="0" result="BackgroundImageFix"/>
<feBlend mode="normal" in="SourceGraphic" in2="BackgroundImageFix" result="shape"/>
<feColorMatrix in="SourceAlpha" type="matrix" values="0 0 0 0 0 0 0 0 0 0 0 0 0 0 0 0 0 0 127 0" result="hardAlpha"/>
<feOffset/>
<feGaussianBlur stdDeviation="5"/>
<feComposite in2="hardAlpha" operator="arithmetic" k2="-1" k3="1"/>
<feColorMatrix type="matrix" values="0 0 0 0 0 0 0 0 0 0 0 0 0 0 0 0 0 0 0.6 0"/>
<feBlend mode="normal" in2="shape" result="effect1_innerShadow_3570_19335"/>
</filter>
<clipPath id="clip0_3570_19335">
<rect x="0.400391" width="60" height="60" rx="30" fill="white"/>
</clipPath>
</defs>
</svg>
