<svg width="60" height="61" viewBox="0 0 60 61" fill="none" xmlns="http://www.w3.org/2000/svg">
<g filter="url(#filter0_i_3570_19238)">
<g clip-path="url(#clip0_3570_19238)">
<rect y="0.666992" width="60" height="60" rx="30" fill="#82857D"/>
<path fill-rule="evenodd" clip-rule="evenodd" d="M17.2636 -2.99425C35.8513 -10.0279 56.6279 -0.661643 63.6611 17.9274C70.6943 36.5164 61.3287 57.2945 42.741 64.3282C24.1533 71.3619 3.37666 61.9956 -3.65652 43.4066C-10.6897 24.8175 -1.32408 4.03945 17.2636 -2.99425Z" fill="#133D63"/>
<path fill-rule="evenodd" clip-rule="evenodd" d="M17.2644 -2.9948C35.5112 -9.90289 55.8751 -0.985174 63.2492 16.922C68.5241 34.8113 59.1765 54.0284 41.4499 60.7211C23.2031 67.6292 2.83917 58.7115 -4.53491 40.8043C-9.8098 22.915 -0.462105 3.69798 17.2644 -2.9948Z" fill="#5884AD"/>
<path fill-rule="evenodd" clip-rule="evenodd" d="M21.5376 6.95226C35.0837 1.82053 50.2266 8.65685 55.34 22.2039C60.4713 35.7509 53.6355 50.8949 40.0894 56.0087C26.5434 61.1404 11.4005 54.3041 6.28709 40.757C1.15574 27.21 7.99157 12.066 21.5376 6.95226Z" fill="#FDFFF8"/>
<path fill-rule="evenodd" clip-rule="evenodd" d="M30.8132 7.36035C40.5556 7.36035 49.7238 13.2995 53.384 22.9529C58.1027 35.4233 51.823 49.3472 39.3535 54.0483C36.5366 55.1069 33.648 55.6093 30.8132 55.6093V53.3306C33.3789 53.3306 35.9984 52.882 38.5461 51.9131C49.8315 47.6426 55.519 35.0286 51.2489 23.7603C47.9476 15.0221 39.6405 9.63913 30.8132 9.63913V7.36035ZM22.2729 8.9214C25.0897 7.86276 27.9784 7.36035 30.8132 7.36035V9.63913C28.2475 9.63913 25.628 10.0877 23.0803 11.0566C11.7949 15.3271 6.10731 27.9411 10.3775 39.2093C13.6788 47.9476 21.9858 53.3306 30.8132 53.3306V55.6093C21.0708 55.6093 11.9025 49.6702 8.24238 40.0168C3.52369 27.5463 9.80331 13.6225 22.2729 8.9214Z" fill="#5884AD"/>
<path d="M30.2362 42.9929C29.6389 42.9929 29.0695 42.9742 28.5282 42.9369C28.0055 42.8996 27.5109 42.8436 27.0442 42.7689L23.2362 41.4809L24.3562 37.5889L29.6762 39.1009C31.0015 39.1009 31.9349 38.8489 32.4762 38.3449C33.0362 37.8222 33.3162 37.1502 33.3162 36.3289C33.3162 35.7316 33.1389 35.2556 32.7842 34.9009C32.4482 34.5462 31.8789 34.3689 31.0762 34.3689H27.5202V30.7569H30.3762C32.1495 30.7569 33.0362 29.9729 33.0362 28.4049C33.0362 27.1542 32.1682 26.5289 30.4322 26.5289C29.3682 26.5289 28.4255 26.6316 27.6042 26.8369C26.7829 27.0236 26.0735 27.2476 25.4762 27.5089C24.8975 27.7516 24.4309 27.9569 24.0762 28.1249V24.2049C24.6175 23.8502 25.4015 23.5049 26.4282 23.1689C27.4549 22.8142 28.7989 22.6369 30.4602 22.6369C32.5695 22.6369 34.1655 23.1036 35.2482 24.0369C36.3495 24.9516 36.9002 26.2489 36.9002 27.9289C36.9002 28.8996 36.7415 29.7022 36.4242 30.3369C36.1255 30.9529 35.7429 31.4476 35.2762 31.8209C36.0789 32.3249 36.6949 32.9316 37.1242 33.6409C37.5535 34.3316 37.7682 35.2182 37.7682 36.3009C37.7682 37.7196 37.4509 38.9329 36.8162 39.9409C36.2002 40.9302 35.3229 41.6862 34.1842 42.2089C33.0642 42.7316 31.7482 42.9929 30.2362 42.9929Z" fill="#5884AD"/>
<path opacity="0.5" fill-rule="evenodd" clip-rule="evenodd" d="M13.484 1.94364C23.6391 -3.04454 34.0274 -2.68568 36.7007 2.75108C39.374 8.18784 33.2918 16.6211 23.1367 21.6093C12.9816 26.5974 2.59332 26.2386 -0.0800052 20.8018C-2.75333 15.3651 3.32893 6.93182 13.484 1.94364Z" fill="#FDFFF8"/>
</g>
</g>
<defs>
<filter id="filter0_i_3570_19238" x="0" y="0.666992" width="60" height="60" filterUnits="userSpaceOnUse" color-interpolation-filters="sRGB">
<feFlood flood-opacity="0" result="BackgroundImageFix"/>
<feBlend mode="normal" in="SourceGraphic" in2="BackgroundImageFix" result="shape"/>
<feColorMatrix in="SourceAlpha" type="matrix" values="0 0 0 0 0 0 0 0 0 0 0 0 0 0 0 0 0 0 127 0" result="hardAlpha"/>
<feOffset/>
<feGaussianBlur stdDeviation="5"/>
<feComposite in2="hardAlpha" operator="arithmetic" k2="-1" k3="1"/>
<feColorMatrix type="matrix" values="0 0 0 0 0 0 0 0 0 0 0 0 0 0 0 0 0 0 0.6 0"/>
<feBlend mode="normal" in2="shape" result="effect1_innerShadow_3570_19238"/>
</filter>
<clipPath id="clip0_3570_19238">
<rect y="0.666992" width="60" height="60" rx="30" fill="white"/>
</clipPath>
</defs>
</svg>
