<svg width="60" height="61" viewBox="0 0 60 61" fill="none" xmlns="http://www.w3.org/2000/svg">
<g filter="url(#filter0_i_3570_20266)">
<g clip-path="url(#clip0_3570_20266)">
<rect y="0.333984" width="60" height="60" rx="30" fill="#82857D"/>
<path fill-rule="evenodd" clip-rule="evenodd" d="M17.2636 -3.32725C35.8513 -10.3609 56.6279 -0.994651 63.6611 17.5944C70.6943 36.1834 61.3287 56.9615 42.741 63.9952C24.1533 71.0289 3.37666 61.6626 -3.65652 43.0736C-10.6897 24.4845 -1.32408 3.70644 17.2636 -3.32725Z" fill="#133D63"/>
<path fill-rule="evenodd" clip-rule="evenodd" d="M17.2644 -3.32781C35.5112 -10.2359 55.8751 -1.31818 63.2492 16.589C68.5241 34.4783 59.1765 53.6953 41.4499 60.3881C23.2031 67.2962 2.83917 58.3785 -4.53491 40.4713C-9.8098 22.582 -0.462105 3.36497 17.2644 -3.32781Z" fill="#5884AD"/>
<path fill-rule="evenodd" clip-rule="evenodd" d="M21.5376 6.61925C35.0837 1.48752 50.2266 8.32384 55.34 21.8709C60.4713 35.4179 53.6355 50.5619 40.0894 55.6757C26.5434 60.8074 11.4005 53.9711 6.28709 40.424C1.15574 26.877 7.99157 11.733 21.5376 6.61925Z" fill="#FDFFF8"/>
<path fill-rule="evenodd" clip-rule="evenodd" d="M30.8132 7.02734C40.5556 7.02734 49.7238 12.9665 53.384 22.6199C58.1027 35.0903 51.823 49.0142 39.3535 53.7153C36.5366 54.7739 33.648 55.2763 30.8132 55.2763V52.9975C33.3789 52.9975 35.9984 52.549 38.5461 51.58C49.8315 47.3096 55.519 34.6956 51.2489 23.4273C47.9476 14.689 39.6405 9.30612 30.8132 9.30612V7.02734ZM22.2729 8.58839C25.0897 7.52975 27.9784 7.02734 30.8132 7.02734V9.30612C28.2475 9.30612 25.628 9.7547 23.0803 10.7236C11.7949 14.9941 6.10731 27.6081 10.3775 38.8763C13.6788 47.6146 21.9858 52.9975 30.8132 52.9975V55.2763C21.0708 55.2763 11.9025 49.3372 8.24238 39.6838C3.52369 27.2133 9.80331 13.2895 22.2729 8.58839Z" fill="#5884AD"/>
<path d="M21.7116 42.6599C20.685 42.6599 19.6956 42.5665 18.7436 42.3799C17.8103 42.1745 16.9703 41.8479 16.2236 41.3999C15.4956 40.9332 14.917 40.3079 14.4876 39.5239C14.0583 38.7399 13.8436 37.7599 13.8436 36.5839C13.8436 35.3892 14.0956 34.4279 14.5996 33.6999C15.1036 32.9719 15.7663 32.4119 16.5876 32.0199C16.065 31.5719 15.617 31.0025 15.2436 30.3119C14.8703 29.6212 14.6836 28.7812 14.6836 27.7919C14.6836 26.1865 15.253 24.8705 16.3916 23.8439C17.5303 22.7985 19.285 22.2759 21.6556 22.2759C24.045 22.2759 25.7903 22.7519 26.8916 23.7039C27.993 24.6559 28.5436 26.0185 28.5436 27.7919C28.5436 28.6879 28.357 29.4999 27.9836 30.2279C27.6103 30.9559 27.153 31.5345 26.6116 31.9639C27.3956 32.3559 28.049 32.9345 28.5716 33.6999C29.113 34.4652 29.3836 35.4265 29.3836 36.5839C29.3836 38.1519 29.029 39.3745 28.3196 40.2519C27.6103 41.1292 26.677 41.7545 25.5196 42.1279C24.3623 42.4825 23.093 42.6599 21.7116 42.6599ZM21.7116 30.7319C22.6263 30.7319 23.3076 30.5452 23.7556 30.1719C24.2036 29.7985 24.4276 29.2945 24.4276 28.6599C24.4276 27.8945 24.213 27.2972 23.7836 26.8679C23.373 26.4199 22.6823 26.1959 21.7116 26.1959C20.8716 26.1959 20.181 26.3825 19.6396 26.7559C19.117 27.1292 18.8556 27.6705 18.8556 28.3799C18.8556 28.9585 18.9956 29.4252 19.2756 29.7799C19.5743 30.1159 19.9383 30.3585 20.3676 30.5079C20.8156 30.6572 21.2636 30.7319 21.7116 30.7319ZM21.7116 38.7399C22.7196 38.7399 23.5596 38.5719 24.2316 38.2359C24.9223 37.8999 25.2676 37.3865 25.2676 36.6959C25.2676 35.7252 24.7823 34.9505 23.8116 34.3719C22.8596 33.7745 21.4223 33.4665 19.4996 33.4479C19.1263 33.7279 18.809 34.0919 18.5476 34.5399C18.305 34.9692 18.1836 35.4265 18.1836 35.9119C18.1836 36.9385 18.5196 37.6665 19.1916 38.0959C19.8636 38.5252 20.7036 38.7399 21.7116 38.7399ZM39.4851 42.6599C38.4584 42.6599 37.4691 42.5665 36.5171 42.3799C35.5837 42.1745 34.7437 41.8479 33.9971 41.3999C33.2691 40.9332 32.6904 40.3079 32.2611 39.5239C31.8317 38.7399 31.6171 37.7599 31.6171 36.5839C31.6171 35.3892 31.8691 34.4279 32.3731 33.6999C32.8771 32.9719 33.5397 32.4119 34.3611 32.0199C33.8384 31.5719 33.3904 31.0025 33.0171 30.3119C32.6437 29.6212 32.4571 28.7812 32.4571 27.7919C32.4571 26.1865 33.0264 24.8705 34.1651 23.8439C35.3037 22.7985 37.0584 22.2759 39.4291 22.2759C41.8184 22.2759 43.5637 22.7519 44.6651 23.7039C45.7664 24.6559 46.3171 26.0185 46.3171 27.7919C46.3171 28.6879 46.1304 29.4999 45.7571 30.2279C45.3837 30.9559 44.9264 31.5345 44.3851 31.9639C45.1691 32.3559 45.8224 32.9345 46.3451 33.6999C46.8864 34.4652 47.1571 35.4265 47.1571 36.5839C47.1571 38.1519 46.8024 39.3745 46.0931 40.2519C45.3837 41.1292 44.4504 41.7545 43.2931 42.1279C42.1357 42.4825 40.8664 42.6599 39.4851 42.6599ZM39.4851 30.7319C40.3997 30.7319 41.0811 30.5452 41.5291 30.1719C41.9771 29.7985 42.2011 29.2945 42.2011 28.6599C42.2011 27.8945 41.9864 27.2972 41.5571 26.8679C41.1464 26.4199 40.4557 26.1959 39.4851 26.1959C38.6451 26.1959 37.9544 26.3825 37.4131 26.7559C36.8904 27.1292 36.6291 27.6705 36.6291 28.3799C36.6291 28.9585 36.7691 29.4252 37.0491 29.7799C37.3477 30.1159 37.7117 30.3585 38.1411 30.5079C38.5891 30.6572 39.0371 30.7319 39.4851 30.7319ZM39.4851 38.7399C40.4931 38.7399 41.3331 38.5719 42.0051 38.2359C42.6957 37.8999 43.0411 37.3865 43.0411 36.6959C43.0411 35.7252 42.5557 34.9505 41.5851 34.3719C40.6331 33.7745 39.1957 33.4665 37.2731 33.4479C36.8997 33.7279 36.5824 34.0919 36.3211 34.5399C36.0784 34.9692 35.9571 35.4265 35.9571 35.9119C35.9571 36.9385 36.2931 37.6665 36.9651 38.0959C37.6371 38.5252 38.4771 38.7399 39.4851 38.7399Z" fill="#5884AD"/>
<path opacity="0.5" fill-rule="evenodd" clip-rule="evenodd" d="M13.484 1.61063C23.6391 -3.37755 34.0274 -3.01868 36.7007 2.41807C39.374 7.85483 33.2918 16.2881 23.1367 21.2763C12.9816 26.2644 2.59332 25.9056 -0.0800052 20.4688C-2.75333 15.0321 3.32893 6.59881 13.484 1.61063Z" fill="#FDFFF8"/>
</g>
</g>
<defs>
<filter id="filter0_i_3570_20266" x="0" y="0.333984" width="60" height="60" filterUnits="userSpaceOnUse" color-interpolation-filters="sRGB">
<feFlood flood-opacity="0" result="BackgroundImageFix"/>
<feBlend mode="normal" in="SourceGraphic" in2="BackgroundImageFix" result="shape"/>
<feColorMatrix in="SourceAlpha" type="matrix" values="0 0 0 0 0 0 0 0 0 0 0 0 0 0 0 0 0 0 127 0" result="hardAlpha"/>
<feOffset/>
<feGaussianBlur stdDeviation="5"/>
<feComposite in2="hardAlpha" operator="arithmetic" k2="-1" k3="1"/>
<feColorMatrix type="matrix" values="0 0 0 0 0 0 0 0 0 0 0 0 0 0 0 0 0 0 0.6 0"/>
<feBlend mode="normal" in2="shape" result="effect1_innerShadow_3570_20266"/>
</filter>
<clipPath id="clip0_3570_20266">
<rect y="0.333984" width="60" height="60" rx="30" fill="white"/>
</clipPath>
</defs>
</svg>
