<svg width="60" height="61" viewBox="0 0 60 61" fill="none" xmlns="http://www.w3.org/2000/svg">
<g filter="url(#filter0_i_3570_19480)">
<g clip-path="url(#clip0_3570_19480)">
<rect y="0.333984" width="60" height="60" rx="30" fill="#82857D"/>
<path fill-rule="evenodd" clip-rule="evenodd" d="M17.2636 -3.32725C35.8513 -10.3609 56.6279 -0.994651 63.6611 17.5944C70.6943 36.1834 61.3287 56.9615 42.741 63.9952C24.1533 71.0289 3.37666 61.6626 -3.65652 43.0736C-10.6897 24.4845 -1.32408 3.70644 17.2636 -3.32725Z" fill="#5B3267"/>
<path fill-rule="evenodd" clip-rule="evenodd" d="M17.2644 -3.32781C35.5112 -10.2359 55.8751 -1.31818 63.2492 16.589C68.5241 34.4783 59.1765 53.6953 41.4499 60.3881C23.2031 67.2962 2.83917 58.3785 -4.53491 40.4713C-9.8098 22.582 -0.462105 3.36497 17.2644 -3.32781Z" fill="#875796"/>
<path fill-rule="evenodd" clip-rule="evenodd" d="M21.5376 6.62511C35.0837 1.49338 50.2266 8.3297 55.34 21.8767C60.4713 35.4238 53.6355 50.5677 40.0894 55.6815C26.5434 60.8132 11.4005 53.9769 6.28709 40.4299C1.15574 26.8829 7.99157 11.7389 21.5376 6.62511Z" fill="#FDFFF8"/>
<path fill-rule="evenodd" clip-rule="evenodd" d="M30.8132 7.0332C40.5556 7.0332 49.7238 12.9724 53.384 22.6257C58.1027 35.0962 51.823 49.02 39.3535 53.7211C36.5366 54.7798 33.648 55.2822 30.8132 55.2822V53.0034C33.3789 53.0034 35.9984 52.5548 38.5461 51.5859C49.8315 47.3155 55.519 34.7015 51.2489 23.4332C47.9476 14.6949 39.6405 9.31198 30.8132 9.31198V7.0332ZM22.2729 8.59425C25.0897 7.53561 27.9784 7.0332 30.8132 7.0332V9.31198C28.2475 9.31198 25.628 9.76056 23.0803 10.7295C11.7949 14.9999 6.10731 27.6139 10.3775 38.8822C13.6788 47.6205 21.9858 53.0034 30.8132 53.0034V55.2822C21.0708 55.2822 11.9025 49.343 8.24238 39.6896C3.52369 27.2192 9.80331 13.2953 22.2729 8.59425Z" fill="#875796"/>
<path d="M14.9068 42.3799V39.3279C14.9068 39.3279 15.1214 39.1879 15.5508 38.9079C15.9801 38.6092 16.5308 38.2265 17.2028 37.7599C17.8748 37.2932 18.5654 36.7799 19.2748 36.2199C20.0028 35.6599 20.6468 35.1092 21.2068 34.5679C22.4201 33.4292 23.3254 32.4119 23.9228 31.5159C24.5201 30.6199 24.8188 29.6305 24.8188 28.5479C24.8188 27.8199 24.5854 27.2505 24.1188 26.8399C23.6708 26.4105 22.9241 26.1959 21.8788 26.1959C21.0948 26.1959 20.3014 26.2799 19.4988 26.4479C18.6961 26.6159 17.9494 26.8305 17.2588 27.0919C16.5681 27.3345 15.9801 27.5865 15.4948 27.8479V23.9279C15.6814 23.8345 16.0548 23.6665 16.6148 23.4239C17.1934 23.1625 17.9494 22.9199 18.8828 22.6959C19.8161 22.4719 20.9174 22.3599 22.1868 22.3599C24.5574 22.3599 26.3121 22.8732 27.4508 23.8999C28.6081 24.9079 29.1868 26.3452 29.1868 28.2119C29.1868 29.3692 28.9441 30.4425 28.4588 31.4319C27.9921 32.4212 27.3668 33.3265 26.5828 34.1479C25.8174 34.9692 24.9868 35.7159 24.0908 36.3879C23.2134 37.0599 22.3641 37.6572 21.5428 38.1799L21.6828 38.7399L29.1868 38.1799V42.3799H14.9068ZM38.4257 42.6599C37.8283 42.6599 37.259 42.6412 36.7177 42.6039C36.195 42.5665 35.7003 42.5105 35.2337 42.4359L31.4257 41.1479L32.5457 37.2559L37.8657 38.7679C39.191 38.7679 40.1243 38.5159 40.6657 38.0119C41.2257 37.4892 41.5057 36.8172 41.5057 35.9959C41.5057 35.3985 41.3283 34.9225 40.9737 34.5679C40.6377 34.2132 40.0683 34.0359 39.2657 34.0359H35.7097V30.4239H38.5657C40.339 30.4239 41.2257 29.6399 41.2257 28.0719C41.2257 26.8212 40.3577 26.1959 38.6217 26.1959C37.5577 26.1959 36.615 26.2985 35.7937 26.5039C34.9723 26.6905 34.263 26.9145 33.6657 27.1759C33.087 27.4185 32.6203 27.6239 32.2657 27.7919V23.8719C32.807 23.5172 33.591 23.1719 34.6177 22.8359C35.6443 22.4812 36.9883 22.3039 38.6497 22.3039C40.759 22.3039 42.355 22.7705 43.4377 23.7039C44.539 24.6185 45.0897 25.9159 45.0897 27.5959C45.0897 28.5665 44.931 29.3692 44.6137 30.0039C44.315 30.6199 43.9323 31.1145 43.4657 31.4879C44.2683 31.9919 44.8843 32.5985 45.3137 33.3079C45.743 33.9985 45.9577 34.8852 45.9577 35.9679C45.9577 37.3865 45.6403 38.5999 45.0057 39.6079C44.3897 40.5972 43.5123 41.3532 42.3737 41.8759C41.2537 42.3985 39.9377 42.6599 38.4257 42.6599Z" fill="#875796"/>
<path opacity="0.5" fill-rule="evenodd" clip-rule="evenodd" d="M10.6416 0.550735C19.3157 -3.71 28.189 -3.40347 30.4725 1.24042C32.756 5.88432 27.5607 13.0877 18.8866 17.3485C10.2125 21.6092 1.33913 21.3027 -0.944335 16.6588C-3.2278 12.0149 1.96747 4.81147 10.6416 0.550735Z" fill="#FDFFF8"/>
</g>
</g>
<defs>
<filter id="filter0_i_3570_19480" x="0" y="0.333984" width="60" height="60" filterUnits="userSpaceOnUse" color-interpolation-filters="sRGB">
<feFlood flood-opacity="0" result="BackgroundImageFix"/>
<feBlend mode="normal" in="SourceGraphic" in2="BackgroundImageFix" result="shape"/>
<feColorMatrix in="SourceAlpha" type="matrix" values="0 0 0 0 0 0 0 0 0 0 0 0 0 0 0 0 0 0 127 0" result="hardAlpha"/>
<feOffset/>
<feGaussianBlur stdDeviation="5"/>
<feComposite in2="hardAlpha" operator="arithmetic" k2="-1" k3="1"/>
<feColorMatrix type="matrix" values="0 0 0 0 0 0 0 0 0 0 0 0 0 0 0 0 0 0 0.6 0"/>
<feBlend mode="normal" in2="shape" result="effect1_innerShadow_3570_19480"/>
</filter>
<clipPath id="clip0_3570_19480">
<rect y="0.333984" width="60" height="60" rx="30" fill="white"/>
</clipPath>
</defs>
</svg>
