<svg width="61" height="61" viewBox="0 0 61 61" fill="none" xmlns="http://www.w3.org/2000/svg">
<g filter="url(#filter0_i_3570_19940)">
<g clip-path="url(#clip0_3570_19940)">
<rect x="0.400391" y="0.666992" width="60" height="60" rx="30" fill="#82857D"/>
<path fill-rule="evenodd" clip-rule="evenodd" d="M17.664 -2.99425C36.2517 -10.0279 57.0283 -0.661643 64.0615 17.9274C71.0947 36.5164 61.7291 57.2945 43.1414 64.3282C24.5537 71.3619 3.77705 61.9956 -3.25613 43.4066C-10.2893 24.8175 -0.923692 4.03945 17.664 -2.99425Z" fill="#206446"/>
<path fill-rule="evenodd" clip-rule="evenodd" d="M17.6648 -2.9948C35.9116 -9.90289 56.2755 -0.985174 63.6496 16.922C68.9245 34.8113 59.5768 54.0284 41.8503 60.7211C23.6035 67.6292 3.23956 58.7115 -4.13452 40.8043C-9.40941 22.915 -0.0617142 3.69798 17.6648 -2.9948Z" fill="#8BC1A9"/>
<path fill-rule="evenodd" clip-rule="evenodd" d="M21.938 6.95226C35.4841 1.82053 50.627 8.65685 55.7404 22.2039C60.8717 35.7509 54.0359 50.8949 40.4898 56.0087C26.9438 61.1404 11.8009 54.3041 6.68748 40.757C1.55613 27.21 8.39196 12.066 21.938 6.95226Z" fill="#FDFFF8"/>
<path fill-rule="evenodd" clip-rule="evenodd" d="M31.2136 7.36035C40.956 7.36035 50.1242 13.2995 53.7844 22.9529C58.5031 35.4233 52.2234 49.3472 39.7539 54.0483C36.937 55.1069 34.0484 55.6093 31.2136 55.6093V53.3306C33.7792 53.3306 36.3987 52.882 38.9465 51.9131C50.2319 47.6426 55.9194 35.0286 51.6493 23.7603C48.348 15.0221 40.0409 9.63913 31.2136 9.63913V7.36035ZM22.6733 8.9214C25.4901 7.86276 28.3788 7.36035 31.2136 7.36035V9.63913C28.6479 9.63913 26.0284 10.0877 23.4807 11.0566C12.1953 15.3271 6.5077 27.9411 10.7779 39.2093C14.0791 47.9476 22.3862 53.3306 31.2136 53.3306V55.6093C21.4712 55.6093 12.3029 49.6702 8.64278 40.0168C3.92408 27.5463 10.2037 13.6225 22.6733 8.9214Z" fill="#8BC1A9"/>
<path opacity="0.5" fill-rule="evenodd" clip-rule="evenodd" d="M13.8844 1.94364C24.0394 -3.04454 34.4278 -2.68568 37.1011 2.75108C39.7744 8.18784 33.6921 16.6211 23.5371 21.6093C13.382 26.5974 2.99371 26.2386 0.320385 20.8018C-2.35294 15.3651 3.72932 6.93182 13.8844 1.94364Z" fill="#FDFFF8"/>
<path d="M26.3094 42.9929C24.7601 42.9929 23.3414 42.6476 22.0534 41.9569C20.7654 41.2476 19.7387 40.1836 18.9734 38.7649C18.2267 37.3462 17.8534 35.5542 17.8534 33.3889C17.8534 31.5036 18.1147 29.8796 18.6374 28.5169C19.1787 27.1542 19.8881 26.0436 20.7654 25.1849C21.6614 24.3076 22.6507 23.6636 23.7334 23.2529C24.8347 22.8236 25.9454 22.6089 27.0654 22.6089C28.0174 22.6089 28.7547 22.6836 29.2774 22.8329C29.8187 22.9822 30.2947 23.1502 30.7054 23.3369L33.2534 25.6329L31.2934 28.8249L27.0654 26.5009C26.2441 26.5009 25.4694 26.7062 24.7414 27.1169C24.0134 27.5276 23.4161 28.1156 22.9494 28.8809C22.4827 29.6462 22.2214 30.5796 22.1654 31.6809L26.5894 30.5609C27.8961 30.5609 29.0814 30.7756 30.1454 31.2049C31.2281 31.6156 32.0961 32.2689 32.7494 33.1649C33.4027 34.0422 33.7294 35.1996 33.7294 36.6369C33.7294 38.5596 33.0761 40.0996 31.7694 41.2569C30.4814 42.4142 28.6614 42.9929 26.3094 42.9929ZM26.5614 39.0449C27.4947 39.0449 28.2227 38.8209 28.7454 38.3729C29.2867 37.9249 29.5574 37.2902 29.5574 36.4689C29.5574 35.6849 29.2587 35.0876 28.6614 34.6769C28.0641 34.2476 27.2894 34.0329 26.3374 34.0329C25.5347 34.0329 24.7787 34.1449 24.0694 34.3689C23.3601 34.5929 22.8467 34.8262 22.5294 35.0689C22.5667 35.6662 22.7254 36.2729 23.0054 36.8889C23.3041 37.5049 23.7427 38.0182 24.3214 38.4289C24.9001 38.8396 25.6467 39.0449 26.5614 39.0449ZM39.0623 42.7129V27.6209H35.7023V24.5689L43.0943 22.8889L43.3743 24.5689L43.0943 27.3689V42.7129H39.0623Z" fill="#8BC1A9"/>
</g>
</g>
<defs>
<filter id="filter0_i_3570_19940" x="0.400391" y="0.666992" width="60" height="60" filterUnits="userSpaceOnUse" color-interpolation-filters="sRGB">
<feFlood flood-opacity="0" result="BackgroundImageFix"/>
<feBlend mode="normal" in="SourceGraphic" in2="BackgroundImageFix" result="shape"/>
<feColorMatrix in="SourceAlpha" type="matrix" values="0 0 0 0 0 0 0 0 0 0 0 0 0 0 0 0 0 0 127 0" result="hardAlpha"/>
<feOffset/>
<feGaussianBlur stdDeviation="5"/>
<feComposite in2="hardAlpha" operator="arithmetic" k2="-1" k3="1"/>
<feColorMatrix type="matrix" values="0 0 0 0 0 0 0 0 0 0 0 0 0 0 0 0 0 0 0.6 0"/>
<feBlend mode="normal" in2="shape" result="effect1_innerShadow_3570_19940"/>
</filter>
<clipPath id="clip0_3570_19940">
<rect x="0.400391" y="0.666992" width="60" height="60" rx="30" fill="white"/>
</clipPath>
</defs>
</svg>
