<svg width="61" height="61" viewBox="0 0 61 61" fill="none" xmlns="http://www.w3.org/2000/svg">
<g filter="url(#filter0_i_3570_19504)">
<g clip-path="url(#clip0_3570_19504)">
<rect x="0.600586" y="0.333984" width="60" height="60" rx="30" fill="#82857D"/>
<path fill-rule="evenodd" clip-rule="evenodd" d="M17.8642 -3.32725C36.4519 -10.3609 57.2285 -0.994651 64.2617 17.5944C71.2949 36.1834 61.9293 56.9615 43.3416 63.9952C24.7539 71.0289 3.97725 61.6626 -3.05594 43.0736C-10.0891 24.4845 -0.723497 3.70644 17.8642 -3.32725Z" fill="#904D16"/>
<path fill-rule="evenodd" clip-rule="evenodd" d="M17.865 -3.32781C36.1118 -10.2359 56.4757 -1.31818 63.8498 16.589C69.1247 34.4783 59.777 53.6953 42.0505 60.3881C23.8037 67.2962 3.43976 58.3785 -3.93433 40.4713C-9.20922 22.582 0.138481 3.36497 17.865 -3.32781Z" fill="#DC8944"/>
<path fill-rule="evenodd" clip-rule="evenodd" d="M22.1382 6.62511C35.6843 1.49338 50.8272 8.3297 55.9406 21.8767C61.0719 35.4238 54.2361 50.5677 40.69 55.6815C27.144 60.8132 12.0011 53.9769 6.88768 40.4299C1.75632 26.8829 8.59215 11.7389 22.1382 6.62511Z" fill="#FDFFF8"/>
<path fill-rule="evenodd" clip-rule="evenodd" d="M31.4138 7.0332C41.1562 7.0332 50.3244 12.9724 53.9846 22.6257C58.7033 35.0962 52.4236 49.02 39.9541 53.7211C37.1372 54.7798 34.2486 55.2822 31.4138 55.2822V53.0034C33.9794 53.0034 36.5989 52.5548 39.1467 51.5859C50.4321 47.3155 56.1196 34.7015 51.8495 23.4332C48.5482 14.6949 40.2411 9.31198 31.4138 9.31198V7.0332ZM22.8734 8.59425C25.6903 7.53561 28.579 7.0332 31.4138 7.0332V9.31198C28.8481 9.31198 26.2286 9.76056 23.6809 10.7295C12.3955 14.9999 6.7079 27.6139 10.978 38.8822C14.2793 47.6205 22.5864 53.0034 31.4138 53.0034V55.2822C21.6714 55.2822 12.5031 49.343 8.84297 39.6896C4.12428 27.2192 10.4039 13.2953 22.8734 8.59425Z" fill="#DC8944"/>
<path d="M15.4116 42.3799V39.3279C15.4116 39.3279 15.6263 39.1879 16.0556 38.9079C16.485 38.6092 17.0356 38.2265 17.7076 37.7599C18.3796 37.2932 19.0703 36.7799 19.7796 36.2199C20.5076 35.6599 21.1516 35.1092 21.7116 34.5679C22.925 33.4292 23.8303 32.4119 24.4276 31.5159C25.025 30.6199 25.3236 29.6305 25.3236 28.5479C25.3236 27.8199 25.0903 27.2505 24.6236 26.8399C24.1756 26.4105 23.429 26.1959 22.3836 26.1959C21.5996 26.1959 20.8063 26.2799 20.0036 26.4479C19.201 26.6159 18.4543 26.8305 17.7636 27.0919C17.073 27.3345 16.485 27.5865 15.9996 27.8479V23.9279C16.1863 23.8345 16.5596 23.6665 17.1196 23.4239C17.6983 23.1625 18.4543 22.9199 19.3876 22.6959C20.321 22.4719 21.4223 22.3599 22.6916 22.3599C25.0623 22.3599 26.817 22.8732 27.9556 23.8999C29.113 24.9079 29.6916 26.3452 29.6916 28.2119C29.6916 29.3692 29.449 30.4425 28.9636 31.4319C28.497 32.4212 27.8716 33.3265 27.0876 34.1479C26.3223 34.9692 25.4916 35.7159 24.5956 36.3879C23.7183 37.0599 22.869 37.6572 22.0476 38.1799L22.1876 38.7399L29.6916 38.1799V42.3799H15.4116ZM38.8465 42.6599C38.1372 42.6599 37.5212 42.6412 36.9985 42.6039C36.4945 42.5665 35.9812 42.5105 35.4585 42.4359L31.9305 41.1479L33.0505 37.2559L38.0065 38.7959C39.2945 38.7959 40.2745 38.5625 40.9465 38.0959C41.6372 37.6105 41.9825 36.9199 41.9825 36.0239C41.9825 35.1839 41.7492 34.5119 41.2825 34.0079C40.8159 33.5039 39.9199 33.2519 38.5945 33.2519H32.7705V22.5559H45.2305V26.4479L38.2305 26.1679H37.0545V29.9759H38.9305C41.5252 29.9759 43.4105 30.4705 44.5865 31.4599C45.7625 32.4492 46.3505 33.9145 46.3505 35.8559C46.3505 37.1812 46.0519 38.3572 45.4545 39.3839C44.8759 40.4105 44.0265 41.2132 42.9065 41.7919C41.7865 42.3705 40.4332 42.6599 38.8465 42.6599Z" fill="#DC8944"/>
<path opacity="0.5" fill-rule="evenodd" clip-rule="evenodd" d="M11.2422 0.550735C19.9163 -3.71 28.7896 -3.40347 31.0731 1.24042C33.3566 5.88432 28.1613 13.0877 19.4872 17.3485C10.8131 21.6092 1.93972 21.3027 -0.343749 16.6588C-2.62722 12.0149 2.56805 4.81147 11.2422 0.550735Z" fill="#FDFFF8"/>
</g>
</g>
<defs>
<filter id="filter0_i_3570_19504" x="0.600586" y="0.333984" width="60" height="60" filterUnits="userSpaceOnUse" color-interpolation-filters="sRGB">
<feFlood flood-opacity="0" result="BackgroundImageFix"/>
<feBlend mode="normal" in="SourceGraphic" in2="BackgroundImageFix" result="shape"/>
<feColorMatrix in="SourceAlpha" type="matrix" values="0 0 0 0 0 0 0 0 0 0 0 0 0 0 0 0 0 0 127 0" result="hardAlpha"/>
<feOffset/>
<feGaussianBlur stdDeviation="5"/>
<feComposite in2="hardAlpha" operator="arithmetic" k2="-1" k3="1"/>
<feColorMatrix type="matrix" values="0 0 0 0 0 0 0 0 0 0 0 0 0 0 0 0 0 0 0.6 0"/>
<feBlend mode="normal" in2="shape" result="effect1_innerShadow_3570_19504"/>
</filter>
<clipPath id="clip0_3570_19504">
<rect x="0.600586" y="0.333984" width="60" height="60" rx="30" fill="white"/>
</clipPath>
</defs>
</svg>
