<svg width="60" height="60" viewBox="0 0 60 60" fill="none" xmlns="http://www.w3.org/2000/svg">
<g filter="url(#filter0_i_3570_20145)">
<g clip-path="url(#clip0_3570_20145)">
<rect width="60" height="60" rx="30" fill="#82857D"/>
<path fill-rule="evenodd" clip-rule="evenodd" d="M17.2636 -3.66124C35.8513 -10.6949 56.6279 -1.32864 63.6611 17.2604C70.6943 35.8494 61.3287 56.6275 42.741 63.6612C24.1533 70.6949 3.37666 61.3286 -3.65652 42.7396C-10.6897 24.1506 -1.32408 3.37245 17.2636 -3.66124Z" fill="#904D16"/>
<path fill-rule="evenodd" clip-rule="evenodd" d="M17.2644 -3.66179C35.5112 -10.5699 55.8751 -1.65217 63.2492 16.255C68.5241 34.1443 59.1765 53.3614 41.4499 60.0541C23.2031 66.9622 2.83917 58.0445 -4.53491 40.1373C-9.8098 22.248 -0.462105 3.03098 17.2644 -3.66179Z" fill="#DC8944"/>
<path fill-rule="evenodd" clip-rule="evenodd" d="M21.5376 6.29112C35.0837 1.1594 50.2266 7.99572 55.34 21.5427C60.4713 35.0898 53.6355 50.2338 40.0894 55.3475C26.5434 60.4793 11.4005 53.6429 6.28709 40.0959C1.15574 26.5489 7.99157 11.4049 21.5376 6.29112Z" fill="#FDFFF8"/>
<path fill-rule="evenodd" clip-rule="evenodd" d="M30.8132 6.69922C40.5556 6.69922 49.7238 12.6384 53.384 22.2918C58.1027 34.7622 51.823 48.6861 39.3535 53.3871C36.5366 54.4458 33.648 54.9482 30.8132 54.9482V52.6694C33.3789 52.6694 35.9984 52.2209 38.5461 51.2519C49.8315 46.9815 55.519 34.3675 51.2489 23.0992C47.9476 14.3609 39.6405 8.97799 30.8132 8.97799V6.69922ZM22.2729 8.26027C25.0897 7.20163 27.9784 6.69922 30.8132 6.69922V8.97799C28.2475 8.97799 25.628 9.42657 23.0803 10.3955C11.7949 14.666 6.10731 27.2799 10.3775 38.5482C13.6788 47.2865 21.9858 52.6694 30.8132 52.6694V54.9482C21.0708 54.9482 11.9025 49.009 8.24238 39.3557C3.52369 26.8852 9.80331 12.9614 22.2729 8.26027Z" fill="#DC8944"/>
<path d="M17.6351 42.0459L22.8711 28.7739L24.3551 25.8339H23.5151L14.8351 26.3939V22.2219H28.3871V25.0499L23.7671 37.5659L22.3671 42.0459H17.6351ZM38.2136 42.3259C37.1869 42.3259 36.1976 42.2326 35.2456 42.0459C34.3123 41.8406 33.4723 41.5139 32.7256 41.0659C31.9976 40.5992 31.4189 39.9739 30.9896 39.1899C30.5603 38.4059 30.3456 37.4259 30.3456 36.2499C30.3456 35.0552 30.5976 34.0939 31.1016 33.3659C31.6056 32.6379 32.2683 32.0779 33.0896 31.6859C32.5669 31.2379 32.1189 30.6686 31.7456 29.9779C31.3723 29.2872 31.1856 28.4472 31.1856 27.4579C31.1856 25.8526 31.7549 24.5366 32.8936 23.5099C34.0323 22.4646 35.7869 21.9419 38.1576 21.9419C40.5469 21.9419 42.2923 22.4179 43.3936 23.3699C44.4949 24.3219 45.0456 25.6846 45.0456 27.4579C45.0456 28.3539 44.8589 29.1659 44.4856 29.8939C44.1123 30.6219 43.6549 31.2006 43.1136 31.6299C43.8976 32.0219 44.5509 32.6006 45.0736 33.3659C45.6149 34.1312 45.8856 35.0926 45.8856 36.2499C45.8856 37.8179 45.5309 39.0406 44.8216 39.9179C44.1123 40.7952 43.1789 41.4206 42.0216 41.7939C40.8643 42.1486 39.5949 42.3259 38.2136 42.3259ZM38.2136 30.3979C39.1283 30.3979 39.8096 30.2112 40.2576 29.8379C40.7056 29.4646 40.9296 28.9606 40.9296 28.3259C40.9296 27.5606 40.7149 26.9632 40.2856 26.5339C39.8749 26.0859 39.1843 25.8619 38.2136 25.8619C37.3736 25.8619 36.6829 26.0486 36.1416 26.4219C35.6189 26.7952 35.3576 27.3366 35.3576 28.0459C35.3576 28.6246 35.4976 29.0912 35.7776 29.4459C36.0763 29.7819 36.4403 30.0246 36.8696 30.1739C37.3176 30.3232 37.7656 30.3979 38.2136 30.3979ZM38.2136 38.4059C39.2216 38.4059 40.0616 38.2379 40.7336 37.9019C41.4243 37.5659 41.7696 37.0526 41.7696 36.3619C41.7696 35.3912 41.2843 34.6166 40.3136 34.0379C39.3616 33.4406 37.9243 33.1326 36.0016 33.1139C35.6283 33.3939 35.3109 33.7579 35.0496 34.2059C34.8069 34.6352 34.6856 35.0926 34.6856 35.5779C34.6856 36.6046 35.0216 37.3326 35.6936 37.7619C36.3656 38.1912 37.2056 38.4059 38.2136 38.4059Z" fill="#DC8944"/>
<path opacity="0.5" fill-rule="evenodd" clip-rule="evenodd" d="M10.6416 0.216751C19.3157 -4.04399 28.189 -3.73746 30.4725 0.90644C32.756 5.55034 27.5607 12.7537 18.8866 17.0145C10.2125 21.2752 1.33913 20.9687 -0.944335 16.3248C-3.2278 11.6809 1.96747 4.47749 10.6416 0.216751Z" fill="#FDFFF8"/>
</g>
</g>
<defs>
<filter id="filter0_i_3570_20145" x="0" y="0" width="60" height="60" filterUnits="userSpaceOnUse" color-interpolation-filters="sRGB">
<feFlood flood-opacity="0" result="BackgroundImageFix"/>
<feBlend mode="normal" in="SourceGraphic" in2="BackgroundImageFix" result="shape"/>
<feColorMatrix in="SourceAlpha" type="matrix" values="0 0 0 0 0 0 0 0 0 0 0 0 0 0 0 0 0 0 127 0" result="hardAlpha"/>
<feOffset/>
<feGaussianBlur stdDeviation="5"/>
<feComposite in2="hardAlpha" operator="arithmetic" k2="-1" k3="1"/>
<feColorMatrix type="matrix" values="0 0 0 0 0 0 0 0 0 0 0 0 0 0 0 0 0 0 0.6 0"/>
<feBlend mode="normal" in2="shape" result="effect1_innerShadow_3570_20145"/>
</filter>
<clipPath id="clip0_3570_20145">
<rect width="60" height="60" rx="30" fill="white"/>
</clipPath>
</defs>
</svg>
