<svg width="61" height="61" viewBox="0 0 61 61" fill="none" xmlns="http://www.w3.org/2000/svg">
<g filter="url(#filter0_i_3570_19492)">
<g clip-path="url(#clip0_3570_19492)">
<rect x="0.800781" y="0.333984" width="60" height="60" rx="30" fill="#82857D"/>
<path fill-rule="evenodd" clip-rule="evenodd" d="M18.0644 -3.32725C36.6521 -10.3609 57.4287 -0.994651 64.4619 17.5944C71.4951 36.1834 62.1295 56.9615 43.5418 63.9952C24.9541 71.0289 4.17744 61.6626 -2.85574 43.0736C-9.88893 24.4845 -0.523302 3.70644 18.0644 -3.32725Z" fill="#782326"/>
<path fill-rule="evenodd" clip-rule="evenodd" d="M18.0652 -3.32781C36.312 -10.2359 56.6759 -1.31818 64.05 16.589C69.3249 34.4783 59.9772 53.6953 42.2507 60.3881C24.0039 67.2962 3.63995 58.3785 -3.73413 40.4713C-9.00902 22.582 0.338676 3.36497 18.0652 -3.32781Z" fill="#B65155"/>
<path fill-rule="evenodd" clip-rule="evenodd" d="M22.3384 6.61925C35.8845 1.48752 51.0273 8.32384 56.1408 21.8709C61.2721 35.4179 54.4363 50.5619 40.8902 55.6757C27.3442 60.8074 12.2013 53.9711 7.08788 40.424C1.95652 26.877 8.79235 11.733 22.3384 6.61925Z" fill="#FDFFF8"/>
<path fill-rule="evenodd" clip-rule="evenodd" d="M31.614 7.02734C41.3564 7.02734 50.5246 12.9665 54.1848 22.6199C58.9034 35.0903 52.6238 49.0142 40.1542 53.7153C37.3374 54.7739 34.4488 55.2763 31.614 55.2763V52.9975C34.1796 52.9975 36.7991 52.549 39.3469 51.58C50.6323 47.3096 56.3198 34.6956 52.0497 23.4273C48.7484 14.689 40.4413 9.30612 31.614 9.30612V7.02734ZM23.0736 8.58839C25.8905 7.52975 28.7792 7.02734 31.614 7.02734V9.30612C29.0483 9.30612 26.4288 9.7547 23.881 10.7236C12.5957 14.9941 6.9081 27.6081 11.1782 38.8763C14.4795 47.6146 22.7866 52.9975 31.614 52.9975V55.2763C21.8716 55.2763 12.7033 49.3372 9.04317 39.6838C4.32447 27.2133 10.6041 13.2895 23.0736 8.58839Z" fill="#B65155"/>
<path d="M14.6411 42.3799V39.3279C14.6411 39.3279 14.8558 39.1879 15.2851 38.9079C15.7145 38.6092 16.2651 38.2265 16.9371 37.7599C17.6091 37.2932 18.2998 36.7799 19.0091 36.2199C19.7371 35.6599 20.3811 35.1092 20.9411 34.5679C22.1545 33.4292 23.0598 32.4119 23.6571 31.5159C24.2545 30.6199 24.5531 29.6305 24.5531 28.5479C24.5531 27.8199 24.3198 27.2505 23.8531 26.8399C23.4051 26.4105 22.6585 26.1959 21.6131 26.1959C20.8291 26.1959 20.0358 26.2799 19.2331 26.4479C18.4305 26.6159 17.6838 26.8305 16.9931 27.0919C16.3025 27.3345 15.7145 27.5865 15.2291 27.8479V23.9279C15.4158 23.8345 15.7891 23.6665 16.3491 23.4239C16.9278 23.1625 17.6838 22.9199 18.6171 22.6959C19.5505 22.4719 20.6518 22.3599 21.9211 22.3599C24.2918 22.3599 26.0465 22.8732 27.1851 23.8999C28.3425 24.9079 28.9211 26.3452 28.9211 28.2119C28.9211 29.3692 28.6785 30.4425 28.1931 31.4319C27.7265 32.4212 27.1011 33.3265 26.3171 34.1479C25.5518 34.9692 24.7211 35.7159 23.8251 36.3879C22.9478 37.0599 22.0985 37.6572 21.2771 38.1799L21.4171 38.7399L28.9211 38.1799V42.3799H14.6411ZM40.988 42.3799V39.5799H30.32V36.7239L39.42 22.5559H45.02L45.58 24.2639L45.02 27.0639V35.8839H48.66V39.2999L45.02 39.5799V42.3799H40.988ZM35.444 35.8839H40.988V27.5399H40.484L35.444 35.8839Z" fill="#B65155"/>
<path opacity="0.5" fill-rule="evenodd" clip-rule="evenodd" d="M14.2848 1.61063C24.4398 -3.37755 34.8281 -3.01868 37.5015 2.41807C40.1748 7.85483 34.0925 16.2881 23.9375 21.2763C13.7824 26.2644 3.3941 25.9056 0.720776 20.4688C-1.95255 15.0321 4.12971 6.59881 14.2848 1.61063Z" fill="#FDFFF8"/>
</g>
</g>
<defs>
<filter id="filter0_i_3570_19492" x="0.800781" y="0.333984" width="60" height="60" filterUnits="userSpaceOnUse" color-interpolation-filters="sRGB">
<feFlood flood-opacity="0" result="BackgroundImageFix"/>
<feBlend mode="normal" in="SourceGraphic" in2="BackgroundImageFix" result="shape"/>
<feColorMatrix in="SourceAlpha" type="matrix" values="0 0 0 0 0 0 0 0 0 0 0 0 0 0 0 0 0 0 127 0" result="hardAlpha"/>
<feOffset/>
<feGaussianBlur stdDeviation="5"/>
<feComposite in2="hardAlpha" operator="arithmetic" k2="-1" k3="1"/>
<feColorMatrix type="matrix" values="0 0 0 0 0 0 0 0 0 0 0 0 0 0 0 0 0 0 0.6 0"/>
<feBlend mode="normal" in2="shape" result="effect1_innerShadow_3570_19492"/>
</filter>
<clipPath id="clip0_3570_19492">
<rect x="0.800781" y="0.333984" width="60" height="60" rx="30" fill="white"/>
</clipPath>
</defs>
</svg>
