<svg width="61" height="60" viewBox="0 0 61 60" fill="none" xmlns="http://www.w3.org/2000/svg">
<g filter="url(#filter0_i_3570_20073)">
<g clip-path="url(#clip0_3570_20073)">
<rect x="0.200195" width="60" height="60" rx="30" fill="#82857D"/>
<path fill-rule="evenodd" clip-rule="evenodd" d="M17.4638 -3.66124C36.0515 -10.6949 56.8281 -1.32864 63.8613 17.2604C70.8945 35.8494 61.5289 56.6275 42.9412 63.6612C24.3535 70.6949 3.57686 61.3286 -3.45633 42.7396C-10.4895 24.1506 -1.12389 3.37245 17.4638 -3.66124Z" fill="#133D63"/>
<path fill-rule="evenodd" clip-rule="evenodd" d="M17.4646 -3.66179C35.7114 -10.5699 56.0753 -1.65217 63.4494 16.255C68.7243 34.1443 59.3766 53.3614 41.6501 60.0541C23.4033 66.9622 3.03937 58.0445 -4.33472 40.1373C-9.60961 22.248 -0.261909 3.03098 17.4646 -3.66179Z" fill="#5884AD"/>
<path fill-rule="evenodd" clip-rule="evenodd" d="M21.7378 6.28526C35.2839 1.15354 50.4268 7.98986 55.5402 21.5369C60.6715 35.0839 53.8357 50.2279 40.2896 55.3417C26.7436 60.4734 11.6007 53.6371 6.48729 40.09C1.35593 26.543 8.19176 11.399 21.7378 6.28526Z" fill="#FDFFF8"/>
<path fill-rule="evenodd" clip-rule="evenodd" d="M31.0134 6.69336C40.7558 6.69336 49.924 12.6325 53.5842 22.2859C58.3029 34.7564 52.0232 48.6802 39.5537 53.3813C36.7368 54.4399 33.8482 54.9423 31.0134 54.9423V52.6636C33.5791 52.6636 36.1986 52.215 38.7463 51.2461C50.0317 46.9756 55.7192 34.3616 51.4491 23.0933C48.1478 14.3551 39.8407 8.97213 31.0134 8.97213V6.69336ZM22.4731 8.25441C25.2899 7.19577 28.1786 6.69336 31.0134 6.69336V8.97213C28.4477 8.97213 25.8282 9.42071 23.2805 10.3896C11.9951 14.6601 6.30751 27.2741 10.5777 38.5424C13.879 47.2806 22.186 52.6636 31.0134 52.6636V54.9423C21.271 54.9423 12.1027 49.0032 8.44258 39.3498C3.72389 26.8793 10.0035 12.9555 22.4731 8.25441Z" fill="#5884AD"/>
<path d="M18.5326 42.0459L23.7686 28.7739L25.2526 25.8339H24.4126L15.7326 26.3939V22.2219H29.2846V25.0499L24.6646 37.5659L23.2646 42.0459H18.5326ZM31.103 42.0459V38.9939C31.103 38.9939 31.3177 38.8539 31.747 38.5739C32.1764 38.2752 32.727 37.8926 33.399 37.4259C34.071 36.9592 34.7617 36.4459 35.471 35.8859C36.199 35.3259 36.843 34.7752 37.403 34.2339C38.6164 33.0952 39.5217 32.0779 40.119 31.1819C40.7164 30.2859 41.015 29.2966 41.015 28.2139C41.015 27.4859 40.7817 26.9166 40.315 26.5059C39.867 26.0766 39.1204 25.8619 38.075 25.8619C37.291 25.8619 36.4977 25.9459 35.695 26.1139C34.8924 26.2819 34.1457 26.4966 33.455 26.7579C32.7644 27.0006 32.1764 27.2526 31.691 27.5139V23.5939C31.8777 23.5006 32.251 23.3326 32.811 23.0899C33.3897 22.8286 34.1457 22.5859 35.079 22.3619C36.0124 22.1379 37.1137 22.0259 38.383 22.0259C40.7537 22.0259 42.5084 22.5392 43.647 23.5659C44.8044 24.5739 45.383 26.0112 45.383 27.8779C45.383 29.0352 45.1404 30.1086 44.655 31.0979C44.1884 32.0872 43.563 32.9926 42.779 33.8139C42.0137 34.6352 41.183 35.3819 40.287 36.0539C39.4097 36.7259 38.5604 37.3232 37.739 37.8459L37.879 38.4059L45.383 37.8459V42.0459H31.103Z" fill="#5884AD"/>
<path opacity="0.5" fill-rule="evenodd" clip-rule="evenodd" d="M13.6842 1.27665C23.8393 -3.71153 34.2276 -3.35267 36.9009 2.08409C39.5742 7.52084 33.492 15.9541 23.3369 20.9423C13.1818 25.9305 2.79352 25.5716 0.12019 20.1348C-2.55314 14.6981 3.52913 6.26483 13.6842 1.27665Z" fill="#FDFFF8"/>
</g>
</g>
<defs>
<filter id="filter0_i_3570_20073" x="0.200195" y="0" width="60" height="60" filterUnits="userSpaceOnUse" color-interpolation-filters="sRGB">
<feFlood flood-opacity="0" result="BackgroundImageFix"/>
<feBlend mode="normal" in="SourceGraphic" in2="BackgroundImageFix" result="shape"/>
<feColorMatrix in="SourceAlpha" type="matrix" values="0 0 0 0 0 0 0 0 0 0 0 0 0 0 0 0 0 0 127 0" result="hardAlpha"/>
<feOffset/>
<feGaussianBlur stdDeviation="5"/>
<feComposite in2="hardAlpha" operator="arithmetic" k2="-1" k3="1"/>
<feColorMatrix type="matrix" values="0 0 0 0 0 0 0 0 0 0 0 0 0 0 0 0 0 0 0.6 0"/>
<feBlend mode="normal" in2="shape" result="effect1_innerShadow_3570_20073"/>
</filter>
<clipPath id="clip0_3570_20073">
<rect x="0.200195" width="60" height="60" rx="30" fill="white"/>
</clipPath>
</defs>
</svg>
