<svg width="61" height="61" viewBox="0 0 61 61" fill="none" xmlns="http://www.w3.org/2000/svg">
<g filter="url(#filter0_i_3570_20230)">
<g clip-path="url(#clip0_3570_20230)">
<rect x="0.600586" y="0.333984" width="60" height="60" rx="30" fill="#82857D"/>
<path fill-rule="evenodd" clip-rule="evenodd" d="M17.8642 -3.32725C36.4519 -10.3609 57.2285 -0.994651 64.2617 17.5944C71.2949 36.1834 61.9293 56.9615 43.3416 63.9952C24.7539 71.0289 3.97725 61.6626 -3.05594 43.0736C-10.0891 24.4845 -0.723497 3.70644 17.8642 -3.32725Z" fill="#133D63"/>
<path fill-rule="evenodd" clip-rule="evenodd" d="M17.865 -3.32781C36.1118 -10.2359 56.4757 -1.31818 63.8498 16.589C69.1247 34.4783 59.777 53.6953 42.0505 60.3881C23.8037 67.2962 3.43976 58.3785 -3.93433 40.4713C-9.20922 22.582 0.138481 3.36497 17.865 -3.32781Z" fill="#5884AD"/>
<path fill-rule="evenodd" clip-rule="evenodd" d="M22.1382 6.61925C35.6843 1.48752 50.8272 8.32384 55.9406 21.8709C61.0719 35.4179 54.2361 50.5619 40.69 55.6757C27.144 60.8074 12.0011 53.9711 6.88768 40.424C1.75632 26.877 8.59215 11.733 22.1382 6.61925Z" fill="#FDFFF8"/>
<path fill-rule="evenodd" clip-rule="evenodd" d="M31.4138 7.02734C41.1562 7.02734 50.3244 12.9665 53.9846 22.6199C58.7033 35.0903 52.4236 49.0142 39.9541 53.7153C37.1372 54.7739 34.2486 55.2763 31.4138 55.2763V52.9975C33.9794 52.9975 36.5989 52.549 39.1467 51.58C50.4321 47.3096 56.1196 34.6956 51.8495 23.4273C48.5482 14.689 40.2411 9.30612 31.4138 9.30612V7.02734ZM22.8734 8.58839C25.6903 7.52975 28.579 7.02734 31.4138 7.02734V9.30612C28.8481 9.30612 26.2286 9.7547 23.6809 10.7236C12.3955 14.9941 6.7079 27.6081 10.978 38.8763C14.2793 47.6146 22.5864 52.9975 31.4138 52.9975V55.2763C21.6714 55.2763 12.5031 49.3372 8.84297 39.6838C4.12428 27.2133 10.4039 13.2895 22.8734 8.58839Z" fill="#5884AD"/>
<path d="M22.7224 42.6599C21.6957 42.6599 20.7064 42.5665 19.7544 42.3799C18.821 42.1745 17.981 41.8479 17.2344 41.3999C16.5064 40.9332 15.9277 40.3079 15.4984 39.5239C15.069 38.7399 14.8544 37.7599 14.8544 36.5839C14.8544 35.3892 15.1064 34.4279 15.6104 33.6999C16.1144 32.9719 16.777 32.4119 17.5984 32.0199C17.0757 31.5719 16.6277 31.0025 16.2544 30.3119C15.881 29.6212 15.6944 28.7812 15.6944 27.7919C15.6944 26.1865 16.2637 24.8705 17.4024 23.8439C18.541 22.7985 20.2957 22.2759 22.6664 22.2759C25.0557 22.2759 26.801 22.7519 27.9024 23.7039C29.0037 24.6559 29.5544 26.0185 29.5544 27.7919C29.5544 28.6879 29.3677 29.4999 28.9944 30.2279C28.621 30.9559 28.1637 31.5345 27.6224 31.9639C28.4064 32.3559 29.0597 32.9345 29.5824 33.6999C30.1237 34.4652 30.3944 35.4265 30.3944 36.5839C30.3944 38.1519 30.0397 39.3745 29.3304 40.2519C28.621 41.1292 27.6877 41.7545 26.5304 42.1279C25.373 42.4825 24.1037 42.6599 22.7224 42.6599ZM22.7224 30.7319C23.637 30.7319 24.3184 30.5452 24.7664 30.1719C25.2144 29.7985 25.4384 29.2945 25.4384 28.6599C25.4384 27.8945 25.2237 27.2972 24.7944 26.8679C24.3837 26.4199 23.693 26.1959 22.7224 26.1959C21.8824 26.1959 21.1917 26.3825 20.6504 26.7559C20.1277 27.1292 19.8664 27.6705 19.8664 28.3799C19.8664 28.9585 20.0064 29.4252 20.2864 29.7799C20.585 30.1159 20.949 30.3585 21.3784 30.5079C21.8264 30.6572 22.2744 30.7319 22.7224 30.7319ZM22.7224 38.7399C23.7304 38.7399 24.5704 38.5719 25.2424 38.2359C25.933 37.8999 26.2784 37.3865 26.2784 36.6959C26.2784 35.7252 25.793 34.9505 24.8224 34.3719C23.8704 33.7745 22.433 33.4665 20.5104 33.4479C20.137 33.7279 19.8197 34.0919 19.5584 34.5399C19.3157 34.9692 19.1944 35.4265 19.1944 35.9119C19.1944 36.9385 19.5304 37.6665 20.2024 38.0959C20.8744 38.5252 21.7144 38.7399 22.7224 38.7399ZM39.5438 42.6599C38.8345 42.6599 38.2185 42.6412 37.6958 42.6039C37.1918 42.5665 36.6785 42.5105 36.1558 42.4359L32.6278 41.1479L33.7478 37.2559L38.7038 38.7959C39.9918 38.7959 40.9718 38.5625 41.6438 38.0959C42.3345 37.6105 42.6798 36.9199 42.6798 36.0239C42.6798 35.1839 42.4465 34.5119 41.9798 34.0079C41.5131 33.5039 40.6171 33.2519 39.2918 33.2519H33.4678V22.5559H45.9278V26.4479L38.9278 26.1679H37.7518V29.9759H39.6278C42.2225 29.9759 44.1078 30.4705 45.2838 31.4599C46.4598 32.4492 47.0478 33.9145 47.0478 35.8559C47.0478 37.1812 46.7491 38.3572 46.1518 39.3839C45.5731 40.4105 44.7238 41.2132 43.6038 41.7919C42.4838 42.3705 41.1305 42.6599 39.5438 42.6599Z" fill="#5884AD"/>
<path opacity="0.5" fill-rule="evenodd" clip-rule="evenodd" d="M14.0846 1.61063C24.2396 -3.37755 34.628 -3.01868 37.3013 2.41807C39.9746 7.85483 33.8923 16.2881 23.7373 21.2763C13.5822 26.2644 3.19391 25.9056 0.520581 20.4688C-2.15275 15.0321 3.92952 6.59881 14.0846 1.61063Z" fill="#FDFFF8"/>
</g>
</g>
<defs>
<filter id="filter0_i_3570_20230" x="0.600586" y="0.333984" width="60" height="60" filterUnits="userSpaceOnUse" color-interpolation-filters="sRGB">
<feFlood flood-opacity="0" result="BackgroundImageFix"/>
<feBlend mode="normal" in="SourceGraphic" in2="BackgroundImageFix" result="shape"/>
<feColorMatrix in="SourceAlpha" type="matrix" values="0 0 0 0 0 0 0 0 0 0 0 0 0 0 0 0 0 0 127 0" result="hardAlpha"/>
<feOffset/>
<feGaussianBlur stdDeviation="5"/>
<feComposite in2="hardAlpha" operator="arithmetic" k2="-1" k3="1"/>
<feColorMatrix type="matrix" values="0 0 0 0 0 0 0 0 0 0 0 0 0 0 0 0 0 0 0.6 0"/>
<feBlend mode="normal" in2="shape" result="effect1_innerShadow_3570_20230"/>
</filter>
<clipPath id="clip0_3570_20230">
<rect x="0.600586" y="0.333984" width="60" height="60" rx="30" fill="white"/>
</clipPath>
</defs>
</svg>
