<svg width="61" height="61" viewBox="0 0 61 61" fill="none" xmlns="http://www.w3.org/2000/svg">
<g filter="url(#filter0_i_3570_20194)">
<g clip-path="url(#clip0_3570_20194)">
<rect x="0.200195" y="0.333984" width="60" height="60" rx="30" fill="#82857D"/>
<path fill-rule="evenodd" clip-rule="evenodd" d="M17.4638 -3.32725C36.0515 -10.3609 56.8281 -0.994651 63.8613 17.5944C70.8945 36.1834 61.5289 56.9615 42.9412 63.9952C24.3535 71.0289 3.57686 61.6626 -3.45633 43.0736C-10.4895 24.4845 -1.12389 3.70644 17.4638 -3.32725Z" fill="#5B3267"/>
<path fill-rule="evenodd" clip-rule="evenodd" d="M17.4646 -3.32781C35.7114 -10.2359 56.0753 -1.31818 63.4494 16.589C68.7243 34.4783 59.3766 53.6953 41.6501 60.3881C23.4033 67.2962 3.03937 58.3785 -4.33472 40.4713C-9.60961 22.582 -0.261909 3.36497 17.4646 -3.32781Z" fill="#875796"/>
<path fill-rule="evenodd" clip-rule="evenodd" d="M21.7378 6.62511C35.2839 1.49338 50.4268 8.3297 55.5402 21.8767C60.6715 35.4238 53.8357 50.5677 40.2896 55.6815C26.7436 60.8132 11.6007 53.9769 6.48729 40.4299C1.35593 26.8829 8.19176 11.7389 21.7378 6.62511Z" fill="#FDFFF8"/>
<path fill-rule="evenodd" clip-rule="evenodd" d="M31.0134 7.0332C40.7558 7.0332 49.924 12.9724 53.5842 22.6257C58.3029 35.0962 52.0232 49.02 39.5537 53.7211C36.7368 54.7798 33.8482 55.2822 31.0134 55.2822V53.0034C33.5791 53.0034 36.1986 52.5548 38.7463 51.5859C50.0317 47.3155 55.7192 34.7015 51.4491 23.4332C48.1478 14.6949 39.8407 9.31198 31.0134 9.31198V7.0332ZM22.4731 8.59425C25.2899 7.53561 28.1786 7.0332 31.0134 7.0332V9.31198C28.4477 9.31198 25.8282 9.76056 23.2805 10.7295C11.9951 14.9999 6.30751 27.6139 10.5777 38.8822C13.879 47.6205 22.186 53.0034 31.0134 53.0034V55.2822C21.271 55.2822 12.1027 49.343 8.44258 39.6896C3.72389 27.2192 10.0035 13.2953 22.4731 8.59425Z" fill="#875796"/>
<path d="M22.6091 42.6599C21.5824 42.6599 20.5931 42.5665 19.6411 42.3799C18.7078 42.1745 17.8678 41.8479 17.1211 41.3999C16.3931 40.9332 15.8144 40.3079 15.3851 39.5239C14.9558 38.7399 14.7411 37.7599 14.7411 36.5839C14.7411 35.3892 14.9931 34.4279 15.4971 33.6999C16.0011 32.9719 16.6638 32.4119 17.4851 32.0199C16.9624 31.5719 16.5144 31.0025 16.1411 30.3119C15.7678 29.6212 15.5811 28.7812 15.5811 27.7919C15.5811 26.1865 16.1504 24.8705 17.2891 23.8439C18.4278 22.7985 20.1824 22.2759 22.5531 22.2759C24.9424 22.2759 26.6878 22.7519 27.7891 23.7039C28.8904 24.6559 29.4411 26.0185 29.4411 27.7919C29.4411 28.6879 29.2544 29.4999 28.8811 30.2279C28.5078 30.9559 28.0504 31.5345 27.5091 31.9639C28.2931 32.3559 28.9464 32.9345 29.4691 33.6999C30.0104 34.4652 30.2811 35.4265 30.2811 36.5839C30.2811 38.1519 29.9264 39.3745 29.2171 40.2519C28.5078 41.1292 27.5744 41.7545 26.4171 42.1279C25.2598 42.4825 23.9904 42.6599 22.6091 42.6599ZM22.6091 30.7319C23.5238 30.7319 24.2051 30.5452 24.6531 30.1719C25.1011 29.7985 25.3251 29.2945 25.3251 28.6599C25.3251 27.8945 25.1104 27.2972 24.6811 26.8679C24.2704 26.4199 23.5798 26.1959 22.6091 26.1959C21.7691 26.1959 21.0784 26.3825 20.5371 26.7559C20.0144 27.1292 19.7531 27.6705 19.7531 28.3799C19.7531 28.9585 19.8931 29.4252 20.1731 29.7799C20.4718 30.1159 20.8358 30.3585 21.2651 30.5079C21.7131 30.6572 22.1611 30.7319 22.6091 30.7319ZM22.6091 38.7399C23.6171 38.7399 24.4571 38.5719 25.1291 38.2359C25.8198 37.8999 26.1651 37.3865 26.1651 36.6959C26.1651 35.7252 25.6798 34.9505 24.7091 34.3719C23.7571 33.7745 22.3198 33.4665 20.3971 33.4479C20.0238 33.7279 19.7064 34.0919 19.4451 34.5399C19.2024 34.9692 19.0811 35.4265 19.0811 35.9119C19.0811 36.9385 19.4171 37.6665 20.0891 38.0959C20.7611 38.5252 21.6011 38.7399 22.6091 38.7399ZM32.3745 42.3799V39.3279C32.3745 39.3279 32.5892 39.1879 33.0185 38.9079C33.4479 38.6092 33.9985 38.2265 34.6705 37.7599C35.3425 37.2932 36.0332 36.7799 36.7425 36.2199C37.4705 35.6599 38.1145 35.1092 38.6745 34.5679C39.8879 33.4292 40.7932 32.4119 41.3905 31.5159C41.9879 30.6199 42.2865 29.6305 42.2865 28.5479C42.2865 27.8199 42.0532 27.2505 41.5865 26.8399C41.1385 26.4105 40.3919 26.1959 39.3465 26.1959C38.5625 26.1959 37.7692 26.2799 36.9665 26.4479C36.1639 26.6159 35.4172 26.8305 34.7265 27.0919C34.0359 27.3345 33.4479 27.5865 32.9625 27.8479V23.9279C33.1492 23.8345 33.5225 23.6665 34.0825 23.4239C34.6612 23.1625 35.4172 22.9199 36.3505 22.6959C37.2839 22.4719 38.3852 22.3599 39.6545 22.3599C42.0252 22.3599 43.7799 22.8732 44.9185 23.8999C46.0759 24.9079 46.6545 26.3452 46.6545 28.2119C46.6545 29.3692 46.4119 30.4425 45.9265 31.4319C45.4599 32.4212 44.8345 33.3265 44.0505 34.1479C43.2852 34.9692 42.4545 35.7159 41.5585 36.3879C40.6812 37.0599 39.8319 37.6572 39.0105 38.1799L39.1505 38.7399L46.6545 38.1799V42.3799H32.3745Z" fill="#875796"/>
<path opacity="0.5" fill-rule="evenodd" clip-rule="evenodd" d="M10.8418 0.550735C19.5159 -3.71 28.3892 -3.40347 30.6727 1.24042C32.9562 5.88432 27.7609 13.0877 19.0868 17.3485C10.4127 21.6092 1.53933 21.3027 -0.744139 16.6588C-3.02761 12.0149 2.16766 4.81147 10.8418 0.550735Z" fill="#FDFFF8"/>
</g>
</g>
<defs>
<filter id="filter0_i_3570_20194" x="0.200195" y="0.333984" width="60" height="60" filterUnits="userSpaceOnUse" color-interpolation-filters="sRGB">
<feFlood flood-opacity="0" result="BackgroundImageFix"/>
<feBlend mode="normal" in="SourceGraphic" in2="BackgroundImageFix" result="shape"/>
<feColorMatrix in="SourceAlpha" type="matrix" values="0 0 0 0 0 0 0 0 0 0 0 0 0 0 0 0 0 0 127 0" result="hardAlpha"/>
<feOffset/>
<feGaussianBlur stdDeviation="5"/>
<feComposite in2="hardAlpha" operator="arithmetic" k2="-1" k3="1"/>
<feColorMatrix type="matrix" values="0 0 0 0 0 0 0 0 0 0 0 0 0 0 0 0 0 0 0.6 0"/>
<feBlend mode="normal" in2="shape" result="effect1_innerShadow_3570_20194"/>
</filter>
<clipPath id="clip0_3570_20194">
<rect x="0.200195" y="0.333984" width="60" height="60" rx="30" fill="white"/>
</clipPath>
</defs>
</svg>
