<svg width="61" height="61" viewBox="0 0 61 61" fill="none" xmlns="http://www.w3.org/2000/svg">
<g filter="url(#filter0_i_3570_19564)">
<g clip-path="url(#clip0_3570_19564)">
<rect x="0.600586" y="0.333984" width="60" height="60" rx="30" fill="#82857D"/>
<path fill-rule="evenodd" clip-rule="evenodd" d="M17.8642 -3.32725C36.4519 -10.3609 57.2285 -0.994651 64.2617 17.5944C71.2949 36.1834 61.9293 56.9615 43.3416 63.9952C24.7539 71.0289 3.97725 61.6626 -3.05594 43.0736C-10.0891 24.4845 -0.723497 3.70644 17.8642 -3.32725Z" fill="#904D16"/>
<path fill-rule="evenodd" clip-rule="evenodd" d="M17.865 -3.32781C36.1118 -10.2359 56.4757 -1.31818 63.8498 16.589C69.1247 34.4783 59.777 53.6953 42.0505 60.3881C23.8037 67.2962 3.43976 58.3785 -3.93433 40.4713C-9.20922 22.582 0.138481 3.36497 17.865 -3.32781Z" fill="#DC8944"/>
<path fill-rule="evenodd" clip-rule="evenodd" d="M22.1382 6.62511C35.6843 1.49338 50.8272 8.3297 55.9406 21.8767C61.0719 35.4238 54.2361 50.5677 40.69 55.6815C27.144 60.8132 12.0011 53.9769 6.88768 40.4299C1.75632 26.8829 8.59215 11.7389 22.1382 6.62511Z" fill="#FDFFF8"/>
<path fill-rule="evenodd" clip-rule="evenodd" d="M31.4138 7.0332C41.1562 7.0332 50.3244 12.9724 53.9846 22.6257C58.7033 35.0962 52.4236 49.02 39.9541 53.7211C37.1372 54.7798 34.2486 55.2822 31.4138 55.2822V53.0034C33.9794 53.0034 36.5989 52.5548 39.1467 51.5859C50.4321 47.3155 56.1196 34.7015 51.8495 23.4332C48.5482 14.6949 40.2411 9.31198 31.4138 9.31198V7.0332ZM22.8734 8.59425C25.6903 7.53561 28.579 7.0332 31.4138 7.0332V9.31198C28.8481 9.31198 26.2286 9.76056 23.6809 10.7295C12.3955 14.9999 6.7079 27.6139 10.978 38.8822C14.2793 47.6205 22.5864 53.0034 31.4138 53.0034V55.2822C21.6714 55.2822 12.5031 49.343 8.84297 39.6896C4.12428 27.2192 10.4039 13.2953 22.8734 8.59425Z" fill="#DC8944"/>
<path d="M21.9364 42.6599C21.3391 42.6599 20.7697 42.6412 20.2284 42.6039C19.7057 42.5665 19.2111 42.5105 18.7444 42.4359L14.9364 41.1479L16.0564 37.2559L21.3764 38.7679C22.7017 38.7679 23.6351 38.5159 24.1764 38.0119C24.7364 37.4892 25.0164 36.8172 25.0164 35.9959C25.0164 35.3985 24.8391 34.9225 24.4844 34.5679C24.1484 34.2132 23.5791 34.0359 22.7764 34.0359H19.2204V30.4239H22.0764C23.8497 30.4239 24.7364 29.6399 24.7364 28.0719C24.7364 26.8212 23.8684 26.1959 22.1324 26.1959C21.0684 26.1959 20.1257 26.2985 19.3044 26.5039C18.4831 26.6905 17.7737 26.9145 17.1764 27.1759C16.5977 27.4185 16.1311 27.6239 15.7764 27.7919V23.8719C16.3177 23.5172 17.1017 23.1719 18.1284 22.8359C19.1551 22.4812 20.4991 22.3039 22.1604 22.3039C24.2697 22.3039 25.8657 22.7705 26.9484 23.7039C28.0497 24.6185 28.6004 25.9159 28.6004 27.5959C28.6004 28.5665 28.4417 29.3692 28.1244 30.0039C27.8257 30.6199 27.4431 31.1145 26.9764 31.4879C27.7791 31.9919 28.3951 32.5985 28.8244 33.3079C29.2537 33.9985 29.4684 34.8852 29.4684 35.9679C29.4684 37.3865 29.1511 38.5999 28.5164 39.6079C27.9004 40.5972 27.0231 41.3532 25.8844 41.8759C24.7644 42.3985 23.4484 42.6599 21.9364 42.6599ZM39.4821 42.6599C37.8955 42.6599 36.5141 42.3332 35.3381 41.6799C34.1808 41.0265 33.2848 39.9625 32.6501 38.4879C32.0155 36.9945 31.6981 34.9879 31.6981 32.4679C31.6981 30.0599 32.0155 28.1092 32.6501 26.6159C33.2848 25.1225 34.1808 24.0305 35.3381 23.3399C36.5141 22.6305 37.8955 22.2759 39.4821 22.2759C41.0875 22.2759 42.4688 22.6305 43.6261 23.3399C44.7835 24.0492 45.6795 25.1505 46.3141 26.6439C46.9488 28.1372 47.2661 30.0785 47.2661 32.4679C47.2661 34.9505 46.9488 36.9385 46.3141 38.4319C45.6795 39.9252 44.7835 41.0079 43.6261 41.6799C42.4688 42.3332 41.0875 42.6599 39.4821 42.6599ZM39.4821 38.6279C40.7701 38.6279 41.6941 38.1705 42.2541 37.2559C42.8141 36.3225 43.0941 34.7265 43.0941 32.4679C43.0941 30.3399 42.8141 28.7812 42.2541 27.7919C41.6941 26.8025 40.7701 26.3079 39.4821 26.3079C38.2315 26.3079 37.3168 26.8119 36.7381 27.8199C36.1595 28.8092 35.8701 30.3585 35.8701 32.4679C35.8701 34.7079 36.1595 36.2945 36.7381 37.2279C37.3168 38.1612 38.2315 38.6279 39.4821 38.6279Z" fill="#DC8944"/>
<path opacity="0.5" fill-rule="evenodd" clip-rule="evenodd" d="M11.2422 0.550735C19.9163 -3.71 28.7896 -3.40347 31.0731 1.24042C33.3566 5.88432 28.1613 13.0877 19.4872 17.3485C10.8131 21.6092 1.93972 21.3027 -0.343749 16.6588C-2.62722 12.0149 2.56805 4.81147 11.2422 0.550735Z" fill="#FDFFF8"/>
</g>
</g>
<defs>
<filter id="filter0_i_3570_19564" x="0.600586" y="0.333984" width="60" height="60" filterUnits="userSpaceOnUse" color-interpolation-filters="sRGB">
<feFlood flood-opacity="0" result="BackgroundImageFix"/>
<feBlend mode="normal" in="SourceGraphic" in2="BackgroundImageFix" result="shape"/>
<feColorMatrix in="SourceAlpha" type="matrix" values="0 0 0 0 0 0 0 0 0 0 0 0 0 0 0 0 0 0 127 0" result="hardAlpha"/>
<feOffset/>
<feGaussianBlur stdDeviation="5"/>
<feComposite in2="hardAlpha" operator="arithmetic" k2="-1" k3="1"/>
<feColorMatrix type="matrix" values="0 0 0 0 0 0 0 0 0 0 0 0 0 0 0 0 0 0 0.6 0"/>
<feBlend mode="normal" in2="shape" result="effect1_innerShadow_3570_19564"/>
</filter>
<clipPath id="clip0_3570_19564">
<rect x="0.600586" y="0.333984" width="60" height="60" rx="30" fill="white"/>
</clipPath>
</defs>
</svg>
