<svg width="61" height="61" viewBox="0 0 61 61" fill="none" xmlns="http://www.w3.org/2000/svg">
<g filter="url(#filter0_i_3570_19831)">
<g clip-path="url(#clip0_3570_19831)">
<rect x="0.200195" y="0.333984" width="60" height="60" rx="30" fill="#82857D"/>
<path fill-rule="evenodd" clip-rule="evenodd" d="M17.4638 -3.32725C36.0515 -10.3609 56.8281 -0.994651 63.8613 17.5944C70.8945 36.1834 61.5289 56.9615 42.9412 63.9952C24.3535 71.0289 3.57686 61.6626 -3.45633 43.0736C-10.4895 24.4845 -1.12389 3.70644 17.4638 -3.32725Z" fill="#133D63"/>
<path fill-rule="evenodd" clip-rule="evenodd" d="M17.4646 -3.32781C35.7114 -10.2359 56.0753 -1.31818 63.4494 16.589C68.7243 34.4783 59.3766 53.6953 41.6501 60.3881C23.4033 67.2962 3.03937 58.3785 -4.33472 40.4713C-9.60961 22.582 -0.261909 3.36497 17.4646 -3.32781Z" fill="#5884AD"/>
<path fill-rule="evenodd" clip-rule="evenodd" d="M21.7378 6.61925C35.2839 1.48752 50.4268 8.32384 55.5402 21.8709C60.6715 35.4179 53.8357 50.5619 40.2896 55.6757C26.7436 60.8074 11.6007 53.9711 6.48729 40.424C1.35593 26.877 8.19176 11.733 21.7378 6.61925Z" fill="#FDFFF8"/>
<path fill-rule="evenodd" clip-rule="evenodd" d="M31.0134 7.02734C40.7558 7.02734 49.924 12.9665 53.5842 22.6199C58.3029 35.0903 52.0232 49.0142 39.5537 53.7153C36.7368 54.7739 33.8482 55.2763 31.0134 55.2763V52.9975C33.5791 52.9975 36.1986 52.549 38.7463 51.58C50.0317 47.3096 55.7192 34.6956 51.4491 23.4273C48.1478 14.689 39.8407 9.30612 31.0134 9.30612V7.02734ZM22.4731 8.58839C25.2899 7.52975 28.1786 7.02734 31.0134 7.02734V9.30612C28.4477 9.30612 25.8282 9.7547 23.2805 10.7236C11.9951 14.9941 6.30751 27.6081 10.5777 38.8763C13.879 47.6146 22.186 52.9975 31.0134 52.9975V55.2763C21.271 55.2763 12.1027 49.3372 8.44258 39.6838C3.72389 27.2133 10.0035 13.2895 22.4731 8.58839Z" fill="#5884AD"/>
<path d="M22.0673 42.6599C21.3579 42.6599 20.7419 42.6412 20.2193 42.6039C19.7153 42.5665 19.2019 42.5105 18.6793 42.4359L15.1513 41.1479L16.2713 37.2559L21.2272 38.7959C22.5153 38.7959 23.4953 38.5625 24.1673 38.0959C24.8579 37.6105 25.2033 36.9199 25.2033 36.0239C25.2033 35.1839 24.9699 34.5119 24.5033 34.0079C24.0366 33.5039 23.1406 33.2519 21.8153 33.2519H15.9913V22.5559H28.4513V26.4479L21.4513 26.1679H20.2753V29.9759H22.1513C24.7459 29.9759 26.6313 30.4705 27.8073 31.4599C28.9833 32.4492 29.5713 33.9145 29.5713 35.8559C29.5713 37.1812 29.2726 38.3572 28.6753 39.3839C28.0966 40.4105 27.2473 41.2132 26.1273 41.7919C25.0073 42.3705 23.6539 42.6599 22.0673 42.6599ZM31.9644 42.3799V39.3279C31.9644 39.3279 32.179 39.1879 32.6084 38.9079C33.0377 38.6092 33.5884 38.2265 34.2604 37.7599C34.9324 37.2932 35.623 36.7799 36.3324 36.2199C37.0604 35.6599 37.7044 35.1092 38.2644 34.5679C39.4777 33.4292 40.383 32.4119 40.9804 31.5159C41.5777 30.6199 41.8764 29.6305 41.8764 28.5479C41.8764 27.8199 41.643 27.2505 41.1764 26.8399C40.7284 26.4105 39.9817 26.1959 38.9364 26.1959C38.1524 26.1959 37.359 26.2799 36.5564 26.4479C35.7537 26.6159 35.007 26.8305 34.3164 27.0919C33.6257 27.3345 33.0377 27.5865 32.5524 27.8479V23.9279C32.739 23.8345 33.1124 23.6665 33.6724 23.4239C34.251 23.1625 35.007 22.9199 35.9404 22.6959C36.8737 22.4719 37.975 22.3599 39.2444 22.3599C41.615 22.3599 43.3697 22.8732 44.5084 23.8999C45.6657 24.9079 46.2444 26.3452 46.2444 28.2119C46.2444 29.3692 46.0017 30.4425 45.5164 31.4319C45.0497 32.4212 44.4244 33.3265 43.6404 34.1479C42.875 34.9692 42.0444 35.7159 41.1484 36.3879C40.271 37.0599 39.4217 37.6572 38.6004 38.1799L38.7404 38.7399L46.2444 38.1799V42.3799H31.9644Z" fill="#5884AD"/>
<path opacity="0.5" fill-rule="evenodd" clip-rule="evenodd" d="M13.6842 1.61063C23.8393 -3.37755 34.2276 -3.01868 36.9009 2.41807C39.5742 7.85483 33.492 16.2881 23.3369 21.2763C13.1818 26.2644 2.79352 25.9056 0.12019 20.4688C-2.55314 15.0321 3.52913 6.59881 13.6842 1.61063Z" fill="#FDFFF8"/>
</g>
</g>
<defs>
<filter id="filter0_i_3570_19831" x="0.200195" y="0.333984" width="60" height="60" filterUnits="userSpaceOnUse" color-interpolation-filters="sRGB">
<feFlood flood-opacity="0" result="BackgroundImageFix"/>
<feBlend mode="normal" in="SourceGraphic" in2="BackgroundImageFix" result="shape"/>
<feColorMatrix in="SourceAlpha" type="matrix" values="0 0 0 0 0 0 0 0 0 0 0 0 0 0 0 0 0 0 127 0" result="hardAlpha"/>
<feOffset/>
<feGaussianBlur stdDeviation="5"/>
<feComposite in2="hardAlpha" operator="arithmetic" k2="-1" k3="1"/>
<feColorMatrix type="matrix" values="0 0 0 0 0 0 0 0 0 0 0 0 0 0 0 0 0 0 0.6 0"/>
<feBlend mode="normal" in2="shape" result="effect1_innerShadow_3570_19831"/>
</filter>
<clipPath id="clip0_3570_19831">
<rect x="0.200195" y="0.333984" width="60" height="60" rx="30" fill="white"/>
</clipPath>
</defs>
</svg>
