<svg width="61" height="61" viewBox="0 0 61 61" fill="none" xmlns="http://www.w3.org/2000/svg">
<g filter="url(#filter0_i_3570_19468)">
<g clip-path="url(#clip0_3570_19468)">
<rect x="0.200195" y="0.333984" width="60" height="60" rx="30" fill="#82857D"/>
<path fill-rule="evenodd" clip-rule="evenodd" d="M17.4638 -3.32725C36.0515 -10.3609 56.8281 -0.994651 63.8613 17.5944C70.8945 36.1834 61.5289 56.9615 42.9412 63.9952C24.3535 71.0289 3.57686 61.6626 -3.45633 43.0736C-10.4895 24.4845 -1.12389 3.70644 17.4638 -3.32725Z" fill="#5B3267"/>
<path fill-rule="evenodd" clip-rule="evenodd" d="M17.4646 -3.32781C35.7114 -10.2359 56.0753 -1.31818 63.4494 16.589C68.7243 34.4783 59.3766 53.6953 41.6501 60.3881C23.4033 67.2962 3.03937 58.3785 -4.33472 40.4713C-9.60961 22.582 -0.261909 3.36497 17.4646 -3.32781Z" fill="#875796"/>
<path fill-rule="evenodd" clip-rule="evenodd" d="M21.7378 6.62511C35.2839 1.49338 50.4268 8.3297 55.5402 21.8767C60.6715 35.4238 53.8357 50.5677 40.2896 55.6815C26.7436 60.8132 11.6007 53.9769 6.48729 40.4299C1.35593 26.8829 8.19176 11.7389 21.7378 6.62511Z" fill="#FDFFF8"/>
<path fill-rule="evenodd" clip-rule="evenodd" d="M31.0134 7.0332C40.7558 7.0332 49.924 12.9724 53.5842 22.6257C58.3029 35.0962 52.0232 49.02 39.5537 53.7211C36.7368 54.7798 33.8482 55.2822 31.0134 55.2822V53.0034C33.5791 53.0034 36.1986 52.5548 38.7463 51.5859C50.0317 47.3155 55.7192 34.7015 51.4491 23.4332C48.1478 14.6949 39.8407 9.31198 31.0134 9.31198V7.0332ZM22.4731 8.59425C25.2899 7.53561 28.1786 7.0332 31.0134 7.0332V9.31198C28.4477 9.31198 25.8282 9.76056 23.2805 10.7295C11.9951 14.9999 6.30751 27.6139 10.5777 38.8822C13.879 47.6205 22.186 53.0034 31.0134 53.0034V55.2822C21.271 55.2822 12.1027 49.343 8.44258 39.6896C3.72389 27.2192 10.0035 13.2953 22.4731 8.59425Z" fill="#875796"/>
<path d="M15.2984 42.3799V39.3279C15.2984 39.3279 15.513 39.1879 15.9424 38.9079C16.3717 38.6092 16.9224 38.2265 17.5944 37.7599C18.2664 37.2932 18.957 36.7799 19.6664 36.2199C20.3944 35.6599 21.0384 35.1092 21.5984 34.5679C22.8117 33.4292 23.717 32.4119 24.3144 31.5159C24.9117 30.6199 25.2104 29.6305 25.2104 28.5479C25.2104 27.8199 24.977 27.2505 24.5104 26.8399C24.0624 26.4105 23.3157 26.1959 22.2704 26.1959C21.4864 26.1959 20.693 26.2799 19.8904 26.4479C19.0877 26.6159 18.341 26.8305 17.6504 27.0919C16.9597 27.3345 16.3717 27.5865 15.8864 27.8479V23.9279C16.073 23.8345 16.4464 23.6665 17.0064 23.4239C17.585 23.1625 18.341 22.9199 19.2744 22.6959C20.2077 22.4719 21.309 22.3599 22.5784 22.3599C24.949 22.3599 26.7037 22.8732 27.8424 23.8999C28.9997 24.9079 29.5784 26.3452 29.5784 28.2119C29.5784 29.3692 29.3357 30.4425 28.8504 31.4319C28.3837 32.4212 27.7584 33.3265 26.9744 34.1479C26.209 34.9692 25.3784 35.7159 24.4824 36.3879C23.605 37.0599 22.7557 37.6572 21.9344 38.1799L22.0744 38.7399L29.5784 38.1799V42.3799H15.2984ZM31.6773 42.3799V39.3279C31.6773 39.3279 31.8919 39.1879 32.3213 38.9079C32.7506 38.6092 33.3013 38.2265 33.9733 37.7599C34.6453 37.2932 35.3359 36.7799 36.0453 36.2199C36.7733 35.6599 37.4173 35.1092 37.9773 34.5679C39.1906 33.4292 40.0959 32.4119 40.6933 31.5159C41.2906 30.6199 41.5893 29.6305 41.5893 28.5479C41.5893 27.8199 41.3559 27.2505 40.8893 26.8399C40.4413 26.4105 39.6946 26.1959 38.6493 26.1959C37.8653 26.1959 37.0719 26.2799 36.2693 26.4479C35.4666 26.6159 34.7199 26.8305 34.0293 27.0919C33.3386 27.3345 32.7506 27.5865 32.2653 27.8479V23.9279C32.4519 23.8345 32.8253 23.6665 33.3853 23.4239C33.9639 23.1625 34.7199 22.9199 35.6533 22.6959C36.5866 22.4719 37.6879 22.3599 38.9573 22.3599C41.3279 22.3599 43.0826 22.8732 44.2213 23.8999C45.3786 24.9079 45.9573 26.3452 45.9573 28.2119C45.9573 29.3692 45.7146 30.4425 45.2293 31.4319C44.7626 32.4212 44.1373 33.3265 43.3533 34.1479C42.5879 34.9692 41.7573 35.7159 40.8613 36.3879C39.9839 37.0599 39.1346 37.6572 38.3133 38.1799L38.4533 38.7399L45.9573 38.1799V42.3799H31.6773Z" fill="#875796"/>
<path opacity="0.5" fill-rule="evenodd" clip-rule="evenodd" d="M10.8418 0.550735C19.5159 -3.71 28.3892 -3.40347 30.6727 1.24042C32.9562 5.88432 27.7609 13.0877 19.0868 17.3485C10.4127 21.6092 1.53933 21.3027 -0.744139 16.6588C-3.02761 12.0149 2.16766 4.81147 10.8418 0.550735Z" fill="#FDFFF8"/>
</g>
</g>
<defs>
<filter id="filter0_i_3570_19468" x="0.200195" y="0.333984" width="60" height="60" filterUnits="userSpaceOnUse" color-interpolation-filters="sRGB">
<feFlood flood-opacity="0" result="BackgroundImageFix"/>
<feBlend mode="normal" in="SourceGraphic" in2="BackgroundImageFix" result="shape"/>
<feColorMatrix in="SourceAlpha" type="matrix" values="0 0 0 0 0 0 0 0 0 0 0 0 0 0 0 0 0 0 127 0" result="hardAlpha"/>
<feOffset/>
<feGaussianBlur stdDeviation="5"/>
<feComposite in2="hardAlpha" operator="arithmetic" k2="-1" k3="1"/>
<feColorMatrix type="matrix" values="0 0 0 0 0 0 0 0 0 0 0 0 0 0 0 0 0 0 0.6 0"/>
<feBlend mode="normal" in2="shape" result="effect1_innerShadow_3570_19468"/>
</filter>
<clipPath id="clip0_3570_19468">
<rect x="0.200195" y="0.333984" width="60" height="60" rx="30" fill="white"/>
</clipPath>
</defs>
</svg>
