<svg width="61" height="60" viewBox="0 0 61 60" fill="none" xmlns="http://www.w3.org/2000/svg">
<g filter="url(#filter0_i_3570_19407)">
<g clip-path="url(#clip0_3570_19407)">
<rect x="0.200195" width="60" height="60" rx="30" fill="#82857D"/>
<path fill-rule="evenodd" clip-rule="evenodd" d="M17.4638 -3.66124C36.0515 -10.6949 56.8281 -1.32864 63.8613 17.2604C70.8945 35.8494 61.5289 56.6275 42.9412 63.6612C24.3535 70.6949 3.57686 61.3286 -3.45633 42.7396C-10.4895 24.1506 -1.12389 3.37245 17.4638 -3.66124Z" fill="#904D16"/>
<path fill-rule="evenodd" clip-rule="evenodd" d="M17.4646 -3.66179C35.7114 -10.5699 56.0753 -1.65217 63.4494 16.255C68.7243 34.1443 59.3766 53.3614 41.6501 60.0541C23.4033 66.9622 3.03937 58.0445 -4.33472 40.1373C-9.60961 22.248 -0.261909 3.03098 17.4646 -3.66179Z" fill="#DC8944"/>
<path fill-rule="evenodd" clip-rule="evenodd" d="M21.7378 6.29112C35.2839 1.1594 50.4268 7.99572 55.5402 21.5427C60.6715 35.0898 53.8357 50.2338 40.2896 55.3475C26.7436 60.4793 11.6007 53.6429 6.48729 40.0959C1.35593 26.5489 8.19176 11.4049 21.7378 6.29112Z" fill="#FDFFF8"/>
<path fill-rule="evenodd" clip-rule="evenodd" d="M31.0134 6.69922C40.7558 6.69922 49.924 12.6384 53.5842 22.2918C58.3029 34.7622 52.0232 48.6861 39.5537 53.3871C36.7368 54.4458 33.8482 54.9482 31.0134 54.9482V52.6694C33.5791 52.6694 36.1986 52.2209 38.7463 51.2519C50.0317 46.9815 55.7192 34.3675 51.4491 23.0992C48.1478 14.3609 39.8407 8.97799 31.0134 8.97799V6.69922ZM22.4731 8.26027C25.2899 7.20163 28.1786 6.69922 31.0134 6.69922V8.97799C28.4477 8.97799 25.8282 9.42657 23.2805 10.3955C11.9951 14.666 6.30751 27.2799 10.5777 38.5482C13.879 47.2865 22.186 52.6694 31.0134 52.6694V54.9482C21.271 54.9482 12.1027 49.009 8.44258 39.3557C3.72389 26.8852 10.0035 12.9614 22.4731 8.26027Z" fill="#DC8944"/>
<path d="M22.1824 42.0459V26.9539H18.8224V23.9019L26.2144 22.2219L26.4944 23.9019L26.2144 26.7019V42.0459H22.1824ZM31.8216 42.0459L37.0576 28.7739L38.5416 25.8339H37.7016L29.0216 26.3939V22.2219H42.5736V25.0499L37.9536 37.5659L36.5536 42.0459H31.8216Z" fill="#DC8944"/>
<path opacity="0.5" fill-rule="evenodd" clip-rule="evenodd" d="M10.8418 0.216751C19.5159 -4.04399 28.3892 -3.73746 30.6727 0.90644C32.9562 5.55034 27.7609 12.7537 19.0868 17.0145C10.4127 21.2752 1.53933 20.9687 -0.744139 16.3248C-3.02761 11.6809 2.16766 4.47749 10.8418 0.216751Z" fill="#FDFFF8"/>
</g>
</g>
<defs>
<filter id="filter0_i_3570_19407" x="0.200195" y="0" width="60" height="60" filterUnits="userSpaceOnUse" color-interpolation-filters="sRGB">
<feFlood flood-opacity="0" result="BackgroundImageFix"/>
<feBlend mode="normal" in="SourceGraphic" in2="BackgroundImageFix" result="shape"/>
<feColorMatrix in="SourceAlpha" type="matrix" values="0 0 0 0 0 0 0 0 0 0 0 0 0 0 0 0 0 0 127 0" result="hardAlpha"/>
<feOffset/>
<feGaussianBlur stdDeviation="5"/>
<feComposite in2="hardAlpha" operator="arithmetic" k2="-1" k3="1"/>
<feColorMatrix type="matrix" values="0 0 0 0 0 0 0 0 0 0 0 0 0 0 0 0 0 0 0.6 0"/>
<feBlend mode="normal" in2="shape" result="effect1_innerShadow_3570_19407"/>
</filter>
<clipPath id="clip0_3570_19407">
<rect x="0.200195" width="60" height="60" rx="30" fill="white"/>
</clipPath>
</defs>
</svg>
