<svg width="61" height="61" viewBox="0 0 61 61" fill="none" xmlns="http://www.w3.org/2000/svg">
<g filter="url(#filter0_i_3570_20254)">
<g clip-path="url(#clip0_3570_20254)">
<rect x="0.200195" y="0.333984" width="60" height="60" rx="30" fill="#82857D"/>
<path fill-rule="evenodd" clip-rule="evenodd" d="M17.4638 -3.32725C36.0515 -10.3609 56.8281 -0.994651 63.8613 17.5944C70.8945 36.1834 61.5289 56.9615 42.9412 63.9952C24.3535 71.0289 3.57686 61.6626 -3.45633 43.0736C-10.4895 24.4845 -1.12389 3.70644 17.4638 -3.32725Z" fill="#782326"/>
<path fill-rule="evenodd" clip-rule="evenodd" d="M17.4646 -3.32781C35.7114 -10.2359 56.0753 -1.31818 63.4494 16.589C68.7243 34.4783 59.3766 53.6953 41.6501 60.3881C23.4033 67.2962 3.03937 58.3785 -4.33472 40.4713C-9.60961 22.582 -0.261909 3.36497 17.4646 -3.32781Z" fill="#B65155"/>
<path fill-rule="evenodd" clip-rule="evenodd" d="M21.7378 6.61925C35.2839 1.48752 50.4268 8.32384 55.5402 21.8709C60.6715 35.4179 53.8357 50.5619 40.2896 55.6757C26.7436 60.8074 11.6007 53.9711 6.48729 40.424C1.35593 26.877 8.19176 11.733 21.7378 6.61925Z" fill="#FDFFF8"/>
<path fill-rule="evenodd" clip-rule="evenodd" d="M31.0134 7.02734C40.7558 7.02734 49.924 12.9665 53.5842 22.6199C58.3029 35.0903 52.0232 49.0142 39.5537 53.7153C36.7368 54.7739 33.8482 55.2763 31.0134 55.2763V52.9975C33.5791 52.9975 36.1986 52.549 38.7463 51.58C50.0317 47.3096 55.7192 34.6956 51.4491 23.4273C48.1478 14.689 39.8407 9.30612 31.0134 9.30612V7.02734ZM22.4731 8.58839C25.2899 7.52975 28.1786 7.02734 31.0134 7.02734V9.30612C28.4477 9.30612 25.8282 9.7547 23.2805 10.7236C11.9951 14.9941 6.30751 27.6081 10.5777 38.8763C13.879 47.6146 22.186 52.9975 31.0134 52.9975V55.2763C21.271 55.2763 12.1027 49.3372 8.44258 39.6838C3.72389 27.2133 10.0035 13.2895 22.4731 8.58839Z" fill="#B65155"/>
<path d="M23.1833 42.6599C22.1566 42.6599 21.1673 42.5665 20.2153 42.3799C19.282 42.1745 18.442 41.8479 17.6953 41.3999C16.9673 40.9332 16.3886 40.3079 15.9593 39.5239C15.53 38.7399 15.3153 37.7599 15.3153 36.5839C15.3153 35.3892 15.5673 34.4279 16.0713 33.6999C16.5753 32.9719 17.238 32.4119 18.0593 32.0199C17.5366 31.5719 17.0886 31.0025 16.7153 30.3119C16.342 29.6212 16.1553 28.7812 16.1553 27.7919C16.1553 26.1865 16.7246 24.8705 17.8633 23.8439C19.002 22.7985 20.7566 22.2759 23.1273 22.2759C25.5166 22.2759 27.262 22.7519 28.3633 23.7039C29.4646 24.6559 30.0153 26.0185 30.0153 27.7919C30.0153 28.6879 29.8286 29.4999 29.4553 30.2279C29.082 30.9559 28.6246 31.5345 28.0833 31.9639C28.8673 32.3559 29.5206 32.9345 30.0433 33.6999C30.5846 34.4652 30.8553 35.4265 30.8553 36.5839C30.8553 38.1519 30.5006 39.3745 29.7913 40.2519C29.082 41.1292 28.1486 41.7545 26.9913 42.1279C25.834 42.4825 24.5646 42.6599 23.1833 42.6599ZM23.1833 30.7319C24.098 30.7319 24.7793 30.5452 25.2273 30.1719C25.6753 29.7985 25.8993 29.2945 25.8993 28.6599C25.8993 27.8945 25.6846 27.2972 25.2553 26.8679C24.8446 26.4199 24.154 26.1959 23.1833 26.1959C22.3433 26.1959 21.6526 26.3825 21.1113 26.7559C20.5886 27.1292 20.3273 27.6705 20.3273 28.3799C20.3273 28.9585 20.4673 29.4252 20.7473 29.7799C21.046 30.1159 21.41 30.3585 21.8393 30.5079C22.2873 30.6572 22.7353 30.7319 23.1833 30.7319ZM23.1833 38.7399C24.1913 38.7399 25.0313 38.5719 25.7033 38.2359C26.394 37.8999 26.7393 37.3865 26.7393 36.6959C26.7393 35.7252 26.254 34.9505 25.2833 34.3719C24.3313 33.7745 22.894 33.4665 20.9713 33.4479C20.598 33.7279 20.2806 34.0919 20.0193 34.5399C19.7766 34.9692 19.6553 35.4265 19.6553 35.9119C19.6553 36.9385 19.9913 37.6665 20.6633 38.0959C21.3353 38.5252 22.1753 38.7399 23.1833 38.7399ZM35.6088 42.3799L40.8448 29.1079L42.3288 26.1679H41.4888L32.8088 26.7279V22.5559H46.3607V25.3839L41.7408 37.8999L40.3408 42.3799H35.6088Z" fill="#B65155"/>
<path opacity="0.5" fill-rule="evenodd" clip-rule="evenodd" d="M13.6842 1.61063C23.8393 -3.37755 34.2276 -3.01868 36.9009 2.41807C39.5742 7.85483 33.4919 16.2881 23.3369 21.2763C13.1818 26.2644 2.79352 25.9056 0.12019 20.4688C-2.55314 15.0321 3.52913 6.59881 13.6842 1.61063Z" fill="#FDFFF8"/>
</g>
</g>
<defs>
<filter id="filter0_i_3570_20254" x="0.200195" y="0.333984" width="60" height="60" filterUnits="userSpaceOnUse" color-interpolation-filters="sRGB">
<feFlood flood-opacity="0" result="BackgroundImageFix"/>
<feBlend mode="normal" in="SourceGraphic" in2="BackgroundImageFix" result="shape"/>
<feColorMatrix in="SourceAlpha" type="matrix" values="0 0 0 0 0 0 0 0 0 0 0 0 0 0 0 0 0 0 127 0" result="hardAlpha"/>
<feOffset/>
<feGaussianBlur stdDeviation="5"/>
<feComposite in2="hardAlpha" operator="arithmetic" k2="-1" k3="1"/>
<feColorMatrix type="matrix" values="0 0 0 0 0 0 0 0 0 0 0 0 0 0 0 0 0 0 0.6 0"/>
<feBlend mode="normal" in2="shape" result="effect1_innerShadow_3570_20254"/>
</filter>
<clipPath id="clip0_3570_20254">
<rect x="0.200195" y="0.333984" width="60" height="60" rx="30" fill="white"/>
</clipPath>
</defs>
</svg>
