<svg width="61" height="61" viewBox="0 0 61 61" fill="none" xmlns="http://www.w3.org/2000/svg">
<g filter="url(#filter0_i_3570_19649)">
<g clip-path="url(#clip0_3570_19649)">
<rect x="0.200195" y="0.666992" width="60" height="60" rx="30" fill="#82857D"/>
<path fill-rule="evenodd" clip-rule="evenodd" d="M17.4638 -2.99425C36.0515 -10.0279 56.8281 -0.661643 63.8613 17.9274C70.8945 36.5164 61.5289 57.2945 42.9412 64.3282C24.3535 71.3619 3.57686 61.9956 -3.45633 43.4066C-10.4895 24.8175 -1.12389 4.03945 17.4638 -2.99425Z" fill="#206446"/>
<path fill-rule="evenodd" clip-rule="evenodd" d="M17.4646 -2.9948C35.7114 -9.90289 56.0753 -0.985174 63.4494 16.922C68.7243 34.8113 59.3766 54.0284 41.6501 60.7211C23.4033 67.6292 3.03937 58.7115 -4.33472 40.8043C-9.60961 22.915 -0.261909 3.69798 17.4646 -2.9948Z" fill="#8BC1A9"/>
<path fill-rule="evenodd" clip-rule="evenodd" d="M21.7378 6.95226C35.2839 1.82053 50.4268 8.65685 55.5402 22.2039C60.6715 35.7509 53.8357 50.8949 40.2896 56.0087C26.7436 61.1404 11.6007 54.3041 6.48729 40.757C1.35593 27.21 8.19176 12.066 21.7378 6.95226Z" fill="#FDFFF8"/>
<path fill-rule="evenodd" clip-rule="evenodd" d="M31.0134 7.36035C40.7558 7.36035 49.924 13.2995 53.5842 22.9529C58.3029 35.4233 52.0232 49.3472 39.5537 54.0483C36.7368 55.1069 33.8482 55.6093 31.0134 55.6093V53.3306C33.5791 53.3306 36.1986 52.882 38.7463 51.9131C50.0317 47.6426 55.7192 35.0286 51.4491 23.7603C48.1478 15.0221 39.8407 9.63913 31.0134 9.63913V7.36035ZM22.4731 8.9214C25.2899 7.86276 28.1786 7.36035 31.0134 7.36035V9.63913C28.4477 9.63913 25.8282 10.0877 23.2805 11.0566C11.9951 15.3271 6.30751 27.9411 10.5777 39.2093C13.879 47.9476 22.186 53.3306 31.0134 53.3306V55.6093C21.271 55.6093 12.1027 49.6702 8.44258 40.0168C3.72389 27.5463 10.0035 13.6225 22.4731 8.9214Z" fill="#8BC1A9"/>
<path opacity="0.5" fill-rule="evenodd" clip-rule="evenodd" d="M13.6842 1.94364C23.8393 -3.04454 34.2276 -2.68568 36.9009 2.75108C39.5742 8.18784 33.492 16.6211 23.3369 21.6093C13.1818 26.5974 2.79352 26.2386 0.12019 20.8018C-2.55314 15.3651 3.52913 6.93182 13.6842 1.94364Z" fill="#FDFFF8"/>
<path d="M22.8212 42.9929C22.2238 42.9929 21.6545 42.9742 21.1132 42.9369C20.5905 42.8996 20.0958 42.8436 19.6292 42.7689L15.8212 41.4809L16.9412 37.5889L22.2612 39.1009C23.5865 39.1009 24.5198 38.8489 25.0612 38.3449C25.6212 37.8222 25.9012 37.1502 25.9012 36.3289C25.9012 35.7316 25.7238 35.2556 25.3692 34.9009C25.0332 34.5462 24.4638 34.3689 23.6612 34.3689H20.1052V30.7569H22.9612C24.7345 30.7569 25.6212 29.9729 25.6212 28.4049C25.6212 27.1542 24.7532 26.5289 23.0172 26.5289C21.9532 26.5289 21.0105 26.6316 20.1892 26.8369C19.3678 27.0236 18.6585 27.2476 18.0612 27.5089C17.4825 27.7516 17.0158 27.9569 16.6612 28.1249V24.2049C17.2025 23.8502 17.9865 23.5049 19.0132 23.1689C20.0398 22.8142 21.3838 22.6369 23.0452 22.6369C25.1545 22.6369 26.7505 23.1036 27.8332 24.0369C28.9345 24.9516 29.4852 26.2489 29.4852 27.9289C29.4852 28.8996 29.3265 29.7022 29.0092 30.3369C28.7105 30.9529 28.3278 31.4476 27.8612 31.8209C28.6638 32.3249 29.2798 32.9316 29.7092 33.6409C30.1385 34.3316 30.3532 35.2182 30.3532 36.3009C30.3532 37.7196 30.0358 38.9329 29.4012 39.9409C28.7852 40.9302 27.9078 41.6862 26.7692 42.2089C25.6492 42.7316 24.3332 42.9929 22.8212 42.9929ZM35.1029 42.7129L40.3389 29.4409L41.8229 26.5009H40.9829L32.3029 27.0609V22.8889H45.8549V25.7169L41.2349 38.2329L39.8349 42.7129H35.1029Z" fill="#8BC1A9"/>
</g>
</g>
<defs>
<filter id="filter0_i_3570_19649" x="0.200195" y="0.666992" width="60" height="60" filterUnits="userSpaceOnUse" color-interpolation-filters="sRGB">
<feFlood flood-opacity="0" result="BackgroundImageFix"/>
<feBlend mode="normal" in="SourceGraphic" in2="BackgroundImageFix" result="shape"/>
<feColorMatrix in="SourceAlpha" type="matrix" values="0 0 0 0 0 0 0 0 0 0 0 0 0 0 0 0 0 0 127 0" result="hardAlpha"/>
<feOffset/>
<feGaussianBlur stdDeviation="5"/>
<feComposite in2="hardAlpha" operator="arithmetic" k2="-1" k3="1"/>
<feColorMatrix type="matrix" values="0 0 0 0 0 0 0 0 0 0 0 0 0 0 0 0 0 0 0.6 0"/>
<feBlend mode="normal" in2="shape" result="effect1_innerShadow_3570_19649"/>
</filter>
<clipPath id="clip0_3570_19649">
<rect x="0.200195" y="0.666992" width="60" height="60" rx="30" fill="white"/>
</clipPath>
</defs>
</svg>
