<svg width="61" height="61" viewBox="0 0 61 61" fill="none" xmlns="http://www.w3.org/2000/svg">
<g filter="url(#filter0_i_3570_19879)">
<g clip-path="url(#clip0_3570_19879)">
<rect x="0.400391" y="0.333984" width="60" height="60" rx="30" fill="#82857D"/>
<path fill-rule="evenodd" clip-rule="evenodd" d="M17.664 -3.32725C36.2517 -10.3609 57.0283 -0.994651 64.0615 17.5944C71.0947 36.1834 61.7291 56.9615 43.1414 63.9952C24.5537 71.0289 3.77705 61.6626 -3.25613 43.0736C-10.2893 24.4845 -0.923692 3.70644 17.664 -3.32725Z" fill="#782326"/>
<path fill-rule="evenodd" clip-rule="evenodd" d="M17.6648 -3.32781C35.9116 -10.2359 56.2755 -1.31818 63.6496 16.589C68.9245 34.4783 59.5768 53.6953 41.8503 60.3881C23.6035 67.2962 3.23956 58.3785 -4.13452 40.4713C-9.40941 22.582 -0.0617142 3.36497 17.6648 -3.32781Z" fill="#B65155"/>
<path fill-rule="evenodd" clip-rule="evenodd" d="M21.938 6.61925C35.4841 1.48752 50.627 8.32384 55.7404 21.8709C60.8717 35.4179 54.0359 50.5619 40.4898 55.6757C26.9438 60.8074 11.8009 53.9711 6.68748 40.424C1.55613 26.877 8.39196 11.733 21.938 6.61925Z" fill="#FDFFF8"/>
<path fill-rule="evenodd" clip-rule="evenodd" d="M31.2136 7.02734C40.956 7.02734 50.1242 12.9665 53.7844 22.6199C58.5031 35.0903 52.2234 49.0142 39.7539 53.7153C36.937 54.7739 34.0484 55.2763 31.2136 55.2763V52.9975C33.7792 52.9975 36.3987 52.549 38.9465 51.58C50.2319 47.3096 55.9194 34.6956 51.6493 23.4273C48.348 14.689 40.0409 9.30612 31.2136 9.30612V7.02734ZM22.6733 8.58839C25.4901 7.52975 28.3788 7.02734 31.2136 7.02734V9.30612C28.6479 9.30612 26.0284 9.7547 23.4807 10.7236C12.1953 14.9941 6.5077 27.6081 10.7779 38.8763C14.0791 47.6146 22.3862 52.9975 31.2136 52.9975V55.2763C21.4712 55.2763 12.3029 49.3372 8.64278 39.6838C3.92408 27.2133 10.2037 13.2895 22.6733 8.58839Z" fill="#B65155"/>
<path d="M21.3924 42.6599C20.6831 42.6599 20.0671 42.6412 19.5444 42.6039C19.0404 42.5665 18.5271 42.5105 18.0044 42.4359L14.4764 41.1479L15.5964 37.2559L20.5524 38.7959C21.8404 38.7959 22.8204 38.5625 23.4924 38.0959C24.1831 37.6105 24.5284 36.9199 24.5284 36.0239C24.5284 35.1839 24.2951 34.5119 23.8284 34.0079C23.3618 33.5039 22.4658 33.2519 21.1404 33.2519H15.3164V22.5559H27.7764V26.4479L20.7764 26.1679H19.6004V29.9759H21.4764C24.0711 29.9759 25.9564 30.4705 27.1324 31.4599C28.3084 32.4492 28.8964 33.9145 28.8964 35.8559C28.8964 37.1812 28.5978 38.3572 28.0004 39.3839C27.4218 40.4105 26.5724 41.2132 25.4524 41.7919C24.3324 42.3705 22.9791 42.6599 21.3924 42.6599ZM39.8856 42.6599C38.3362 42.6599 36.9176 42.3145 35.6296 41.6239C34.3416 40.9145 33.3149 39.8505 32.5496 38.4319C31.8029 37.0132 31.4296 35.2212 31.4296 33.0559C31.4296 31.1705 31.6909 29.5465 32.2136 28.1839C32.7549 26.8212 33.4642 25.7105 34.3416 24.8519C35.2376 23.9745 36.2269 23.3305 37.3096 22.9199C38.4109 22.4905 39.5216 22.2759 40.6416 22.2759C41.5936 22.2759 42.3309 22.3505 42.8536 22.4999C43.3949 22.6492 43.8709 22.8172 44.2816 23.0039L46.8296 25.2999L44.8696 28.4919L40.6416 26.1679C39.8202 26.1679 39.0456 26.3732 38.3176 26.7839C37.5896 27.1945 36.9922 27.7825 36.5256 28.5479C36.0589 29.3132 35.7976 30.2465 35.7416 31.3479L40.1656 30.2279C41.4722 30.2279 42.6576 30.4425 43.7216 30.8719C44.8042 31.2825 45.6722 31.9359 46.3256 32.8319C46.9789 33.7092 47.3056 34.8665 47.3056 36.3039C47.3056 38.2265 46.6522 39.7665 45.3456 40.9239C44.0576 42.0812 42.2376 42.6599 39.8856 42.6599ZM40.1376 38.7119C41.0709 38.7119 41.7989 38.4879 42.3216 38.0399C42.8629 37.5919 43.1336 36.9572 43.1336 36.1359C43.1336 35.3519 42.8349 34.7545 42.2376 34.3439C41.6402 33.9145 40.8656 33.6999 39.9136 33.6999C39.1109 33.6999 38.3549 33.8119 37.6456 34.0359C36.9362 34.2599 36.4229 34.4932 36.1056 34.7359C36.1429 35.3332 36.3016 35.9399 36.5816 36.5559C36.8802 37.1719 37.3189 37.6852 37.8976 38.0959C38.4762 38.5065 39.2229 38.7119 40.1376 38.7119Z" fill="#B65155"/>
<path opacity="0.5" fill-rule="evenodd" clip-rule="evenodd" d="M13.8844 1.61063C24.0394 -3.37755 34.4278 -3.01868 37.1011 2.41807C39.7744 7.85483 33.6921 16.2881 23.5371 21.2763C13.382 26.2644 2.99371 25.9056 0.320385 20.4688C-2.35294 15.0321 3.72932 6.59881 13.8844 1.61063Z" fill="#FDFFF8"/>
</g>
</g>
<defs>
<filter id="filter0_i_3570_19879" x="0.400391" y="0.333984" width="60" height="60" filterUnits="userSpaceOnUse" color-interpolation-filters="sRGB">
<feFlood flood-opacity="0" result="BackgroundImageFix"/>
<feBlend mode="normal" in="SourceGraphic" in2="BackgroundImageFix" result="shape"/>
<feColorMatrix in="SourceAlpha" type="matrix" values="0 0 0 0 0 0 0 0 0 0 0 0 0 0 0 0 0 0 127 0" result="hardAlpha"/>
<feOffset/>
<feGaussianBlur stdDeviation="5"/>
<feComposite in2="hardAlpha" operator="arithmetic" k2="-1" k3="1"/>
<feColorMatrix type="matrix" values="0 0 0 0 0 0 0 0 0 0 0 0 0 0 0 0 0 0 0.6 0"/>
<feBlend mode="normal" in2="shape" result="effect1_innerShadow_3570_19879"/>
</filter>
<clipPath id="clip0_3570_19879">
<rect x="0.400391" y="0.333984" width="60" height="60" rx="30" fill="white"/>
</clipPath>
</defs>
</svg>
