<svg width="61" height="60" viewBox="0 0 61 60" fill="none" xmlns="http://www.w3.org/2000/svg">
<g filter="url(#filter0_i_3570_19443)">
<g clip-path="url(#clip0_3570_19443)">
<rect x="0.600586" width="60" height="60" rx="30" fill="#82857D"/>
<path fill-rule="evenodd" clip-rule="evenodd" d="M17.8642 -3.66124C36.4519 -10.6949 57.2285 -1.32864 64.2617 17.2604C71.2949 35.8494 61.9293 56.6275 43.3416 63.6612C24.7539 70.6949 3.97725 61.3286 -3.05594 42.7396C-10.0891 24.1506 -0.723497 3.37245 17.8642 -3.66124Z" fill="#782326"/>
<path fill-rule="evenodd" clip-rule="evenodd" d="M17.865 -3.66179C36.1118 -10.5699 56.4757 -1.65217 63.8498 16.255C69.1247 34.1443 59.777 53.3614 42.0505 60.0541C23.8037 66.9622 3.43976 58.0445 -3.93433 40.1373C-9.20922 22.248 0.138481 3.03098 17.865 -3.66179Z" fill="#B65155"/>
<path fill-rule="evenodd" clip-rule="evenodd" d="M22.1382 6.28526C35.6843 1.15354 50.8272 7.98986 55.9406 21.5369C61.0719 35.0839 54.2361 50.2279 40.69 55.3417C27.144 60.4734 12.0011 53.6371 6.88768 40.09C1.75632 26.543 8.59215 11.399 22.1382 6.28526Z" fill="#FDFFF8"/>
<path fill-rule="evenodd" clip-rule="evenodd" d="M31.4138 6.69336C41.1562 6.69336 50.3244 12.6325 53.9846 22.2859C58.7033 34.7564 52.4236 48.6802 39.9541 53.3813C37.1372 54.4399 34.2486 54.9423 31.4138 54.9423V52.6636C33.9794 52.6636 36.5989 52.215 39.1467 51.2461C50.4321 46.9756 56.1196 34.3616 51.8495 23.0933C48.5482 14.3551 40.2411 8.97213 31.4138 8.97213V6.69336ZM22.8734 8.25441C25.6903 7.19577 28.579 6.69336 31.4138 6.69336V8.97213C28.8481 8.97213 26.2286 9.42071 23.6809 10.3896C12.3955 14.6601 6.7079 27.2741 10.978 38.5424C14.2793 47.2806 22.5864 52.6636 31.4138 52.6636V54.9423C21.6714 54.9423 12.5031 49.0032 8.84297 39.3498C4.12428 26.8793 10.4039 12.9555 22.8734 8.25441Z" fill="#B65155"/>
<path d="M14.9878 42.0459V38.9939C14.9878 38.9939 15.2025 38.8539 15.6318 38.5739C16.0611 38.2752 16.6118 37.8926 17.2838 37.4259C17.9558 36.9592 18.6465 36.4459 19.3558 35.8859C20.0838 35.3259 20.7278 34.7752 21.2878 34.2339C22.5011 33.0952 23.4065 32.0779 24.0038 31.1819C24.6011 30.2859 24.8998 29.2966 24.8998 28.2139C24.8998 27.4859 24.6665 26.9166 24.1998 26.5059C23.7518 26.0766 23.0051 25.8619 21.9598 25.8619C21.1758 25.8619 20.3825 25.9459 19.5798 26.1139C18.7771 26.2819 18.0305 26.4966 17.3398 26.7579C16.6491 27.0006 16.0611 27.2526 15.5758 27.5139V23.5939C15.7625 23.5006 16.1358 23.3326 16.6958 23.0899C17.2745 22.8286 18.0305 22.5859 18.9638 22.3619C19.8971 22.1379 20.9985 22.0259 22.2678 22.0259C24.6385 22.0259 26.3931 22.5392 27.5318 23.5659C28.6891 24.5739 29.2678 26.0112 29.2678 27.8779C29.2678 29.0352 29.0251 30.1086 28.5398 31.0979C28.0731 32.0872 27.4478 32.9926 26.6638 33.8139C25.8985 34.6352 25.0678 35.3819 24.1718 36.0539C23.2945 36.7259 22.4451 37.3232 21.6238 37.8459L21.7638 38.4059L29.2678 37.8459V42.0459H14.9878ZM39.2907 42.3259C37.7041 42.3259 36.3227 41.9992 35.1467 41.3459C33.9894 40.6926 33.0934 39.6286 32.4587 38.1539C31.8241 36.6606 31.5067 34.6539 31.5067 32.1339C31.5067 29.7259 31.8241 27.7752 32.4587 26.2819C33.0934 24.7886 33.9894 23.6966 35.1467 23.0059C36.3227 22.2966 37.7041 21.9419 39.2907 21.9419C40.8961 21.9419 42.2774 22.2966 43.4347 23.0059C44.5921 23.7152 45.4881 24.8166 46.1227 26.3099C46.7574 27.8032 47.0747 29.7446 47.0747 32.1339C47.0747 34.6166 46.7574 36.6046 46.1227 38.0979C45.4881 39.5912 44.5921 40.6739 43.4347 41.3459C42.2774 41.9992 40.8961 42.3259 39.2907 42.3259ZM39.2907 38.2939C40.5787 38.2939 41.5027 37.8366 42.0627 36.9219C42.6227 35.9886 42.9027 34.3926 42.9027 32.1339C42.9027 30.0059 42.6227 28.4472 42.0627 27.4579C41.5027 26.4686 40.5787 25.9739 39.2907 25.9739C38.0401 25.9739 37.1254 26.4779 36.5467 27.4859C35.9681 28.4752 35.6787 30.0246 35.6787 32.1339C35.6787 34.3739 35.9681 35.9606 36.5467 36.8939C37.1254 37.8272 38.0401 38.2939 39.2907 38.2939Z" fill="#B65155"/>
<path opacity="0.5" fill-rule="evenodd" clip-rule="evenodd" d="M14.0846 1.27665C24.2396 -3.71153 34.6279 -3.35267 37.3013 2.08409C39.9746 7.52084 33.8923 15.9541 23.7373 20.9423C13.5822 25.9305 3.19391 25.5716 0.520581 20.1348C-2.15275 14.6981 3.92952 6.26483 14.0846 1.27665Z" fill="#FDFFF8"/>
</g>
</g>
<defs>
<filter id="filter0_i_3570_19443" x="0.600586" y="0" width="60" height="60" filterUnits="userSpaceOnUse" color-interpolation-filters="sRGB">
<feFlood flood-opacity="0" result="BackgroundImageFix"/>
<feBlend mode="normal" in="SourceGraphic" in2="BackgroundImageFix" result="shape"/>
<feColorMatrix in="SourceAlpha" type="matrix" values="0 0 0 0 0 0 0 0 0 0 0 0 0 0 0 0 0 0 127 0" result="hardAlpha"/>
<feOffset/>
<feGaussianBlur stdDeviation="5"/>
<feComposite in2="hardAlpha" operator="arithmetic" k2="-1" k3="1"/>
<feColorMatrix type="matrix" values="0 0 0 0 0 0 0 0 0 0 0 0 0 0 0 0 0 0 0.6 0"/>
<feBlend mode="normal" in2="shape" result="effect1_innerShadow_3570_19443"/>
</filter>
<clipPath id="clip0_3570_19443">
<rect x="0.600586" width="60" height="60" rx="30" fill="white"/>
</clipPath>
</defs>
</svg>
