<svg width="61" height="61" viewBox="0 0 61 61" fill="none" xmlns="http://www.w3.org/2000/svg">
<g filter="url(#filter0_i_3570_19915)">
<g clip-path="url(#clip0_3570_19915)">
<rect x="0.800781" y="0.333984" width="60" height="60" rx="30" fill="#82857D"/>
<path fill-rule="evenodd" clip-rule="evenodd" d="M18.0644 -3.32725C36.6521 -10.3609 57.4287 -0.994651 64.4619 17.5944C71.4951 36.1834 62.1295 56.9615 43.5418 63.9952C24.9541 71.0289 4.17744 61.6626 -2.85574 43.0736C-9.88893 24.4845 -0.523302 3.70644 18.0644 -3.32725Z" fill="#782326"/>
<path fill-rule="evenodd" clip-rule="evenodd" d="M18.0652 -3.32781C36.312 -10.2359 56.6759 -1.31818 64.05 16.589C69.3249 34.4783 59.9772 53.6953 42.2507 60.3881C24.0039 67.2962 3.63995 58.3785 -3.73413 40.4713C-9.00902 22.582 0.338676 3.36497 18.0652 -3.32781Z" fill="#B65155"/>
<path fill-rule="evenodd" clip-rule="evenodd" d="M22.3384 6.61925C35.8845 1.48752 51.0273 8.32384 56.1408 21.8709C61.2721 35.4179 54.4363 50.5619 40.8902 55.6757C27.3442 60.8074 12.2013 53.9711 7.08788 40.424C1.95652 26.877 8.79235 11.733 22.3384 6.61925Z" fill="#FDFFF8"/>
<path fill-rule="evenodd" clip-rule="evenodd" d="M31.614 7.02734C41.3564 7.02734 50.5246 12.9665 54.1848 22.6199C58.9034 35.0903 52.6238 49.0142 40.1542 53.7153C37.3374 54.7739 34.4488 55.2763 31.614 55.2763V52.9975C34.1796 52.9975 36.7991 52.549 39.3469 51.58C50.6323 47.3096 56.3198 34.6956 52.0497 23.4273C48.7484 14.689 40.4413 9.30612 31.614 9.30612V7.02734ZM23.0736 8.58839C25.8905 7.52975 28.7792 7.02734 31.614 7.02734V9.30612C29.0483 9.30612 26.4288 9.7547 23.881 10.7236C12.5957 14.9941 6.9081 27.6081 11.1782 38.8763C14.4795 47.6146 22.7866 52.9975 31.614 52.9975V55.2763C21.8716 55.2763 12.7033 49.3372 9.04317 39.6838C4.32447 27.2133 10.6041 13.2895 23.0736 8.58839Z" fill="#B65155"/>
<path d="M21.7928 42.6599C21.0835 42.6599 20.4675 42.6412 19.9448 42.6039C19.4408 42.5665 18.9275 42.5105 18.4048 42.4359L14.8768 41.1479L15.9968 37.2559L20.9528 38.7959C22.2408 38.7959 23.2208 38.5625 23.8928 38.0959C24.5835 37.6105 24.9288 36.9199 24.9288 36.0239C24.9288 35.1839 24.6955 34.5119 24.2288 34.0079C23.7622 33.5039 22.8662 33.2519 21.5408 33.2519H15.7168V22.5559H28.1768V26.4479L21.1768 26.1679H20.0008V29.9759H21.8768C24.4715 29.9759 26.3568 30.4705 27.5328 31.4599C28.7088 32.4492 29.2968 33.9145 29.2968 35.8559C29.2968 37.1812 28.9982 38.3572 28.4008 39.3839C27.8222 40.4105 26.9728 41.2132 25.8528 41.7919C24.7328 42.3705 23.3795 42.6599 21.7928 42.6599ZM38.802 42.6599C38.0553 42.6599 37.458 42.6225 37.01 42.5479C36.562 42.4919 36.142 42.4265 35.75 42.3519L32.334 40.3079L33.986 37.0039L38.494 38.7679C39.2593 38.7679 39.9873 38.5999 40.678 38.2639C41.3873 37.9092 41.9753 37.3772 42.442 36.6679C42.9086 35.9399 43.1793 35.0252 43.254 33.9239L38.662 34.7639C37.3366 34.7639 36.1606 34.5772 35.134 34.2039C34.1073 33.8305 33.2953 33.2052 32.698 32.3279C32.1193 31.4319 31.83 30.2092 31.83 28.6599C31.83 27.5959 32.1006 26.5785 32.642 25.6079C33.202 24.6185 34.0326 23.8159 35.134 23.1999C36.2353 22.5839 37.6166 22.2759 39.278 22.2759C40.9206 22.2759 42.3673 22.6119 43.618 23.2839C44.8873 23.9559 45.886 25.0385 46.614 26.5319C47.342 28.0065 47.706 29.9852 47.706 32.4679C47.706 34.6332 47.3326 36.4812 46.586 38.0119C45.8393 39.5239 44.794 40.6812 43.45 41.4839C42.1246 42.2679 40.5753 42.6599 38.802 42.6599ZM38.662 31.2639C39.502 31.2639 40.3606 31.2359 41.238 31.1799C42.1153 31.1239 42.7873 31.0585 43.254 30.9839C43.142 27.8292 41.8166 26.2519 39.278 26.2519C38.1393 26.2519 37.3086 26.5319 36.786 27.0919C36.2633 27.6519 36.002 28.3239 36.002 29.1079C36.002 29.8545 36.2166 30.4052 36.646 30.7599C37.0753 31.0959 37.7473 31.2639 38.662 31.2639Z" fill="#B65155"/>
<path opacity="0.5" fill-rule="evenodd" clip-rule="evenodd" d="M14.2848 1.61063C24.4398 -3.37755 34.8281 -3.01868 37.5015 2.41807C40.1748 7.85483 34.0925 16.2881 23.9375 21.2763C13.7824 26.2644 3.3941 25.9056 0.720776 20.4688C-1.95255 15.0321 4.12971 6.59881 14.2848 1.61063Z" fill="#FDFFF8"/>
</g>
</g>
<defs>
<filter id="filter0_i_3570_19915" x="0.800781" y="0.333984" width="60" height="60" filterUnits="userSpaceOnUse" color-interpolation-filters="sRGB">
<feFlood flood-opacity="0" result="BackgroundImageFix"/>
<feBlend mode="normal" in="SourceGraphic" in2="BackgroundImageFix" result="shape"/>
<feColorMatrix in="SourceAlpha" type="matrix" values="0 0 0 0 0 0 0 0 0 0 0 0 0 0 0 0 0 0 127 0" result="hardAlpha"/>
<feOffset/>
<feGaussianBlur stdDeviation="5"/>
<feComposite in2="hardAlpha" operator="arithmetic" k2="-1" k3="1"/>
<feColorMatrix type="matrix" values="0 0 0 0 0 0 0 0 0 0 0 0 0 0 0 0 0 0 0.6 0"/>
<feBlend mode="normal" in2="shape" result="effect1_innerShadow_3570_19915"/>
</filter>
<clipPath id="clip0_3570_19915">
<rect x="0.800781" y="0.333984" width="60" height="60" rx="30" fill="white"/>
</clipPath>
</defs>
</svg>
