<svg width="61" height="61" viewBox="0 0 61 61" fill="none" xmlns="http://www.w3.org/2000/svg">
<g filter="url(#filter0_i_3570_19927)">
<g clip-path="url(#clip0_3570_19927)">
<rect x="0.600586" y="0.333984" width="60" height="60" rx="30" fill="#82857D"/>
<path fill-rule="evenodd" clip-rule="evenodd" d="M17.8642 -3.32725C36.4519 -10.3609 57.2285 -0.994651 64.2617 17.5944C71.2949 36.1834 61.9293 56.9615 43.3416 63.9952C24.7539 71.0289 3.97725 61.6626 -3.05594 43.0736C-10.0891 24.4845 -0.723497 3.70644 17.8642 -3.32725Z" fill="#206446"/>
<path fill-rule="evenodd" clip-rule="evenodd" d="M17.865 -3.32781C36.1118 -10.2359 56.4757 -1.31818 63.8498 16.589C69.1247 34.4783 59.777 53.6953 42.0505 60.3881C23.8037 67.2962 3.43976 58.3785 -3.93433 40.4713C-9.20922 22.582 0.138481 3.36497 17.865 -3.32781Z" fill="#8BC1A9"/>
<path fill-rule="evenodd" clip-rule="evenodd" d="M22.1382 6.61925C35.6843 1.48752 50.8272 8.32384 55.9406 21.8709C61.0719 35.4179 54.2361 50.5619 40.69 55.6757C27.144 60.8074 12.0011 53.9711 6.88768 40.424C1.75632 26.877 8.59215 11.733 22.1382 6.61925Z" fill="#FDFFF8"/>
<path fill-rule="evenodd" clip-rule="evenodd" d="M31.4138 7.02734C41.1562 7.02734 50.3244 12.9665 53.9846 22.6199C58.7033 35.0903 52.4236 49.0142 39.9541 53.7153C37.1372 54.7739 34.2486 55.2763 31.4138 55.2763V52.9975C33.9794 52.9975 36.5989 52.549 39.1467 51.58C50.4321 47.3096 56.1196 34.6956 51.8495 23.4273C48.5482 14.689 40.2411 9.30612 31.4138 9.30612V7.02734ZM22.8734 8.58839C25.6903 7.52975 28.579 7.02734 31.4138 7.02734V9.30612C28.8481 9.30612 26.2286 9.7547 23.6809 10.7236C12.3955 14.9941 6.7079 27.6081 10.978 38.8763C14.2793 47.6146 22.5864 52.9975 31.4138 52.9975V55.2763C21.6714 55.2763 12.5031 49.3372 8.84297 39.6838C4.12428 27.2133 10.4039 13.2895 22.8734 8.58839Z" fill="#8BC1A9"/>
<path opacity="0.5" fill-rule="evenodd" clip-rule="evenodd" d="M14.0846 1.61063C24.2396 -3.37755 34.628 -3.01868 37.3013 2.41807C39.9746 7.85483 33.8923 16.2881 23.7373 21.2763C13.5822 26.2644 3.19391 25.9056 0.520581 20.4688C-2.15275 15.0321 3.92952 6.59881 14.0846 1.61063Z" fill="#FDFFF8"/>
<path d="M22.7088 42.6599C21.1595 42.6599 19.7408 42.3145 18.4528 41.6239C17.1648 40.9145 16.1381 39.8505 15.3728 38.4319C14.6261 37.0132 14.2528 35.2212 14.2528 33.0559C14.2528 31.1705 14.5141 29.5465 15.0368 28.1839C15.5781 26.8212 16.2875 25.7105 17.1648 24.8519C18.0608 23.9745 19.0501 23.3305 20.1328 22.9199C21.2341 22.4905 22.3448 22.2759 23.4648 22.2759C24.4168 22.2759 25.1541 22.3505 25.6768 22.4999C26.2181 22.6492 26.6941 22.8172 27.1048 23.0039L29.6528 25.2999L27.6928 28.4919L23.4648 26.1679C22.6435 26.1679 21.8688 26.3732 21.1408 26.7839C20.4128 27.1945 19.8155 27.7825 19.3488 28.5479C18.8821 29.3132 18.6208 30.2465 18.5648 31.3479L22.9888 30.2279C24.2955 30.2279 25.4808 30.4425 26.5448 30.8719C27.6275 31.2825 28.4955 31.9359 29.1488 32.8319C29.8021 33.7092 30.1288 34.8665 30.1288 36.3039C30.1288 38.2265 29.4755 39.7665 28.1688 40.9239C26.8808 42.0812 25.0608 42.6599 22.7088 42.6599ZM22.9608 38.7119C23.8941 38.7119 24.6221 38.4879 25.1448 38.0399C25.6861 37.5919 25.9568 36.9572 25.9568 36.1359C25.9568 35.3519 25.6581 34.7545 25.0608 34.3439C24.4635 33.9145 23.6888 33.6999 22.7368 33.6999C21.9341 33.6999 21.1781 33.8119 20.4688 34.0359C19.7595 34.2599 19.2461 34.4932 18.9288 34.7359C18.9661 35.3332 19.1248 35.9399 19.4048 36.5559C19.7035 37.1719 20.1421 37.6852 20.7208 38.0959C21.2995 38.5065 22.0461 38.7119 22.9608 38.7119ZM40.1657 42.6599C38.5791 42.6599 37.1977 42.3332 36.0217 41.6799C34.8644 41.0265 33.9684 39.9625 33.3337 38.4879C32.6991 36.9945 32.3817 34.9879 32.3817 32.4679C32.3817 30.0599 32.6991 28.1092 33.3337 26.6159C33.9684 25.1225 34.8644 24.0305 36.0217 23.3399C37.1977 22.6305 38.5791 22.2759 40.1657 22.2759C41.7711 22.2759 43.1524 22.6305 44.3097 23.3399C45.4671 24.0492 46.3631 25.1505 46.9977 26.6439C47.6324 28.1372 47.9497 30.0785 47.9497 32.4679C47.9497 34.9505 47.6324 36.9385 46.9977 38.4319C46.3631 39.9252 45.4671 41.0079 44.3097 41.6799C43.1524 42.3332 41.7711 42.6599 40.1657 42.6599ZM40.1657 38.6279C41.4537 38.6279 42.3777 38.1705 42.9377 37.2559C43.4977 36.3225 43.7777 34.7265 43.7777 32.4679C43.7777 30.3399 43.4977 28.7812 42.9377 27.7919C42.3777 26.8025 41.4537 26.3079 40.1657 26.3079C38.9151 26.3079 38.0004 26.8119 37.4217 27.8199C36.8431 28.8092 36.5537 30.3585 36.5537 32.4679C36.5537 34.7079 36.8431 36.2945 37.4217 37.2279C38.0004 38.1612 38.9151 38.6279 40.1657 38.6279Z" fill="#8BC1A9"/>
</g>
</g>
<defs>
<filter id="filter0_i_3570_19927" x="0.600586" y="0.333984" width="60" height="60" filterUnits="userSpaceOnUse" color-interpolation-filters="sRGB">
<feFlood flood-opacity="0" result="BackgroundImageFix"/>
<feBlend mode="normal" in="SourceGraphic" in2="BackgroundImageFix" result="shape"/>
<feColorMatrix in="SourceAlpha" type="matrix" values="0 0 0 0 0 0 0 0 0 0 0 0 0 0 0 0 0 0 127 0" result="hardAlpha"/>
<feOffset/>
<feGaussianBlur stdDeviation="5"/>
<feComposite in2="hardAlpha" operator="arithmetic" k2="-1" k3="1"/>
<feColorMatrix type="matrix" values="0 0 0 0 0 0 0 0 0 0 0 0 0 0 0 0 0 0 0.6 0"/>
<feBlend mode="normal" in2="shape" result="effect1_innerShadow_3570_19927"/>
</filter>
<clipPath id="clip0_3570_19927">
<rect x="0.600586" y="0.333984" width="60" height="60" rx="30" fill="white"/>
</clipPath>
</defs>
</svg>
