<svg width="61" height="61" viewBox="0 0 61 61" fill="none" xmlns="http://www.w3.org/2000/svg">
<g filter="url(#filter0_i_3570_19867)">
<g clip-path="url(#clip0_3570_19867)">
<rect x="0.600586" y="0.333984" width="60" height="60" rx="30" fill="#82857D"/>
<path fill-rule="evenodd" clip-rule="evenodd" d="M17.8642 -3.32725C36.4519 -10.3609 57.2285 -0.994651 64.2617 17.5944C71.2949 36.1834 61.9293 56.9615 43.3416 63.9952C24.7539 71.0289 3.97725 61.6626 -3.05594 43.0736C-10.0891 24.4845 -0.723497 3.70644 17.8642 -3.32725Z" fill="#206446"/>
<path fill-rule="evenodd" clip-rule="evenodd" d="M17.865 -3.32781C36.1118 -10.2359 56.4757 -1.31818 63.8498 16.589C69.1247 34.4783 59.777 53.6953 42.0505 60.3881C23.8037 67.2962 3.43976 58.3785 -3.93433 40.4713C-9.20922 22.582 0.138481 3.36497 17.865 -3.32781Z" fill="#8BC1A9"/>
<path fill-rule="evenodd" clip-rule="evenodd" d="M22.1382 6.61925C35.6843 1.48752 50.8272 8.32384 55.9406 21.8709C61.0719 35.4179 54.2361 50.5619 40.69 55.6757C27.144 60.8074 12.0011 53.9711 6.88768 40.424C1.75632 26.877 8.59215 11.733 22.1382 6.61925Z" fill="#FDFFF8"/>
<path fill-rule="evenodd" clip-rule="evenodd" d="M31.4138 7.02734C41.1562 7.02734 50.3244 12.9665 53.9846 22.6199C58.7033 35.0903 52.4236 49.0142 39.9541 53.7153C37.1372 54.7739 34.2486 55.2763 31.4138 55.2763V52.9975C33.9794 52.9975 36.5989 52.549 39.1467 51.58C50.4321 47.3096 56.1196 34.6956 51.8495 23.4273C48.5482 14.689 40.2411 9.30612 31.4138 9.30612V7.02734ZM22.8734 8.58839C25.6903 7.52975 28.579 7.02734 31.4138 7.02734V9.30612C28.8481 9.30612 26.2286 9.7547 23.6809 10.7236C12.3955 14.9941 6.7079 27.6081 10.978 38.8763C14.2793 47.6146 22.5864 52.9975 31.4138 52.9975V55.2763C21.6714 55.2763 12.5031 49.3372 8.84297 39.6838C4.12428 27.2133 10.4039 13.2895 22.8734 8.58839Z" fill="#8BC1A9"/>
<path opacity="0.5" fill-rule="evenodd" clip-rule="evenodd" d="M14.0846 1.61063C24.2396 -3.37755 34.628 -3.01868 37.3013 2.41807C39.9746 7.85483 33.8923 16.2881 23.7373 21.2763C13.5822 26.2644 3.19391 25.9056 0.520581 20.4688C-2.15275 15.0321 3.92952 6.59881 14.0846 1.61063Z" fill="#FDFFF8"/>
<path d="M22.1805 42.6599C21.4712 42.6599 20.8552 42.6412 20.3325 42.6039C19.8285 42.5665 19.3152 42.5105 18.7925 42.4359L15.2645 41.1479L16.3845 37.2559L21.3405 38.7959C22.6285 38.7959 23.6085 38.5625 24.2805 38.0959C24.9712 37.6105 25.3165 36.9199 25.3165 36.0239C25.3165 35.1839 25.0832 34.5119 24.6165 34.0079C24.1499 33.5039 23.2539 33.2519 21.9285 33.2519H16.1045V22.5559H28.5645V26.4479L21.5645 26.1679H20.3885V29.9759H22.2645C24.8592 29.9759 26.7445 30.4705 27.9205 31.4599C29.0965 32.4492 29.6845 33.9145 29.6845 35.8559C29.6845 37.1812 29.3859 38.3572 28.7885 39.3839C28.2099 40.4105 27.3605 41.2132 26.2405 41.7919C25.1205 42.3705 23.7672 42.6599 22.1805 42.6599ZM39.1337 42.6599C38.4243 42.6599 37.8083 42.6412 37.2857 42.6039C36.7817 42.5665 36.2683 42.5105 35.7457 42.4359L32.2177 41.1479L33.3377 37.2559L38.2937 38.7959C39.5817 38.7959 40.5617 38.5625 41.2337 38.0959C41.9243 37.6105 42.2697 36.9199 42.2697 36.0239C42.2697 35.1839 42.0363 34.5119 41.5697 34.0079C41.103 33.5039 40.207 33.2519 38.8817 33.2519H33.0577V22.5559H45.5177V26.4479L38.5177 26.1679H37.3417V29.9759H39.2177C41.8123 29.9759 43.6977 30.4705 44.8737 31.4599C46.0497 32.4492 46.6377 33.9145 46.6377 35.8559C46.6377 37.1812 46.339 38.3572 45.7417 39.3839C45.163 40.4105 44.3137 41.2132 43.1937 41.7919C42.0737 42.3705 40.7203 42.6599 39.1337 42.6599Z" fill="#8BC1A9"/>
</g>
</g>
<defs>
<filter id="filter0_i_3570_19867" x="0.600586" y="0.333984" width="60" height="60" filterUnits="userSpaceOnUse" color-interpolation-filters="sRGB">
<feFlood flood-opacity="0" result="BackgroundImageFix"/>
<feBlend mode="normal" in="SourceGraphic" in2="BackgroundImageFix" result="shape"/>
<feColorMatrix in="SourceAlpha" type="matrix" values="0 0 0 0 0 0 0 0 0 0 0 0 0 0 0 0 0 0 127 0" result="hardAlpha"/>
<feOffset/>
<feGaussianBlur stdDeviation="5"/>
<feComposite in2="hardAlpha" operator="arithmetic" k2="-1" k3="1"/>
<feColorMatrix type="matrix" values="0 0 0 0 0 0 0 0 0 0 0 0 0 0 0 0 0 0 0.6 0"/>
<feBlend mode="normal" in2="shape" result="effect1_innerShadow_3570_19867"/>
</filter>
<clipPath id="clip0_3570_19867">
<rect x="0.600586" y="0.333984" width="60" height="60" rx="30" fill="white"/>
</clipPath>
</defs>
</svg>
