<svg width="60" height="61" viewBox="0 0 60 61" fill="none" xmlns="http://www.w3.org/2000/svg">
<g filter="url(#filter0_i_3570_20206)">
<g clip-path="url(#clip0_3570_20206)">
<rect y="0.333984" width="60" height="60" rx="30" fill="#82857D"/>
<path fill-rule="evenodd" clip-rule="evenodd" d="M17.2636 -3.32725C35.8513 -10.3609 56.6279 -0.994651 63.6611 17.5944C70.6943 36.1834 61.3287 56.9615 42.741 63.9952C24.1533 71.0289 3.37666 61.6626 -3.65652 43.0736C-10.6897 24.4845 -1.32408 3.70644 17.2636 -3.32725Z" fill="#782326"/>
<path fill-rule="evenodd" clip-rule="evenodd" d="M17.2644 -3.32781C35.5112 -10.2359 55.8751 -1.31818 63.2492 16.589C68.5241 34.4783 59.1765 53.6953 41.4499 60.3881C23.2031 67.2962 2.83917 58.3785 -4.53491 40.4713C-9.8098 22.582 -0.462105 3.36497 17.2644 -3.32781Z" fill="#B65155"/>
<path fill-rule="evenodd" clip-rule="evenodd" d="M21.5376 6.61925C35.0837 1.48752 50.2266 8.32384 55.34 21.8709C60.4713 35.4179 53.6355 50.5619 40.0894 55.6757C26.5434 60.8074 11.4005 53.9711 6.28709 40.424C1.15574 26.877 7.99157 11.733 21.5376 6.61925Z" fill="#FDFFF8"/>
<path fill-rule="evenodd" clip-rule="evenodd" d="M30.8132 7.02734C40.5556 7.02734 49.7238 12.9665 53.384 22.6199C58.1027 35.0903 51.823 49.0142 39.3535 53.7153C36.5366 54.7739 33.648 55.2763 30.8132 55.2763V52.9975C33.3789 52.9975 35.9984 52.549 38.5461 51.58C49.8315 47.3096 55.519 34.6956 51.2489 23.4273C47.9476 14.689 39.6405 9.30612 30.8132 9.30612V7.02734ZM22.2729 8.58839C25.0897 7.52975 27.9784 7.02734 30.8132 7.02734V9.30612C28.2475 9.30612 25.628 9.7547 23.0803 10.7236C11.7949 14.9941 6.10731 27.6081 10.3775 38.8763C13.6788 47.6146 21.9858 52.9975 30.8132 52.9975V55.2763C21.0708 55.2763 11.9025 49.3372 8.24238 39.6838C3.52369 27.2133 9.80331 13.2895 22.2729 8.58839Z" fill="#B65155"/>
<path d="M22.2175 42.6599C21.1908 42.6599 20.2015 42.5665 19.2495 42.3799C18.3162 42.1745 17.4762 41.8479 16.7295 41.3999C16.0015 40.9332 15.4228 40.3079 14.9935 39.5239C14.5642 38.7399 14.3495 37.7599 14.3495 36.5839C14.3495 35.3892 14.6015 34.4279 15.1055 33.6999C15.6095 32.9719 16.2722 32.4119 17.0935 32.0199C16.5708 31.5719 16.1228 31.0025 15.7495 30.3119C15.3762 29.6212 15.1895 28.7812 15.1895 27.7919C15.1895 26.1865 15.7588 24.8705 16.8975 23.8439C18.0362 22.7985 19.7908 22.2759 22.1615 22.2759C24.5508 22.2759 26.2962 22.7519 27.3975 23.7039C28.4988 24.6559 29.0495 26.0185 29.0495 27.7919C29.0495 28.6879 28.8628 29.4999 28.4895 30.2279C28.1162 30.9559 27.6588 31.5345 27.1175 31.9639C27.9015 32.3559 28.5548 32.9345 29.0775 33.6999C29.6188 34.4652 29.8895 35.4265 29.8895 36.5839C29.8895 38.1519 29.5348 39.3745 28.8255 40.2519C28.1162 41.1292 27.1828 41.7545 26.0255 42.1279C24.8682 42.4825 23.5988 42.6599 22.2175 42.6599ZM22.2175 30.7319C23.1322 30.7319 23.8135 30.5452 24.2615 30.1719C24.7095 29.7985 24.9335 29.2945 24.9335 28.6599C24.9335 27.8945 24.7188 27.2972 24.2895 26.8679C23.8788 26.4199 23.1882 26.1959 22.2175 26.1959C21.3775 26.1959 20.6868 26.3825 20.1455 26.7559C19.6228 27.1292 19.3615 27.6705 19.3615 28.3799C19.3615 28.9585 19.5015 29.4252 19.7815 29.7799C20.0802 30.1159 20.4442 30.3585 20.8735 30.5079C21.3215 30.6572 21.7695 30.7319 22.2175 30.7319ZM22.2175 38.7399C23.2255 38.7399 24.0655 38.5719 24.7375 38.2359C25.4282 37.8999 25.7735 37.3865 25.7735 36.6959C25.7735 35.7252 25.2882 34.9505 24.3175 34.3719C23.3655 33.7745 21.9282 33.4665 20.0055 33.4479C19.6322 33.7279 19.3148 34.0919 19.0535 34.5399C18.8108 34.9692 18.6895 35.4265 18.6895 35.9119C18.6895 36.9385 19.0255 37.6665 19.6975 38.0959C20.3695 38.5252 21.2095 38.7399 22.2175 38.7399ZM39.1229 42.6599C38.5256 42.6599 37.9563 42.6412 37.4149 42.6039C36.8923 42.5665 36.3976 42.5105 35.9309 42.4359L32.1229 41.1479L33.2429 37.2559L38.5629 38.7679C39.8883 38.7679 40.8216 38.5159 41.3629 38.0119C41.9229 37.4892 42.2029 36.8172 42.2029 35.9959C42.2029 35.3985 42.0256 34.9225 41.6709 34.5679C41.3349 34.2132 40.7656 34.0359 39.9629 34.0359H36.4069V30.4239H39.2629C41.0363 30.4239 41.9229 29.6399 41.9229 28.0719C41.9229 26.8212 41.0549 26.1959 39.3189 26.1959C38.2549 26.1959 37.3123 26.2985 36.4909 26.5039C35.6696 26.6905 34.9603 26.9145 34.3629 27.1759C33.7843 27.4185 33.3176 27.6239 32.9629 27.7919V23.8719C33.5043 23.5172 34.2883 23.1719 35.3149 22.8359C36.3416 22.4812 37.6856 22.3039 39.3469 22.3039C41.4563 22.3039 43.0523 22.7705 44.1349 23.7039C45.2363 24.6185 45.7869 25.9159 45.7869 27.5959C45.7869 28.5665 45.6283 29.3692 45.3109 30.0039C45.0123 30.6199 44.6296 31.1145 44.1629 31.4879C44.9656 31.9919 45.5816 32.5985 46.0109 33.3079C46.4403 33.9985 46.6549 34.8852 46.6549 35.9679C46.6549 37.3865 46.3376 38.5999 45.7029 39.6079C45.0869 40.5972 44.2096 41.3532 43.0709 41.8759C41.9509 42.3985 40.6349 42.6599 39.1229 42.6599Z" fill="#B65155"/>
<path opacity="0.5" fill-rule="evenodd" clip-rule="evenodd" d="M13.484 1.61063C23.6391 -3.37755 34.0274 -3.01868 36.7007 2.41807C39.374 7.85483 33.2918 16.2881 23.1367 21.2763C12.9816 26.2644 2.59332 25.9056 -0.0800052 20.4688C-2.75333 15.0321 3.32893 6.59881 13.484 1.61063Z" fill="#FDFFF8"/>
</g>
</g>
<defs>
<filter id="filter0_i_3570_20206" x="0" y="0.333984" width="60" height="60" filterUnits="userSpaceOnUse" color-interpolation-filters="sRGB">
<feFlood flood-opacity="0" result="BackgroundImageFix"/>
<feBlend mode="normal" in="SourceGraphic" in2="BackgroundImageFix" result="shape"/>
<feColorMatrix in="SourceAlpha" type="matrix" values="0 0 0 0 0 0 0 0 0 0 0 0 0 0 0 0 0 0 127 0" result="hardAlpha"/>
<feOffset/>
<feGaussianBlur stdDeviation="5"/>
<feComposite in2="hardAlpha" operator="arithmetic" k2="-1" k3="1"/>
<feColorMatrix type="matrix" values="0 0 0 0 0 0 0 0 0 0 0 0 0 0 0 0 0 0 0.6 0"/>
<feBlend mode="normal" in2="shape" result="effect1_innerShadow_3570_20206"/>
</filter>
<clipPath id="clip0_3570_20206">
<rect y="0.333984" width="60" height="60" rx="30" fill="white"/>
</clipPath>
</defs>
</svg>
