<svg width="61" height="60" viewBox="0 0 61 60" fill="none" xmlns="http://www.w3.org/2000/svg">
<g filter="url(#filter0_i_3570_20109)">
<g clip-path="url(#clip0_3570_20109)">
<rect x="0.600586" width="60" height="60" rx="30" fill="#82857D"/>
<path fill-rule="evenodd" clip-rule="evenodd" d="M17.8642 -3.66124C36.4519 -10.6949 57.2285 -1.32864 64.2617 17.2604C71.2949 35.8494 61.9293 56.6275 43.3416 63.6612C24.7539 70.6949 3.97725 61.3286 -3.05594 42.7396C-10.0891 24.1506 -0.723497 3.37245 17.8642 -3.66124Z" fill="#5B3267"/>
<path fill-rule="evenodd" clip-rule="evenodd" d="M17.865 -3.66179C36.1118 -10.5699 56.4757 -1.65217 63.8498 16.255C69.1247 34.1443 59.777 53.3614 42.0505 60.0541C23.8037 66.9622 3.43976 58.0445 -3.93433 40.1373C-9.20922 22.248 0.138481 3.03098 17.865 -3.66179Z" fill="#875796"/>
<path fill-rule="evenodd" clip-rule="evenodd" d="M22.1382 6.29112C35.6843 1.1594 50.8272 7.99572 55.9406 21.5427C61.0719 35.0898 54.2361 50.2338 40.69 55.3475C27.144 60.4793 12.0011 53.6429 6.88768 40.0959C1.75632 26.5489 8.59215 11.4049 22.1382 6.29112Z" fill="#FDFFF8"/>
<path fill-rule="evenodd" clip-rule="evenodd" d="M31.4138 6.69922C41.1562 6.69922 50.3244 12.6384 53.9846 22.2918C58.7033 34.7622 52.4236 48.6861 39.9541 53.3871C37.1372 54.4458 34.2486 54.9482 31.4138 54.9482V52.6694C33.9794 52.6694 36.5989 52.2209 39.1467 51.2519C50.4321 46.9815 56.1196 34.3675 51.8495 23.0992C48.5482 14.3609 40.2411 8.97799 31.4138 8.97799V6.69922ZM22.8734 8.26027C25.6903 7.20163 28.579 6.69922 31.4138 6.69922V8.97799C28.8481 8.97799 26.2286 9.42657 23.6809 10.3955C12.3955 14.666 6.7079 27.2799 10.978 38.5482C14.2793 47.2865 22.5864 52.6694 31.4138 52.6694V54.9482C21.6714 54.9482 12.5031 49.009 8.84297 39.3557C4.12428 26.8852 10.4039 12.9614 22.8734 8.26027Z" fill="#875796"/>
<path d="M18.6459 42.0459L23.8819 28.7739L25.3659 25.8339H24.5259L15.8459 26.3939V22.2219H29.3979V25.0499L24.7779 37.5659L23.3779 42.0459H18.6459ZM38.2723 42.3259C37.563 42.3259 36.947 42.3072 36.4243 42.2699C35.9203 42.2326 35.407 42.1766 34.8843 42.1019L31.3563 40.8139L32.4763 36.9219L37.4323 38.4619C38.7203 38.4619 39.7003 38.2286 40.3723 37.7619C41.063 37.2766 41.4083 36.5859 41.4083 35.6899C41.4083 34.8499 41.175 34.1779 40.7083 33.6739C40.2417 33.1699 39.3457 32.9179 38.0203 32.9179H32.1963V22.2219H44.6563V26.1139L37.6563 25.8339H36.4803V29.6419H38.3563C40.951 29.6419 42.8363 30.1366 44.0123 31.1259C45.1883 32.1152 45.7763 33.5806 45.7763 35.5219C45.7763 36.8472 45.4777 38.0232 44.8803 39.0499C44.3017 40.0766 43.4523 40.8792 42.3323 41.4579C41.2123 42.0366 39.859 42.3259 38.2723 42.3259Z" fill="#875796"/>
<path opacity="0.5" fill-rule="evenodd" clip-rule="evenodd" d="M11.2422 0.216751C19.9163 -4.04399 28.7896 -3.73746 31.0731 0.90644C33.3566 5.55034 28.1613 12.7537 19.4872 17.0145C10.8131 21.2752 1.93972 20.9687 -0.343749 16.3248C-2.62722 11.6809 2.56805 4.47749 11.2422 0.216751Z" fill="#FDFFF8"/>
</g>
</g>
<defs>
<filter id="filter0_i_3570_20109" x="0.600586" y="0" width="60" height="60" filterUnits="userSpaceOnUse" color-interpolation-filters="sRGB">
<feFlood flood-opacity="0" result="BackgroundImageFix"/>
<feBlend mode="normal" in="SourceGraphic" in2="BackgroundImageFix" result="shape"/>
<feColorMatrix in="SourceAlpha" type="matrix" values="0 0 0 0 0 0 0 0 0 0 0 0 0 0 0 0 0 0 127 0" result="hardAlpha"/>
<feOffset/>
<feGaussianBlur stdDeviation="5"/>
<feComposite in2="hardAlpha" operator="arithmetic" k2="-1" k3="1"/>
<feColorMatrix type="matrix" values="0 0 0 0 0 0 0 0 0 0 0 0 0 0 0 0 0 0 0.6 0"/>
<feBlend mode="normal" in2="shape" result="effect1_innerShadow_3570_20109"/>
</filter>
<clipPath id="clip0_3570_20109">
<rect x="0.600586" width="60" height="60" rx="30" fill="white"/>
</clipPath>
</defs>
</svg>
