<svg width="61" height="61" viewBox="0 0 61 61" fill="none" xmlns="http://www.w3.org/2000/svg">
<g filter="url(#filter0_i_3570_19310)">
<g clip-path="url(#clip0_3570_19310)">
<rect x="0.800781" y="0.666992" width="60" height="60" rx="30" fill="#82857D"/>
<path fill-rule="evenodd" clip-rule="evenodd" d="M18.0644 -2.99425C36.6521 -10.0279 57.4287 -0.661643 64.4619 17.9274C71.4951 36.5164 62.1295 57.2945 43.5418 64.3282C24.9541 71.3619 4.17744 61.9956 -2.85574 43.4066C-9.88893 24.8175 -0.523302 4.03945 18.0644 -2.99425Z" fill="#904D16"/>
<path fill-rule="evenodd" clip-rule="evenodd" d="M18.0652 -2.9948C36.312 -9.90289 56.6759 -0.985174 64.05 16.922C69.3249 34.8113 59.9772 54.0283 42.2507 60.7211C24.0039 67.6292 3.63995 58.7115 -3.73413 40.8043C-9.00902 22.915 0.338676 3.69797 18.0652 -2.9948Z" fill="#DC8944"/>
<path fill-rule="evenodd" clip-rule="evenodd" d="M22.3384 6.95812C35.8845 1.82639 51.0273 8.66271 56.1408 22.2097C61.2721 35.7568 54.4363 50.9007 40.8902 56.0145C27.3442 61.1462 12.2013 54.3099 7.08788 40.7629C1.95652 27.2159 8.79235 12.0719 22.3384 6.95812Z" fill="#FDFFF8"/>
<path fill-rule="evenodd" clip-rule="evenodd" d="M31.614 7.36621C41.3564 7.36621 50.5246 13.3054 54.1848 22.9588C58.9035 35.4292 52.6238 49.3531 40.1543 54.0541C37.3374 55.1128 34.4488 55.6152 31.614 55.6152V53.3364C34.1796 53.3364 36.7991 52.8878 39.3469 51.9189C50.6323 47.6485 56.3198 35.0345 52.0497 23.7662C48.7484 15.0279 40.4413 9.64498 31.614 9.64498V7.36621ZM23.0736 8.92726C25.8905 7.86862 28.7792 7.36621 31.614 7.36621V9.64498C29.0483 9.64498 26.4288 10.0936 23.881 11.0625C12.5957 15.3329 6.9081 27.9469 11.1782 39.2152C14.4795 47.9535 22.7866 53.3364 31.614 53.3364V55.6152C21.8716 55.6152 12.7033 49.676 9.04317 40.0226C4.32447 27.5522 10.6041 13.6284 23.0736 8.92726Z" fill="#DC8944"/>
<path d="M30.3254 42.9929C29.5787 42.9929 28.9814 42.9556 28.5334 42.8809C28.0854 42.8249 27.6654 42.7596 27.2734 42.6849L23.8574 40.6409L25.5094 37.3369L30.0174 39.1009C30.7827 39.1009 31.5107 38.9329 32.2014 38.5969C32.9107 38.2422 33.4987 37.7102 33.9654 37.0009C34.4321 36.2729 34.7027 35.3582 34.7774 34.2569L30.1854 35.0969C28.8601 35.0969 27.6841 34.9102 26.6574 34.5369C25.6307 34.1636 24.8187 33.5382 24.2214 32.6609C23.6427 31.7649 23.3534 30.5422 23.3534 28.9929C23.3534 27.9289 23.6241 26.9116 24.1654 25.9409C24.7254 24.9516 25.5561 24.1489 26.6574 23.5329C27.7587 22.9169 29.1401 22.6089 30.8014 22.6089C32.4441 22.6089 33.8907 22.9449 35.1414 23.6169C36.4107 24.2889 37.4094 25.3716 38.1374 26.8649C38.8654 28.3396 39.2294 30.3182 39.2294 32.8009C39.2294 34.9662 38.8561 36.8142 38.1094 38.3449C37.3627 39.8569 36.3174 41.0142 34.9734 41.8169C33.6481 42.6009 32.0987 42.9929 30.3254 42.9929ZM30.1854 31.5969C31.0254 31.5969 31.8841 31.5689 32.7614 31.5129C33.6387 31.4569 34.3107 31.3916 34.7774 31.3169C34.6654 28.1622 33.3401 26.5849 30.8014 26.5849C29.6627 26.5849 28.8321 26.8649 28.3094 27.4249C27.7867 27.9849 27.5254 28.6569 27.5254 29.4409C27.5254 30.1876 27.7401 30.7382 28.1694 31.0929C28.5987 31.4289 29.2707 31.5969 30.1854 31.5969Z" fill="#DC8944"/>
<path opacity="0.5" fill-rule="evenodd" clip-rule="evenodd" d="M11.4424 0.883743C20.1165 -3.37699 28.9898 -3.07046 31.2733 1.57343C33.5568 6.21733 28.3615 13.4207 19.6874 17.6815C11.0133 21.9422 2.13992 21.6357 -0.143553 16.9918C-2.42702 12.3479 2.76825 5.14448 11.4424 0.883743Z" fill="#FDFFF8"/>
</g>
</g>
<defs>
<filter id="filter0_i_3570_19310" x="0.800781" y="0.666992" width="60" height="60" filterUnits="userSpaceOnUse" color-interpolation-filters="sRGB">
<feFlood flood-opacity="0" result="BackgroundImageFix"/>
<feBlend mode="normal" in="SourceGraphic" in2="BackgroundImageFix" result="shape"/>
<feColorMatrix in="SourceAlpha" type="matrix" values="0 0 0 0 0 0 0 0 0 0 0 0 0 0 0 0 0 0 127 0" result="hardAlpha"/>
<feOffset/>
<feGaussianBlur stdDeviation="5"/>
<feComposite in2="hardAlpha" operator="arithmetic" k2="-1" k3="1"/>
<feColorMatrix type="matrix" values="0 0 0 0 0 0 0 0 0 0 0 0 0 0 0 0 0 0 0.6 0"/>
<feBlend mode="normal" in2="shape" result="effect1_innerShadow_3570_19310"/>
</filter>
<clipPath id="clip0_3570_19310">
<rect x="0.800781" y="0.666992" width="60" height="60" rx="30" fill="white"/>
</clipPath>
</defs>
</svg>
