<svg width="60" height="61" viewBox="0 0 60 61" fill="none" xmlns="http://www.w3.org/2000/svg">
<g filter="url(#filter0_i_3570_19601)">
<g clip-path="url(#clip0_3570_19601)">
<rect y="0.666992" width="60" height="60" rx="30" fill="#82857D"/>
<path fill-rule="evenodd" clip-rule="evenodd" d="M17.2636 -2.99425C35.8513 -10.0279 56.6279 -0.661643 63.6611 17.9274C70.6943 36.5164 61.3287 57.2945 42.741 64.3282C24.1533 71.3619 3.37666 61.9956 -3.65652 43.4066C-10.6897 24.8175 -1.32408 4.03945 17.2636 -2.99425Z" fill="#133D63"/>
<path fill-rule="evenodd" clip-rule="evenodd" d="M17.2644 -2.9948C35.5112 -9.90289 55.8751 -0.985174 63.2492 16.922C68.5241 34.8113 59.1765 54.0284 41.4499 60.7211C23.2031 67.6292 2.83917 58.7115 -4.53491 40.8043C-9.8098 22.915 -0.462105 3.69798 17.2644 -2.9948Z" fill="#5884AD"/>
<path fill-rule="evenodd" clip-rule="evenodd" d="M21.5376 6.95226C35.0837 1.82053 50.2266 8.65685 55.34 22.2039C60.4713 35.7509 53.6355 50.8949 40.0894 56.0087C26.5434 61.1404 11.4005 54.3041 6.28709 40.757C1.15574 27.21 7.99157 12.066 21.5376 6.95226Z" fill="#FDFFF8"/>
<path fill-rule="evenodd" clip-rule="evenodd" d="M30.8132 7.36035C40.5556 7.36035 49.7238 13.2995 53.384 22.9529C58.1027 35.4233 51.823 49.3472 39.3535 54.0483C36.5366 55.1069 33.648 55.6093 30.8132 55.6093V53.3306C33.3789 53.3306 35.9984 52.882 38.5461 51.9131C49.8315 47.6426 55.519 35.0286 51.2489 23.7603C47.9476 15.0221 39.6405 9.63913 30.8132 9.63913V7.36035ZM22.2729 8.9214C25.0897 7.86276 27.9784 7.36035 30.8132 7.36035V9.63913C28.2475 9.63913 25.628 10.0877 23.0803 11.0566C11.7949 15.3271 6.10731 27.9411 10.3775 39.2093C13.6788 47.9476 21.9858 53.3306 30.8132 53.3306V55.6093C21.0708 55.6093 11.9025 49.6702 8.24238 40.0168C3.52369 27.5463 9.80331 13.6225 22.2729 8.9214Z" fill="#5884AD"/>
<path d="M21.8554 42.9929C21.258 42.9929 20.6887 42.9742 20.1474 42.9369C19.6247 42.8996 19.13 42.8436 18.6634 42.7689L14.8554 41.4809L15.9754 37.5889L21.2954 39.1009C22.6207 39.1009 23.554 38.8489 24.0954 38.3449C24.6554 37.8222 24.9354 37.1502 24.9354 36.3289C24.9354 35.7316 24.758 35.2556 24.4034 34.9009C24.0674 34.5462 23.498 34.3689 22.6954 34.3689H19.1394V30.7569H21.9954C23.7687 30.7569 24.6554 29.9729 24.6554 28.4049C24.6554 27.1542 23.7874 26.5289 22.0514 26.5289C20.9874 26.5289 20.0447 26.6316 19.2234 26.8369C18.402 27.0236 17.6927 27.2476 17.0954 27.5089C16.5167 27.7516 16.05 27.9569 15.6954 28.1249V24.2049C16.2367 23.8502 17.0207 23.5049 18.0474 23.1689C19.074 22.8142 20.418 22.6369 22.0794 22.6369C24.1887 22.6369 25.7847 23.1036 26.8674 24.0369C27.9687 24.9516 28.5194 26.2489 28.5194 27.9289C28.5194 28.8996 28.3607 29.7022 28.0434 30.3369C27.7447 30.9529 27.362 31.4476 26.8954 31.8209C27.698 32.3249 28.314 32.9316 28.7434 33.6409C29.1727 34.3316 29.3874 35.2182 29.3874 36.3009C29.3874 37.7196 29.07 38.9329 28.4354 39.9409C27.8194 40.9302 26.942 41.6862 25.8034 42.2089C24.6834 42.7316 23.3674 42.9929 21.8554 42.9929ZM38.6171 42.9929C38.0197 42.9929 37.4504 42.9742 36.9091 42.9369C36.3864 42.8996 35.8917 42.8436 35.4251 42.7689L31.6171 41.4809L32.7371 37.5889L38.0571 39.1009C39.3824 39.1009 40.3157 38.8489 40.8571 38.3449C41.4171 37.8222 41.6971 37.1502 41.6971 36.3289C41.6971 35.7316 41.5197 35.2556 41.1651 34.9009C40.8291 34.5462 40.2597 34.3689 39.4571 34.3689H35.9011V30.7569H38.7571C40.5304 30.7569 41.4171 29.9729 41.4171 28.4049C41.4171 27.1542 40.5491 26.5289 38.8131 26.5289C37.7491 26.5289 36.8064 26.6316 35.9851 26.8369C35.1637 27.0236 34.4544 27.2476 33.8571 27.5089C33.2784 27.7516 32.8117 27.9569 32.4571 28.1249V24.2049C32.9984 23.8502 33.7824 23.5049 34.8091 23.1689C35.8357 22.8142 37.1797 22.6369 38.8411 22.6369C40.9504 22.6369 42.5464 23.1036 43.6291 24.0369C44.7304 24.9516 45.2811 26.2489 45.2811 27.9289C45.2811 28.8996 45.1224 29.7022 44.8051 30.3369C44.5064 30.9529 44.1237 31.4476 43.6571 31.8209C44.4597 32.3249 45.0757 32.9316 45.5051 33.6409C45.9344 34.3316 46.1491 35.2182 46.1491 36.3009C46.1491 37.7196 45.8317 38.9329 45.1971 39.9409C44.5811 40.9302 43.7037 41.6862 42.5651 42.2089C41.4451 42.7316 40.1291 42.9929 38.6171 42.9929Z" fill="#5884AD"/>
<path opacity="0.5" fill-rule="evenodd" clip-rule="evenodd" d="M13.484 1.94364C23.6391 -3.04454 34.0274 -2.68568 36.7007 2.75108C39.374 8.18784 33.2918 16.6211 23.1367 21.6093C12.9816 26.5974 2.59332 26.2386 -0.0800052 20.8018C-2.75333 15.3651 3.32893 6.93182 13.484 1.94364Z" fill="#FDFFF8"/>
</g>
</g>
<defs>
<filter id="filter0_i_3570_19601" x="0" y="0.666992" width="60" height="60" filterUnits="userSpaceOnUse" color-interpolation-filters="sRGB">
<feFlood flood-opacity="0" result="BackgroundImageFix"/>
<feBlend mode="normal" in="SourceGraphic" in2="BackgroundImageFix" result="shape"/>
<feColorMatrix in="SourceAlpha" type="matrix" values="0 0 0 0 0 0 0 0 0 0 0 0 0 0 0 0 0 0 127 0" result="hardAlpha"/>
<feOffset/>
<feGaussianBlur stdDeviation="5"/>
<feComposite in2="hardAlpha" operator="arithmetic" k2="-1" k3="1"/>
<feColorMatrix type="matrix" values="0 0 0 0 0 0 0 0 0 0 0 0 0 0 0 0 0 0 0.6 0"/>
<feBlend mode="normal" in2="shape" result="effect1_innerShadow_3570_19601"/>
</filter>
<clipPath id="clip0_3570_19601">
<rect y="0.666992" width="60" height="60" rx="30" fill="white"/>
</clipPath>
</defs>
</svg>
