<svg width="61" height="61" viewBox="0 0 61 61" fill="none" xmlns="http://www.w3.org/2000/svg">
<g filter="url(#filter0_i_3570_19952)">
<g clip-path="url(#clip0_3570_19952)">
<rect x="0.200195" y="0.666992" width="60" height="60" rx="30" fill="#82857D"/>
<path fill-rule="evenodd" clip-rule="evenodd" d="M17.4638 -2.99425C36.0515 -10.0279 56.8281 -0.661643 63.8613 17.9274C70.8945 36.5164 61.5289 57.2945 42.9412 64.3282C24.3535 71.3619 3.57686 61.9956 -3.45633 43.4066C-10.4895 24.8175 -1.12389 4.03945 17.4638 -2.99425Z" fill="#904D16"/>
<path fill-rule="evenodd" clip-rule="evenodd" d="M17.4646 -2.9948C35.7114 -9.90289 56.0753 -0.985174 63.4494 16.922C68.7243 34.8113 59.3766 54.0283 41.6501 60.7211C23.4033 67.6292 3.03937 58.7115 -4.33472 40.8043C-9.60961 22.915 -0.261909 3.69797 17.4646 -2.9948Z" fill="#DC8944"/>
<path fill-rule="evenodd" clip-rule="evenodd" d="M21.7378 6.95812C35.2839 1.82639 50.4268 8.66271 55.5402 22.2097C60.6715 35.7568 53.8357 50.9007 40.2896 56.0145C26.7436 61.1462 11.6007 54.3099 6.48729 40.7629C1.35593 27.2159 8.19176 12.0719 21.7378 6.95812Z" fill="#FDFFF8"/>
<path fill-rule="evenodd" clip-rule="evenodd" d="M31.0134 7.36621C40.7558 7.36621 49.924 13.3054 53.5842 22.9588C58.3029 35.4292 52.0232 49.3531 39.5537 54.0541C36.7368 55.1128 33.8482 55.6152 31.0134 55.6152V53.3364C33.5791 53.3364 36.1986 52.8878 38.7463 51.9189C50.0317 47.6485 55.7192 35.0345 51.4491 23.7662C48.1478 15.0279 39.8407 9.64498 31.0134 9.64498V7.36621ZM22.4731 8.92726C25.2899 7.86862 28.1786 7.36621 31.0134 7.36621V9.64498C28.4477 9.64498 25.8282 10.0936 23.2805 11.0625C11.9951 15.3329 6.30751 27.9469 10.5777 39.2152C13.879 47.9535 22.186 53.3364 31.0134 53.3364V55.6152C21.271 55.6152 12.1027 49.676 8.44258 40.0226C3.72389 27.5522 10.0035 13.6284 22.4731 8.92726Z" fill="#DC8944"/>
<path d="M23.0194 42.9929C21.47 42.9929 20.0514 42.6476 18.7634 41.9569C17.4754 41.2476 16.4487 40.1836 15.6834 38.7649C14.9367 37.3462 14.5634 35.5542 14.5634 33.3889C14.5634 31.5036 14.8247 29.8796 15.3474 28.5169C15.8887 27.1542 16.598 26.0436 17.4754 25.1849C18.3714 24.3076 19.3607 23.6636 20.4434 23.2529C21.5447 22.8236 22.6554 22.6089 23.7754 22.6089C24.7274 22.6089 25.4647 22.6836 25.9874 22.8329C26.5287 22.9822 27.0047 23.1502 27.4154 23.3369L29.9634 25.6329L28.0034 28.8249L23.7754 26.5009C22.954 26.5009 22.1794 26.7062 21.4514 27.1169C20.7234 27.5276 20.126 28.1156 19.6594 28.8809C19.1927 29.6462 18.9314 30.5796 18.8754 31.6809L23.2994 30.5609C24.606 30.5609 25.7914 30.7756 26.8554 31.2049C27.938 31.6156 28.806 32.2689 29.4594 33.1649C30.1127 34.0422 30.4394 35.1996 30.4394 36.6369C30.4394 38.5596 29.786 40.0996 28.4794 41.2569C27.1914 42.4142 25.3714 42.9929 23.0194 42.9929ZM23.2714 39.0449C24.2047 39.0449 24.9327 38.8209 25.4554 38.3729C25.9967 37.9249 26.2674 37.2902 26.2674 36.4689C26.2674 35.6849 25.9687 35.0876 25.3714 34.6769C24.774 34.2476 23.9994 34.0329 23.0474 34.0329C22.2447 34.0329 21.4887 34.1449 20.7794 34.3689C20.07 34.5929 19.5567 34.8262 19.2394 35.0689C19.2767 35.6662 19.4354 36.2729 19.7154 36.8889C20.014 37.5049 20.4527 38.0182 21.0314 38.4289C21.61 38.8396 22.3567 39.0449 23.2714 39.0449ZM32.5523 42.7129V39.6609C32.5523 39.6609 32.7669 39.5209 33.1963 39.2409C33.6256 38.9422 34.1763 38.5596 34.8483 38.0929C35.5203 37.6262 36.2109 37.1129 36.9203 36.5529C37.6483 35.9929 38.2923 35.4422 38.8523 34.9009C40.0656 33.7622 40.9709 32.7449 41.5683 31.8489C42.1656 30.9529 42.4643 29.9636 42.4643 28.8809C42.4643 28.1529 42.2309 27.5836 41.7643 27.1729C41.3163 26.7436 40.5696 26.5289 39.5243 26.5289C38.7403 26.5289 37.9469 26.6129 37.1443 26.7809C36.3416 26.9489 35.5949 27.1636 34.9043 27.4249C34.2136 27.6676 33.6256 27.9196 33.1403 28.1809V24.2609C33.3269 24.1676 33.7003 23.9996 34.2603 23.7569C34.8389 23.4956 35.5949 23.2529 36.5283 23.0289C37.4616 22.8049 38.5629 22.6929 39.8323 22.6929C42.2029 22.6929 43.9576 23.2062 45.0963 24.2329C46.2536 25.2409 46.8323 26.6782 46.8323 28.5449C46.8323 29.7022 46.5896 30.7756 46.1043 31.7649C45.6376 32.7542 45.0123 33.6596 44.2283 34.4809C43.4629 35.3022 42.6323 36.0489 41.7363 36.7209C40.8589 37.3929 40.0096 37.9902 39.1883 38.5129L39.3283 39.0729L46.8323 38.5129V42.7129H32.5523Z" fill="#DC8944"/>
<path opacity="0.5" fill-rule="evenodd" clip-rule="evenodd" d="M10.8418 0.883743C19.5159 -3.37699 28.3892 -3.07046 30.6727 1.57343C32.9562 6.21733 27.7609 13.4207 19.0868 17.6815C10.4127 21.9422 1.53933 21.6357 -0.744139 16.9918C-3.02761 12.3479 2.16766 5.14448 10.8418 0.883743Z" fill="#FDFFF8"/>
</g>
</g>
<defs>
<filter id="filter0_i_3570_19952" x="0.200195" y="0.666992" width="60" height="60" filterUnits="userSpaceOnUse" color-interpolation-filters="sRGB">
<feFlood flood-opacity="0" result="BackgroundImageFix"/>
<feBlend mode="normal" in="SourceGraphic" in2="BackgroundImageFix" result="shape"/>
<feColorMatrix in="SourceAlpha" type="matrix" values="0 0 0 0 0 0 0 0 0 0 0 0 0 0 0 0 0 0 127 0" result="hardAlpha"/>
<feOffset/>
<feGaussianBlur stdDeviation="5"/>
<feComposite in2="hardAlpha" operator="arithmetic" k2="-1" k3="1"/>
<feColorMatrix type="matrix" values="0 0 0 0 0 0 0 0 0 0 0 0 0 0 0 0 0 0 0.6 0"/>
<feBlend mode="normal" in2="shape" result="effect1_innerShadow_3570_19952"/>
</filter>
<clipPath id="clip0_3570_19952">
<rect x="0.200195" y="0.666992" width="60" height="60" rx="30" fill="white"/>
</clipPath>
</defs>
</svg>
